<svg width="24" height="25" viewBox="0 0 24 25" fill="none" xmlns="http://www.w3.org/2000/svg">
<mask id="path-1-outside-1_1013_33790" maskUnits="userSpaceOnUse" x="3.2168" y="6" width="18" height="12" fill="black">
<rect fill="white" x="3.2168" y="6" width="18" height="12"/>
<path fill-rule="evenodd" clip-rule="evenodd" d="M12.5233 8.50113L11.9932 8L4.37172 15.2045C4.16516 15.3998 4.16516 15.7164 4.37172 15.9116C4.57828 16.1069 4.91318 16.1069 5.11975 15.9116L11.9951 9.41238L18.883 15.9235C19.0896 16.1187 19.4245 16.1187 19.631 15.9235C19.8376 15.7282 19.8376 15.4116 19.631 15.2164L12.5252 8.4993L12.5233 8.50113Z"/>
</mask>
<path fill-rule="evenodd" clip-rule="evenodd" d="M12.5233 8.50113L11.9932 8L4.37172 15.2045C4.16516 15.3998 4.16516 15.7164 4.37172 15.9116C4.57828 16.1069 4.91318 16.1069 5.11975 15.9116L11.9951 9.41238L18.883 15.9235C19.0896 16.1187 19.4245 16.1187 19.631 15.9235C19.8376 15.7282 19.8376 15.4116 19.631 15.2164L12.5252 8.4993L12.5233 8.50113Z" fill="#282828"/>
<path d="M11.9932 8L12.6801 7.2733L11.9932 6.62393L11.3062 7.2733L11.9932 8ZM12.5233 8.50113L11.8364 9.22783L12.5233 9.87723L13.2103 9.22781L12.5233 8.50113ZM4.37172 15.2045L3.68477 14.4778L3.68477 14.4778L4.37172 15.2045ZM4.37172 15.9116L3.68477 16.6383L3.68477 16.6383L4.37172 15.9116ZM5.11975 15.9116L5.8067 16.6383L5.8067 16.6383L5.11975 15.9116ZM11.9951 9.41238L12.6821 8.68568L11.9951 8.03631L11.3082 8.68567L11.9951 9.41238ZM18.883 15.9235L19.57 15.1968L19.57 15.1968L18.883 15.9235ZM19.631 15.9235L18.9441 15.1968L18.9441 15.1968L19.631 15.9235ZM19.631 15.2164L20.318 14.4897L20.318 14.4897L19.631 15.2164ZM12.5252 8.4993L13.2122 7.77259L12.5252 7.1232L11.8383 7.77262L12.5252 8.4993ZM11.3062 8.72671L11.8364 9.22783L13.2103 7.77442L12.6801 7.2733L11.3062 8.72671ZM5.05867 15.9312L12.6801 8.72671L11.3062 7.2733L3.68477 14.4778L5.05867 15.9312ZM5.05867 15.1849C5.26951 15.3842 5.26951 15.7319 5.05867 15.9312L3.68477 14.4778C3.06081 15.0676 3.06081 16.0485 3.68477 16.6383L5.05867 15.1849ZM4.4328 15.1849C4.61172 15.0158 4.87975 15.0158 5.05867 15.1849L3.68477 16.6383C4.27681 17.198 5.21465 17.198 5.8067 16.6383L4.4328 15.1849ZM11.3082 8.68567L4.4328 15.1849L5.8067 16.6383L12.6821 10.1391L11.3082 8.68567ZM11.3082 10.1391L18.1961 16.6502L19.57 15.1968L12.6821 8.68568L11.3082 10.1391ZM18.1961 16.6502C18.7881 17.2098 19.7259 17.2098 20.318 16.6502L18.9441 15.1968C19.123 15.0276 19.391 15.0276 19.57 15.1968L18.1961 16.6502ZM20.318 16.6502C20.942 16.0603 20.942 15.0795 20.318 14.4897L18.9441 15.9431C18.7333 15.7438 18.7333 15.3961 18.9441 15.1968L20.318 16.6502ZM20.318 14.4897L13.2122 7.77259L11.8383 9.226L18.9441 15.9431L20.318 14.4897ZM11.8383 7.77262L11.8363 7.77445L13.2103 9.22781L13.2122 9.22597L11.8383 7.77262Z" fill="#282828" mask="url(#path-1-outside-1_1013_33790)"/>
</svg>
