<svg width="24" height="24" viewBox="0 0 24 24" fill="none" xmlns="http://www.w3.org/2000/svg">
<rect x="4.28564" y="8.14258" width="15.4286" height="1.28571" rx="0.642857" fill="#3D4548"/>
<path d="M16.6428 8.78551C16.6428 9.57448 16.0032 10.2141 15.2142 10.2141C14.4252 10.2141 13.7856 9.57448 13.7856 8.78551C13.7856 7.99653 14.4252 7.35693 15.2142 7.35693C16.0032 7.35693 16.6428 7.99653 16.6428 8.78551Z" fill="white" stroke="#3D4548"/>
<rect x="4.28564" y="15.8569" width="15.4286" height="1.28572" rx="0.642858" fill="#3D4548"/>
<circle cx="15.2142" cy="16.4999" r="1.42857" fill="white" stroke="#3D4548"/>
<rect width="15.4286" height="1.28571" rx="0.642857" transform="matrix(-1 0 0 1 19.7144 11.9995)" fill="#3D4548"/>
<path d="M7.35721 12.6424C7.35721 13.4314 7.99681 14.071 8.78578 14.071C9.57476 14.071 10.2144 13.4314 10.2144 12.6424C10.2144 11.8535 9.57476 11.2139 8.78578 11.2139C7.99681 11.2139 7.35721 11.8535 7.35721 12.6424Z" fill="white" stroke="#3D4548"/>
</svg>
