<svg width="61" height="61" viewBox="0 0 61 61" fill="none" xmlns="http://www.w3.org/2000/svg">
<circle cx="30.5" cy="30.5" r="30.5" fill="#499647"/>
<path d="M29.2067 48.482L29.2294 47.9825L29.2067 48.482ZM17.5222 43.27L17.1657 43.6206L17.5222 43.27ZM12.5071 31.4996L12.0073 31.5139L12.5071 31.4996ZM44.2247 40.5803C44.2832 40.8502 44.5494 41.0216 44.8192 40.9632L49.2173 40.0106C49.4871 39.9521 49.6585 39.686 49.6001 39.4161C49.5416 39.1462 49.2755 38.9748 49.0056 39.0333L45.0962 39.88L44.2495 35.9706C44.191 35.7007 43.9249 35.5293 43.655 35.5878C43.3851 35.6463 43.2137 35.9124 43.2722 36.1823L44.2247 40.5803ZM40.992 43.9683C37.7184 46.743 33.5164 48.177 29.2294 47.9825L29.1841 48.9815C33.7232 49.1875 38.1724 47.6691 41.6386 44.7311L40.992 43.9683ZM29.2294 47.9825C24.9424 47.788 20.8876 45.9793 17.8787 42.9194L17.1657 43.6206C20.3516 46.8604 24.6449 48.7755 29.1841 48.9815L29.2294 47.9825ZM17.8787 42.9194C14.8698 39.8596 13.1294 35.775 13.0069 31.4853L12.0073 31.5139C12.1371 36.0558 13.9798 40.3807 17.1657 43.6206L17.8787 42.9194ZM13.0069 31.4853C12.8844 27.1956 14.3888 23.0184 17.2182 19.7918L16.4663 19.1325C13.4705 22.5488 11.8776 26.9719 12.0073 31.5139L13.0069 31.4853ZM17.2182 19.7918C20.0475 16.5652 23.9925 14.528 28.2614 14.0891L28.1591 13.0944C23.6391 13.5591 19.4621 15.7161 16.4663 19.1325L17.2182 19.7918ZM28.2614 14.0891C32.5303 13.6502 36.8073 14.8421 40.234 17.4255L40.836 16.627C37.2077 13.8916 32.6792 12.6297 28.1591 13.0944L28.2614 14.0891ZM40.234 17.4255C43.6606 20.0089 45.9835 23.7927 46.7364 28.0176L47.7208 27.8422C46.9237 23.3688 44.4642 19.3624 40.836 16.627L40.234 17.4255ZM46.7364 28.0176C47.4892 32.2425 46.6164 36.5957 44.293 40.2038L45.1338 40.7452C47.5938 36.9249 48.518 32.3155 47.7208 27.8422L46.7364 28.0176Z" fill="white"/>
<path fill-rule="evenodd" clip-rule="evenodd" d="M27.537 20H27.1126L27.0437 20.4188L26.5912 23.1685L25.0302 23.9592L22.2672 23.0263L21.8703 22.8923L21.6688 23.2596L19.2008 27.7596L19 28.1256L19.3244 28.3885L21.6072 30.2384V31.8264L19.7404 34.1901L19.5324 34.4534L19.6973 34.7457L21.6718 38.2457L21.8751 38.6061L22.2672 38.4737L25.0302 37.5408L26.5 38.2853V41V41.5H27H33H33.5V41V38.2904L34.98 37.5408L37.743 38.4737L38.1351 38.6061L38.3384 38.2457L40.3129 34.7457L40.4778 34.4534L40.2698 34.1901L38.403 31.8264V30.2384L40.6858 28.3885L41.0102 28.1256L40.8094 27.7596L38.3414 23.2596L38.1399 22.8923L37.743 23.0263L34.98 23.9592L33.419 23.1685L32.9665 20.4188L32.8976 20H32.4732H31.9796H28.0306H27.537ZM26.5 36.4293V37.1643L25.2949 36.5539L25.1077 36.4592L24.909 36.5263L22.3394 37.3939L20.7331 34.5466L22.4996 32.3099L22.6072 32.1736V32V30V29.7616L22.422 29.6115L20.2783 27.8744L22.3442 24.1077L24.909 24.9737L25.1077 25.0408L25.2949 24.9461L27.2693 23.9461L27.4956 23.8315L27.5368 23.5812L27.9615 21H28.0306H31.9796H32.0487L32.4734 23.5812L32.5146 23.8315L32.7409 23.9461L34.7154 24.9461L34.9025 25.0408L35.1012 24.9737L37.666 24.1077L39.7319 27.8744L37.5882 29.6115L37.403 29.7616V30V32V32.1736L37.5106 32.3099L39.2771 34.5466L37.6708 37.3939L35.1012 36.5263L34.9025 36.4592L34.7154 36.5539L33.5 37.1695V36.4293C33.5954 36.3608 33.689 36.2893 33.7807 36.2149C34.8586 35.3402 35.5998 34.1189 35.8782 32.7589C36.1565 31.399 35.9547 29.9846 35.3071 28.7568C34.8375 27.8664 34.1545 27.1141 33.3267 26.5626C33.0129 26.3535 32.6783 26.1733 32.3267 26.0254L32.3267 27.1302V30.7656L30 31.5559L27.7345 30.7656L27.7346 27.0986L27.7346 26C27.3835 26.1432 27.0489 26.3184 26.7346 26.5223C25.898 27.065 25.2047 27.8112 24.7242 28.6983C24.0631 29.9189 23.8456 31.331 24.1089 32.6939C24.3722 34.0569 25.0999 35.2863 26.1681 36.1729C26.276 36.2624 26.3867 36.3479 26.5 36.4293ZM27.5 37.0103V40.5H32.5V37.0103C31.7108 37.372 30.847 37.5607 29.9669 37.5558C29.1092 37.5511 28.2689 37.3627 27.5 37.0103ZM33.3267 30.7656V27.8232C33.7695 28.2178 34.1418 28.6909 34.4226 29.2233C34.9622 30.2465 35.1304 31.4251 34.8985 32.5584C34.6665 33.6917 34.0488 34.7095 33.1506 35.4384C32.2523 36.1673 31.1292 36.5622 29.9724 36.5558C28.8156 36.5494 27.6969 36.1422 26.8067 35.4034C25.9166 34.6646 25.3102 33.64 25.0908 32.5043C24.8714 31.3685 25.0526 30.1918 25.6035 29.1746C25.8944 28.6376 26.2788 28.1626 26.7346 27.7695L26.7345 30.7656L26.7345 31.4758L27.4052 31.7098L29.6706 32.5001L29.9957 32.6135L30.3216 32.5028L32.6483 31.7124L33.3267 31.482V30.7656Z" fill="white"/>
</svg>
