<svg width="61" height="61" viewBox="0 0 61 61" fill="none" xmlns="http://www.w3.org/2000/svg">
<circle cx="30.5" cy="30.5" r="30.5" fill="#499647"/>
<path d="M30.7933 13.518L30.7706 14.0175L30.7933 13.518ZM42.4778 18.73L42.8343 18.3794L42.4778 18.73ZM47.4929 30.5004L47.9927 30.4861L47.4929 30.5004ZM15.7753 21.4197C15.7168 21.1498 15.4506 20.9784 15.1808 21.0368L10.7827 21.9894C10.5129 22.0479 10.3415 22.314 10.3999 22.5839C10.4584 22.8538 10.7245 23.0252 10.9944 22.9667L14.9038 22.12L15.7505 26.0294C15.809 26.2993 16.0751 26.4707 16.345 26.4122C16.6149 26.3537 16.7863 26.0876 16.7278 25.8177L15.7753 21.4197ZM19.008 18.0317C22.2816 15.257 26.4836 13.823 30.7706 14.0175L30.8159 13.0185C26.2768 12.8125 21.8276 14.3309 18.3614 17.2689L19.008 18.0317ZM30.7706 14.0175C35.0576 14.212 39.1124 16.0207 42.1213 19.0806L42.8343 18.3794C39.6484 15.1396 35.3551 13.2245 30.8159 13.0185L30.7706 14.0175ZM42.1213 19.0806C45.1302 22.1404 46.8706 26.225 46.9931 30.5147L47.9927 30.4861C47.8629 25.9442 46.0202 21.6193 42.8343 18.3794L42.1213 19.0806ZM46.9931 30.5147C47.1156 34.8044 45.6112 38.9816 42.7818 42.2082L43.5337 42.8675C46.5295 39.4512 48.1224 35.0281 47.9927 30.4861L46.9931 30.5147ZM42.7818 42.2082C39.9525 45.4348 36.0075 47.472 31.7386 47.9109L31.8409 48.9056C36.3609 48.4409 40.5379 46.2839 43.5337 42.8675L42.7818 42.2082ZM31.7386 47.9109C27.4697 48.3498 23.1927 47.1579 19.766 44.5745L19.164 45.373C22.7923 48.1084 27.3208 49.3703 31.8409 48.9056L31.7386 47.9109ZM19.766 44.5745C16.3394 41.9911 14.0165 38.2073 13.2636 33.9824L12.2792 34.1578C13.0763 38.6312 15.5358 42.6376 19.164 45.373L19.766 44.5745ZM13.2636 33.9824C12.5108 29.7575 13.3836 25.4043 15.707 21.7962L14.8662 21.2548C12.4062 25.0751 11.482 29.6845 12.2792 34.1578L13.2636 33.9824Z" fill="white"/>
<path fill-rule="evenodd" clip-rule="evenodd" d="M37.971 21.387L37.8246 21.2406L37.6175 21.2406L35.4276 21.2406H35.2205L35.074 21.387L30.8406 25.6204H29.1707L28.9636 25.6204L28.8171 25.7669L27.4875 27.0965L27.134 27.45L27.4875 27.8036L28.972 29.288L24.3659 33.8941L23.1421 33.8552L22.8824 33.847L22.7264 34.0547L20.7326 36.7089L20.472 37.0559L20.7789 37.3627L23.0079 39.5918L23.3042 39.888L23.6477 39.6481L26.3845 37.7369L26.6066 37.5818L26.5979 37.3111L26.559 36.0873L31.1651 31.4812L32.5713 32.8873L32.9248 33.2408L33.2784 32.8873L34.6079 31.5577L34.7544 31.4113V31.2041V29.5342L38.9878 25.3008L39.1342 25.1544L39.1342 24.9473L39.1342 22.7573L39.1342 22.5502L38.9878 22.4038L37.971 21.387ZM29.6791 29.9952L30.458 30.7741L25.6988 35.5332L25.5458 35.6863L25.5526 35.9027L25.5898 37.0721L23.4187 38.5884L21.7928 36.9625L23.3699 34.863L24.5505 34.9005L24.7669 34.9074L24.9199 34.7543L29.6791 29.9952ZM31.8722 30.7741L32.9248 31.8266L33.7544 30.997V29.3271L33.7544 29.12L33.9008 28.9735L38.1342 24.7401L38.1342 22.9644L37.4104 22.2406L35.6347 22.2406L31.4013 26.474L31.2548 26.6204L31.0477 26.6204H29.3778L28.5482 27.45L29.6791 28.5809L29.6792 28.5809L30.0327 28.9345L31.5187 30.4205L31.8723 30.774L31.8722 30.7741ZM32.962 25.6891L35.6212 23.0299L36.3283 23.737L33.6691 26.3962L32.962 25.6891ZM36.7164 24.1249L34.0572 26.7841L34.7643 27.4912L37.4235 24.832L36.7164 24.1249Z" fill="white"/>
</svg>
