<svg width="61" height="61" viewBox="0 0 61 61" fill="none" xmlns="http://www.w3.org/2000/svg">
<circle cx="30.5" cy="30.5" r="30.5" fill="#499647"/>
<path d="M47.4125 27.4696C48.0324 31.1652 47.4496 34.9621 45.75 38.3017C44.0504 41.6413 41.3237 44.3471 37.9712 46.0211C34.6187 47.695 30.8174 48.2486 27.1267 47.6005C23.4359 46.9523 20.0507 45.1366 17.4692 42.4206C14.8876 39.7045 13.246 36.2315 12.786 32.5127C12.326 28.7938 13.0718 25.0255 14.9137 21.7623C16.7556 18.499 19.5963 15.9132 23.0178 14.3852C26.4394 12.8572 30.261 12.4679 33.9203 13.2745" stroke="white" stroke-linecap="square" stroke-linejoin="round"/>
<path opacity="0.7" d="M40.857 27.9869C41.3659 30.2867 41.1232 32.689 40.1646 34.8405C39.2059 36.992 37.582 38.7789 35.5318 39.9384C33.4816 41.0979 31.1133 41.5687 28.7755 41.2815C26.4377 40.9943 24.2538 39.9642 22.5452 38.343C20.8366 36.7217 19.6936 34.5948 19.2842 32.2753C18.8749 29.9557 19.2209 27.566 20.2713 25.4579C21.3217 23.3497 23.0211 21.6344 25.1194 20.5643C27.2177 19.4942 29.604 19.1259 31.9273 19.5136" stroke="white" stroke-linecap="square" stroke-linejoin="round"/>
<path fill-rule="evenodd" clip-rule="evenodd" d="M41.7441 13L40.8535 13.706V18.8004L38.5955 21.0584V16.1488L37.7044 16.823L37.7049 21.949L31.3041 28.3498C30.9449 28.1012 30.5089 27.9556 30.039 27.9556C28.8093 27.9556 27.8125 28.9525 27.8125 30.1821C27.8125 31.4118 28.8093 32.4086 30.039 32.4086C31.2686 32.4086 32.2655 31.4118 32.2655 30.1821C32.2655 29.7445 32.1392 29.3364 31.9212 28.9922L38.3369 22.5765L43.3988 22.5765L44.1328 21.6859H39.2275L41.4853 19.4281L46.5159 19.4281L47.2812 18.5375H41.7441V13Z" fill="white"/>
<path opacity="0.6" d="M35.569 28.5709C35.8875 29.8115 35.7827 31.123 35.2712 32.2972C34.7597 33.4715 33.8707 34.4413 32.7454 35.0529C31.62 35.6646 30.3227 35.8829 29.0591 35.6734C27.7955 35.4639 26.6381 34.8385 25.7703 33.8964C24.9026 32.9543 24.3742 31.7494 24.2691 30.4729C24.1639 29.1964 24.488 27.9214 25.1898 26.85C25.8917 25.7786 26.9312 24.9722 28.1435 24.5587C29.3557 24.1452 30.6713 24.1483 31.8816 24.5676" stroke="white" stroke-width="0.5" stroke-dasharray="3 3"/>
</svg>
