<svg width="61" height="61" viewBox="0 0 61 61" fill="none" xmlns="http://www.w3.org/2000/svg">
<circle cx="30.5" cy="30.5" r="30.5" fill="#499647"/>
<path d="M37.6468 45.7409C33.9281 47.5474 29.6899 47.979 25.6834 46.9593C21.6768 45.9395 18.1607 43.5342 15.7582 40.1696C13.3557 36.805 12.2219 32.6985 12.5579 28.5779C12.8938 24.4573 14.6778 20.5887 17.5936 17.6577C20.5094 14.7268 24.3687 12.9228 28.4875 12.5655C32.6063 12.2082 36.7187 13.3206 40.0956 15.7057C43.4726 18.0907 45.8961 21.5943 46.9367 25.5955C47.9772 29.5967 47.5676 33.8371 45.7803 37.5651" stroke="white"/>
<circle opacity="0.7" cx="30" cy="30" r="11.5" transform="rotate(90 30 30)" stroke="white"/>
<circle opacity="0.7" cx="30" cy="30" r="6.5" transform="rotate(90 30 30)" stroke="white" stroke-dasharray="2 2"/>
<path d="M40.085 38.9502V47.0498H38.9736V40.874C38.804 41.0206 38.6047 41.1688 38.3721 41.3145L38.0869 41.4834C37.7905 41.6526 37.5159 41.7912 37.2627 41.8975L37.0166 41.9932L36.9502 42.0166V40.9678L36.9795 40.9541L37.3877 40.7529C37.7823 40.5412 38.1366 40.2992 38.4512 40.0273C38.8717 39.664 39.1667 39.314 39.3389 38.9775L39.3525 38.9502H40.085ZM46.9375 38.9824V44.1455H48.0498V45.1426H46.9375V47.0498H45.8252V45.1426H42.25V44.1797L42.2598 44.166L46.0205 39.0029L46.0352 38.9824H46.9375ZM43.3926 44.1455H45.8252V40.7588L43.3926 44.1455Z" fill="white" stroke="white" stroke-width="0.1"/>
<circle cx="30" cy="30" r="2" fill="white"/>
</svg>
