<svg width="61" height="61" viewBox="0 0 61 61" fill="none" xmlns="http://www.w3.org/2000/svg">
<circle cx="30.5" cy="30.5" r="30.5" fill="#499647"/>
<circle cx="30" cy="32" r="13" fill="white" fill-opacity="0.3"/>
<path d="M23 37.5187L24.2029 37.3745C24.341 37.9873 24.5749 38.4299 24.9045 38.7023C25.2387 38.9706 25.6441 39.1048 26.1208 39.1048C26.6866 39.1048 27.1632 38.9286 27.5508 38.5761C27.9429 38.2236 28.1389 37.787 28.1389 37.2664C28.1389 36.7697 27.9585 36.3611 27.5976 36.0407C27.2368 35.7163 26.7779 35.5541 26.221 35.5541C25.9938 35.5541 25.7109 35.5941 25.3723 35.6742L25.506 34.725C25.5862 34.733 25.6508 34.737 25.6998 34.737C26.2121 34.737 26.6732 34.6168 27.0831 34.3765C27.4929 34.1362 27.6979 33.7657 27.6979 33.265C27.6979 32.8685 27.5486 32.5401 27.2501 32.2797C26.9516 32.0194 26.5663 31.8892 26.094 31.8892C25.6263 31.8892 25.2364 32.0214 24.9246 32.2857C24.6127 32.5501 24.4123 32.9466 24.3232 33.4753L23.1203 33.283C23.2673 32.5581 23.6014 31.9973 24.1227 31.6008C24.6439 31.2003 25.2921 31 26.0673 31C26.6019 31 27.0942 31.1041 27.5442 31.3124C27.9941 31.5167 28.3372 31.7971 28.5733 32.1535C28.8138 32.51 28.9341 32.8885 28.9341 33.2891C28.9341 33.6696 28.8205 34.016 28.5933 34.3284C28.3661 34.6409 28.0298 34.8892 27.5842 35.0734C28.1634 35.1936 28.6134 35.4439 28.9341 35.8244C29.2549 36.2009 29.4153 36.6736 29.4153 37.2423C29.4153 38.0113 29.1034 38.6642 28.4797 39.2009C27.856 39.7336 27.0675 40 26.1141 40C25.2543 40 24.5392 39.7697 23.969 39.3091C23.4032 38.8485 23.0802 38.2517 23 37.5187Z" fill="white"/>
<path d="M30.6115 35.5C30.6115 34.4586 30.7295 33.6215 30.9656 32.9887C31.2062 32.3518 31.5604 31.8611 32.0282 31.5167C32.5004 31.1722 33.0929 31 33.8057 31C34.3314 31 34.7925 31.0961 35.189 31.2884C35.5855 31.4766 35.913 31.751 36.1714 32.1115C36.4298 32.468 36.6325 32.9045 36.7795 33.4212C36.9265 33.9339 37 34.6268 37 35.5C37 36.5334 36.8819 37.3685 36.6458 38.0053C36.4097 38.6382 36.0555 39.1288 35.5833 39.4773C35.1155 39.8218 34.523 39.994 33.8057 39.994C32.8613 39.994 32.1195 39.6896 31.5804 39.0808C30.9344 38.3478 30.6115 37.1542 30.6115 35.5ZM31.8477 35.5C31.8477 36.9459 32.0348 37.9092 32.4091 38.3899C32.7877 38.8665 33.2533 39.1048 33.8057 39.1048C34.3582 39.1048 34.8215 38.8645 35.1957 38.3838C35.5744 37.9032 35.7637 36.9419 35.7637 35.5C35.7637 34.0501 35.5744 33.0868 35.1957 32.6101C34.8215 32.1335 34.3537 31.8952 33.7924 31.8952C33.2399 31.8952 32.7989 32.1055 32.4692 32.526C32.0549 33.0628 31.8477 34.0541 31.8477 35.5Z" fill="white"/>
<path d="M26 27.0649H28.309V27.4676H27.394V29.9351H26.9151V27.4676H26V27.0649Z" fill="white"/>
<path d="M28.5258 28.5C28.5258 27.9685 28.672 27.5748 28.9645 27.3189C29.2089 27.1063 29.5068 27 29.8582 27C30.2488 27 30.5681 27.1297 30.8161 27.3892C31.064 27.6468 31.188 28.0036 31.188 28.4595C31.188 28.8288 31.1327 29.1198 31.0221 29.3324C30.9133 29.5432 30.7536 29.7072 30.5431 29.8243C30.3344 29.9414 30.1061 30 29.8582 30C29.4604 30 29.1385 29.8712 28.8923 29.6135C28.6479 29.3559 28.5258 28.9847 28.5258 28.5ZM29.0207 28.5C29.0207 28.8676 29.1001 29.1432 29.2589 29.327C29.4176 29.509 29.6174 29.6 29.8582 29.6C30.0972 29.6 30.2961 29.5081 30.4548 29.3243C30.6136 29.1405 30.693 28.8604 30.693 28.4838C30.693 28.1288 30.6127 27.8604 30.4522 27.6784C30.2934 27.4946 30.0954 27.4027 29.8582 27.4027C29.6174 27.4027 29.4176 27.4937 29.2589 27.6757C29.1001 27.8577 29.0207 28.1324 29.0207 28.5Z" fill="white"/>
<path d="M31.7579 27.0649H34V29.9351H33.5184V27.4676H32.2395V29.9351H31.7579V27.0649Z" fill="white"/>
<path fill-rule="evenodd" clip-rule="evenodd" d="M15.3814 12H16.1904H25.7115H26.0083L26.1505 12.2606L29.5309 18.4579C29.6867 18.4531 29.843 18.4507 30 18.4507C30.2499 18.4507 30.4984 18.4568 30.7453 18.4689L34.1317 12.2606L34.2738 12H34.5707H44.0918H44.9008L44.539 12.7236L39.8374 22.1268C43.0004 24.8769 45 28.9303 45 33.4507C45 41.735 38.2843 48.4507 30 48.4507C21.7157 48.4507 15 41.735 15 33.4507C15 28.8368 17.0832 24.7094 20.3603 21.9578L15.7432 12.7236L15.3814 12ZM39.0421 21.4814L43.2828 13H34.8675L31.8338 18.5617C34.5203 18.8892 36.9876 19.9269 39.0421 21.4814ZM25.4147 13L28.432 18.5317C25.732 18.8122 23.2448 19.8088 21.1636 21.3284L16.9994 13H25.4147ZM30 47.4507C37.732 47.4507 44 41.1827 44 33.4507C44 25.7187 37.732 19.4507 30 19.4507C22.268 19.4507 16 25.7187 16 33.4507C16 41.1827 22.268 47.4507 30 47.4507Z" fill="white"/>
</svg>
