<svg width="61" height="61" viewBox="0 0 61 61" fill="none" xmlns="http://www.w3.org/2000/svg">
<circle cx="30.5" cy="30.5" r="30.5" fill="#499647"/>
<path d="M25.0164 31.678V34.6248H34.2456V37.4488H25.0164V45H21.0464V37.4488H19V34.6248H21.0464V31.678H19V28.2401H21.0464V15H30.4393C33.1269 15 35.1596 15.2729 36.5375 15.8186C37.9291 16.3506 39.0409 17.2988 39.8731 18.663C40.7053 20.0273 41.1214 21.5348 41.1214 23.1855C41.1214 24.8499 40.8145 26.2278 40.2005 27.3192C39.5866 28.4106 38.7681 29.2838 37.7449 29.9386C36.7353 30.5798 35.5689 31.03 34.2456 31.2892C32.9359 31.5484 31.5784 31.678 30.1733 31.678H25.0164ZM30.1733 28.2401C31.0873 28.2401 31.9604 28.1719 32.7926 28.0355C33.6248 27.8854 34.3547 27.6194 34.9823 27.2374C35.6098 26.8554 36.1078 26.3438 36.4761 25.7026C36.8445 25.0477 37.0286 24.2087 37.0286 23.1855C37.0286 22.2988 36.8581 21.5484 36.5171 20.9345C36.1896 20.3206 35.7326 19.8226 35.146 19.4407C34.573 19.045 33.8977 18.7585 33.1201 18.5812C32.3424 18.4038 31.5034 18.3151 30.603 18.3151H25.0164V28.2401H30.1733Z" stroke="white"/>
</svg>
