<svg width="61" height="61" viewBox="0 0 61 61" fill="none" xmlns="http://www.w3.org/2000/svg">
<circle cx="30.5" cy="30.5" r="30.5" fill="#499647"/>
<path d="M47.482 31.7933L46.9825 31.7706L47.482 31.7933ZM42.27 43.4778L42.6206 43.8343L42.27 43.4778ZM30.4996 48.4929L30.5139 48.9927L30.4996 48.4929ZM39.5803 16.7753C39.8502 16.7168 40.0216 16.4506 39.9632 16.1808L39.0106 11.7827C38.9521 11.5129 38.686 11.3415 38.4161 11.3999C38.1462 11.4584 37.9748 11.7245 38.0333 11.9944L38.88 15.9038L34.9706 16.7505C34.7007 16.809 34.5293 17.0751 34.5878 17.345C34.6463 17.6149 34.9124 17.7863 35.1823 17.7278L39.5803 16.7753ZM42.9683 20.008C45.743 23.2816 47.177 27.4836 46.9825 31.7706L47.9815 31.8159C48.1875 27.2768 46.6691 22.8276 43.7311 19.3614L42.9683 20.008ZM46.9825 31.7706C46.788 36.0576 44.9793 40.1124 41.9194 43.1213L42.6206 43.8343C45.8604 40.6484 47.7755 36.3551 47.9815 31.8159L46.9825 31.7706ZM41.9194 43.1213C38.8596 46.1302 34.775 47.8706 30.4853 47.9931L30.5139 48.9927C35.0558 48.8629 39.3807 47.0202 42.6206 43.8343L41.9194 43.1213ZM30.4853 47.9931C26.1956 48.1156 22.0184 46.6112 18.7918 43.7818L18.1325 44.5337C21.5488 47.5295 25.9719 49.1224 30.5139 48.9927L30.4853 47.9931ZM18.7918 43.7818C15.5652 40.9525 13.528 37.0075 13.0891 32.7386L12.0944 32.8409C12.5591 37.3609 14.7161 41.5379 18.1325 44.5337L18.7918 43.7818ZM13.0891 32.7386C12.6502 28.4697 13.8421 24.1927 16.4255 20.766L15.627 20.164C12.8916 23.7923 11.6297 28.3208 12.0944 32.8409L13.0891 32.7386ZM16.4255 20.766C19.0089 17.3394 22.7927 15.0165 27.0176 14.2636L26.8422 13.2792C22.3688 14.0763 18.3624 16.5358 15.627 20.164L16.4255 20.766ZM27.0176 14.2636C31.2425 13.5108 35.5957 14.3836 39.2038 16.707L39.7452 15.8662C35.9249 13.4062 31.3155 12.482 26.8422 13.2792L27.0176 14.2636Z" fill="white"/>
<path fill-rule="evenodd" clip-rule="evenodd" d="M26.5508 19H26.0508V19.5V22.2806L23.3705 23.1053L23.0176 23.2139V23.5832V29.7662H24.0176V23.9524L26.0508 23.3268V29.7662H27.0508V22.6499V21.9729V20H29.9331H29.934H32.8163V21.9729V22.6499V29.7662H33.8163V23.3268L35.8495 23.9524V29.7662H36.8495V23.5832V23.2139L36.4966 23.1053L33.8163 22.2806V19.5V19H33.3163H29.934H29.9331H26.5508Z" fill="white"/>
<path d="M18.2695 29.8828H41.6019" stroke="white"/>
<path d="M28.7676 29.8821V27.5488H31.1008V29.8821" stroke="white"/>
<path d="M28.7676 25.6836H31.1008" stroke="white"/>
<path d="M28.7676 23.8164H31.1008" stroke="white"/>
<path d="M28.7676 21.9492H31.1008" stroke="white"/>
<path d="M24.5684 24.75H25.5075" stroke="white"/>
<path d="M34.4902 24.75H35.4293" stroke="white"/>
<path d="M24.5684 26.8496H25.5075" stroke="white"/>
<path d="M34.4902 26.8496H35.4293" stroke="white"/>
<mask id="path-13-inside-1_1013_54281" fill="white">
<path d="M24.3346 29.7649C24.3346 30.485 24.4764 31.198 24.752 31.8632C25.0275 32.5285 25.4314 33.1329 25.9405 33.6421C26.4497 34.1512 27.0541 34.5551 27.7194 34.8307C28.3846 35.1062 29.0976 35.248 29.8177 35.248C30.5377 35.248 31.2507 35.1062 31.916 34.8307C32.5812 34.5551 33.1857 34.1512 33.6948 33.6421C34.204 33.1329 34.6079 32.5285 34.8834 31.8632C35.159 31.198 35.3008 30.485 35.3008 29.7649L29.8177 29.7649L24.3346 29.7649Z"/>
</mask>
<path d="M24.3346 29.7649C24.3346 30.485 24.4764 31.198 24.752 31.8632C25.0275 32.5285 25.4314 33.1329 25.9405 33.6421C26.4497 34.1512 27.0541 34.5551 27.7194 34.8307C28.3846 35.1062 29.0976 35.248 29.8177 35.248C30.5377 35.248 31.2507 35.1062 31.916 34.8307C32.5812 34.5551 33.1857 34.1512 33.6948 33.6421C34.204 33.1329 34.6079 32.5285 34.8834 31.8632C35.159 31.198 35.3008 30.485 35.3008 29.7649L29.8177 29.7649L24.3346 29.7649Z" stroke="white" stroke-width="2" mask="url(#path-13-inside-1_1013_54281)"/>
<path fill-rule="evenodd" clip-rule="evenodd" d="M18 29.4104L18.0005 32.1108L18.0006 32.6107H18.5005H19.353L20.587 35.1737L19.6472 36.2075L19.3206 36.5667L19.6701 36.9037L22.9366 40.0536L23.2719 40.3769L23.6182 40.0653L24.5484 39.2281L26.9835 40.2584V41.5603V42.0603H27.4835H29.9334V41.0603H27.9835V39.927V39.5956L27.6783 39.4665L24.6451 38.1832L24.3522 38.0593L24.1158 38.2721L23.2954 39.0104L20.7137 36.5209L21.5537 35.5969L21.7805 35.3474L21.6343 35.0436L20.1177 31.8937L19.9814 31.6107H19.6672H19.0004L19 29.4102L18 29.4104ZM41.8667 29.4114V32.1107V32.6107H41.3667H40.5143L39.2803 35.1738L40.2201 36.2076L40.5467 36.5668L40.1972 36.9038L36.9307 40.0537L36.5954 40.377L36.2491 40.0654L35.3189 39.2282L32.8838 40.2585V41.5604V42.0604H32.3838H29.9339V41.0604H31.8838V39.9271V39.5957L32.189 39.4666L35.2222 38.1833L35.5151 38.0594L35.7515 38.2722L36.5719 39.0105L39.1536 36.521L38.3136 35.597L38.0868 35.3475L38.233 35.0437L39.7496 31.8938L39.8859 31.6107H40.2001H40.8667V29.4114H41.8667Z" fill="white"/>
</svg>
