<svg width="61" height="61" viewBox="0 0 61 61" fill="none" xmlns="http://www.w3.org/2000/svg">
<circle cx="30.5" cy="30.5" r="30.5" fill="#499647"/>
<rect x="25.5" y="29.5" width="9" height="16" stroke="white"/>
<rect x="13.5" y="33.5" width="9" height="12" stroke="white"/>
<rect x="37.5" y="22.5" width="9" height="23" stroke="white"/>
<path opacity="0.7" d="M43.8814 15.4101L44.1525 15.8303L43.8814 15.4101ZM46.5554 14.1057C46.6136 13.8357 46.442 13.5697 46.1721 13.5115L41.7732 12.5627C41.5033 12.5045 41.2373 12.6761 41.1791 12.9461C41.1208 13.216 41.2925 13.482 41.5624 13.5403L45.4725 14.3836L44.6291 18.2937C44.5709 18.5636 44.7425 18.8296 45.0125 18.8879C45.2824 18.9461 45.5484 18.7745 45.6067 18.5045L46.5554 14.1057ZM44.1525 15.8303L46.3377 14.4204L45.7956 13.5801L43.6103 14.99L44.1525 15.8303ZM13.1249 29.4177C24.128 26.5782 34.6038 21.9907 44.1525 15.8303L43.6103 14.99C34.1516 21.0924 23.7744 25.6367 12.8751 28.4495L13.1249 29.4177Z" fill="white"/>
</svg>
