<svg width="106" height="30" viewBox="0 0 106 30" fill="none" xmlns="http://www.w3.org/2000/svg">
<path d="M0 0V29.5775H3.46479V26.2817C4.85916 28.6056 7.43662 30 10.3099 30C15.8451 30 19.7746 25.9014 19.7746 19.6901C19.7746 13.4789 16.0563 9.12676 10.7324 9.12676C7.73239 9.12676 4.98592 10.8169 3.6338 13.3099V0H0ZM9.80282 26.7465C6.5493 26.7465 3.46479 24.0845 3.46479 19.6479C3.46479 15.2113 6.59155 12.4225 9.80282 12.4225C13.2254 12.4225 16.1408 15.169 16.1408 19.6479C16.1408 24.169 13.2254 26.7465 9.80282 26.7465Z" fill="#FEFEFE"/>
<path d="M24.2215 9.5493V29.5775H27.8553V9.5493H24.2215ZM24.0102 5.83099H28.0666V1.56338H24.0102V5.83099Z" fill="#FEFEFE"/>
<path d="M35.6184 23.6197C35.6184 27.6338 37.9423 30 42.1677 30C45.5902 30 47.8719 28.0141 48.4212 24.4225L45.0409 23.662C44.7029 25.8592 43.7311 26.7887 42.0409 26.7887C40.4776 26.7887 39.2945 25.6901 39.2945 23.7887V12.6338H46.4776V9.5493H39.2945V3.33803H35.6184V9.5493H31.6466V12.6338H35.6184V23.6197Z" fill="#FEFEFE"/>
<path d="M52.1979 9.5493V29.5775H55.8318V16.8169C55.8318 14.1127 57.3106 12.338 59.5501 12.338C61.536 12.338 62.7613 13.4789 62.7613 15.338C62.7613 15.7183 62.7191 16.2254 62.6346 16.8169H66.1839C66.3529 16.1408 66.4374 15.3803 66.4374 14.5775C66.4374 11.5352 64.1979 9.12676 60.9444 9.12676C58.536 9.12676 56.7191 10.3099 55.8318 12.4648V9.5493H52.1979Z" fill="#FEFEFE"/>
<path d="M69.7955 23.8732C69.7955 25.7324 70.4294 27.2113 71.697 28.3521C73.0068 29.4507 74.5702 30 76.4294 30C79.6406 30 82.3026 28.5634 83.3167 26.4085V29.5775H86.8237V17.0282C86.8237 12.0845 83.7392 9.12676 78.2885 9.12676C73.5984 9.12676 70.4716 11.5775 69.6688 15.4225L72.9646 16.3521C73.4716 13.7746 75.4153 12.2113 78.2885 12.2113C81.2885 12.2113 83.3167 13.8169 83.3167 16.7324V18.8028L81.4998 18.2958C80.1477 17.8732 78.711 17.662 77.2322 17.662C72.8801 17.662 69.7955 19.7746 69.7955 23.8732ZM83.3167 22.0986C83.3167 25.0141 80.9927 26.7887 77.6547 26.7887C74.9927 26.7887 73.5561 25.5211 73.5561 23.662C73.5561 21.5916 75.1617 20.493 77.7392 20.493C78.7955 20.493 80.0631 20.7042 81.4575 21.1268L83.3167 21.6761V22.0986Z" fill="#FEFEFE"/>
<path d="M92.4708 9.5493V29.5775H96.1046V9.5493H92.4708ZM92.2596 5.83099H96.3159V1.56338H92.2596V5.83099Z" fill="#FEFEFE"/>
<path d="M101.755 29.5775H105.389V0H101.755V29.5775Z" fill="#FEFEFE"/>
</svg>
