<svg width="46" height="26" viewBox="0 0 46 26" fill="none" xmlns="http://www.w3.org/2000/svg">
<path d="M1.2002 25.9351H2.06647V24.0486L3.83752 25.9351H5.03747L2.79157 23.5866L4.92196 21.4434H3.7926L2.06647 23.1887V21.4434H1.2002V25.9351Z" fill="white"/>
<path d="M5.29785 24.4144C5.29785 25.3191 5.97162 25.9993 6.88923 25.9993C7.80683 25.9993 8.4806 25.3191 8.4806 24.4144C8.4806 23.5032 7.81325 22.8294 6.88923 22.8294C5.9652 22.8294 5.29785 23.5032 5.29785 24.4144ZM7.6785 24.4144C7.6785 24.9213 7.34482 25.2614 6.88923 25.2614C6.43363 25.2614 6.09995 24.9213 6.09995 24.4144C6.09995 23.9074 6.43363 23.5673 6.88923 23.5673C7.34482 23.5673 7.6785 23.9074 7.6785 24.4144Z" fill="white"/>
<path d="M13.2897 22.8936H11.9743L11.2877 25.178L10.6011 22.8936H9.28561V25.9351H10.0877V23.6187L10.7743 25.9351H11.801L12.4876 23.6187V25.9351H13.2897V22.8936Z" fill="white"/>
<path d="M14.2657 25.9351H15.0678V23.6315H16.2421V25.9351H17.0442V22.8936H14.2657V25.9351Z" fill="white"/>
<path d="M17.8892 25.056C17.8892 25.64 18.364 25.9993 18.8902 25.9993C19.3843 25.9993 19.6987 25.8196 19.8977 25.4667V25.9351H20.6484V24.0614C20.6484 23.2657 20.1736 22.8294 19.2496 22.8294C18.5116 22.8294 18.0304 23.1952 17.8699 23.7855L18.5822 23.978C18.6528 23.67 18.8774 23.4711 19.2431 23.4711C19.6217 23.4711 19.8656 23.6764 19.8656 24.0165V24.209L19.5961 24.1448C19.4292 24.0999 19.256 24.0807 19.0763 24.0807C18.3576 24.0807 17.8892 24.4079 17.8892 25.056ZM19.8656 24.8122C19.8656 25.1651 19.5961 25.3705 19.2175 25.3705C18.8902 25.3705 18.7234 25.2293 18.7234 25.0047C18.7234 24.7673 18.9031 24.6389 19.2046 24.6389C19.3266 24.6389 19.487 24.671 19.6795 24.7288L19.8656 24.7865V24.8122Z" fill="white"/>
<path d="M22.4274 22.8936H21.6252V25.9351H22.4274V24.748H23.6915V25.9351H24.4936V22.8936H23.6915V24.0101H22.4274V22.8936Z" fill="white"/>
<path d="M25.4711 25.9351H26.6325L27.8261 23.7342V25.9351H28.6282V22.8936H27.4731L26.2732 25.0945V22.8936H25.4711V25.9351Z" fill="white"/>
<path d="M29.3678 25.871V25.9351H30.2148L31.1773 24.748H31.3377V25.9351H32.1078V22.8936H30.4265C29.7913 22.8936 29.4127 23.2914 29.4127 23.8304C29.4127 24.0871 29.4961 24.3053 29.6629 24.4785C29.8298 24.6518 30.0415 24.7416 30.2918 24.748L29.3678 25.871ZM31.3377 24.1256H30.5228C30.2982 24.1256 30.1827 24.0165 30.1827 23.8368C30.1827 23.6572 30.2982 23.5481 30.5228 23.5481H31.3377V24.1256Z" fill="white"/>
<path d="M34.8289 25.9351H37.1262C38.0245 25.9351 38.647 25.4475 38.647 24.6967C38.647 24.1513 38.3069 23.7727 37.7679 23.6251C38.2299 23.4262 38.4865 23.0732 38.4865 22.6112C38.4865 21.9246 37.8898 21.4434 37.0428 21.4434H34.8289V25.9351ZM35.6952 23.2401V22.2455H37.0107C37.3893 22.2455 37.6395 22.4251 37.6395 22.7267C37.6395 23.054 37.4214 23.2401 37.0107 23.2401H35.6952ZM35.6952 25.133V24.0229H37.139C37.5304 24.0229 37.7807 24.2604 37.7807 24.5876C37.7807 24.9149 37.524 25.133 37.139 25.133H35.6952Z" fill="white"/>
<path d="M44.9485 25.9351V21.4434H43.3636L42.2534 25.2935L41.1497 21.4434H39.5584V25.9351H40.4246V21.9054L41.5989 25.9351H42.9144L44.0822 21.9054V25.9351H44.9485Z" fill="white"/>
<path d="M0 0H7.0025L11.917 8.55742L16.7551 0H21.4404L26.6095 8.55742L31.5749 0H36.1584L45.9619 16.9067H38.5774L33.8921 8.99959L29.0031 16.9067H24.1141L19.2505 9.10363L14.4634 16.9067H9.42155L0 0Z" fill="white"/>
</svg>
