<svg width="61" height="61" viewBox="0 0 61 61" fill="none" xmlns="http://www.w3.org/2000/svg">
<circle cx="30.5" cy="30.5" r="30.5" fill="#499647"/>
<rect width="40" height="40" transform="translate(11 11)" fill="#499647"/>
<path d="M48.4125 28.4696C49.0324 32.1652 48.4496 35.9621 46.75 39.3017C45.0504 42.6413 42.3237 45.3471 38.9712 47.0211C35.6187 48.695 31.8174 49.2486 28.1267 48.6005C24.4359 47.9523 21.0507 46.1366 18.4692 43.4206C15.8876 40.7045 14.246 37.2315 13.786 33.5127C13.326 29.7938 14.0718 26.0255 15.9137 22.7623C17.7556 19.499 20.5963 16.9132 24.0178 15.3852C27.4394 13.8572 31.261 13.4679 34.9203 14.2745" stroke="white" stroke-linecap="square" stroke-linejoin="round"/>
<path opacity="0.7" d="M41.8571 28.9876C42.366 31.2873 42.1233 33.6897 41.1647 35.8411C40.206 37.9926 38.5821 39.7796 36.5319 40.9391C34.4817 42.0985 32.1134 42.5693 29.7756 42.2821C27.4378 41.9949 25.2539 40.9649 23.5453 39.3436M21.2714 26.4585C22.3218 24.3503 24.0212 22.635 26.1195 21.5649C28.2178 20.4948 30.6041 20.1265 32.9274 20.5142" stroke="white" stroke-linecap="square" stroke-linejoin="round"/>
<path fill-rule="evenodd" clip-rule="evenodd" d="M39.3171 23.5965L38.6874 22.9668L32.3037 29.3505C31.9443 29.1018 31.5082 28.9561 31.038 28.9561C29.8084 28.9561 28.8115 29.9529 28.8115 31.1825C28.8115 32.4122 29.8084 33.409 31.038 33.409C32.2677 33.409 33.2645 32.4122 33.2645 31.1825C33.2645 30.7452 33.1384 30.3372 32.9205 29.9931L39.3171 23.5965Z" fill="white"/>
<path d="M17.0781 36.0957L16.8102 35.2464L30.2721 31.0004L30.5399 31.8497L17.0781 36.0957Z" fill="white"/>
<path opacity="0.6" d="M36.569 29.5709C36.8875 30.8115 36.7827 32.123 36.2712 33.2972C35.7597 34.4715 34.8707 35.4413 33.7454 36.0529C32.62 36.6646 31.3227 36.8829 30.0591 36.6734C28.7955 36.4639 27.6381 35.8385 26.7703 34.8964C25.9026 33.9543 25.3742 32.7494 25.2691 31.4729C25.1639 30.1964 25.488 28.9214 26.1898 27.85C26.8917 26.7786 27.9312 25.9722 29.1435 25.5587C30.3557 25.1452 31.6713 25.1483 32.8816 25.5676" stroke="white" stroke-width="0.5" stroke-dasharray="3 3"/>
<path d="M40.09 21.29C38.88 21.89 38.15 22.69 38.15 24.1H42.93V23.29H39.23C39.31 22.81 39.73 22.41 40.17 22.16C40.4 22.03 40.74 21.84 41.21 21.59C42.34 21.02 42.92 20.35 42.92 19.2C42.92 17.91 42.01 17 40.48 17C38.98 17 38 18.02 38 19.25C38 19.8 38.18 20.3 38.53 20.76L39.27 20.28C39.01 19.96 38.88 19.6 38.88 19.19C38.88 18.43 39.53 17.78 40.44 17.78C41.43 17.78 42.05 18.37 42.05 19.24C42.05 19.89 41.73 20.32 41.2 20.67C40.94 20.84 40.57 21.04 40.09 21.29Z" fill="white"/>
<path d="M46.735 24.1H47.605V22.31H48.795V21.53H47.605V19.26H46.735V21.53H44.505C45.055 20.98 45.425 20.4 45.635 19.77C45.845 19.14 45.955 18.4 45.955 17.55V17.1H45.085V17.55C45.065 19.35 44.835 20.17 43.585 21.4V22.31H46.735V24.1Z" fill="white"/>
</svg>
