<svg width="61" height="61" viewBox="0 0 61 61" fill="none" xmlns="http://www.w3.org/2000/svg">
<circle cx="30.5" cy="30.5" r="30.5" fill="#499647"/>
<path fill-rule="evenodd" clip-rule="evenodd" d="M21.0202 21.2453L18.7259 20.3046L14.3046 31.0875L16.5989 32.0283L21.0202 21.2453ZM22.3248 20.6995L21.3996 20.3201L19.1053 19.3794L18.1801 19L17.8007 19.9252L13.3794 30.7082L13 31.6334L13.9252 32.0128L16.2195 32.9535L17.1448 33.3329L17.5241 32.4076L17.9601 31.3445C18.8197 31.7962 19.441 32.6084 19.6466 33.5677L19.6521 33.5936L18.6619 35.5741L18.6091 35.6796V35.7977C18.6091 37.4939 20.2746 38.6294 21.8102 38.1178C22.0062 39.3976 23.309 40.2147 24.5299 39.8801C24.9021 40.9671 26.0925 41.5752 27.1938 41.2944C27.2923 42.8248 29.1031 43.5968 30.2766 42.591L30.3123 42.5604L30.3417 42.5237L30.7 42.0758L31.5721 42.5119C32.2902 42.8709 33.144 42.8269 33.8212 42.3958C34.427 42.0104 34.8132 41.3651 34.8719 40.6566L35.2323 40.8296L35.3457 40.8841L35.4714 40.8784L35.8966 40.859C37.3679 40.7921 38.3541 39.442 38.118 38.0982C39.4569 37.8794 40.3351 36.5739 40.0779 35.2736C41.1366 34.9265 41.7469 33.7854 41.4513 32.7135L43.2697 31.9861L42.8983 31.0577L40.8299 31.885L36.1139 29.2323C34.4579 28.3008 32.5082 28.0385 30.6649 28.4993L30.0292 28.6583C28.6265 29.0089 27.154 28.8632 25.857 28.26L30.5632 24.938C31.9795 23.9382 33.7657 23.617 35.4415 24.0606L35.7834 24.1511C37.1613 24.5158 38.624 24.3713 39.9032 23.7452L43.4551 32.4076L43.8344 33.3329L44.7597 32.9535L47.054 32.0128L47.9792 31.6334L47.5998 30.7082L43.1785 19.9252L42.7991 19L41.8739 19.3794L39.5796 20.3201L38.6544 20.6995L39.0337 21.6247L39.6483 23.1234L39.5008 22.8286C38.4288 23.3646 37.198 23.4911 36.0393 23.1844L35.6974 23.0939C34.0272 22.6518 32.2633 22.8586 30.7527 23.6521L30.5852 23.5683C29.1344 22.8429 27.505 22.5523 25.8929 22.7314C24.783 22.8548 23.6596 22.7258 22.6065 22.3541L21.7678 22.0581L21.9455 21.6247L22.3248 20.6995ZM21.3879 22.9845L18.3408 30.4161C19.1848 30.836 19.8605 31.5191 20.2732 32.3514L20.3416 32.2145L20.4186 32.0607L20.5739 31.9867L20.6096 31.9697C22.1889 31.2177 23.9822 32.1325 24.4037 33.7129C25.5122 33.439 26.6848 34.0416 27.0973 35.1189C28.294 34.8257 29.5426 35.5942 29.7946 36.8247H31.3256V37.8247H29.6429L28.166 40.6443L28.1906 41.209C28.2215 41.9198 29.042 42.2894 29.5933 41.8583L30.147 41.1662L31.5883 38.6353L31.8474 38.0956L32.3055 38.3155L34.5961 39.415L35.5516 39.8737L35.8512 39.8601C36.7998 39.8169 37.3985 38.8484 37.0528 37.9946L31.3981 35.0185L31.8639 34.1336L37.5574 37.1302H37.7202C38.7087 37.1302 39.3688 36.1416 39.0328 35.245L34.1507 32.7299L34.6087 31.841L39.525 34.3736C40.2881 34.2968 40.7393 33.4859 40.4216 32.8027L35.6236 30.1038C34.1903 29.2976 32.5028 29.0706 30.9074 29.4695L30.2717 29.6284C28.3538 30.1079 26.3234 29.7869 24.6469 28.7391L24.009 28.3404L24.6236 27.9066L29.7548 24.2846C28.5762 23.777 27.2835 23.5831 26.0034 23.7253C24.7437 23.8653 23.4688 23.7189 22.2737 23.2971L21.3879 22.9845ZM42.2533 20.3046L39.959 21.2453L44.3803 32.0283L46.6746 31.0875L42.2533 20.3046ZM31.2577 41.2366L32.2929 39.4187L33.8797 40.1804V40.4677C33.8797 40.9072 33.6552 41.3162 33.2844 41.5522C32.9034 41.7946 32.4232 41.8194 32.0194 41.6174L31.2577 41.2366ZM28.8381 37.206L27.277 40.1863C26.5017 40.6539 25.5007 40.1452 25.4175 39.2745L27.1112 36.1694C27.8823 35.8143 28.7871 36.3481 28.8381 37.206ZM26.2269 35.7023L24.5356 38.803C23.73 39.2554 22.7132 38.6284 22.7893 37.6779L22.8053 37.4774L24.3609 34.7904C25.1275 34.3977 26.0655 34.8558 26.2269 35.7023ZM23.4912 34.2967L21.9557 36.949L21.7178 37.0736C20.7916 37.5587 19.6877 36.9267 19.6131 35.9077L21.1559 32.8221C22.2281 32.4018 23.4098 33.1479 23.4912 34.2967Z" fill="white"/>
</svg>
