<svg width="53" height="24" viewBox="0 0 53 24" fill="none" xmlns="http://www.w3.org/2000/svg">
<path d="M2.09674 19.5059H5.54021L4.94021 20.1059H2.09674C1.90018 20.1059 1.70555 20.1446 1.52396 20.2198C1.34237 20.295 1.17737 20.4053 1.03838 20.5442C0.899399 20.6832 0.78915 20.8482 0.713932 21.0298C0.638714 21.2114 0.599999 21.406 0.599999 21.6026C0.599999 21.7992 0.638714 21.9938 0.713932 22.1754C0.78915 22.357 0.899399 22.522 1.03838 22.6609C1.17737 22.7999 1.34237 22.9102 1.52396 22.9854C1.70555 23.0606 1.90018 23.0993 2.09674 23.0993H5.39021V23.6993H2.09674C1.54065 23.6993 1.00733 23.4784 0.61412 23.0852C0.220906 22.692 0 22.1587 0 21.6026C0 21.0465 0.220906 20.5132 0.61412 20.12C1.00733 19.7268 1.54065 19.5059 2.09674 19.5059Z" fill="white"/>
<path d="M8.38349 21.7428L5.69653 19.5059H6.6324L8.68349 21.2113L10.7346 19.5059H11.6737L8.98349 21.7428V23.6993H8.38349V21.7428Z" fill="white"/>
<path d="M11.9807 19.5059H16.1709C16.4081 19.5052 16.6401 19.5751 16.8375 19.7065C17.0349 19.838 17.1888 20.0251 17.2796 20.2442C17.3704 20.4633 17.3942 20.7044 17.3477 20.937C17.3013 21.1695 17.1868 21.383 17.0188 21.5504C17.0188 21.57 16.9829 21.5863 16.9666 21.6026L17.0188 21.6515C17.1863 21.8193 17.3004 22.033 17.3465 22.2656C17.3927 22.4982 17.369 22.7393 17.2783 22.9584C17.1875 23.1775 17.034 23.3648 16.8369 23.4967C16.6398 23.6285 16.4081 23.6991 16.1709 23.6993H13.4775L12.8775 23.0993H16.1709C16.3301 23.0993 16.4827 23.0361 16.5952 22.9236C16.7077 22.8111 16.7709 22.6585 16.7709 22.4993C16.7709 22.4207 16.7554 22.3428 16.7252 22.2702C16.695 22.1976 16.6508 22.1317 16.595 22.0762C16.5392 22.0208 16.4731 21.9769 16.4003 21.9471C16.3275 21.9173 16.2496 21.9022 16.1709 21.9026H12.584V23.9993L11.9872 23.3993L11.9807 19.5059ZM12.5775 20.1059V21.3026H16.1644C16.283 21.3025 16.3988 21.2672 16.4974 21.2013C16.5959 21.1353 16.6727 21.0417 16.7181 20.9321C16.7634 20.8226 16.7753 20.702 16.7522 20.5857C16.7291 20.4694 16.6721 20.3626 16.5883 20.2787C16.5331 20.2226 16.467 20.1784 16.3941 20.1487C16.3212 20.119 16.2431 20.1044 16.1644 20.1059H12.5775Z" fill="white"/>
<path d="M23.5106 19.5059L22.9172 20.1059H18.5672V21.3026H22.4606V21.9026H18.5672V23.0993H23.3606V23.6993H17.9672V19.5059H23.5106Z" fill="white"/>
<path d="M24.5479 21.9026V23.9993L23.9479 23.3993V19.5059H28.1413C28.2988 19.5054 28.4548 19.5361 28.6003 19.596C28.7459 19.656 28.8782 19.7441 28.9897 19.8552C29.1012 19.9664 29.1896 20.0985 29.2499 20.2439C29.3103 20.3893 29.3413 20.5452 29.3413 20.7026C29.3405 21.0206 29.2138 21.3253 28.9889 21.5502C28.7641 21.775 28.4593 21.9017 28.1413 21.9026H27.0914L29.4457 23.6993H28.4674L26.1163 21.9026H24.5479ZM24.5479 20.1059V21.3026H28.1348C28.2534 21.3025 28.3693 21.2672 28.4678 21.2013C28.5663 21.1353 28.6431 21.0417 28.6885 20.9321C28.7338 20.8226 28.7457 20.702 28.7226 20.5857C28.6995 20.4694 28.6425 20.3626 28.5587 20.2787C28.5033 20.223 28.4371 20.1789 28.3643 20.1492C28.2915 20.1196 28.2135 20.1048 28.1348 20.1059H24.5479Z" fill="white"/>
<path d="M32.0475 19.5059H35.491L34.8943 20.1059H32.0475C31.851 20.1059 31.6564 20.1446 31.4748 20.2198C31.2932 20.295 31.1282 20.4053 30.9892 20.5442C30.8502 20.6832 30.74 20.8482 30.6647 21.0298C30.5895 21.2114 30.5508 21.406 30.5508 21.6026C30.5508 21.7992 30.5895 21.9938 30.6647 22.1754C30.74 22.357 30.8502 22.522 30.9892 22.6609C31.1282 22.7999 31.2932 22.9102 31.4748 22.9854C31.6564 23.0606 31.851 23.0993 32.0475 23.0993H35.341V23.6993H32.0475C31.4915 23.6993 30.9581 23.4784 30.5649 23.0852C30.1717 22.692 29.9508 22.1587 29.9508 21.6026C29.9508 21.0465 30.1717 20.5132 30.5649 20.12C30.9581 19.7268 31.4915 19.5059 32.0475 19.5059Z" fill="white"/>
<path d="M37.7347 23.6993C37.1786 23.6993 36.6453 23.4784 36.2521 23.0852C35.8588 22.692 35.6379 22.1587 35.6379 21.6026C35.6379 21.0465 35.8588 20.5132 36.2521 20.12C36.6453 19.7268 37.1786 19.5059 37.7347 19.5059H38.9314C39.4875 19.5059 40.0208 19.7268 40.414 20.12C40.8072 20.5132 41.0282 21.0465 41.0282 21.6026C41.0282 22.1587 40.8072 22.692 40.414 23.0852C40.0208 23.4784 39.4875 23.6993 38.9314 23.6993H37.7347ZM37.7347 20.1124C37.3377 20.1124 36.957 20.2701 36.6763 20.5508C36.3956 20.8315 36.2379 21.2122 36.2379 21.6091C36.2379 22.0061 36.3956 22.3868 36.6763 22.6675C36.957 22.9482 37.3377 23.1059 37.7347 23.1059H38.9314C39.3284 23.1059 39.7091 22.9482 39.9898 22.6675C40.2705 22.3868 40.4282 22.0061 40.4282 21.6091C40.4282 21.2122 40.2705 20.8315 39.9898 20.5508C39.7091 20.2701 39.3284 20.1124 38.9314 20.1124H37.7347Z" fill="white"/>
<path d="M42.2285 20.2135V23.9993L41.6285 23.3993V19.5059H42.3166L44.3253 21.2113L46.3307 19.5059H47.0188V23.3993L46.422 23.9993V20.2135L44.3253 21.9939L42.2285 20.2135Z" fill="white"/>
<path d="M47.6185 19.5059H51.812C52.119 19.5219 52.4082 19.6551 52.6198 19.8781C52.8315 20.1011 52.9495 20.3968 52.9495 20.7042C52.9495 21.0117 52.8315 21.3074 52.6198 21.5303C52.4082 21.7533 52.119 21.8866 51.812 21.9026H48.2251V23.9993L47.6251 23.3993L47.6185 19.5059ZM48.2185 20.1059V21.3026H51.8055C51.8844 21.3038 51.9628 21.2888 52.0357 21.2585C52.1086 21.2282 52.1745 21.1833 52.2294 21.1265C52.3136 21.043 52.3711 20.9364 52.3945 20.8201C52.4178 20.7038 52.406 20.5832 52.3605 20.4737C52.315 20.3642 52.2379 20.2707 52.1391 20.2052C52.0402 20.1397 51.9241 20.1051 51.8055 20.1059H48.2185Z" fill="white"/>
<path fill-rule="evenodd" clip-rule="evenodd" d="M20.8694 10.9467L22.3563 12.9326V0L20.8694 1.13152V10.9467Z" fill="white"/>
<path fill-rule="evenodd" clip-rule="evenodd" d="M32.2569 10.9467L30.7699 12.9326V0L32.2569 1.13152V10.9467Z" fill="white"/>
<path fill-rule="evenodd" clip-rule="evenodd" d="M23.8043 12.5873L25.2913 14.3645V2.78516L23.8043 3.79929V12.5873Z" fill="white"/>
<path fill-rule="evenodd" clip-rule="evenodd" d="M18.0264 12.5873L19.5166 14.3645V2.78516L18.0264 3.79929V12.5873Z" fill="white"/>
<path fill-rule="evenodd" clip-rule="evenodd" d="M29.3216 12.5873L27.8314 14.3645V2.78516L29.3216 3.79929V12.5873Z" fill="white"/>
<path fill-rule="evenodd" clip-rule="evenodd" d="M34.9824 12.5873L33.4922 14.3645V2.78516L34.9824 3.79929V12.5873Z" fill="white"/>
</svg>
