<svg width="101" height="30" viewBox="0 0 101 30" fill="none" xmlns="http://www.w3.org/2000/svg">
<path d="M27.6962 26.684C28.0662 26.684 28.3524 26.5853 28.5618 26.3877C28.7712 26.1902 28.9038 25.922 28.9806 25.5975L29.3714 25.7598C29.1969 26.5288 28.6106 27.0933 27.7032 27.0933C26.6981 27.1003 26.0141 26.3383 26.028 25.3505C26.0141 24.3769 26.7609 23.5867 27.7032 23.6078C28.1081 23.6078 28.4431 23.7137 28.6874 23.9253C28.9387 24.137 29.1062 24.4122 29.19 24.7367L28.7851 24.9202C28.6665 24.3769 28.2895 24.0171 27.7032 24.0171C27.0192 24.0171 26.4887 24.5392 26.4887 25.3505C26.4887 26.1619 26.9983 26.684 27.7032 26.684H27.6962ZM30.2649 25.1248H29.5529V24.7438H31.3956V25.1248H30.6837V27.0439H30.2649V25.1248ZM32.4775 25.6751C32.645 25.6751 32.8056 25.6963 32.9591 25.7457L33.1685 25.8021V25.5622C33.1685 25.2306 32.9382 25.0472 32.5962 25.0472C32.2542 25.0472 32.0517 25.2235 31.9959 25.5199L31.619 25.414C31.7097 24.9696 32.0657 24.6944 32.5962 24.6944C33.2174 24.6944 33.5664 25.033 33.5664 25.5975V27.0368H33.1685V26.6699C33.0499 26.9169 32.7497 27.0791 32.3868 27.0791C32.1774 27.0791 31.9959 27.0156 31.8493 26.8886C31.7027 26.7616 31.6329 26.5853 31.6329 26.3736C31.6329 25.9009 31.9819 25.661 32.4775 25.661V25.6751ZM33.1685 26.1337L32.9591 26.0702C32.7986 26.0208 32.659 25.9997 32.5403 25.9997C32.2472 25.9997 32.0657 26.1267 32.0657 26.3595C32.0657 26.5711 32.2262 26.7193 32.5334 26.7193C32.9103 26.7193 33.1755 26.5147 33.1755 26.1831V26.1337H33.1685ZM34.5715 25.6751H35.7232V24.7438H36.142V27.0368H35.7232V26.049H34.5715V27.0368H34.1597V24.7438H34.5715V25.6751ZM36.5678 26.6629H36.7841C36.8888 26.4512 36.9586 26.2537 36.9935 26.0773C37.0284 25.8938 37.0424 25.661 37.0424 25.3858V24.7438H38.6897V26.6629H38.9549V27.573H38.564V27.0368H36.9447V27.573H36.5538V26.6629H36.5678ZM38.2918 26.6629V25.1248H37.4472V25.3858C37.4472 25.6539 37.4263 25.8868 37.3914 26.0843C37.3565 26.2748 37.3007 26.4653 37.2169 26.6629H38.2918ZM40.1345 25.6751C40.302 25.6751 40.4626 25.6963 40.6161 25.7457L40.8255 25.8021V25.5622C40.8255 25.2306 40.5952 25.0472 40.2532 25.0472C39.9112 25.0472 39.7087 25.2235 39.6529 25.5199L39.276 25.414C39.3667 24.9696 39.7227 24.6944 40.2532 24.6944C40.8744 24.6944 41.2234 25.033 41.2234 25.5975V27.0368H40.8255V26.6699C40.7069 26.9169 40.4067 27.0791 40.0438 27.0791C39.8344 27.0791 39.6529 27.0156 39.5063 26.8886C39.3597 26.7616 39.2899 26.5853 39.2899 26.3736C39.2899 25.9009 39.6389 25.661 40.1345 25.661V25.6751ZM40.8255 26.1337L40.6161 26.0702C40.4556 26.0208 40.316 25.9997 40.1973 25.9997C39.9042 25.9997 39.7227 26.1267 39.7227 26.3595C39.7227 26.5711 39.8832 26.7193 40.1904 26.7193C40.5673 26.7193 40.8325 26.5147 40.8325 26.1831V26.1337H40.8255ZM42.2145 24.7438V25.1742C42.3611 24.899 42.6892 24.6944 43.0312 24.6944C43.6454 24.6944 44.0642 25.1812 44.0642 25.8938C44.0642 26.6064 43.6175 27.0933 43.0033 27.0933C42.6752 27.0933 42.389 26.9451 42.2355 26.684V28.0034H41.8237V24.7508H42.2145V24.7438ZM43.6524 25.8938C43.6524 25.3647 43.3104 25.0683 42.9335 25.0683C42.5566 25.0683 42.2145 25.3858 42.2145 25.8938C42.2145 26.4018 42.5775 26.7123 42.9335 26.7123C43.3104 26.7123 43.6524 26.423 43.6524 25.8938ZM44.9856 25.1177H44.2736V24.7367H46.1163V25.1177H45.4044V27.0368H44.9856V25.1177ZM47.98 24.7367V25.1671C48.1266 24.8919 48.4546 24.6873 48.7966 24.6873C49.4109 24.6873 49.8297 25.1742 49.8297 25.8868C49.8297 26.5994 49.3829 27.0862 48.7687 27.0862C48.4407 27.0862 48.1545 26.938 48.0009 26.677V27.9964H47.5891V24.7438H47.98V24.7367ZM49.4178 25.8868C49.4178 25.3576 49.0758 25.0613 48.6989 25.0613C48.322 25.0613 47.98 25.3788 47.98 25.8868C47.98 26.3948 48.3429 26.7052 48.6989 26.7052C49.0758 26.7052 49.4178 26.4159 49.4178 25.8868ZM52.3075 26.3383C52.154 26.804 51.812 27.0791 51.2885 27.0791C50.6254 27.0791 50.1438 26.6064 50.1438 25.8656C50.1438 25.2094 50.5835 24.6873 51.2256 24.6873C51.5258 24.6873 51.7701 24.772 51.9585 24.9554C52.147 25.1318 52.2377 25.3647 52.2377 25.668C52.2377 25.7668 52.2308 25.8656 52.2098 25.9503H50.5695C50.5695 26.4512 50.8906 26.7123 51.2954 26.7123C51.6444 26.7123 51.8608 26.5288 51.9516 26.1972L52.3145 26.3383H52.3075ZM51.8259 25.6469V25.5763C51.8259 25.2447 51.5677 25.0542 51.2187 25.0542C50.8697 25.0542 50.6044 25.28 50.5626 25.6469H51.8259ZM52.7403 24.7367H53.1521V26.6558H54.0804V24.7367H54.4923V26.6558H55.4206V24.7367H55.8324V27.0298H52.7333V24.7367H52.7403ZM58.4569 26.3383C58.3033 26.804 57.9613 27.0791 57.4378 27.0791C56.7747 27.0791 56.2931 26.6064 56.2931 25.8656C56.2931 25.2094 56.7328 24.6873 57.375 24.6873C57.6751 24.6873 57.9194 24.772 58.1079 24.9554C58.2963 25.1318 58.3871 25.3647 58.3871 25.668C58.3871 25.7668 58.3801 25.8656 58.3592 25.9503H56.7189C56.7189 26.4512 57.0399 26.7123 57.4448 26.7123C57.7938 26.7123 58.0102 26.5288 58.1009 26.1972L58.4639 26.3383H58.4569ZM57.9753 25.6469V25.5763C57.9753 25.2447 57.717 25.0542 57.368 25.0542C57.019 25.0542 56.7538 25.28 56.7119 25.6469H57.9753ZM59.3014 25.668H60.4531V24.7367H60.8719V27.0298H60.4531V26.042H59.3014V27.0298H58.8896V24.7367H59.3014V25.668ZM61.4583 24.7367H61.8701V26.6276L62.945 24.7367H63.5802V27.0298H63.1614V25.1389L62.0864 27.0298H61.4513V24.7367H61.4583ZM64.1735 24.7367H64.5853V26.6276L65.6602 24.7367H66.2954V27.0298H65.8766V25.1389L64.8016 27.0298H64.1665V24.7367H64.1735ZM65.2344 24.3487C64.9063 24.3487 64.6481 24.1652 64.6481 23.8195C64.6481 23.7913 64.6481 23.7631 64.6481 23.7489H64.9761V23.7983C64.9761 23.9394 65.0739 24.0382 65.2274 24.0382C65.381 24.0382 65.4857 23.9394 65.4857 23.7983V23.7489H65.8068C65.8068 23.7489 65.8068 23.7842 65.8068 23.8195C65.8068 24.1652 65.5555 24.3487 65.2204 24.3487H65.2344ZM67.8519 26.6558H68.0683C68.173 26.4441 68.2428 26.2466 68.2777 26.0702C68.3126 25.8868 68.3265 25.6539 68.3265 25.3788V24.7367H69.9738V26.6558H70.239V27.566H69.8481V27.0298H68.2288V27.566H67.8379V26.6558H67.8519ZM69.5759 26.6558V25.1177H68.7314V25.3788C68.7314 25.6469 68.7104 25.8797 68.6755 26.0773C68.6406 26.2678 68.5848 26.4583 68.501 26.6558H69.5759ZM70.4833 26.9663C70.581 26.7899 70.6508 26.5853 70.6997 26.3524C70.7555 26.1267 70.7765 25.8162 70.7765 25.4352V24.7367H72.5424V27.0298H72.1236V25.1107H71.1953V25.3505C71.1953 25.795 71.1674 26.1408 71.1115 26.3948C71.0557 26.6488 70.9859 26.8604 70.9021 27.0298H70.4903V26.9592L70.4833 26.9663ZM73.6732 26.1125C73.4777 26.1125 73.3172 26.049 73.1846 25.922C73.0519 25.788 72.9891 25.6257 72.9891 25.4282C72.9891 25.026 73.2683 24.7367 73.729 24.7367H74.8667V27.0298H74.4549V26.1125H74.1687L73.4149 27.0298H72.9682V26.9804L73.6732 26.1055V26.1125ZM74.4549 25.1177H73.7569C73.5266 25.1177 73.4009 25.2447 73.4009 25.4423C73.4009 25.6398 73.5266 25.7527 73.7569 25.7527H74.4549V25.1177ZM79.313 27.0368H78.8942V25.1107L78.238 27.0368H77.6587L77.0026 25.1107V27.0368H76.5908V24.7438H77.2888L77.9519 26.684L78.615 24.7438H79.313V27.0368ZM80.6461 25.668C80.8136 25.668 80.9742 25.6892 81.1277 25.7386L81.3371 25.795V25.5552C81.3371 25.2235 81.1068 25.0401 80.7648 25.0401C80.4228 25.0401 80.2203 25.2165 80.1575 25.5128L79.7876 25.407C79.8783 24.9625 80.2343 24.6873 80.7648 24.6873C81.386 24.6873 81.735 25.026 81.735 25.5904V27.0298H81.3371V26.6629C81.2185 26.9098 80.9183 27.0721 80.5554 27.0721C80.346 27.0721 80.1645 27.0086 80.0179 26.8816C79.8713 26.7546 79.8015 26.5782 79.8015 26.3665C79.8015 25.8938 80.1505 25.6539 80.6461 25.6539V25.668ZM81.3371 26.1267L81.1277 26.0632C80.9672 26.0138 80.8276 25.9926 80.7089 25.9926C80.4158 25.9926 80.2343 26.1196 80.2343 26.3524C80.2343 26.5641 80.3948 26.7123 80.702 26.7123C81.0789 26.7123 81.3441 26.5076 81.3441 26.176V26.1267H81.3371ZM82.3283 24.7367H82.7401V26.6276L83.815 24.7367H84.4502V27.0298H84.0314V25.1389L82.9565 27.0298H82.3213V24.7367H82.3283ZM83.3892 24.3487C83.0612 24.3487 82.8029 24.1652 82.8029 23.8195C82.8029 23.7913 82.8029 23.7631 82.8029 23.7489H83.131V23.7983C83.131 23.9394 83.2287 24.0382 83.3823 24.0382C83.5358 24.0382 83.6405 23.9394 83.6405 23.7983V23.7489H83.9616C83.9616 23.7489 83.9616 23.7842 83.9616 23.8195C83.9616 24.1652 83.7103 24.3487 83.3753 24.3487H83.3892ZM85.4553 25.668H86.607V24.7367H87.0258V27.0298H86.607V26.042H85.4553V27.0298H85.0435V24.7367H85.4553V25.668ZM87.6121 24.7367H88.0239V26.6276L89.0988 24.7367H89.734V27.0298H89.3152V25.1389L88.2403 27.0298H87.6051V24.7367H87.6121ZM90.7391 25.668H91.8908V24.7367H92.3096V27.0298H91.8908V26.042H90.7391V27.0298H90.3273V24.7367H90.7391V25.668ZM92.8959 24.7367H94.4176V25.1318H93.3077V27.0368H92.8959V24.7438V24.7367ZM95.5274 25.668C95.6949 25.668 95.8554 25.6892 96.009 25.7386L96.2184 25.795V25.5552C96.2184 25.2235 95.988 25.0401 95.646 25.0401C95.304 25.0401 95.1016 25.2165 95.0457 25.5128L94.6688 25.407C94.7596 24.9625 95.1155 24.6873 95.646 24.6873C96.2672 24.6873 96.6162 25.026 96.6162 25.5904V27.0298H96.2184V26.6629C96.0997 26.9098 95.7996 27.0721 95.4366 27.0721C95.2272 27.0721 95.0458 27.0086 94.8992 26.8816C94.7526 26.7546 94.6828 26.5782 94.6828 26.3665C94.6828 25.8938 95.0318 25.6539 95.5274 25.6539V25.668ZM96.2184 26.1267L96.009 26.0632C95.8484 26.0138 95.7088 25.9926 95.5902 25.9926C95.297 25.9926 95.1156 26.1196 95.1156 26.3524C95.1156 26.5641 95.2761 26.7123 95.5832 26.7123C95.9601 26.7123 96.2254 26.5076 96.2254 26.176V26.1267H96.2184Z" fill="white"/>
<path d="M30.9837 4.84563H32.3797L29.8251 11.4637H28.0312L25.4766 4.84563H26.8726L28.9316 10.4618L30.9907 4.84563H30.9837ZM37.838 4.84563V6.03095H34.1806V7.47028H37.5588V8.6556H34.1806V10.2925H37.9358V11.4778H32.9172V4.84563H37.838ZM44.7342 11.4637H43.2335L41.335 8.44394L40.2601 9.61515V11.4566H38.9967V4.84563H40.2601V7.82305L42.9753 4.84563H44.5946L42.1866 7.48439L44.7342 11.4637ZM46.4722 4.84563V8.76143C46.4722 9.77037 47.0516 10.3771 47.959 10.3771C48.8664 10.3771 49.4387 9.77037 49.4387 8.76143V4.84563H50.7021V8.78965C50.7021 10.4618 49.6481 11.5625 47.959 11.5625C46.2698 11.5625 45.2089 10.4689 45.2089 8.78965V4.84563H46.4722ZM53.152 6.59539C53.152 7.12456 53.7384 7.39972 54.6807 7.58316C56.2791 7.88655 56.991 8.42277 56.991 9.5587C56.991 10.6946 55.9719 11.5625 54.3805 11.5625C53.7384 11.5625 53.1381 11.4143 52.5867 11.1109C52.0353 10.8005 51.6304 10.2784 51.3791 9.55165L52.5029 8.8461C52.7682 9.86915 53.4452 10.4054 54.4154 10.4054C55.2042 10.4054 55.7137 10.0949 55.7137 9.60809C55.7137 9.12126 55.3368 8.83904 54.213 8.66266C52.6704 8.42982 51.8957 7.73838 51.8957 6.58834C51.8957 5.5794 52.8519 4.75391 54.2619 4.75391C55.4205 4.75391 56.3489 5.33246 56.7118 6.38373L55.616 7.02578C55.4136 6.27084 54.9319 5.88984 54.1851 5.88984C53.5569 5.88984 53.159 6.19323 53.159 6.59539H53.152Z" fill="white"/>
<path d="M26.021 12.5297H28.5477C30.7185 12.5297 31.947 13.8843 31.947 15.8881C31.947 17.7719 30.6906 19.1548 28.5757 19.1548H26.021V12.5367V12.5297ZM27.2844 17.9906H28.5477C29.9577 17.9906 30.6836 17.0734 30.6836 15.8881C30.6836 14.5334 29.9437 13.6868 28.5338 13.6868H27.2913V17.9906H27.2844ZM37.838 12.5297V13.715H34.1806V15.1543H37.5589V16.3396H34.1806V17.9765H37.9358V19.1618H32.9172V12.5438H37.838V12.5297ZM43.8199 12.5297H45.2159L42.6612 19.1477H40.8673L38.3127 12.5297H39.7087L41.7678 18.1458L43.8268 12.5297H43.8199ZM50.6742 12.5297V13.715H47.0167V15.1543H50.395V16.3396H47.0167V17.9765H50.7719V19.1618H45.7533V12.5438H50.6742V12.5297ZM53.0962 12.5297V17.9695H56.9073V19.1548H51.8328V12.5367H53.0962V12.5297ZM64.0129 15.8387C64.0478 17.7013 62.4493 19.2818 60.5787 19.2465C58.7011 19.2959 57.0957 17.6872 57.1376 15.8387C57.1027 13.9972 58.7011 12.3956 60.5787 12.4309C62.4493 12.3956 64.0478 13.9831 64.0129 15.8387ZM62.7285 15.8387C62.7285 14.5264 61.7863 13.6374 60.5787 13.6374C59.3712 13.6374 58.4289 14.5264 58.4289 15.8387C58.4289 17.151 59.3991 18.033 60.5787 18.033C61.7583 18.033 62.7285 17.1651 62.7285 15.8387ZM66.2255 19.1477H64.9621V12.5297H68.0473C69.4502 12.5297 70.1971 13.468 70.1971 14.5546C70.1971 15.6411 69.4502 16.6007 68.0473 16.6007H66.2255V19.1548V19.1477ZM67.9565 15.4083C68.5289 15.4083 68.9198 15.0838 68.9198 14.5546C68.9198 14.0254 68.5289 13.7009 67.9565 13.7009H66.2255V15.4013H67.9565V15.4083ZM77.5958 19.1477V13.207L75.8927 19.1477H73.9732L72.2631 13.207V19.1477H70.9998V12.5297H73.3171L74.9295 18.2023L76.5488 12.5297H78.8592V19.1477H77.5958ZM85.0783 12.5297V13.715H81.4208V15.1543H84.7991V16.3396H81.4208V17.9765H85.1761V19.1618H80.1575V12.5438H85.0783V12.5297ZM87.5074 19.1477H86.244V12.5297H88.4217L91.1439 18.2728V12.5297H92.4073V19.1477H90.2295L87.5074 13.4045V19.1477ZM98.9265 13.7079H96.6162V19.1477H95.3528V13.7079H93.0355V12.5226H98.9335V13.7079H98.9265ZM66.2464 11.4713V5.5306L64.5433 11.4713H62.6238L60.9138 5.5306V11.4713H59.6504V4.84622H61.9677L63.5801 10.5188L65.1994 4.84622H67.5098V11.4643H66.2464V11.4713ZM68.8011 4.85328H70.0645V11.4713H68.8011V4.84622V4.85328ZM72.5912 11.4713H71.3278V4.84622H73.5056L76.2278 10.5894V4.84622H77.4911V11.4643H75.3134L72.5912 5.7211V11.4643V11.4713ZM78.7824 4.85328H80.0458V11.4713H78.7824V4.84622V4.85328ZM82.5725 11.4713H81.3092V4.84622H83.4869L86.2091 10.5894V4.84622H87.4725V11.4643H85.2947L82.5725 5.7211V11.4643V11.4713ZM88.4496 8.16231C88.4147 6.26438 89.9573 4.71922 91.821 4.7545C93.552 4.7545 94.6478 5.67171 94.9899 7.06165L93.7544 7.45676C93.559 6.46899 92.84 5.93277 91.8349 5.93277C90.6623 5.93277 89.7409 6.84998 89.7409 8.15525C89.7409 9.46052 90.5925 10.3777 91.821 10.3777C92.868 10.3777 93.4194 9.6228 93.5311 9.07247H91.0741V7.96475H95.1295V11.4643H94.0336V10.0955C93.6288 11.0127 92.854 11.5631 91.7023 11.5631C89.8805 11.5913 88.4147 10.1378 88.4427 8.15525L88.4496 8.16231Z" fill="white"/>
<path d="M9.73684 1.99609H8.29199L10.9374 8.8611H12.801L15.4464 1.99609H14.0016L11.8727 7.82394L9.73684 1.99609Z" fill="white"/>
<path d="M14.0015 21.9976H15.4464L12.801 15.1396H10.9373L8.29195 21.9976H9.7368L11.8727 16.1768L14.0085 21.9976H14.0015ZM20.3742 17.5455L21.3933 16.5154L14.7205 13.5592L13.4013 14.8927L16.3328 21.6377L17.3519 20.6076L14.7903 14.9632L20.3742 17.5526V17.5455ZM3.37109 6.45428L2.35201 7.48438L9.02484 10.4406L10.3441 9.10715L7.4055 2.36914L6.38642 3.39924L8.94806 9.04365L3.36411 6.45428H3.37109ZM21.7702 9.84797V8.38749L14.9857 11.0615V12.9453L21.7702 15.6194V14.1589L16.0118 11.9999L21.7702 9.84092V9.84797ZM1.9751 14.1518V15.6123L8.75961 12.9383V11.0545L1.9751 8.38043V9.84092L7.73355 11.9999L1.9751 14.1589V14.1518ZM17.3589 3.4063L16.3398 2.3762L13.4152 9.12126L14.7344 10.4547L21.4073 7.49144L20.3882 6.46133L14.8042 9.0507L17.3659 3.4063H17.3589ZM6.38642 20.5935L7.4055 21.6236L10.3301 14.8785L9.01088 13.5451L2.34503 16.5154L3.36411 17.5455L8.94806 14.9562L6.38642 20.6006V20.5935Z" fill="white"/>
</svg>
