<svg width="61" height="61" viewBox="0 0 61 61" fill="none" xmlns="http://www.w3.org/2000/svg">
<circle cx="30.5" cy="30.5" r="30.5" fill="#499647"/>
<path d="M29.2067 48.482L29.2294 47.9825L29.2067 48.482ZM17.5222 43.27L17.1657 43.6206L17.5222 43.27ZM12.5071 31.4996L12.0073 31.5139L12.5071 31.4996ZM44.2247 40.5803C44.2832 40.8502 44.5494 41.0216 44.8192 40.9632L49.2173 40.0106C49.4871 39.9521 49.6585 39.686 49.6001 39.4161C49.5416 39.1462 49.2755 38.9748 49.0056 39.0333L45.0962 39.88L44.2495 35.9706C44.191 35.7007 43.9249 35.5293 43.655 35.5878C43.3851 35.6463 43.2137 35.9124 43.2722 36.1823L44.2247 40.5803ZM40.992 43.9683C37.7184 46.743 33.5164 48.177 29.2294 47.9825L29.1841 48.9815C33.7232 49.1875 38.1724 47.6691 41.6386 44.7311L40.992 43.9683ZM29.2294 47.9825C24.9424 47.788 20.8876 45.9793 17.8787 42.9194L17.1657 43.6206C20.3516 46.8604 24.6449 48.7755 29.1841 48.9815L29.2294 47.9825ZM17.8787 42.9194C14.8698 39.8596 13.1294 35.775 13.0069 31.4853L12.0073 31.5139C12.1371 36.0558 13.9798 40.3807 17.1657 43.6206L17.8787 42.9194ZM13.0069 31.4853C12.8844 27.1956 14.3888 23.0184 17.2182 19.7918L16.4663 19.1325C13.4705 22.5488 11.8776 26.9719 12.0073 31.5139L13.0069 31.4853ZM17.2182 19.7918C20.0475 16.5652 23.9925 14.528 28.2614 14.0891L28.1591 13.0944C23.6391 13.5591 19.4621 15.7161 16.4663 19.1325L17.2182 19.7918ZM28.2614 14.0891C32.5303 13.6502 36.8073 14.8421 40.234 17.4255L40.836 16.627C37.2077 13.8916 32.6792 12.6297 28.1591 13.0944L28.2614 14.0891ZM40.234 17.4255C43.6606 20.0089 45.9835 23.7927 46.7364 28.0176L47.7208 27.8422C46.9237 23.3688 44.4642 19.3624 40.836 16.627L40.234 17.4255ZM46.7364 28.0176C47.4892 32.2425 46.6164 36.5957 44.293 40.2038L45.1338 40.7452C47.5938 36.9249 48.518 32.3155 47.7208 27.8422L46.7364 28.0176Z" fill="white"/>
<path fill-rule="evenodd" clip-rule="evenodd" d="M32.3995 20.7236C31.2052 20.0346 29.7927 19.8278 28.4509 20.1456L25.662 20.8061L25.6151 20.8172L25.5712 20.8371L20.3933 23.1795L20 23.3574L20.1186 23.7724L20.141 23.8509C20.3288 24.5082 20.853 25.0152 21.5161 25.181C21.7417 25.2374 21.9792 25.2236 22.1967 25.1414L27.0019 23.3261C26.881 23.759 27.0066 24.1771 27.2598 24.4791C27.5273 24.7981 27.9413 24.998 28.3894 24.998H30.462C30.5322 24.998 30.94 25.0667 31.3413 25.468L31.3541 25.4808C31.653 25.7796 31.9783 26.105 32.2943 26.3545C32.5947 26.5916 32.9902 26.8473 33.4208 26.8473H33.4232H33.4255H33.4278H33.4302H33.4325H33.4349H33.4373H33.4397H33.4421H33.4445H33.4469H33.4493H33.4517H33.4542H33.4566H33.4591H33.4616H33.4641H33.4665H33.4691H33.4716H33.4741H33.4766H33.4792H33.4817H33.4843H33.4868H33.4894H33.492H33.4946H33.4972H33.4998H33.5024H33.505H33.5077H33.5103H33.513H33.5156H33.5183H33.521H33.5237H33.5264H33.5291H33.5318H33.5345H33.5373H33.54H33.5427H33.5455H33.5483H33.551H33.5538H33.5566H33.5594H33.5622H33.565H33.5678H33.5707H33.5735H33.5764H33.5792H33.5821H33.5849H33.5878H33.5907H33.5936H33.5965H33.5994H33.6023H33.6052H33.6081H33.6111H33.614H33.617H33.6199H33.6229H33.6258H33.6288H33.6318H33.6348H33.6378H33.6408H33.6438H33.6468H33.6498H33.6529H33.6559H33.659H33.662H33.6651H33.6681H33.6712H33.6743H33.6774H33.6805H33.6835H33.6867H33.6898H33.6929H33.696H33.6991H33.7023H33.7054H33.7085H33.7117H33.7148H33.718H33.7212H33.7243H33.7275H33.7307H33.7339H33.7371H33.7403H33.7435H33.7467H33.7499H33.7532H33.7564H33.7596H33.7629H33.7661H33.7694H33.7726H33.7759H33.7791H33.7824H33.7857H33.789H33.7923H33.7955H33.7988H33.8021H33.8054H33.8087H33.8121H33.8154H33.8187H33.822H33.8254H33.8287H33.832H33.8354H33.8387H33.8421H33.8454H33.8488H33.8522H33.8555H33.8589H33.8623H33.8657H33.8691H33.8725H33.8758H33.8792H33.8827H33.8861H33.8895H33.8929H33.8963H33.8997H33.9031H33.9066H33.91H33.9134H33.9169H33.9203H33.9238H33.9272H33.9307H33.9341H33.9376H33.941H33.9445H33.948H33.9514H33.9549H33.9584H33.9618H33.9653H33.9688H33.9723H33.9758H33.9793H33.9828H33.9863H33.9898H33.9933H33.9968H34.0003H34.0038H34.0073H34.0108H34.0143H34.0178H34.0214H34.0249H34.0284H34.0319H34.0355H34.039H34.0425H34.0461H34.0496H34.0531H34.0567H34.0602H34.0638H34.0673H34.0709H34.0744H34.078H34.0815H34.0851H34.0886H34.0922H34.0957H34.0993H34.1028H34.1064H34.11H34.1135H34.1171H34.1207H34.1242H34.1278H34.1314H34.1349H34.1385H34.1421H34.1456H34.1492H34.1528H34.1563H34.1599H34.1635H34.1671H34.1706H34.1742H34.1778H34.1814H34.1849H34.1885H34.1921H34.1957H34.1992H34.2028H34.2064H34.21H34.2136H34.2171H34.2207H34.2243H34.2279H34.2314H34.235H34.2386H34.2422H34.2457H34.2493H34.2529H34.2565H34.26H34.2636H34.2672H34.2707H34.2743H34.2779H34.2814H34.285H34.2886H34.2921H34.2957H34.2993H34.3028H34.3064H34.31H34.3135H34.3171H34.3206H34.3242H34.3277H34.3313H34.3348H34.3384H34.3419H34.3455H34.349H34.3526H34.3561H34.3597H34.3632H34.3667H34.3703H34.3738H34.3773H34.3809H34.3844H34.3879H34.3914H34.395H34.3985H34.402H34.4055H34.409H34.4125H34.416H34.4195H34.423H34.4265H34.43H34.4335H34.437H34.4405H34.444H34.4475H34.451H34.4544H34.4579H34.4614H34.4649H34.4683H34.4718H34.4753H34.4787H34.4822H34.4856H34.4891H34.4925H34.4959H34.4994H34.5028H34.5063H34.5097H34.5131H34.5165H34.5199H34.5234H34.5235V27.087V27.587H35.0235H38.722V26.587H35.5235V26.3473V22.0324V21.6694H38.722V20.6694H35.0235H34.5235V21.1694V21.5049C33.8977 21.4359 33.2911 21.238 32.7426 20.9216L32.3995 20.7236ZM28.3371 23.2712C28.5133 23.2089 28.7047 23.168 28.8329 23.1488H30.2155V22.1488H28.7977H27.3799H27.2886L27.2032 22.181L21.8433 24.2059C21.8162 24.2161 21.7867 24.2178 21.7586 24.2108C21.5572 24.1605 21.3826 24.0441 21.2593 23.8853L25.9394 21.7681L28.6814 21.1187C29.775 20.8596 30.9263 21.0282 31.8998 21.5898L32.2429 21.7878C32.9435 22.1919 33.7219 22.4375 34.5235 22.5098V25.8473H34.5234H34.5199H34.5165H34.5131H34.5097H34.5063H34.5028H34.4994H34.4959H34.4925H34.4891H34.4856H34.4822H34.4787H34.4753H34.4718H34.4683H34.4649H34.4614H34.4579H34.4544H34.451H34.4475H34.444H34.4405H34.437H34.4335H34.43H34.4265H34.423H34.4195H34.416H34.4125H34.409H34.4055H34.402H34.3985H34.395H34.3914H34.3879H34.3844H34.3809H34.3773H34.3738H34.3703H34.3667H34.3632H34.3597H34.3561H34.3526H34.349H34.3455H34.3419H34.3384H34.3348H34.3313H34.3277H34.3242H34.3206H34.3171H34.3135H34.31H34.3064H34.3028H34.2993H34.2957H34.2921H34.2886H34.285H34.2814H34.2779H34.2743H34.2707H34.2672H34.2636H34.26H34.2565H34.2529H34.2493H34.2457H34.2422H34.2386H34.235H34.2314H34.2279H34.2243H34.2207H34.2171H34.2136H34.21H34.2064H34.2028H34.1992H34.1957H34.1921H34.1885H34.1849H34.1814H34.1778H34.1742H34.1706H34.1671H34.1635H34.1599H34.1563H34.1528H34.1492H34.1456H34.1421H34.1385H34.1349H34.1314H34.1278H34.1242H34.1207H34.1171H34.1135H34.11H34.1064H34.1028H34.0993H34.0957H34.0922H34.0886H34.0851H34.0815H34.078H34.0744H34.0709H34.0673H34.0638H34.0602H34.0567H34.0531H34.0496H34.0461H34.0425H34.039H34.0355H34.0319H34.0284H34.0249H34.0214H34.0178H34.0143H34.0108H34.0073H34.0038H34.0003H33.9968H33.9933H33.9898H33.9863H33.9828H33.9793H33.9758H33.9723H33.9688H33.9653H33.9618H33.9584H33.9549H33.9514H33.948H33.9445H33.941H33.9376H33.9341H33.9307H33.9272H33.9238H33.9203H33.9169H33.9134H33.91H33.9066H33.9031H33.8997H33.8963H33.8929H33.8895H33.8861H33.8827H33.8792H33.8758H33.8725H33.8691H33.8657H33.8623H33.8589H33.8555H33.8522H33.8488H33.8454H33.8421H33.8387H33.8354H33.832H33.8287H33.8254H33.822H33.8187H33.8154H33.8121H33.8087H33.8054H33.8021H33.7988H33.7955H33.7923H33.789H33.7857H33.7824H33.7791H33.7759H33.7726H33.7694H33.7661H33.7629H33.7596H33.7564H33.7532H33.7499H33.7467H33.7435H33.7403H33.7371H33.7339H33.7307H33.7275H33.7243H33.7212H33.718H33.7148H33.7117H33.7085H33.7054H33.7023H33.6991H33.696H33.6929H33.6898H33.6867H33.6835H33.6805H33.6774H33.6743H33.6712H33.6681H33.6651H33.662H33.659H33.6559H33.6529H33.6498H33.6468H33.6438H33.6408H33.6378H33.6348H33.6318H33.6288H33.6258H33.6229H33.6199H33.617H33.614H33.6111H33.6081H33.6052H33.6023H33.5994H33.5965H33.5936H33.5907H33.5878H33.5849H33.5821H33.5792H33.5764H33.5735H33.5707H33.5678H33.565H33.5622H33.5594H33.5566H33.5538H33.551H33.5483H33.5455H33.5427H33.54H33.5373H33.5345H33.5318H33.5291H33.5264H33.5237H33.521H33.5183H33.5156H33.513H33.5103H33.5077H33.505H33.5024H33.4998H33.4972H33.4946H33.492H33.4894H33.4868H33.4843H33.4817H33.4792H33.4766H33.4741H33.4716H33.4691H33.4665H33.4641H33.4616H33.4591H33.4566H33.4542H33.4517H33.4493H33.4469H33.4445H33.4421H33.4397H33.4373H33.4349H33.4325H33.4302H33.4278H33.4255H33.4232H33.4208C33.3583 25.8473 33.1991 25.7947 32.9139 25.5696C32.6488 25.3603 32.3625 25.075 32.0484 24.7609C31.4634 24.1759 30.8028 23.998 30.462 23.998H28.3894C28.2361 23.998 28.1029 23.9282 28.0261 23.8366C27.9555 23.7524 27.9386 23.663 27.9735 23.5692C28.0027 23.4908 28.0265 23.4444 28.0404 23.4226C28.0405 23.4224 28.0408 23.4222 28.0412 23.4218C28.0452 23.4179 28.063 23.4007 28.1063 23.3747C28.1638 23.3403 28.2421 23.3048 28.3371 23.2712ZM36.1331 23.0186C36.4054 23.0186 36.6262 22.7978 36.6262 22.5255C36.6262 22.2531 36.4054 22.0324 36.1331 22.0324C35.8607 22.0324 35.6399 22.2531 35.6399 22.5255C35.6399 22.7978 35.8607 23.0186 36.1331 23.0186Z" fill="white"/>
<path fill-rule="evenodd" clip-rule="evenodd" d="M26.7743 41.5869C27.9687 42.276 29.3812 42.4827 30.7229 42.165L33.5118 41.5044L33.5587 41.4933L33.6027 41.4734L38.7806 39.1311L39.1738 38.9532L39.0553 38.5381L39.0328 38.4596C38.845 37.8024 38.3208 37.2954 37.6577 37.1296C37.4321 37.0732 37.1947 37.087 36.9771 37.1692L32.1521 38.992C32.2264 38.5957 32.0796 38.2129 31.8458 37.9346C31.5342 37.5639 31.0304 37.3125 30.5031 37.3125H28.7118C28.6416 37.3125 28.2338 37.2438 27.8325 36.8425L27.8197 36.8298C27.5209 36.5309 27.1955 36.2055 26.8796 35.9561C26.5792 35.7189 26.1836 35.4633 25.753 35.4633H25.7507H25.7483H25.746H25.7437H25.7413H25.7389H25.7366H25.7342H25.7318H25.7294H25.727H25.7245H25.7221H25.7196H25.7172H25.7147H25.7123H25.7098H25.7073H25.7048H25.7023H25.6997H25.6972H25.6947H25.6921H25.6896H25.687H25.6844H25.6818H25.6793H25.6766H25.674H25.6714H25.6688H25.6662H25.6635H25.6608H25.6582H25.6555H25.6528H25.6501H25.6474H25.6447H25.642H25.6393H25.6366H25.6338H25.6311H25.6283H25.6256H25.6228H25.62H25.6172H25.6144H25.6116H25.6088H25.606H25.6032H25.6003H25.5975H25.5946H25.5918H25.5889H25.586H25.5831H25.5803H25.5774H25.5745H25.5715H25.5686H25.5657H25.5628H25.5598H25.5569H25.5539H25.551H25.548H25.545H25.542H25.539H25.536H25.533H25.53H25.527H25.524H25.5209H25.5179H25.5149H25.5118H25.5088H25.5057H25.5026H25.4995H25.4965H25.4934H25.4903H25.4872H25.4841H25.481H25.4778H25.4747H25.4716H25.4684H25.4653H25.4621H25.459H25.4558H25.4527H25.4495H25.4463H25.4431H25.4399H25.4367H25.4335H25.4303H25.4271H25.4239H25.4207H25.4174H25.4142H25.411H25.4077H25.4045H25.4012H25.398H25.3947H25.3914H25.3881H25.3849H25.3816H25.3783H25.375H25.3717H25.3684H25.3651H25.3618H25.3584H25.3551H25.3518H25.3485H25.3451H25.3418H25.3384H25.3351H25.3317H25.3284H25.325H25.3217H25.3183H25.3149H25.3115H25.3081H25.3048H25.3014H25.298H25.2946H25.2912H25.2878H25.2844H25.281H25.2775H25.2741H25.2707H25.2673H25.2638H25.2604H25.257H25.2535H25.2501H25.2466H25.2432H25.2397H25.2363H25.2328H25.2293H25.2259H25.2224H25.2189H25.2155H25.212H25.2085H25.205H25.2015H25.198H25.1945H25.1911H25.1876H25.1841H25.1806H25.1771H25.1735H25.17H25.1665H25.163H25.1595H25.156H25.1525H25.1489H25.1454H25.1419H25.1384H25.1348H25.1313H25.1278H25.1242H25.1207H25.1171H25.1136H25.1101H25.1065H25.103H25.0994H25.0959H25.0923H25.0888H25.0852H25.0817H25.0781H25.0745H25.071H25.0674H25.0639H25.0603H25.0567H25.0532H25.0496H25.046H25.0425H25.0389H25.0353H25.0318H25.0282H25.0246H25.0211H25.0175H25.0139H25.0103H25.0068H25.0032H24.9996H24.996H24.9925H24.9889H24.9853H24.9817H24.9782H24.9746H24.971H24.9674H24.9639H24.9603H24.9567H24.9531H24.9495H24.946H24.9424H24.9388H24.9352H24.9317H24.9281H24.9245H24.9209H24.9174H24.9138H24.9102H24.9067H24.9031H24.8995H24.896H24.8924H24.8888H24.8852H24.8817H24.8781H24.8746H24.871H24.8674H24.8639H24.8603H24.8568H24.8532H24.8496H24.8461H24.8425H24.839H24.8354H24.8319H24.8283H24.8248H24.8213H24.8177H24.8142H24.8106H24.8071H24.8036H24.8H24.7965H24.793H24.7894H24.7859H24.7824H24.7789H24.7754H24.7718H24.7683H24.7648H24.7613H24.7578H24.7543H24.7508H24.7473H24.7438H24.7403H24.7368H24.7333H24.7298H24.7263H24.7229H24.7194H24.7159H24.7124H24.709H24.7055H24.702H24.6986H24.6951H24.6917H24.6882H24.6848H24.6813H24.6779H24.6744H24.671H24.6676H24.6641H24.6607H24.6573H24.6539H24.6505H24.6503V35.2236V34.7236H24.1503H20.4518V35.7236H23.6503V35.9633V40.2782V40.6412H20.4518V41.6412H24.1503H24.6503V41.1412V40.8057C25.2761 40.8746 25.8827 41.0726 26.4312 41.389L26.7743 41.5869ZM30.8367 39.0393C30.6605 39.1016 30.4691 39.1425 30.3409 39.1618H28.9584V40.1618H30.3761H31.7939H31.8852L31.9706 40.1295L37.3305 38.1046C37.3576 38.0944 37.3871 38.0927 37.4152 38.0997C37.6166 38.1501 37.7912 38.2664 37.9146 38.4253L33.2344 40.5425L30.4925 41.1919C29.3988 41.4509 28.2475 41.2824 27.274 40.7207L26.9309 40.5228C26.2304 40.1186 25.4519 39.873 24.6503 39.8007V36.4633H24.6505H24.6539H24.6573H24.6607H24.6641H24.6676H24.671H24.6744H24.6779H24.6813H24.6848H24.6882H24.6917H24.6951H24.6986H24.702H24.7055H24.709H24.7124H24.7159H24.7194H24.7229H24.7263H24.7298H24.7333H24.7368H24.7403H24.7438H24.7473H24.7508H24.7543H24.7578H24.7613H24.7648H24.7683H24.7718H24.7754H24.7789H24.7824H24.7859H24.7894H24.793H24.7965H24.8H24.8036H24.8071H24.8106H24.8142H24.8177H24.8213H24.8248H24.8283H24.8319H24.8354H24.839H24.8425H24.8461H24.8496H24.8532H24.8568H24.8603H24.8639H24.8674H24.871H24.8746H24.8781H24.8817H24.8852H24.8888H24.8924H24.896H24.8995H24.9031H24.9067H24.9102H24.9138H24.9174H24.9209H24.9245H24.9281H24.9317H24.9352H24.9388H24.9424H24.946H24.9495H24.9531H24.9567H24.9603H24.9639H24.9674H24.971H24.9746H24.9782H24.9817H24.9853H24.9889H24.9925H24.996H24.9996H25.0032H25.0068H25.0103H25.0139H25.0175H25.0211H25.0246H25.0282H25.0318H25.0353H25.0389H25.0425H25.046H25.0496H25.0532H25.0567H25.0603H25.0639H25.0674H25.071H25.0745H25.0781H25.0817H25.0852H25.0888H25.0923H25.0959H25.0994H25.103H25.1065H25.1101H25.1136H25.1171H25.1207H25.1242H25.1278H25.1313H25.1348H25.1384H25.1419H25.1454H25.1489H25.1525H25.156H25.1595H25.163H25.1665H25.17H25.1735H25.1771H25.1806H25.1841H25.1876H25.1911H25.1945H25.198H25.2015H25.205H25.2085H25.212H25.2155H25.2189H25.2224H25.2259H25.2293H25.2328H25.2363H25.2397H25.2432H25.2466H25.2501H25.2535H25.257H25.2604H25.2638H25.2673H25.2707H25.2741H25.2775H25.281H25.2844H25.2878H25.2912H25.2946H25.298H25.3014H25.3048H25.3081H25.3115H25.3149H25.3183H25.3217H25.325H25.3284H25.3317H25.3351H25.3384H25.3418H25.3451H25.3485H25.3518H25.3551H25.3584H25.3618H25.3651H25.3684H25.3717H25.375H25.3783H25.3816H25.3849H25.3881H25.3914H25.3947H25.398H25.4012H25.4045H25.4077H25.411H25.4142H25.4174H25.4207H25.4239H25.4271H25.4303H25.4335H25.4367H25.4399H25.4431H25.4463H25.4495H25.4527H25.4558H25.459H25.4621H25.4653H25.4684H25.4716H25.4747H25.4778H25.481H25.4841H25.4872H25.4903H25.4934H25.4965H25.4995H25.5026H25.5057H25.5088H25.5118H25.5149H25.5179H25.5209H25.524H25.527H25.53H25.533H25.536H25.539H25.542H25.545H25.548H25.551H25.5539H25.5569H25.5598H25.5628H25.5657H25.5686H25.5715H25.5745H25.5774H25.5803H25.5831H25.586H25.5889H25.5918H25.5946H25.5975H25.6003H25.6032H25.606H25.6088H25.6116H25.6144H25.6172H25.62H25.6228H25.6256H25.6283H25.6311H25.6338H25.6366H25.6393H25.642H25.6447H25.6474H25.6501H25.6528H25.6555H25.6582H25.6608H25.6635H25.6662H25.6688H25.6714H25.674H25.6766H25.6793H25.6818H25.6844H25.687H25.6896H25.6921H25.6947H25.6972H25.6997H25.7023H25.7048H25.7073H25.7098H25.7123H25.7147H25.7172H25.7196H25.7221H25.7245H25.727H25.7294H25.7318H25.7342H25.7366H25.7389H25.7413H25.7437H25.746H25.7483H25.7507H25.753C25.8155 36.4633 25.9747 36.5158 26.2599 36.741C26.5251 36.9503 26.8113 37.2356 27.1254 37.5497C27.7104 38.1346 28.371 38.3125 28.7118 38.3125H30.5031C30.7267 38.3125 30.9532 38.4268 31.0802 38.578C31.1405 38.6498 31.1639 38.7125 31.1694 38.7557C31.1738 38.7906 31.1698 38.8321 31.1335 38.8879C31.1334 38.888 31.1331 38.8883 31.1326 38.8887C31.1286 38.8927 31.1108 38.9099 31.0675 38.9358C31.0101 38.9702 30.9317 39.0058 30.8367 39.0393ZM23.0407 39.2919C22.7684 39.2919 22.5476 39.5127 22.5476 39.7851C22.5476 40.0574 22.7684 40.2782 23.0407 40.2782C23.3131 40.2782 23.5339 40.0574 23.5339 39.7851C23.5339 39.5127 23.3131 39.2919 23.0407 39.2919Z" fill="white"/>
<path d="M29.8348 29.6883C29.5323 29.6584 29.2278 29.7228 28.9632 29.8726C28.6986 30.0224 28.4868 30.2504 28.3568 30.5252C28.2267 30.8001 28.1848 31.1084 28.2368 31.408C28.2888 31.7076 28.4321 31.9838 28.6471 32.1988C28.8621 32.4138 29.1383 32.5571 29.4379 32.6091C29.7374 32.661 30.0458 32.6191 30.3206 32.4891C30.5955 32.359 30.8234 32.1472 30.9732 31.8826C31.1231 31.618 31.1874 31.3136 31.1575 31.011C31.1235 30.6718 30.9732 30.3548 30.7321 30.1137C30.491 29.8727 30.1741 29.7224 29.8348 29.6883ZM33.3859 31.156C33.3849 31.3163 33.3732 31.4763 33.3506 31.635L34.3924 32.4522C34.4378 32.4898 34.4684 32.5422 34.4787 32.6002C34.489 32.6583 34.4785 32.7181 34.4489 32.769L33.4633 34.4742C33.4334 34.5247 33.3866 34.563 33.3312 34.5823C33.2758 34.6017 33.2153 34.6009 33.1605 34.58L32.1258 34.1634C32.0688 34.1407 32.007 34.1325 31.946 34.1395C31.885 34.1465 31.8267 34.1686 31.7763 34.2037C31.6184 34.3125 31.4524 34.4091 31.2799 34.4927C31.2257 34.519 31.1788 34.5584 31.1433 34.6071C31.1079 34.6559 31.085 34.7127 31.0767 34.7724L30.9216 35.876C30.9114 35.9343 30.8813 35.9872 30.8364 36.0258C30.7915 36.0643 30.7346 36.0861 30.6755 36.0873H28.7043C28.6461 36.0863 28.59 36.0655 28.5453 36.0284C28.5005 35.9912 28.4697 35.9399 28.458 35.8829L28.3031 34.781C28.2944 34.7206 28.2709 34.6633 28.2348 34.6141C28.1986 34.565 28.1508 34.5256 28.0957 34.4994C27.9234 34.4162 27.758 34.3193 27.6012 34.2097C27.551 34.1748 27.4929 34.1529 27.4321 34.146C27.3713 34.1391 27.3098 34.1475 27.253 34.1703L26.2186 34.5867C26.1638 34.6076 26.1034 34.6084 26.048 34.5891C25.9926 34.5698 25.9458 34.5316 25.9158 34.4812L24.9302 32.7759C24.9006 32.725 24.89 32.6652 24.9003 32.6071C24.9107 32.5491 24.9413 32.4967 24.9867 32.4591L25.8672 31.7678C25.9154 31.7295 25.9533 31.6797 25.9775 31.6231C26.0016 31.5664 26.0112 31.5046 26.0054 31.4433C25.9971 31.3472 25.9921 31.2514 25.9921 31.1553C25.9921 31.0592 25.9969 30.9647 26.0054 30.8707C26.0106 30.8097 26.0005 30.7485 25.9761 30.6924C25.9517 30.6363 25.9137 30.5872 25.8656 30.5494L24.9855 29.8581C24.9409 29.8204 24.9109 29.7681 24.9009 29.7104C24.8909 29.6528 24.9016 29.5935 24.9309 29.5429L25.9165 27.8377C25.9464 27.7872 25.9932 27.7489 26.0486 27.7296C26.104 27.7102 26.1644 27.711 26.2193 27.7319L27.2539 28.1485C27.311 28.1712 27.3728 28.1795 27.4338 28.1724C27.4948 28.1654 27.5531 28.1433 27.6035 28.1082C27.7614 27.9995 27.9274 27.9029 28.0999 27.8192C28.1541 27.7929 28.201 27.7536 28.2365 27.7048C28.2719 27.656 28.2948 27.5992 28.3031 27.5395L28.4582 26.4359C28.4684 26.3776 28.4985 26.3247 28.5434 26.2862C28.5883 26.2476 28.6452 26.2259 28.7043 26.2246H30.6755C30.7337 26.2256 30.7897 26.2464 30.8345 26.2836C30.8793 26.3207 30.9101 26.372 30.9218 26.429L31.0767 27.531C31.0854 27.5913 31.1088 27.6487 31.145 27.6978C31.1812 27.7469 31.229 27.7863 31.2841 27.8125C31.4564 27.8957 31.6217 27.9926 31.7786 28.1022C31.8288 28.1371 31.8869 28.159 31.9477 28.1659C32.0085 28.1728 32.07 28.1644 32.1268 28.1416L33.1612 27.7252C33.216 27.7043 33.2764 27.7035 33.3318 27.7228C33.3872 27.7421 33.434 27.7803 33.464 27.8308L34.4496 29.536C34.4792 29.5869 34.4898 29.6467 34.4795 29.7048C34.4691 29.7628 34.4385 29.8153 34.3931 29.8528L33.5126 30.5441C33.4642 30.5823 33.426 30.632 33.4017 30.6887C33.3773 30.7453 33.3675 30.8072 33.3732 30.8686C33.3808 30.964 33.3859 31.0599 33.3859 31.156Z" stroke="white" stroke-linecap="round" stroke-linejoin="round"/>
</svg>
