<svg width="98" height="24" viewBox="0 0 98 24" fill="none" xmlns="http://www.w3.org/2000/svg">
<path fill-rule="evenodd" clip-rule="evenodd" d="M24.3611 2.77143L25.8658 0.263672H0L1.50466 2.77143H10.3256H10.7396L10.9466 3.11376L12.9289 6.4256L14.9192 3.11376L15.1262 2.77143H15.5322H24.3611Z" fill="white"/>
<path fill-rule="evenodd" clip-rule="evenodd" d="M22.0362 6.64028L23.5329 4.14844H15.946L13.5497 8.14494L12.9287 9.17192L12.3077 8.14494L9.91141 4.14844H2.3324L3.82113 6.64028H8.12812H8.5421L8.74909 6.98261L12.9287 13.9566L17.1163 6.98261L17.3232 6.64028H17.7293H22.0362Z" fill="white"/>
<path fill-rule="evenodd" clip-rule="evenodd" d="M12.9285 21.8143L21.2081 8.01758H18.1431L13.5495 15.6762L12.9285 16.7032L12.3076 15.6762L7.71397 8.01758H4.64893L12.9285 21.8143Z" fill="white"/>
<path fill-rule="evenodd" clip-rule="evenodd" d="M43.9378 0.263672H39.5512L37.1469 10.2708L34.6869 0.263672H30.2844L33.7953 13.32H40.4429L43.9378 0.263672Z" fill="white"/>
<path fill-rule="evenodd" clip-rule="evenodd" d="M55.8948 13.32V10.5336H49.6533V7.9223H55.242V5.40657H49.6533V3.05007H55.7834V0.263672H45.3702V13.32H55.8948Z" fill="white"/>
<path fill-rule="evenodd" clip-rule="evenodd" d="M71.1169 13.3182L67.3195 6.65467L70.9099 0.261868H66.1412L65.5362 1.41623L62.7975 6.64671L65.6556 12.2354L66.2129 13.3182H71.1169ZM62.3358 0.253906H58.0527V13.3182H62.3358V0.261868V0.253906Z" fill="white"/>
<path fill-rule="evenodd" clip-rule="evenodd" d="M84.7623 8.96521V0.263672H80.511V8.96521C80.511 10.5415 80.2801 10.5415 78.7675 10.5415C77.2549 10.5415 77.0399 10.5415 77.0399 8.96521V0.263672H72.7568V8.96521C72.7568 12.707 73.1867 13.5747 78.7675 13.5747C84.3483 13.5747 84.7623 12.707 84.7623 8.96521Z" fill="white"/>
<path fill-rule="evenodd" clip-rule="evenodd" d="M97.8902 9.53746C97.8902 7.29241 97.8902 6.05844 94.8252 5.44543L92.0547 4.91203C91.2984 4.77669 91.2984 4.66523 91.2984 3.87708C91.2984 2.80232 91.4894 2.80233 93.7982 2.80233C96.1069 2.80233 97.4046 2.93766 97.4046 2.93766V0.42194C97.4046 0.42194 95.4063 0 92.1502 0C89.2603 0 86.872 0.270679 86.872 3.91689C86.872 5.99475 86.872 7.34018 89.9529 7.91338L92.7234 8.43086C93.4956 8.5662 93.4956 8.70154 93.4956 9.62503C93.4956 10.7953 93.2807 10.7953 90.7809 10.7953C88.2811 10.7953 86.8481 10.6441 86.8481 10.6441V13.1598C86.8481 13.1598 88.9419 13.5817 92.3572 13.5817C96.29 13.5817 97.8822 13.3349 97.8822 9.54542" fill="white"/>
<path d="M33.6794 16.1934V22.212H38.3395V21.1372H34.8401V16.1934H33.6794Z" fill="white"/>
<path d="M38.9623 20.1743C38.9623 21.3866 39.8651 22.298 41.0947 22.298C42.3242 22.298 43.227 21.3866 43.227 20.1743C43.227 18.9533 42.3328 18.0505 41.0947 18.0505C39.8565 18.0505 38.9623 18.9533 38.9623 20.1743ZM42.1522 20.1743C42.1522 20.8535 41.7051 21.3092 41.0947 21.3092C40.4842 21.3092 40.0371 20.8535 40.0371 20.1743C40.0371 19.495 40.4842 19.0393 41.0947 19.0393C41.7051 19.0393 42.1522 19.495 42.1522 20.1743Z" fill="white"/>
<path d="M44.0305 22.7709C44.3142 23.5877 44.9677 24.0004 45.965 24.0004C47.3407 24.0004 48.0716 23.1578 48.0716 21.8423V18.1365H46.9796V18.618C46.7131 18.2397 46.309 18.0505 45.7501 18.0505C44.6925 18.0505 43.8155 18.8759 43.8155 20.1657C43.8155 21.3608 44.6237 22.1862 45.6727 22.1862C46.3004 22.1862 46.7303 21.9712 46.9796 21.5413V21.9283C46.9796 22.6505 46.6529 23.0804 45.9908 23.0804C45.4836 23.0804 45.131 22.8139 45.0021 22.341L44.0305 22.7709ZM47.014 20.1399C47.014 20.7933 46.5669 21.2662 45.9736 21.2662C45.3632 21.2662 44.9161 20.8449 44.9161 20.1657C44.9161 19.4434 45.3632 18.9963 45.9564 18.9963C46.5669 18.9963 47.014 19.452 47.014 20.1399Z" fill="white"/>
<path d="M49.1192 18.1365V22.212H50.2197V18.1365H49.1192ZM49.0848 17.5261H50.2627V16.3653H49.0848V17.5261Z" fill="white"/>
<path d="M50.9678 21.206C51.2515 21.9025 51.8792 22.298 52.8163 22.298C53.7965 22.298 54.5359 21.7477 54.5359 20.9825C54.5359 20.2602 54.1232 19.8647 53.0829 19.7014C52.395 19.5982 52.1801 19.495 52.1801 19.2543C52.1801 19.0479 52.4208 18.9017 52.7562 18.9017C53.0915 18.9017 53.3408 19.0565 53.444 19.366L54.278 18.9103C54.0287 18.3687 53.5816 18.0505 52.7304 18.0505C51.9049 18.0505 51.1741 18.5406 51.1741 19.2457C51.1741 19.9335 51.6814 20.329 52.567 20.4666C53.2978 20.5698 53.5128 20.7159 53.5128 20.9997C53.5128 21.2318 53.272 21.3952 52.8507 21.3952C52.3606 21.3952 52.0167 21.1802 51.8276 20.7503L50.9678 21.206Z" fill="white"/>
<path d="M55.7129 20.8363C55.7129 21.7305 56.2546 22.298 57.2434 22.298C58.1032 22.298 58.6535 21.7993 58.7652 20.9481L57.7507 20.7589C57.7163 21.1372 57.5529 21.3264 57.2692 21.3264C56.994 21.3264 56.8049 21.1458 56.8049 20.8363V19.0393H58.3353V18.1365H56.8049V16.7952H55.7129V18.1365H54.8703V19.0393H55.7129V20.8363Z" fill="white"/>
<path d="M59.4889 18.1365V22.212H60.5894V18.1365H59.4889ZM59.4545 17.5261H60.6324V16.3653H59.4545V17.5261Z" fill="white"/>
<path d="M63.5988 21.3264C63.0227 21.3264 62.481 20.8793 62.481 20.1485C62.481 19.4176 63.0227 19.0135 63.5386 19.0135C64.0545 19.0135 64.4414 19.3316 64.5187 19.8475L65.4903 19.5208C65.3098 18.5922 64.5445 18.0505 63.5128 18.0505C62.3778 18.0505 61.4063 18.9189 61.4063 20.1485C61.4063 21.4382 62.2919 22.298 63.6245 22.298C64.6907 22.298 65.4559 21.7477 65.7053 20.6729L64.6907 20.3204C64.6133 20.9051 64.2608 21.3264 63.5988 21.3264Z" fill="white"/>
<path d="M66.1487 21.206C66.4324 21.9025 67.0601 22.298 67.9973 22.298C68.9774 22.298 69.7169 21.7477 69.7169 20.9825C69.7169 20.2602 69.3042 19.8647 68.2638 19.7014C67.576 19.5982 67.361 19.495 67.361 19.2543C67.361 19.0479 67.6017 18.9017 67.9371 18.9017C68.2724 18.9017 68.5217 19.0565 68.6249 19.366L69.4589 18.9103C69.2096 18.3687 68.7625 18.0505 67.9113 18.0505C67.0859 18.0505 66.355 18.5406 66.355 19.2457C66.355 19.9335 66.8623 20.329 67.7479 20.4666C68.4787 20.5698 68.6937 20.7159 68.6937 20.9997C68.6937 21.2318 68.453 21.3952 68.0317 21.3952C67.5416 21.3952 67.1976 21.1802 67.0085 20.7503L66.1487 21.206Z" fill="white"/>
</svg>
