<svg width="61" height="61" viewBox="0 0 61 61" fill="none" xmlns="http://www.w3.org/2000/svg">
<circle cx="30.5" cy="30.5" r="30.5" fill="#499647"/>
<path d="M41.2066 36.9214C41.5554 38.0417 41.5049 39.2483 41.0638 40.3355C40.6227 41.4227 39.8182 42.3233 38.7875 42.8839C37.7568 43.4445 36.5636 43.6304 35.4112 43.4099C34.2588 43.1894 33.2185 42.5761 32.4676 41.6746C31.7167 40.773 31.3016 39.639 31.2931 38.4657C31.2846 37.2925 31.6831 36.1525 32.4208 35.2402C33.1586 34.3278 34.1898 33.6995 35.3389 33.4622C36.4879 33.2249 37.6837 33.3934 38.7225 33.939" stroke="white"/>
<path d="M33.4766 37.1909L35.9528 39.6671L41.5242 34.0957" stroke="white"/>
<path d="M37.8095 31.4127V18H23.3651L18 23.3651V44H30.7937" stroke="white"/>
<path d="M18 23.3654H23.3651V19.8574" stroke="white"/>
<path d="M20.4766 25.8418H32.6512" stroke="white"/>
<path d="M20.4766 28.3184H32.6512" stroke="white"/>
<path d="M20.4766 30.793H32.6512" stroke="white"/>
<path d="M20.4766 33.2695H29.9686" stroke="white"/>
<path d="M20.4766 35.7461H29.1432" stroke="white"/>
<circle cx="34.9205" cy="25.8404" r="0.412698" fill="white"/>
<circle cx="34.9205" cy="28.317" r="0.412698" fill="white"/>
<circle cx="34.9205" cy="30.7936" r="0.412698" fill="white"/>
</svg>
