<svg width="102" height="24" viewBox="0 0 102 24" fill="none" xmlns="http://www.w3.org/2000/svg">
<g clip-path="url(#clip0_1013_43671)">
<path d="M41.8114 5.28516V18.8762H39.537V12.9166H34.0303V18.8762H31.7773V5.28516H34.0303V10.7593H39.537V5.28516H41.8114Z" fill="white"/>
<path d="M50.7376 18.5261C50.7376 18.5261 49.3141 19.0708 47.2484 19.0708C44.8991 19.0708 43.6093 17.6146 43.5291 15.8079C43.4916 14.6807 43.4916 13.5751 43.5291 12.2375C43.5879 10.4685 44.9954 8.97461 47.2484 8.97461C49.4425 8.97461 50.8714 10.393 50.9463 12.1782C50.9837 13.0519 50.9463 14.8587 50.9463 14.8587H45.6108C45.6108 15.1121 45.6108 15.4196 45.6322 15.6569C45.6911 16.3957 46.2476 17.0753 47.2323 17.0753C48.9448 17.0753 50.47 16.6492 50.47 16.6492L50.7376 18.5261ZM45.6162 12.9926H48.8538C48.8538 12.9926 48.8324 12.5288 48.8324 12.3885C48.811 11.6335 48.1581 10.9701 47.2912 10.9701C46.2691 10.9701 45.675 11.6119 45.6322 12.3885C45.6162 12.6852 45.6162 12.9926 45.6162 12.9926Z" fill="white"/>
<path d="M52.3594 9.16797H56.6941C58.6581 9.16797 59.7177 10.1388 59.7177 11.8268C59.7177 13.1644 58.9096 13.7468 58.9096 13.7468C58.9096 13.7468 59.9104 14.3293 59.9104 15.8826C59.9104 17.7486 58.8722 18.8704 56.4426 18.8704H52.3594V9.16797ZM56.5978 12.9163C57.2935 12.9163 57.6788 12.6035 57.6788 11.9455C57.6788 11.4224 57.3523 11.1473 56.7369 11.1473H54.4251V12.9163H56.5978ZM56.4265 16.9343C57.4647 16.9343 57.834 16.6215 57.834 15.8664C57.834 15.2462 57.545 14.7608 56.6031 14.7608H54.4251V16.9343H56.4265Z" fill="white"/>
<path d="M66.4067 18.176C66.4067 18.176 65.1758 19.0713 63.9396 19.0713C62.0131 19.0713 60.916 17.7499 60.916 15.8892C60.916 14.1418 61.8579 12.6479 63.9396 12.6479H66.3103V12.3782C66.3103 11.6609 65.8662 10.9598 64.7691 10.9598C63.0941 10.9598 61.6278 11.3481 61.6278 11.3481L61.4137 9.40654C61.4137 9.40654 63.1851 8.98047 64.8815 8.98047C67.2148 8.98047 68.4081 10.4744 68.4081 12.2596V18.8771H66.503L66.4067 18.176ZM66.3103 16.0456V14.6272H64.0199C63.2493 14.6272 63.0192 15.2097 63.0192 15.8677C63.0192 16.5256 63.2707 17.0919 64.0038 17.0919C64.9832 17.0919 66.3103 16.0456 66.3103 16.0456Z" fill="white"/>
<path d="M68.9385 9.16797H76.6821V11.1689H73.8512V18.8758H71.7534V11.1689H68.9438V9.16797H68.9385Z" fill="white"/>
<path d="M84.2923 18.5261C84.2923 18.5261 82.8688 19.0708 80.8031 19.0708C78.4538 19.0708 77.164 17.6146 77.0838 15.8079C77.0463 14.6807 77.0463 13.5751 77.0838 12.2375C77.1426 10.4685 78.5501 8.97461 80.8031 8.97461C82.9972 8.97461 84.426 10.393 84.501 12.1782C84.5384 13.0519 84.501 14.8587 84.501 14.8587H79.1655C79.1655 15.1121 79.1655 15.4196 79.1869 15.6569C79.2458 16.3957 79.8023 17.0753 80.787 17.0753C82.4995 17.0753 84.0247 16.6492 84.0247 16.6492L84.2923 18.5261ZM79.1655 12.9926H82.4032C82.4032 12.9926 82.3818 12.5288 82.3818 12.3885C82.3604 11.6335 81.7075 10.9701 80.8405 10.9701C79.8184 10.9701 79.2244 11.6119 79.1816 12.3885C79.1655 12.6852 79.1655 12.9926 79.1655 12.9926Z" fill="white"/>
<path d="M88.0167 14.1028V18.8758H85.9189V9.16797H88.0167V13.461L91.5006 9.16797H94.0265L90.152 13.7522L94.3155 18.8758H91.736L88.0167 14.1028Z" fill="white"/>
<path d="M99.9985 18.176C99.9985 18.176 98.7676 19.0713 97.5314 19.0713C95.6049 19.0713 94.5078 17.7499 94.5078 15.8892C94.5078 14.1418 95.4497 12.6479 97.5314 12.6479H99.9021V12.3782C99.9021 11.6609 99.458 10.9598 98.3609 10.9598C96.6859 10.9598 95.2196 11.3481 95.2196 11.3481L95.0055 9.40654C95.0055 9.40654 96.7769 8.98047 98.4733 8.98047C100.807 8.98047 102 10.4744 102 12.2596V18.8771H100.095L99.9985 18.176ZM99.9021 16.0456V14.6272H97.6117C96.8411 14.6272 96.611 15.2097 96.611 15.8677C96.611 16.5256 96.8625 17.0919 97.5903 17.0919C98.5696 17.0919 99.9021 16.0456 99.9021 16.0456Z" fill="white"/>
<path d="M23.8143 0H0V24H23.8143V0Z" fill="white"/>
<path d="M17.6283 5.07031V19.4164H14.1284V13.6186H9.69732V19.4164H6.24023V5.07031H9.69732V10.4798H14.1284V5.07031H17.6283Z" fill="#59B142"/>
<path d="M14.1333 13.6186H17.6278V5.07031H14.1333V10.4798H13.1807H9.7022H6.24512V19.4164H9.7022V13.6186H10.4032H14.1333Z" fill="#59B142"/>
<path opacity="0.3" d="M9.7022 10.4785H6.24512L9.7022 9.16797V10.4785Z" fill="#0063F9"/>
<path opacity="0.3" d="M14.1338 13.6172H17.6283L14.1338 14.9331V13.6172Z" fill="#0063F9"/>
</g>
<defs>
<clipPath id="clip0_1013_43671">
<rect width="102" height="24" fill="white"/>
</clipPath>
</defs>
</svg>
