<svg width="61" height="61" viewBox="0 0 61 61" fill="none" xmlns="http://www.w3.org/2000/svg">
<circle cx="30.5" cy="30.5" r="30.5" fill="#499647"/>
<circle opacity="0.1" cx="31" cy="31" r="8" fill="white"/>
<circle opacity="0.1" cx="31" cy="31" r="10" fill="white"/>
<circle opacity="0.2" cx="30.9276" cy="30.7948" r="5.87097" fill="white"/>
<path d="M29.7498 31.1891V31.8811H31.9053V32.5443H29.7498V34.3176H28.8227V32.5443H28.3447V31.8811H28.8227V31.1891H28.3447V30.3818H28.8227V27.2725H31.0164C31.6441 27.2725 32.1188 27.3365 32.4406 27.4647C32.7656 27.5896 33.0253 27.8123 33.2196 28.1327C33.414 28.4531 33.5112 28.8071 33.5112 29.1947C33.5112 29.5856 33.4395 29.9092 33.2961 30.1655C33.1527 30.4218 32.9616 30.6268 32.7226 30.7806C32.4868 30.9312 32.2144 31.0369 31.9053 31.0978C31.5994 31.1587 31.2824 31.1891 30.9542 31.1891H29.7498ZM30.9542 30.3818C31.1677 30.3818 31.3716 30.3657 31.566 30.3337C31.7604 30.2985 31.9308 30.236 32.0774 30.1463C32.2239 30.0566 32.3402 29.9364 32.4263 29.7858C32.5123 29.6321 32.5553 29.435 32.5553 29.1947C32.5553 28.9865 32.5155 28.8103 32.4358 28.6661C32.3594 28.5219 32.2526 28.405 32.1156 28.3153C31.9818 28.2224 31.8241 28.1551 31.6425 28.1135C31.4608 28.0718 31.2649 28.051 31.0546 28.051H29.7498V30.3818H30.9542Z" stroke="white" stroke-width="0.3"/>
<rect x="23.6787" y="16.5" width="14.969" height="28.12" rx="1.5" stroke="white"/>
<rect x="29.6003" y="18.5202" width="2.8" height="0.56" rx="0.28" stroke="white" stroke-width="0.56"/>
<path d="M45.3535 21.9532C45.5487 21.7579 45.5487 21.4413 45.3535 21.2461L42.1715 18.0641C41.9762 17.8688 41.6596 17.8688 41.4644 18.0641C41.2691 18.2593 41.2691 18.5759 41.4644 18.7712L44.2928 21.5996L41.4644 24.428C41.2691 24.6233 41.2691 24.9399 41.4644 25.1351C41.6596 25.3304 41.9762 25.3304 42.1715 25.1351L45.3535 21.9532ZM34.9199 22.0996H44.9999V21.0996H34.9199V22.0996Z" fill="white"/>
<path d="M16.6465 38.0468C16.4513 38.2421 16.4513 38.5587 16.6465 38.7539L19.8285 41.9359C20.0238 42.1312 20.3404 42.1312 20.5356 41.9359C20.7309 41.7407 20.7309 41.4241 20.5356 41.2288L17.7072 38.4004L20.5356 35.572C20.7309 35.3767 20.7309 35.0601 20.5356 34.8649C20.3403 34.6696 20.0238 34.6696 19.8285 34.8649L16.6465 38.0468ZM27.0801 37.9004L17.0001 37.9004L17.0001 38.9004L27.0801 38.9004L27.0801 37.9004Z" fill="white"/>
<path d="M28.2002 38.4004H31.5602" stroke="white"/>
<path d="M33.7998 21.5996H30.4398" stroke="white"/>
<path d="M28.2002 40.6396H29.3202" stroke="white"/>
<path d="M33.7998 23.8398H32.6798" stroke="white"/>
</svg>
