<svg width="61" height="61" viewBox="0 0 61 61" fill="none" xmlns="http://www.w3.org/2000/svg">
<circle cx="30.5" cy="30.5" r="30.5" fill="#499647"/>
<path d="M47.4128 27.47C48.0327 31.1656 47.4499 34.9626 45.7503 38.3022C44.0507 41.6417 41.324 44.3476 37.9715 46.0215C34.619 47.6955 30.8177 48.2491 27.127 47.6009C23.4362 46.9528 20.051 45.1371 17.4695 42.421M14.914 21.7627C16.7559 18.4995 19.5966 15.9136 23.0181 14.3857C26.4396 12.8577 30.2613 12.4684 33.9206 13.2749" stroke="white" stroke-linecap="square" stroke-linejoin="round"/>
<path opacity="0.7" d="M40.8571 27.9876C41.366 30.2873 41.1233 32.6897 40.1647 34.8411C39.206 36.9926 37.5821 38.7796 35.5319 39.9391C33.4817 41.0985 31.1134 41.5693 28.7756 41.2821C26.4378 40.9949 24.2539 39.9649 22.5453 38.3436M20.2714 25.4585C21.3218 23.3503 23.0212 21.635 25.1195 20.5649C27.2178 19.4948 29.6041 19.1265 31.9274 19.5142" stroke="white" stroke-linecap="square" stroke-linejoin="round"/>
<path d="M32.2655 30.1825C32.2655 31.4122 31.2686 32.409 30.039 32.409C28.8093 32.409 27.8125 31.4122 27.8125 30.1825C27.8125 28.9529 28.8093 27.9561 30.039 27.9561C31.2686 27.9561 32.2655 28.9529 32.2655 30.1825Z" fill="white"/>
<path opacity="0.6" d="M35.57 28.57C35.8885 29.8106 35.7837 31.122 35.2722 32.2962C34.7607 33.4705 33.8717 34.4403 32.7464 35.052C31.621 35.6636 30.3236 35.8819 29.0601 35.6724C27.7965 35.4629 26.639 34.8375 25.7713 33.8954C24.9036 32.9533 24.3752 31.7485 24.27 30.472C24.1649 29.1955 24.4889 27.9204 25.1908 26.849C25.8927 25.7776 26.9322 24.9712 28.1444 24.5577C29.3567 24.1443 30.6723 24.1474 31.8826 24.5666" stroke="white" stroke-width="0.5" stroke-dasharray="3 3"/>
<path d="M36 20C36 22.4333 37.2548 24 39.1941 24C41.1447 24 42.3995 22.4333 42.3995 20C42.3995 17.5667 41.1447 16 39.1941 16C37.2548 16 36 17.5667 36 20ZM41.4071 20C41.4071 20.9222 41.2132 21.6667 40.8253 22.2556C40.4489 22.8444 39.9013 23.1333 39.1941 23.1333C38.4982 23.1333 37.9507 22.8444 37.5628 22.2556C37.175 21.6667 36.981 20.9222 36.981 20C36.981 19.0778 37.175 18.3333 37.5628 17.7444C37.9507 17.1556 38.4982 16.8667 39.1941 16.8667C39.9013 16.8667 40.4489 17.1556 40.8253 17.7444C41.2132 18.3333 41.4071 19.0778 41.4071 20Z" fill="white"/>
<path d="M43.2848 17.9667C43.2848 19.0889 44.0947 19.9333 45.2925 19.9333C46.4902 19.9333 47.3116 19.0889 47.3116 17.9667C47.3116 16.8444 46.4902 16 45.2925 16C44.0947 16 43.2848 16.8444 43.2848 17.9667ZM46.456 17.9667C46.456 18.6778 45.9883 19.1667 45.2925 19.1667C44.608 19.1667 44.1403 18.6778 44.1403 17.9667C44.1403 17.2556 44.608 16.7667 45.2925 16.7667C45.9883 16.7667 46.456 17.2556 46.456 17.9667ZM45.0415 22.9556L50.7338 17.6444L50.152 17.0667L44.4597 22.3778L45.0415 22.9556ZM47.9732 22.0333C47.9732 23.1556 48.7945 24 49.9923 24C51.1901 24 52 23.1556 52 22.0333C52 20.9111 51.1901 20.0667 49.9923 20.0667C48.7945 20.0667 47.9732 20.9111 47.9732 22.0333ZM51.1444 22.0333C51.1444 22.7444 50.6767 23.2333 49.9923 23.2333C49.2965 23.2333 48.8287 22.7444 48.8287 22.0333C48.8287 21.3222 49.2965 20.8333 49.9923 20.8333C50.6767 20.8333 51.1444 21.3222 51.1444 22.0333Z" fill="white"/>
<path d="M14.7148 36.4656C13.7376 37.1513 13.5232 38.4631 14.1793 39.3321C14.8102 40.2263 16.1217 40.4175 17.0726 39.6959C18.045 39.0136 18.2721 37.6994 17.6128 36.826C16.9852 35.9362 15.6609 35.7475 14.7148 36.4656ZM16.7877 39.3056C16.0801 39.822 15.1756 39.7396 14.6385 39.0038C14.1014 38.268 14.2826 37.3794 14.9997 36.856C15.7168 36.3325 16.6183 36.4309 17.1521 37.1622C17.6859 37.8935 17.4953 38.7891 16.7877 39.3056Z" fill="white"/>
<path d="M19.4947 33.0454L16.5979 35.1599L16.8828 35.5502L18.1128 34.6524L20.1202 37.4026L20.5571 37.0837L18.5497 34.3335L19.7796 33.4357L19.4947 33.0454Z" fill="white"/>
<path d="M13.0381 34.7433C12.1549 31.3171 12.3628 27.7008 13.6327 24.3983" stroke="white"/>
</svg>
