<svg width="99" height="24" viewBox="0 0 99 24" fill="none" xmlns="http://www.w3.org/2000/svg">
<path fill-rule="evenodd" clip-rule="evenodd" d="M24.4166 2.77714L25.9246 0.263672H0L1.50808 2.77714H10.3491H10.764L10.9715 3.12025L12.9583 6.43963L14.9532 3.12025L15.1606 2.77714H15.5676H24.4166Z" fill="white"/>
<path fill-rule="evenodd" clip-rule="evenodd" d="M22.0863 6.65376L23.5864 4.15625H15.9822L13.5804 8.16184L12.9581 9.19117L12.3357 8.16184L9.93391 4.15625H2.33765L3.82977 6.65376H8.14656H8.56148L8.76894 6.99687L12.9581 13.9867L17.1552 6.99687L17.3626 6.65376H17.7696H22.0863Z" fill="white"/>
<path fill-rule="evenodd" clip-rule="evenodd" d="M12.9581 21.8632L21.2565 8.03516H18.1845L13.5805 15.7112L12.9581 16.7405L12.3357 15.7112L7.73169 8.03516H4.65967L12.9581 21.8632Z" fill="white"/>
<path fill-rule="evenodd" clip-rule="evenodd" d="M44.0375 0.263672H39.6409L37.2312 10.2936L34.7656 0.263672H30.353L33.8719 13.3497H40.5346L44.0375 0.263672Z" fill="white"/>
<path fill-rule="evenodd" clip-rule="evenodd" d="M56.0227 13.3497V10.5569H49.767V7.93973H55.3684V5.41828H49.767V3.05642H55.911V0.263672H45.4741V13.3497H56.0227Z" fill="white"/>
<path fill-rule="evenodd" clip-rule="evenodd" d="M71.2786 13.3498L67.4724 6.67119L71.0711 0.263839H66.2915L65.6851 1.42083L62.9402 6.66321L65.8048 12.2647L66.3633 13.3498H71.2786ZM62.4774 0.255859H58.1846V13.3498H62.4774V0.263839V0.255859Z" fill="white"/>
<path fill-rule="evenodd" clip-rule="evenodd" d="M84.9553 8.98501V0.263672H80.6944V8.98501C80.6944 10.5649 80.463 10.5649 78.947 10.5649C77.4309 10.5649 77.2155 10.5649 77.2155 8.98501V0.263672H72.9226V8.98501C72.9226 12.7353 73.3535 13.605 78.947 13.605C84.5404 13.605 84.9553 12.7353 84.9553 8.98501Z" fill="white"/>
<path fill-rule="evenodd" clip-rule="evenodd" d="M98.1124 9.55917C98.1124 7.30901 98.1124 6.07222 95.0404 5.45782L92.2636 4.92321C91.5056 4.78756 91.5056 4.67585 91.5056 3.8859C91.5056 2.8087 91.6971 2.8087 94.0111 2.8087C96.3251 2.8087 97.6257 2.94435 97.6257 2.94435V0.4229C97.6257 0.4229 95.6229 0 92.3594 0C89.4629 0 87.0691 0.271295 87.0691 3.9258C87.0691 6.00839 87.0691 7.35689 90.1571 7.93139L92.9339 8.45005C93.7079 8.58569 93.7079 8.72134 93.7079 9.64694C93.7079 10.8199 93.4924 10.8199 90.9869 10.8199C88.4814 10.8199 87.0452 10.6683 87.0452 10.6683V13.1897C87.0452 13.1897 89.1437 13.6126 92.5668 13.6126C96.5086 13.6126 98.1044 13.3653 98.1044 9.56714" fill="white"/>
<path d="M34.9916 19.8914H36.7031C38.0197 19.8914 38.7219 18.9786 38.7219 17.9955C38.7219 16.9861 38.0197 16.1172 36.7031 16.1172H33.8066V22.2612H34.9916V19.8914ZM34.9916 18.7942V17.2143H36.6153C37.1508 17.2143 37.5194 17.504 37.5194 18.0043C37.5194 18.4958 37.1508 18.7942 36.6153 18.7942H34.9916Z" fill="white"/>
<path d="M39.531 18.1008V22.2612H40.6544V19.5842C40.6544 19.1629 40.8826 18.9259 41.2337 18.9259C41.5497 18.9259 41.7604 19.1365 41.7604 19.4437C41.7604 19.5578 41.7516 19.6632 41.7252 19.7597H42.7873C42.8312 19.593 42.8487 19.4262 42.8487 19.2419C42.8487 18.5309 42.4011 18.0131 41.655 18.0131C41.1723 18.0131 40.83 18.25 40.6544 18.6362V18.1008H39.531Z" fill="white"/>
<path d="M43.3826 20.181C43.3826 21.4186 44.3042 22.349 45.5593 22.349C46.8144 22.349 47.7361 21.4186 47.7361 20.181C47.7361 18.9347 46.8232 18.0131 45.5593 18.0131C44.2954 18.0131 43.3826 18.9347 43.3826 20.181ZM46.6389 20.181C46.6389 20.8744 46.1825 21.3396 45.5593 21.3396C44.9361 21.3396 44.4797 20.8744 44.4797 20.181C44.4797 19.4876 44.9361 19.0224 45.5593 19.0224C46.1825 19.0224 46.6389 19.4876 46.6389 20.181Z" fill="white"/>
<path d="M48.5739 23.9991H49.6973V18.1008H48.5739V23.9991ZM48.5388 17.4777H49.7412V16.2927H48.5388V17.4777Z" fill="white"/>
<path d="M53.7173 20.6726C53.5856 21.1465 53.2609 21.3835 52.7518 21.3835C52.155 21.3835 51.6634 21.0236 51.6547 20.3917H54.4809C54.516 20.2337 54.5336 20.0669 54.5336 19.8826C54.5336 18.7416 53.7524 18.0131 52.6026 18.0131C51.3738 18.0131 50.5312 18.9698 50.5312 20.1547C50.5312 21.4713 51.444 22.349 52.7343 22.349C53.7085 22.349 54.3844 21.8575 54.674 21.05L53.7173 20.6726ZM51.6547 19.6456C51.76 19.1892 52.1462 18.9171 52.6026 18.9171C53.1029 18.9171 53.4452 19.1892 53.4452 19.6105L53.4364 19.6456H51.6547Z" fill="white"/>
<path d="M57.458 21.3572C56.8699 21.3572 56.3169 20.9008 56.3169 20.1547C56.3169 19.4086 56.8699 18.9961 57.3965 18.9961C57.9232 18.9961 58.3181 19.3209 58.3971 19.8475L59.3889 19.514C59.2046 18.566 58.4235 18.0131 57.3702 18.0131C56.2116 18.0131 55.2198 18.8996 55.2198 20.1547C55.2198 21.4713 56.1238 22.349 57.4843 22.349C58.5727 22.349 59.3538 21.7873 59.6084 20.6901L58.5727 20.3302C58.4937 20.9271 58.1338 21.3572 57.458 21.3572Z" fill="white"/>
<path d="M60.7822 20.8569C60.7822 21.7697 61.3352 22.349 62.3445 22.349C63.2222 22.349 63.784 21.8399 63.8981 20.971L62.8624 20.7779C62.8273 21.1641 62.6605 21.3572 62.3709 21.3572C62.09 21.3572 61.8969 21.1729 61.8969 20.8569V19.0224H63.4592V18.1008H61.8969V16.7316H60.7822V18.1008H59.922V19.0224H60.7822V20.8569Z" fill="white"/>
<path d="M64.3125 21.2343C64.6021 21.9452 65.2429 22.349 66.1996 22.349C67.2002 22.349 67.955 21.7873 67.955 21.0061C67.955 20.2688 67.5337 19.8651 66.4717 19.6983C65.7695 19.593 65.5501 19.4876 65.5501 19.2419C65.5501 19.0312 65.7958 18.882 66.1381 18.882C66.4804 18.882 66.735 19.04 66.8403 19.356L67.6917 18.8908C67.4372 18.3378 66.9807 18.0131 66.1118 18.0131C65.2692 18.0131 64.5231 18.5134 64.5231 19.2331C64.5231 19.9353 65.041 20.339 65.945 20.4795C66.6911 20.5848 66.9105 20.734 66.9105 21.0236C66.9105 21.2606 66.6648 21.4274 66.2347 21.4274C65.7344 21.4274 65.3833 21.208 65.1902 20.7691L64.3125 21.2343Z" fill="white"/>
</svg>
