<svg width="61" height="61" viewBox="0 0 61 61" fill="none" xmlns="http://www.w3.org/2000/svg">
<circle cx="30.5" cy="30.5" r="30.5" fill="#499647"/>
<path d="M47.982 31.2933L47.4825 31.2706L47.982 31.2933ZM42.77 42.9778L43.1206 43.3343L42.77 42.9778ZM30.9996 47.9929L31.0139 48.4927L30.9996 47.9929ZM40.0803 16.2753C40.3502 16.2168 40.5216 15.9506 40.4632 15.6808L39.5106 11.2827C39.4521 11.0129 39.186 10.8415 38.9161 10.8999C38.6462 10.9584 38.4748 11.2245 38.5333 11.4944L39.38 15.4038L35.4706 16.2505C35.2007 16.309 35.0293 16.5751 35.0878 16.845C35.1463 17.1149 35.4124 17.2863 35.6823 17.2278L40.0803 16.2753ZM43.4683 19.508C46.243 22.7816 47.677 26.9836 47.4825 31.2706L48.4815 31.3159C48.6875 26.7768 47.1691 22.3276 44.2311 18.8614L43.4683 19.508ZM47.4825 31.2706C47.288 35.5576 45.4793 39.6124 42.4194 42.6213L43.1206 43.3343C46.3604 40.1484 48.2755 35.8551 48.4815 31.3159L47.4825 31.2706ZM42.4194 42.6213C39.3596 45.6302 35.275 47.3706 30.9853 47.4931L31.0139 48.4927C35.5558 48.3629 39.8807 46.5202 43.1206 43.3343L42.4194 42.6213ZM30.9853 47.4931C26.6956 47.6156 22.5184 46.1112 19.2918 43.2818L18.6325 44.0337C22.0488 47.0295 26.4719 48.6224 31.0139 48.4927L30.9853 47.4931ZM19.2918 43.2818C16.0652 40.4525 14.028 36.5075 13.5891 32.2386L12.5944 32.3409C13.0591 36.8609 15.2161 41.0379 18.6325 44.0337L19.2918 43.2818ZM13.5891 32.2386C13.1502 27.9697 14.3421 23.6927 16.9255 20.266L16.127 19.664C13.3916 23.2923 12.1297 27.8208 12.5944 32.3409L13.5891 32.2386ZM16.9255 20.266C19.5089 16.8394 23.2927 14.5165 27.5176 13.7636L27.3422 12.7792C22.8688 13.5763 18.8624 16.0358 16.127 19.664L16.9255 20.266ZM27.5176 13.7636C31.7425 13.0108 36.0957 13.8836 39.7038 16.207L40.2452 15.3662C36.4249 12.9062 31.8155 11.982 27.3422 12.7792L27.5176 13.7636Z" fill="white"/>
<path fill-rule="evenodd" clip-rule="evenodd" d="M30.4793 20L30.6325 20.0941C33.4148 21.8025 36.4139 23.1297 39.5494 24.04L39.91 24.1447V24.5202V35.33C39.91 36.0502 39.6535 36.7468 39.1865 37.2951C37.1981 39.6293 34.6052 41.3707 31.6923 42.3284L30.5559 42.702L30.5362 42.7619L30.4549 42.7352L30.3738 42.7619L30.3542 42.7021L29.2177 42.3284C26.3048 41.3708 23.7119 39.6293 21.7235 37.2951C21.2565 36.7469 21 36.0503 21 35.3301V24.5202V24.1447L21.3606 24.04C24.4961 23.1297 27.4952 21.8026 30.2775 20.0942L30.4307 20.0001L30.455 20.0396L30.4793 20ZM30.455 21.156C27.8018 22.7461 24.9618 24.0015 22 24.8937V35.3301C22 35.8126 22.1718 36.2793 22.4847 36.6467C24.354 38.841 26.7916 40.4782 29.53 41.3785L30.4549 41.6825L31.38 41.3784C34.1184 40.4781 36.556 38.841 38.4253 36.6466C38.7382 36.2793 38.91 35.8125 38.91 35.33V24.8937C35.9482 24.0015 33.1083 22.746 30.455 21.156Z" fill="white"/>
<path d="M26.4436 30.1593L25.0531 31.5497L24.7441 31.8587L28.9927 36.1073L36.4084 28.6916L34.709 26.9922L28.9927 32.7084L26.4436 30.1593Z" stroke="white"/>
<path d="M23.3535 27.9959V25.7558L25.3619 25.0605" stroke="white"/>
<path d="M38.1855 33.3271V35.5673L36.5634 37.1895" stroke="white"/>
</svg>
