<svg width="108" height="24" viewBox="0 0 108 24" fill="none" xmlns="http://www.w3.org/2000/svg">
<path fill-rule="evenodd" clip-rule="evenodd" d="M26.6932 3.04815L28.3419 0.289062H0L1.6487 3.04815H11.3141H11.7677L11.9945 3.42479L14.1666 7.06855L16.3474 3.42479L16.5742 3.04815H17.0191H26.6932Z" fill="white"/>
<path fill-rule="evenodd" clip-rule="evenodd" d="M24.1458 7.30603L25.7857 4.56445H17.4725L14.8468 8.96148L14.1663 10.0914L13.4859 8.96148L10.8602 4.56445H2.55566L4.18692 7.30603H8.90621H9.35982L9.58662 7.68267L14.1663 15.3556L18.7548 7.68267L18.9816 7.30603H19.4265H24.1458Z" fill="white"/>
<path fill-rule="evenodd" clip-rule="evenodd" d="M14.1669 23.9997L23.2391 8.82031H19.8807L14.8473 17.2465L14.1669 18.3764L13.4865 17.2465L8.45319 8.82031H5.09473L14.1669 23.9997Z" fill="white"/>
<path fill-rule="evenodd" clip-rule="evenodd" d="M48.143 0.289062H43.3365L40.7021 11.2992L38.0066 0.289062H33.1826L37.0296 14.6539H44.3135L48.143 0.289062Z" fill="white"/>
<path fill-rule="evenodd" clip-rule="evenodd" d="M61.246 14.6539V11.5882H54.407V8.71524H60.5307V5.94739H54.407V3.35472H61.1239V0.289062H49.7139V14.6539H61.246Z" fill="white"/>
<path fill-rule="evenodd" clip-rule="evenodd" d="M77.9252 14.6548L73.7642 7.3235L77.6984 0.290009H72.4732L71.8102 1.56007L68.8094 7.31475L71.9411 13.4636L72.5517 14.6548H77.9252ZM68.3035 0.28125H63.6104V14.6548H68.3035V0.290009V0.28125Z" fill="white"/>
<path fill-rule="evenodd" clip-rule="evenodd" d="M92.8764 9.86268V0.289062H88.2182V9.86268C88.2182 11.597 87.9652 11.597 86.3078 11.597C84.6503 11.597 84.4148 11.597 84.4148 9.86268V0.289062H79.7217V9.86268C79.7217 13.9794 80.1927 14.9342 86.3078 14.9342C92.4228 14.9342 92.8764 13.9794 92.8764 9.86268Z" fill="white"/>
<path fill-rule="evenodd" clip-rule="evenodd" d="M107.261 10.4933C107.261 8.02327 107.261 6.66562 103.903 5.99117L100.867 5.40432C100.038 5.25541 100.038 5.13279 100.038 4.26564C100.038 3.08318 100.248 3.08318 102.778 3.08318C105.307 3.08318 106.729 3.23208 106.729 3.23208V0.464227C106.729 0.464227 104.54 0 100.972 0C97.8053 0 95.1883 0.297807 95.1883 4.30944C95.1883 6.59555 95.1883 8.07582 98.5642 8.70647L101.6 9.27581C102.446 9.42471 102.446 9.57361 102.446 10.5897C102.446 11.8772 102.211 11.8772 99.4714 11.8772C96.7323 11.8772 95.1621 11.7108 95.1621 11.7108V14.4787C95.1621 14.4787 97.4563 14.9429 101.199 14.9429C105.508 14.9429 107.253 14.6714 107.253 10.5021" fill="white"/>
<path d="M39.339 21.2238H39.8862V20.183H39.5081V17.6055H38.9075V20.183H37.6885V17.6055H37.0879V20.7324H39.339V21.2238Z" fill="white"/>
<path d="M41.7318 19.9239C41.6651 20.1651 41.5005 20.2857 41.2424 20.2857C40.9399 20.2857 40.6908 20.1026 40.6863 19.7809H42.1189C42.1367 19.7005 42.1456 19.6157 42.1456 19.5219C42.1456 18.9411 41.7496 18.5704 41.1668 18.5704C40.544 18.5704 40.1169 19.0573 40.1169 19.6603C40.1169 20.3304 40.5796 20.7771 41.2335 20.7771C41.7274 20.7771 42.0699 20.527 42.2167 20.116L41.7318 19.9239ZM40.6863 19.4012C40.7397 19.169 40.9355 19.0305 41.1668 19.0305C41.4204 19.0305 41.5939 19.169 41.5939 19.3834L41.5895 19.4012H40.6863Z" fill="white"/>
<path d="M43.1696 18.615H42.6135V20.7324H43.1696V19.906H44.046V20.7324H44.6021V18.615H44.046V19.3923H43.1696V18.615Z" fill="white"/>
<path d="M45.5957 20.7324H46.1518V19.1288H46.8147V18.615H44.9328V19.1288H45.5957V20.7324Z" fill="white"/>
<path d="M47.1449 18.615V21.6169H47.7144V20.4599C47.8256 20.6565 48.0703 20.7771 48.3594 20.7771C48.9511 20.7771 49.3827 20.3483 49.3827 19.6827C49.3827 19.0171 48.96 18.5704 48.3906 18.5704C48.1103 18.5704 47.8478 18.7133 47.6921 18.9322V18.615H47.1449ZM48.2527 20.2902C47.9457 20.2902 47.6921 20.0579 47.6921 19.6827C47.6921 19.303 47.9457 19.0617 48.2527 19.0617C48.5685 19.0617 48.8132 19.303 48.8132 19.6827C48.8132 20.0534 48.5685 20.2902 48.2527 20.2902Z" fill="white"/>
<path d="M50.882 20.7324H51.4826V19.4191L52.7105 20.7324H53.5424L51.9853 19.0975L53.4623 17.6055H52.6793L51.4826 18.8205V17.6055H50.882V20.7324Z" fill="white"/>
<path d="M53.5895 19.6737C53.5895 20.3036 54.0566 20.7771 54.6928 20.7771C55.329 20.7771 55.7961 20.3036 55.7961 19.6737C55.7961 19.0394 55.3334 18.5704 54.6928 18.5704C54.0522 18.5704 53.5895 19.0394 53.5895 19.6737ZM55.24 19.6737C55.24 20.0266 55.0087 20.2634 54.6928 20.2634C54.3769 20.2634 54.1456 20.0266 54.1456 19.6737C54.1456 19.3208 54.3769 19.0841 54.6928 19.0841C55.0087 19.0841 55.24 19.3208 55.24 19.6737Z" fill="white"/>
<path d="M58.9969 18.615H58.0849L57.6088 20.2053L57.1328 18.615H56.2208V20.7324H56.7769V19.1198L57.2529 20.7324H57.9647L58.4408 19.1198V20.7324H58.9969V18.615Z" fill="white"/>
<path d="M59.54 20.7324H60.0962V19.1288H60.9103V20.7324H61.4664V18.615H59.54V20.7324Z" fill="white"/>
<path d="M62.0078 20.7324H63.0933C63.5693 20.7324 63.8585 20.4421 63.8585 20.0177C63.8585 19.5933 63.5782 19.3298 63.0933 19.3298H62.5416V18.615H62.0078V20.7324ZM62.5416 20.2768V19.7809H63.0666C63.2401 19.7809 63.338 19.8837 63.338 20.0311C63.338 20.1785 63.2401 20.2768 63.0666 20.2768H62.5416Z" fill="white"/>
<path d="M67.3578 19.6782C67.3578 19.0394 66.8907 18.5704 66.2545 18.5704C65.9831 18.5704 65.7517 18.6463 65.5604 18.7982C65.3691 18.9456 65.2401 19.1466 65.1823 19.3923H64.8709V18.615H64.3148V20.7324H64.8709V19.906H65.1734C65.2223 20.1651 65.3424 20.3751 65.5382 20.5359C65.7384 20.6967 65.9742 20.7771 66.2545 20.7771C66.8907 20.7771 67.3578 20.3081 67.3578 19.6782ZM66.8017 19.6782C66.8017 20.0311 66.5703 20.2634 66.2545 20.2634C65.9386 20.2634 65.7073 20.0311 65.7073 19.6782C65.7073 19.3253 65.9386 19.0841 66.2545 19.0841C66.5703 19.0841 66.8017 19.3253 66.8017 19.6782Z" fill="white"/>
<path d="M68.2311 20.7324H68.7872V19.1288H69.4501V18.615H67.5682V19.1288H68.2311V20.7324Z" fill="white"/>
<path d="M71.2751 19.9239C71.2084 20.1651 71.0437 20.2857 70.7857 20.2857C70.4832 20.2857 70.2341 20.1026 70.2296 19.7809H71.6621C71.6799 19.7005 71.6888 19.6157 71.6888 19.5219C71.6888 18.9411 71.2929 18.5704 70.7101 18.5704C70.0872 18.5704 69.6601 19.0573 69.6601 19.6603C69.6601 20.3304 70.1228 20.7771 70.7768 20.7771C71.2706 20.7771 71.6132 20.527 71.76 20.116L71.2751 19.9239ZM70.2296 19.4012C70.283 19.169 70.4787 19.0305 70.7101 19.0305C70.9637 19.0305 71.1372 19.169 71.1372 19.3834L71.1327 19.4012H70.2296Z" fill="white"/>
<path d="M72.1568 18.615V21.6169H72.7262V20.4599C72.8374 20.6565 73.0821 20.7771 73.3713 20.7771C73.963 20.7771 74.3945 20.3483 74.3945 19.6827C74.3945 19.0171 73.9719 18.5704 73.4024 18.5704C73.1222 18.5704 72.8597 18.7133 72.704 18.9322V18.615H72.1568ZM73.2645 20.2902C72.9576 20.2902 72.704 20.0579 72.704 19.6827C72.704 19.303 72.9576 19.0617 73.2645 19.0617C73.5804 19.0617 73.8251 19.303 73.8251 19.6827C73.8251 20.0534 73.5804 20.2902 73.2645 20.2902Z" fill="white"/>
<path d="M75.3718 18.615H74.8157V20.7324H75.3718V19.906H76.2482V20.7324H76.8043V18.615H76.2482V19.3923H75.3718V18.615Z" fill="white"/>
<path d="M77.3486 20.7324H78.4341C78.9101 20.7324 79.1993 20.4421 79.1993 20.0177C79.1993 19.5933 78.919 19.3298 78.4341 19.3298H77.8824V18.615H77.3486V20.7324ZM77.8824 20.2768V19.7809H78.4074C78.5809 19.7809 78.6788 19.8837 78.6788 20.0311C78.6788 20.1785 78.5809 20.2768 78.4074 20.2768H77.8824ZM79.6575 18.615V20.7324H80.227V18.615H79.6575Z" fill="white"/>
<path d="M82.614 18.615H81.9689L81.6175 19.169L81.2705 18.615H80.6254L81.3105 19.6112L80.5453 20.7324H81.1904L81.6175 20.0579L82.049 20.7324H82.6941L81.9289 19.6112L82.614 18.615Z" fill="white"/>
<path d="M86.7036 17.6055H83.9008V18.1639H85.0041V20.7324H85.6047V18.1639H86.7036V17.6055Z" fill="white"/>
<path d="M87.9888 19.9239C87.922 20.1651 87.7574 20.2857 87.4994 20.2857C87.1969 20.2857 86.9477 20.1026 86.9433 19.7809H88.3758C88.3936 19.7005 88.4025 19.6157 88.4025 19.5219C88.4025 18.9411 88.0065 18.5704 87.4237 18.5704C86.8009 18.5704 86.3738 19.0573 86.3738 19.6603C86.3738 20.3304 86.8365 20.7771 87.4905 20.7771C87.9843 20.7771 88.3269 20.527 88.4737 20.116L87.9888 19.9239ZM86.9433 19.4012C86.9967 19.169 87.1924 19.0305 87.4237 19.0305C87.6773 19.0305 87.8508 19.169 87.8508 19.3834L87.8464 19.4012H86.9433Z" fill="white"/>
<path d="M90.6168 18.615H89.9717L89.6202 19.169L89.2732 18.615H88.6281L89.3133 19.6112L88.5481 20.7324H89.1931L89.6202 20.0579L90.0518 20.7324H90.6969L89.9317 19.6112L90.6168 18.615Z" fill="white"/>
<path d="M91.5728 18.615H91.0167V20.7324H91.5728V19.906H92.4492V20.7324H93.0053V18.615H92.4492V19.3923H91.5728V18.615Z" fill="white"/>
<path d="M93.4294 19.6737C93.4294 20.3036 93.8966 20.7771 94.5328 20.7771C95.169 20.7771 95.6361 20.3036 95.6361 19.6737C95.6361 19.0394 95.1734 18.5704 94.5328 18.5704C93.8921 18.5704 93.4294 19.0394 93.4294 19.6737ZM95.08 19.6737C95.08 20.0266 94.8486 20.2634 94.5328 20.2634C94.2169 20.2634 93.9856 20.0266 93.9856 19.6737C93.9856 19.3208 94.2169 19.0841 94.5328 19.0841C94.8486 19.0841 95.08 19.3208 95.08 19.6737Z" fill="white"/>
<path d="M95.8694 20.7324H96.4256C96.6035 20.3751 96.6925 19.8748 96.6925 19.236V19.1288H97.3821V20.7324H97.9382V18.615H96.1364V19.2583C96.1364 19.6112 96.1141 19.8971 96.0652 20.107C96.0207 20.317 95.954 20.5002 95.8694 20.661V20.7324Z" fill="white"/>
<path d="M98.3606 19.6737C98.3606 20.3036 98.8277 20.7771 99.4639 20.7771C100.1 20.7771 100.567 20.3036 100.567 19.6737C100.567 19.0394 100.105 18.5704 99.4639 18.5704C98.8232 18.5704 98.3606 19.0394 98.3606 19.6737ZM100.011 19.6737C100.011 20.0266 99.7798 20.2634 99.4639 20.2634C99.148 20.2634 98.9167 20.0266 98.9167 19.6737C98.9167 19.3208 99.148 19.0841 99.4639 19.0841C99.7798 19.0841 100.011 19.3208 100.011 19.6737Z" fill="white"/>
<path d="M100.992 20.7324H101.561V19.1288H102.527V18.615H100.992V20.7324Z" fill="white"/>
<path d="M102.869 20.7324H103.674L104.501 19.2002V20.7324H105.058V18.615H104.257L103.425 20.1473V18.615H102.869V20.7324Z" fill="white"/>
<path d="M105.601 20.7324H106.407L107.234 19.2002V20.7324H107.79V18.615H106.99L106.158 20.1473V18.615H105.601V20.7324ZM107.274 17.7574C107.274 17.7305 107.274 17.7082 107.27 17.6948H106.883L106.887 17.735C106.887 17.8378 106.816 17.9137 106.696 17.9137C106.585 17.9137 106.505 17.8378 106.505 17.735L106.509 17.6948H106.126C106.122 17.7082 106.122 17.7305 106.122 17.7574C106.122 18.0834 106.371 18.2711 106.696 18.2711C107.021 18.2711 107.274 18.0834 107.274 17.7574Z" fill="white"/>
</svg>
