<svg width="61" height="61" viewBox="0 0 61 61" fill="none" xmlns="http://www.w3.org/2000/svg">
<circle cx="30.5" cy="30.5" r="30.5" fill="#499647"/>
<path d="M31.2933 13.018L31.2706 13.5175L31.2933 13.018ZM42.9778 18.23L43.3343 17.8794L42.9778 18.23ZM47.9929 30.0004L48.4927 29.9861L47.9929 30.0004ZM16.2753 20.9197C16.2168 20.6498 15.9506 20.4784 15.6808 20.5368L11.2827 21.4894C11.0129 21.5479 10.8415 21.814 10.8999 22.0839C10.9584 22.3538 11.2245 22.5252 11.4944 22.4667L15.4038 21.62L16.2505 25.5294C16.309 25.7993 16.5751 25.9707 16.845 25.9122C17.1149 25.8537 17.2863 25.5876 17.2278 25.3177L16.2753 20.9197ZM19.508 17.5317C22.7816 14.757 26.9836 13.323 31.2706 13.5175L31.3159 12.5185C26.7768 12.3125 22.3276 13.8309 18.8614 16.7689L19.508 17.5317ZM31.2706 13.5175C35.5576 13.712 39.6124 15.5207 42.6213 18.5806L43.3343 17.8794C40.1484 14.6396 35.8551 12.7245 31.3159 12.5185L31.2706 13.5175ZM42.6213 18.5806C45.6302 21.6404 47.3706 25.725 47.4931 30.0147L48.4927 29.9861C48.3629 25.4442 46.5202 21.1193 43.3343 17.8794L42.6213 18.5806ZM47.4931 30.0147C47.6156 34.3044 46.1112 38.4816 43.2818 41.7082L44.0337 42.3675C47.0295 38.9512 48.6224 34.5281 48.4927 29.9861L47.4931 30.0147ZM43.2818 41.7082C40.4525 44.9348 36.5075 46.972 32.2386 47.4109L32.3409 48.4056C36.8609 47.9409 41.0379 45.7839 44.0337 42.3675L43.2818 41.7082ZM32.2386 47.4109C27.9697 47.8498 23.6927 46.6579 20.266 44.0745L19.664 44.873C23.2923 47.6084 27.8208 48.8703 32.3409 48.4056L32.2386 47.4109ZM20.266 44.0745C16.8394 41.4911 14.5165 37.7073 13.7636 33.4824L12.7792 33.6578C13.5763 38.1312 16.0358 42.1376 19.664 44.873L20.266 44.0745ZM13.7636 33.4824C13.0108 29.2575 13.8836 24.9043 16.207 21.2962L15.3662 20.7548C12.9062 24.5751 11.982 29.1845 12.7792 33.6578L13.7636 33.4824Z" fill="white"/>
<path d="M31.6139 36.3564V37.1188M31.6139 37.1188V43L34.3366 40.2772L37.0594 43V36.3564V37.1188H37.7051C38.1982 37.1188 38.6711 36.9229 39.0198 36.5743V36.5743C39.3685 36.2256 39.5644 35.7527 39.5644 35.2596V23.3592C39.5644 22.5281 39.7902 21.7127 40.2178 21V21H21.9865C21.4675 21 20.9812 21.2532 20.6835 21.6784V21.6784C20.4964 21.9457 20.396 22.2641 20.396 22.5905V36.0297M31.6139 37.1188H20.6293C19.6431 37.1188 18.6973 36.727 18 36.0297V36.0297H20.396M30.8515 36.0297H20.396" stroke="white"/>
<path d="M26.8223 23.2871H33.4658" stroke="white"/>
<path d="M22.9004 33.0898H28.1281" stroke="white"/>
<path d="M22.6836 25.9004H37.7133" stroke="white"/>
<path d="M22.6836 27.4258H37.7133" stroke="white"/>
<path d="M39.5645 22.5248H40.2398C41.0355 22.5248 41.4341 21.5627 40.8714 21V21H40.2179" stroke="white"/>
<circle cx="34.3368" cy="32.5438" r="1.13366" stroke="white"/>
<path d="M35.0068 29.8096L35.1748 29.9639L35.4023 29.9375L36.3057 29.834L36.4873 30.7266L36.5322 30.9502L36.7314 31.0625L37.5234 31.5098L37.1455 32.3379L37.0508 32.5449L37.1455 32.7529L37.5234 33.5801L36.7314 34.0283L36.5322 34.1406L36.4873 34.3643L36.3057 35.2559L35.4023 35.1533L35.1748 35.127L35.0068 35.2812L34.3359 35.8965L33.666 35.2812L33.4971 35.127L33.2705 35.1533L32.3662 35.2559L32.1855 34.3643L32.1406 34.1406L31.9414 34.0283L31.1484 33.5801L31.5273 32.7529L31.6221 32.5449L31.1484 31.5098L31.9414 31.0625L32.1406 30.9502L32.1855 30.7266L32.3662 29.834L33.2705 29.9375L33.4971 29.9639L33.666 29.8096L34.3359 29.1934L35.0068 29.8096Z" stroke="white"/>
</svg>
