<svg width="61" height="61" viewBox="0 0 61 61" fill="none" xmlns="http://www.w3.org/2000/svg">
<circle cx="30.5" cy="30.5" r="30.5" fill="#499647"/>
<path d="M19.8026 16.8957L20.0959 17.3006L19.8026 16.8957ZM32.0605 13.5829L32.0127 14.0806L32.0605 13.5829ZM43.4219 19.1638L43.7883 18.8235L43.4219 19.1638ZM47.6462 31.1C47.8415 31.2952 48.158 31.2952 48.3533 31.1L51.5353 27.918C51.7306 27.7227 51.7306 27.4061 51.5353 27.2109C51.34 27.0156 51.0234 27.0156 50.8282 27.2109L47.9998 30.0393L45.1713 27.2109C44.9761 27.0156 44.6595 27.0156 44.4642 27.2109C44.269 27.4061 44.269 27.7227 44.4642 27.918L47.6462 31.1ZM13.49 27.4852C14.3194 23.4104 16.6727 19.7795 20.0959 17.3006L19.5094 16.4907C15.8866 19.1141 13.3903 22.9613 12.51 27.2857L13.49 27.4852ZM20.0959 17.3006C23.5194 14.8215 27.7672 13.6729 32.0127 14.0806L32.1083 13.0852C27.6226 12.6544 23.1319 13.8675 19.5094 16.4907L20.0959 17.3006ZM32.0127 14.0806C36.2581 14.4883 40.194 16.4227 43.0555 19.504L43.7883 18.8235C40.7577 15.5601 36.594 13.5159 32.1083 13.0852L32.0127 14.0806ZM43.0555 19.504C45.9168 22.585 47.4998 26.5925 47.4998 30.7464H48.4998C48.4998 26.337 46.8192 22.0872 43.7883 18.8235L43.0555 19.504Z" fill="white"/>
<path d="M41.1974 45.1043L40.9041 44.6994L41.1974 45.1043ZM28.9395 48.4171L28.9873 47.9194L28.9395 48.4171ZM17.5781 42.8362L17.2117 43.1765L17.5781 42.8362ZM13.3538 30.9C13.1585 30.7048 12.842 30.7048 12.6467 30.9L9.46471 34.082C9.26945 34.2773 9.26945 34.5939 9.46471 34.7891C9.65997 34.9844 9.97656 34.9844 10.1718 34.7891L13.0002 31.9607L15.8287 34.7891C16.0239 34.9844 16.3405 34.9844 16.5358 34.7891C16.731 34.5939 16.731 34.2773 16.5358 34.082L13.3538 30.9ZM47.51 34.5148C46.6806 38.5896 44.3273 42.2205 40.9041 44.6994L41.4906 45.5093C45.1134 42.8859 47.6097 39.0387 48.49 34.7143L47.51 34.5148ZM40.9041 44.6994C37.4806 47.1785 33.2328 48.3271 28.9873 47.9194L28.8917 48.9148C33.3774 49.3456 37.8681 48.1325 41.4906 45.5093L40.9041 44.6994ZM28.9873 47.9194C24.7419 47.5117 20.806 45.5773 17.9445 42.496L17.2117 43.1765C20.2423 46.4398 24.406 48.484 28.8917 48.9148L28.9873 47.9194ZM17.9445 42.496C15.0832 39.415 13.5002 35.4075 13.5002 31.2536L12.5002 31.2536C12.5002 35.663 14.1808 39.9128 17.2117 43.1765L17.9445 42.496Z" fill="white"/>
<mask id="path-4-outside-1_1013_42551" maskUnits="userSpaceOnUse" x="19.1738" y="24" width="22" height="14" fill="black">
<rect fill="white" x="19.1738" y="24" width="22" height="14"/>
<path fill-rule="evenodd" clip-rule="evenodd" d="M39.5089 26.4637C39.5089 26.4637 39.5086 26.4645 39.5078 26.4661C39.5084 26.4645 39.5088 26.4637 39.5089 26.4637ZM39.4724 26.5097C39.4494 26.4863 39.4128 26.4544 39.3556 26.4146C39.1702 26.2857 38.8627 26.1454 38.4288 26.0178C37.5689 25.7649 36.3453 25.6 34.9686 25.6C33.5919 25.6 32.3684 25.7649 31.5085 26.0178C31.0746 26.1454 30.7671 26.2857 30.5817 26.4146C30.5245 26.4544 30.4879 26.4863 30.4649 26.5097C30.4879 26.533 30.5245 26.5649 30.5817 26.6047C30.7671 26.7336 31.0746 26.8739 31.5085 27.0015C32.3684 27.2545 33.5919 27.4193 34.9686 27.4193C36.3453 27.4193 37.5689 27.2545 38.4288 27.0015C38.8627 26.8739 39.1702 26.7336 39.3556 26.6047C39.4128 26.5649 39.4494 26.533 39.4724 26.5097ZM30.4284 26.4637C30.4284 26.4637 30.4289 26.4645 30.4295 26.4661C30.4286 26.4645 30.4283 26.4637 30.4284 26.4637ZM34.9686 28.0193C36.9304 28.0193 38.6352 27.6956 39.4991 27.2199V28.6231H39.499C39.499 28.7011 39.4533 28.822 39.2582 28.9743C39.0654 29.1247 38.7641 29.274 38.3551 29.4049C37.5402 29.6658 36.3654 29.8328 34.968 29.8328C33.5707 29.8328 32.3959 29.6658 31.581 29.4049C31.172 29.274 30.8707 29.1247 30.6779 28.9743C30.4828 28.822 30.4371 28.7011 30.4371 28.6231V27.2193C31.3007 27.6954 33.006 28.0193 34.9686 28.0193ZM30.4371 29.5397V31.0386H30.4378L30.4377 31.0539C30.4435 31.1319 30.4951 31.2471 30.6779 31.3897C30.8707 31.5402 31.172 31.6895 31.581 31.8204C32.3959 32.0813 33.5707 32.2483 34.968 32.2483C36.3654 32.2483 37.5402 32.0813 38.3551 31.8204C38.7641 31.6895 39.0654 31.5402 39.2582 31.3897C39.4533 31.2375 39.499 31.1166 39.499 31.0386H39.4991V29.5396C39.2434 29.71 38.9158 29.8554 38.538 29.9763C37.6461 30.2619 36.4054 30.4328 34.968 30.4328C33.5306 30.4328 32.29 30.2619 31.3981 29.9763C31.0203 29.8554 30.6928 29.71 30.4371 29.5397ZM29.8371 31.0386V31.0556C29.8307 31.1337 29.7785 31.2482 29.5971 31.3897C29.4043 31.5402 29.103 31.6895 28.694 31.8204C27.8791 32.0813 26.7043 32.2483 25.3069 32.2483C23.9095 32.2483 22.7347 32.0813 21.9199 31.8204C21.5108 31.6895 21.2096 31.5402 21.0168 31.3897C20.8217 31.2375 20.776 31.1166 20.776 31.0386V29.6353C21.6399 30.1111 23.3447 30.4348 25.3067 30.4348C27.2685 30.4348 28.9732 30.1111 29.8371 29.6354V31.0386ZM21.7369 32.3918C21.3592 32.2709 21.0316 32.1255 20.776 31.9552V33.4541C20.776 33.5321 20.8217 33.653 21.0168 33.8052C21.2096 33.9557 21.5108 34.1049 21.9199 34.2359C22.7347 34.4968 23.9095 34.6638 25.3069 34.6638C26.7043 34.6638 27.8791 34.4968 28.694 34.2359C29.103 34.1049 29.4043 33.9557 29.5971 33.8052C29.7785 33.6636 29.8307 33.5491 29.8371 33.4711V33.4541V33.454V31.9557C29.5816 32.1258 29.2543 32.271 28.8769 32.3918C27.985 32.6773 26.7443 32.8483 25.3069 32.8483C23.8695 32.8483 22.6288 32.6773 21.7369 32.3918ZM20.176 28.9695V31.0386V33.4541V35.8695H20.776V34.3707C21.0316 34.541 21.3592 34.6864 21.7369 34.8073C22.6288 35.0928 23.8695 35.2638 25.3069 35.2638C26.7443 35.2638 27.985 35.0928 28.8769 34.8073C29.2543 34.6865 29.5816 34.5413 29.8371 34.3711V35.8695H30.4371V34.3707C30.6928 34.541 31.0203 34.6864 31.3981 34.8073C32.29 35.0928 33.5306 35.2638 34.968 35.2638C36.4054 35.2638 37.6461 35.0928 38.538 34.8073C38.9158 34.6864 39.2434 34.541 39.4991 34.3706V35.8695H40.0991V26.5563C40.1007 26.5408 40.1015 26.5253 40.1015 26.5097C40.1015 25.6759 37.8034 25 34.9686 25C32.1338 25 29.8358 25.6759 29.8358 26.5097C29.8358 26.5213 29.8362 26.5329 29.8371 26.5445V28.2149C28.9732 27.7392 27.2685 27.4155 25.3067 27.4155C22.4719 27.4155 20.1738 28.0914 20.1738 28.9252C20.1738 28.94 20.1746 28.9547 20.176 28.9695ZM30.4371 31.9552C30.6928 32.1255 31.0203 32.2709 31.3981 32.3918C32.29 32.6773 33.5306 32.8483 34.968 32.8483C36.4054 32.8483 37.6461 32.6773 38.538 32.3918C38.9158 32.2709 39.2434 32.1255 39.4991 31.9551V33.4541H39.499C39.499 33.5321 39.4533 33.653 39.2582 33.8052C39.0654 33.9557 38.7641 34.1049 38.3551 34.2359C37.5402 34.4968 36.3654 34.6638 34.968 34.6638C33.5707 34.6638 32.3959 34.4968 31.581 34.2359C31.172 34.1049 30.8707 33.9557 30.6779 33.8052C30.4951 33.6626 30.4435 33.5474 30.4377 33.4693L30.4378 33.4541H30.4371V33.454V31.9552ZM29.6936 28.8301C29.7509 28.8699 29.7874 28.9018 29.8104 28.9252C29.7874 28.9485 29.7509 28.9804 29.6936 29.0202C29.5082 29.1491 29.2008 29.2894 28.7669 29.417C27.9069 29.6699 26.6834 29.8348 25.3067 29.8348C23.93 29.8348 22.7065 29.6699 21.8465 29.417C21.4126 29.2894 21.1052 29.1491 20.9197 29.0202C20.8625 28.9804 20.8259 28.9485 20.8029 28.9252C20.8259 28.9018 20.8625 28.8699 20.9197 28.8301C21.1052 28.7012 21.4126 28.5609 21.8465 28.4333C22.7065 28.1804 23.93 28.0155 25.3067 28.0155C26.6834 28.0155 27.9069 28.1804 28.7669 28.4333C29.2008 28.5609 29.5082 28.7012 29.6936 28.8301ZM20.7664 28.8792C20.7665 28.8792 20.7669 28.88 20.7675 28.8816C20.7667 28.88 20.7664 28.8792 20.7664 28.8792ZM25.3069 37.0793C23.9095 37.0793 22.7347 36.9122 21.9199 36.6514C21.5108 36.5204 21.2096 36.3712 21.0168 36.2207C20.8217 36.0685 20.776 35.9475 20.776 35.8696H20.176C20.176 36.2085 20.3798 36.4848 20.6476 36.6937C20.9177 36.9045 21.2926 37.0806 21.7369 37.2228C22.6288 37.5083 23.8695 37.6793 25.3069 37.6793C26.7443 37.6793 27.985 37.5083 28.8769 37.2228C29.3212 37.0806 29.6962 36.9045 29.9662 36.6937C30.0272 36.6462 30.0848 36.5951 30.1375 36.5406C30.1902 36.5951 30.2478 36.6462 30.3087 36.6937C30.5788 36.9045 30.9537 37.0806 31.3981 37.2228C32.29 37.5083 33.5306 37.6793 34.968 37.6793C36.4054 37.6793 37.6461 37.5083 38.538 37.2228C38.9824 37.0806 39.3573 36.9045 39.6273 36.6937C39.8951 36.4848 40.099 36.2085 40.099 35.8696H39.499C39.499 35.9475 39.4533 36.0685 39.2582 36.2207C39.0654 36.3712 38.7641 36.5204 38.3551 36.6514C37.5402 36.9122 36.3654 37.0793 34.968 37.0793C33.5707 37.0793 32.3959 36.9122 31.581 36.6514C31.172 36.5204 30.8707 36.3712 30.6779 36.2207C30.4951 36.0781 30.4435 35.9629 30.4377 35.8848L30.4378 35.8696H30.4371H29.8378H29.8371L29.8373 35.8848C29.8315 35.9629 29.7799 36.0781 29.5971 36.2207C29.4043 36.3712 29.103 36.5204 28.694 36.6514C27.8791 36.9122 26.7043 37.0793 25.3069 37.0793Z"/>
</mask>
<path fill-rule="evenodd" clip-rule="evenodd" d="M39.5089 26.4637C39.5089 26.4637 39.5086 26.4645 39.5078 26.4661C39.5084 26.4645 39.5088 26.4637 39.5089 26.4637ZM39.4724 26.5097C39.4494 26.4863 39.4128 26.4544 39.3556 26.4146C39.1702 26.2857 38.8627 26.1454 38.4288 26.0178C37.5689 25.7649 36.3453 25.6 34.9686 25.6C33.5919 25.6 32.3684 25.7649 31.5085 26.0178C31.0746 26.1454 30.7671 26.2857 30.5817 26.4146C30.5245 26.4544 30.4879 26.4863 30.4649 26.5097C30.4879 26.533 30.5245 26.5649 30.5817 26.6047C30.7671 26.7336 31.0746 26.8739 31.5085 27.0015C32.3684 27.2545 33.5919 27.4193 34.9686 27.4193C36.3453 27.4193 37.5689 27.2545 38.4288 27.0015C38.8627 26.8739 39.1702 26.7336 39.3556 26.6047C39.4128 26.5649 39.4494 26.533 39.4724 26.5097ZM30.4284 26.4637C30.4284 26.4637 30.4289 26.4645 30.4295 26.4661C30.4286 26.4645 30.4283 26.4637 30.4284 26.4637ZM34.9686 28.0193C36.9304 28.0193 38.6352 27.6956 39.4991 27.2199V28.6231H39.499C39.499 28.7011 39.4533 28.822 39.2582 28.9743C39.0654 29.1247 38.7641 29.274 38.3551 29.4049C37.5402 29.6658 36.3654 29.8328 34.968 29.8328C33.5707 29.8328 32.3959 29.6658 31.581 29.4049C31.172 29.274 30.8707 29.1247 30.6779 28.9743C30.4828 28.822 30.4371 28.7011 30.4371 28.6231V27.2193C31.3007 27.6954 33.006 28.0193 34.9686 28.0193ZM30.4371 29.5397V31.0386H30.4378L30.4377 31.0539C30.4435 31.1319 30.4951 31.2471 30.6779 31.3897C30.8707 31.5402 31.172 31.6895 31.581 31.8204C32.3959 32.0813 33.5707 32.2483 34.968 32.2483C36.3654 32.2483 37.5402 32.0813 38.3551 31.8204C38.7641 31.6895 39.0654 31.5402 39.2582 31.3897C39.4533 31.2375 39.499 31.1166 39.499 31.0386H39.4991V29.5396C39.2434 29.71 38.9158 29.8554 38.538 29.9763C37.6461 30.2619 36.4054 30.4328 34.968 30.4328C33.5306 30.4328 32.29 30.2619 31.3981 29.9763C31.0203 29.8554 30.6928 29.71 30.4371 29.5397ZM29.8371 31.0386V31.0556C29.8307 31.1337 29.7785 31.2482 29.5971 31.3897C29.4043 31.5402 29.103 31.6895 28.694 31.8204C27.8791 32.0813 26.7043 32.2483 25.3069 32.2483C23.9095 32.2483 22.7347 32.0813 21.9199 31.8204C21.5108 31.6895 21.2096 31.5402 21.0168 31.3897C20.8217 31.2375 20.776 31.1166 20.776 31.0386V29.6353C21.6399 30.1111 23.3447 30.4348 25.3067 30.4348C27.2685 30.4348 28.9732 30.1111 29.8371 29.6354V31.0386ZM21.7369 32.3918C21.3592 32.2709 21.0316 32.1255 20.776 31.9552V33.4541C20.776 33.5321 20.8217 33.653 21.0168 33.8052C21.2096 33.9557 21.5108 34.1049 21.9199 34.2359C22.7347 34.4968 23.9095 34.6638 25.3069 34.6638C26.7043 34.6638 27.8791 34.4968 28.694 34.2359C29.103 34.1049 29.4043 33.9557 29.5971 33.8052C29.7785 33.6636 29.8307 33.5491 29.8371 33.4711V33.4541V33.454V31.9557C29.5816 32.1258 29.2543 32.271 28.8769 32.3918C27.985 32.6773 26.7443 32.8483 25.3069 32.8483C23.8695 32.8483 22.6288 32.6773 21.7369 32.3918ZM20.176 28.9695V31.0386V33.4541V35.8695H20.776V34.3707C21.0316 34.541 21.3592 34.6864 21.7369 34.8073C22.6288 35.0928 23.8695 35.2638 25.3069 35.2638C26.7443 35.2638 27.985 35.0928 28.8769 34.8073C29.2543 34.6865 29.5816 34.5413 29.8371 34.3711V35.8695H30.4371V34.3707C30.6928 34.541 31.0203 34.6864 31.3981 34.8073C32.29 35.0928 33.5306 35.2638 34.968 35.2638C36.4054 35.2638 37.6461 35.0928 38.538 34.8073C38.9158 34.6864 39.2434 34.541 39.4991 34.3706V35.8695H40.0991V26.5563C40.1007 26.5408 40.1015 26.5253 40.1015 26.5097C40.1015 25.6759 37.8034 25 34.9686 25C32.1338 25 29.8358 25.6759 29.8358 26.5097C29.8358 26.5213 29.8362 26.5329 29.8371 26.5445V28.2149C28.9732 27.7392 27.2685 27.4155 25.3067 27.4155C22.4719 27.4155 20.1738 28.0914 20.1738 28.9252C20.1738 28.94 20.1746 28.9547 20.176 28.9695ZM30.4371 31.9552C30.6928 32.1255 31.0203 32.2709 31.3981 32.3918C32.29 32.6773 33.5306 32.8483 34.968 32.8483C36.4054 32.8483 37.6461 32.6773 38.538 32.3918C38.9158 32.2709 39.2434 32.1255 39.4991 31.9551V33.4541H39.499C39.499 33.5321 39.4533 33.653 39.2582 33.8052C39.0654 33.9557 38.7641 34.1049 38.3551 34.2359C37.5402 34.4968 36.3654 34.6638 34.968 34.6638C33.5707 34.6638 32.3959 34.4968 31.581 34.2359C31.172 34.1049 30.8707 33.9557 30.6779 33.8052C30.4951 33.6626 30.4435 33.5474 30.4377 33.4693L30.4378 33.4541H30.4371V33.454V31.9552ZM29.6936 28.8301C29.7509 28.8699 29.7874 28.9018 29.8104 28.9252C29.7874 28.9485 29.7509 28.9804 29.6936 29.0202C29.5082 29.1491 29.2008 29.2894 28.7669 29.417C27.9069 29.6699 26.6834 29.8348 25.3067 29.8348C23.93 29.8348 22.7065 29.6699 21.8465 29.417C21.4126 29.2894 21.1052 29.1491 20.9197 29.0202C20.8625 28.9804 20.8259 28.9485 20.8029 28.9252C20.8259 28.9018 20.8625 28.8699 20.9197 28.8301C21.1052 28.7012 21.4126 28.5609 21.8465 28.4333C22.7065 28.1804 23.93 28.0155 25.3067 28.0155C26.6834 28.0155 27.9069 28.1804 28.7669 28.4333C29.2008 28.5609 29.5082 28.7012 29.6936 28.8301ZM20.7664 28.8792C20.7665 28.8792 20.7669 28.88 20.7675 28.8816C20.7667 28.88 20.7664 28.8792 20.7664 28.8792ZM25.3069 37.0793C23.9095 37.0793 22.7347 36.9122 21.9199 36.6514C21.5108 36.5204 21.2096 36.3712 21.0168 36.2207C20.8217 36.0685 20.776 35.9475 20.776 35.8696H20.176C20.176 36.2085 20.3798 36.4848 20.6476 36.6937C20.9177 36.9045 21.2926 37.0806 21.7369 37.2228C22.6288 37.5083 23.8695 37.6793 25.3069 37.6793C26.7443 37.6793 27.985 37.5083 28.8769 37.2228C29.3212 37.0806 29.6962 36.9045 29.9662 36.6937C30.0272 36.6462 30.0848 36.5951 30.1375 36.5406C30.1902 36.5951 30.2478 36.6462 30.3087 36.6937C30.5788 36.9045 30.9537 37.0806 31.3981 37.2228C32.29 37.5083 33.5306 37.6793 34.968 37.6793C36.4054 37.6793 37.6461 37.5083 38.538 37.2228C38.9824 37.0806 39.3573 36.9045 39.6273 36.6937C39.8951 36.4848 40.099 36.2085 40.099 35.8696H39.499C39.499 35.9475 39.4533 36.0685 39.2582 36.2207C39.0654 36.3712 38.7641 36.5204 38.3551 36.6514C37.5402 36.9122 36.3654 37.0793 34.968 37.0793C33.5707 37.0793 32.3959 36.9122 31.581 36.6514C31.172 36.5204 30.8707 36.3712 30.6779 36.2207C30.4951 36.0781 30.4435 35.9629 30.4377 35.8848L30.4378 35.8696H30.4371H29.8378H29.8371L29.8373 35.8848C29.8315 35.9629 29.7799 36.0781 29.5971 36.2207C29.4043 36.3712 29.103 36.5204 28.694 36.6514C27.8791 36.9122 26.7043 37.0793 25.3069 37.0793Z" fill="white"/>
<path d="M39.5078 26.4661L39.3212 26.394L39.6836 26.5614L39.5078 26.4661ZM39.3556 26.4146L39.2414 26.5788L39.2414 26.5788L39.3556 26.4146ZM39.4724 26.5097L39.6148 26.6501L39.7533 26.5097L39.6148 26.3692L39.4724 26.5097ZM38.4288 26.0178L38.3724 26.2097L38.4288 26.0178ZM31.5085 26.0178L31.452 25.8259V25.8259L31.5085 26.0178ZM30.5817 26.4146L30.4675 26.2504L30.4675 26.2504L30.5817 26.4146ZM30.4649 26.5097L30.3225 26.3692L30.184 26.5097L30.3225 26.6501L30.4649 26.5097ZM30.5817 26.6047L30.4675 26.7689V26.7689L30.5817 26.6047ZM31.5085 27.0015L31.452 27.1934L31.5085 27.0015ZM38.4288 27.0015L38.3724 26.8097V26.8097L38.4288 27.0015ZM39.3556 26.6047L39.2414 26.4405L39.2414 26.4405L39.3556 26.6047ZM30.4284 26.4637L30.4471 26.6628L30.4475 26.6628L30.4284 26.4637ZM30.4295 26.4661L30.2535 26.561L30.6159 26.3937L30.4295 26.4661ZM39.4991 27.2199H39.6991V26.8815L39.4026 27.0447L39.4991 27.2199ZM39.4991 28.6231V28.8231H39.6991V28.6231H39.4991ZM39.499 28.6231V28.4231H39.299V28.6231H39.499ZM39.2582 28.9743L39.1352 28.8166L39.1352 28.8166L39.2582 28.9743ZM38.3551 29.4049L38.2941 29.2144L38.3551 29.4049ZM31.581 29.4049L31.642 29.2144L31.581 29.4049ZM30.6779 28.9743L30.8009 28.8166V28.8166L30.6779 28.9743ZM30.4371 27.2193L30.5337 27.0442L30.2371 26.8807V27.2193H30.4371ZM30.4371 29.5397L30.548 29.3733L30.2371 29.1661V29.5397H30.4371ZM30.4371 31.0386H30.2371V31.2386H30.4371V31.0386ZM30.4378 31.0386L30.6378 31.0404L30.6396 30.8386H30.4378V31.0386ZM30.4377 31.0539L30.2377 31.0521L30.2376 31.0604L30.2382 31.0686L30.4377 31.0539ZM30.6779 31.3897L30.8009 31.2321V31.2321L30.6779 31.3897ZM31.581 31.8204L31.52 32.0109L31.581 31.8204ZM38.3551 31.8204L38.4161 32.0109L38.3551 31.8204ZM39.2582 31.3897L39.1352 31.2321L39.1352 31.2321L39.2582 31.3897ZM39.499 31.0386V30.8386H39.299V31.0386H39.499ZM39.4991 31.0386V31.2386H39.6991V31.0386H39.4991ZM39.4991 29.5396H39.6991V29.166L39.3882 29.3732L39.4991 29.5396ZM38.538 29.9763L38.599 30.1668L38.538 29.9763ZM31.3981 29.9763L31.3371 30.1668L31.3981 29.9763ZM29.8371 31.0556L30.0365 31.072L30.0371 31.0638V31.0556H29.8371ZM29.5971 31.3897L29.474 31.2321V31.2321L29.5971 31.3897ZM28.694 31.8204L28.7549 32.0109L28.694 31.8204ZM21.9199 31.8204L21.8589 32.0109L21.9199 31.8204ZM21.0168 31.3897L21.1398 31.2321H21.1398L21.0168 31.3897ZM20.776 29.6353L20.8725 29.4601L20.576 29.2968V29.6353H20.776ZM29.8371 29.6354H30.0371V29.297L29.7407 29.4602L29.8371 29.6354ZM20.776 31.9552L20.8869 31.7888L20.576 31.5816V31.9552H20.776ZM21.7369 32.3918L21.7979 32.2013L21.7369 32.3918ZM21.0168 33.8052L20.8937 33.9629H20.8937L21.0168 33.8052ZM21.9199 34.2359L21.8589 34.4264H21.8589L21.9199 34.2359ZM28.694 34.2359L28.7549 34.4264L28.694 34.2359ZM29.5971 33.8052L29.474 33.6476L29.5971 33.8052ZM29.8371 33.4711L30.0365 33.4875L30.0371 33.4793V33.4711H29.8371ZM29.8371 31.9557H30.0371V31.5822L29.7263 31.7892L29.8371 31.9557ZM28.8769 32.3918L28.9379 32.5823L28.8769 32.3918ZM20.176 28.9695H20.376V28.9597L20.375 28.95L20.176 28.9695ZM20.176 35.8695H19.976V36.0695H20.176V35.8695ZM20.776 35.8695V36.0695H20.976V35.8695H20.776ZM20.776 34.3707L20.8869 34.2042L20.576 33.9971V34.3707H20.776ZM21.7369 34.8073L21.676 34.9978H21.676L21.7369 34.8073ZM28.8769 34.8073L28.9379 34.9978L28.8769 34.8073ZM29.8371 34.3711H30.0371V33.9977L29.7263 34.2047L29.8371 34.3711ZM29.8371 35.8695H29.6371V36.0695H29.8371V35.8695ZM30.4371 35.8695V36.0695H30.6371V35.8695H30.4371ZM30.4371 34.3707L30.548 34.2042L30.2371 33.9971V34.3707H30.4371ZM31.3981 34.8073L31.3371 34.9978L31.3981 34.8073ZM38.538 34.8073L38.477 34.6168L38.538 34.8073ZM39.4991 34.3706H39.6991V33.997L39.3882 34.2042L39.4991 34.3706ZM39.4991 35.8695H39.2991V36.0695H39.4991V35.8695ZM40.0991 35.8695V36.0695H40.2991V35.8695H40.0991ZM40.0991 26.5563L39.9001 26.5358L39.8991 26.546V26.5563H40.0991ZM29.8371 26.5445H30.0371V26.5368L30.0365 26.5292L29.8371 26.5445ZM29.8371 28.2149L29.7407 28.3901L30.0371 28.5533V28.2149H29.8371ZM31.3981 32.3918L31.3371 32.5823L31.3981 32.3918ZM30.4371 31.9552L30.548 31.7888L30.2371 31.5816V31.9552H30.4371ZM38.538 32.3918L38.599 32.5823L38.538 32.3918ZM39.4991 31.9551H39.6991V31.5815L39.3882 31.7887L39.4991 31.9551ZM39.4991 33.4541V33.6541H39.6991V33.4541H39.4991ZM39.499 33.4541V33.2541H39.299V33.4541H39.499ZM39.2582 33.8052L39.1352 33.6476H39.1352L39.2582 33.8052ZM38.3551 34.2359L38.4161 34.4264L38.3551 34.2359ZM31.581 34.2359L31.52 34.4264L31.581 34.2359ZM30.6779 33.8052L30.8009 33.6476L30.6779 33.8052ZM30.4377 33.4693L30.2377 33.4675L30.2376 33.4758L30.2382 33.4841L30.4377 33.4693ZM30.4378 33.4541L30.6378 33.4559L30.6396 33.2541H30.4378V33.4541ZM30.4371 33.4541H30.2371V33.6541H30.4371V33.4541ZM29.8104 28.9252L29.9528 29.0656L30.0913 28.9252L29.9528 28.7847L29.8104 28.9252ZM29.6936 28.8301L29.5794 28.9943V28.9943L29.6936 28.8301ZM29.6936 29.0202L29.5794 28.856L29.5794 28.856L29.6936 29.0202ZM28.7669 29.417L28.8233 29.6089L28.7669 29.417ZM21.8465 29.417L21.7901 29.6089H21.7901L21.8465 29.417ZM20.9197 29.0202L21.0339 28.856L21.0339 28.856L20.9197 29.0202ZM20.8029 28.9252L20.6605 28.7847L20.5221 28.9252L20.6605 29.0656L20.8029 28.9252ZM20.9197 28.8301L21.0339 28.9943V28.9943L20.9197 28.8301ZM21.8465 28.4333L21.7901 28.2414H21.7901L21.8465 28.4333ZM28.7669 28.4333L28.8233 28.2414L28.7669 28.4333ZM20.7675 28.8816L20.5915 28.9766L20.954 28.8092L20.7675 28.8816ZM21.9199 36.6514L21.8589 36.8419H21.8589L21.9199 36.6514ZM21.0168 36.2207L20.8937 36.3784H20.8937L21.0168 36.2207ZM20.776 35.8696H20.976V35.6696H20.776V35.8696ZM20.176 35.8696V35.6696H19.976V35.8696H20.176ZM20.6476 36.6937L20.7707 36.5361H20.7707L20.6476 36.6937ZM21.7369 37.2228L21.676 37.4133L21.7369 37.2228ZM28.8769 37.2228L28.9379 37.4133L28.8769 37.2228ZM29.9662 36.6937L30.0893 36.8514H30.0893L29.9662 36.6937ZM30.1375 36.5406L30.2813 36.4016L30.1375 36.2529L29.9937 36.4016L30.1375 36.5406ZM30.3087 36.6937L30.1857 36.8514H30.1857L30.3087 36.6937ZM31.3981 37.2228L31.3371 37.4133L31.3981 37.2228ZM38.538 37.2228L38.477 37.0323L38.538 37.2228ZM39.6273 36.6937L39.7504 36.8514H39.7504L39.6273 36.6937ZM40.099 35.8696H40.299V35.6696H40.099V35.8696ZM39.499 35.8696V35.6696H39.299V35.8696H39.499ZM39.2582 36.2207L39.1352 36.0631H39.1352L39.2582 36.2207ZM38.3551 36.6514L38.4161 36.8419L38.3551 36.6514ZM31.581 36.6514L31.52 36.8419L31.581 36.6514ZM30.6779 36.2207L30.8009 36.0631L30.6779 36.2207ZM30.4377 35.8848L30.2377 35.883L30.2376 35.8913L30.2382 35.8996L30.4377 35.8848ZM30.4378 35.8696L30.6378 35.8714L30.6396 35.6696H30.4378V35.8696ZM29.8371 35.8696V35.6696H29.6353L29.6371 35.8714L29.8371 35.8696ZM29.8373 35.8848L30.0367 35.8996L30.0373 35.8913L30.0373 35.883L29.8373 35.8848ZM29.5971 36.2207L29.474 36.0631L29.5971 36.2207ZM28.694 36.6514L28.7549 36.8419L28.694 36.6514ZM39.4902 26.6628C39.4176 26.656 39.3653 26.6127 39.3379 26.5674C39.3157 26.5308 39.3112 26.4968 39.3099 26.4835C39.3071 26.4552 39.3112 26.433 39.312 26.4284C39.3147 26.4137 39.3184 26.4027 39.3193 26.4001C39.322 26.3921 39.3246 26.386 39.3256 26.3837C39.3282 26.3779 39.3305 26.3735 39.3319 26.3709L39.6836 26.5614C39.6859 26.5572 39.6888 26.5515 39.6917 26.5449C39.6929 26.5422 39.6957 26.5358 39.6984 26.5276C39.6993 26.5249 39.7031 26.5138 39.7058 26.499C39.7066 26.4944 39.7107 26.4722 39.7079 26.4439C39.7066 26.4306 39.7021 26.3966 39.6799 26.36C39.6524 26.3147 39.6002 26.2714 39.5276 26.2646L39.4902 26.6628ZM39.6943 26.5383C39.6932 26.5412 39.6914 26.5456 39.6888 26.5509C39.6877 26.5532 39.6852 26.5583 39.6815 26.5647C39.68 26.5672 39.6756 26.5748 39.6687 26.5839C39.6659 26.5877 39.6576 26.5985 39.6449 26.6103C39.6387 26.616 39.6258 26.6274 39.607 26.6379C39.5913 26.6468 39.5487 26.6683 39.4902 26.6628L39.5276 26.2646C39.4691 26.2591 39.4265 26.2806 39.4107 26.2894C39.3919 26.3 39.379 26.3113 39.3728 26.3171C39.3601 26.3289 39.3518 26.3398 39.349 26.3436C39.3421 26.3527 39.3376 26.3604 39.3361 26.3629C39.3322 26.3695 39.3296 26.375 39.3283 26.3776C39.3253 26.3838 39.323 26.3895 39.3212 26.394L39.6943 26.5383ZM39.2414 26.5788C39.2905 26.613 39.3172 26.6371 39.33 26.6501L39.6148 26.3692C39.5816 26.3356 39.5351 26.2959 39.4698 26.2504L39.2414 26.5788ZM38.3724 26.2097C38.7961 26.3343 39.0808 26.4672 39.2414 26.5788L39.4698 26.2504C39.2595 26.1043 38.9293 25.9565 38.4852 25.8259L38.3724 26.2097ZM34.9686 25.8C36.3318 25.8 37.5354 25.9635 38.3724 26.2097L38.4852 25.8259C37.6023 25.5662 36.3589 25.4 34.9686 25.4V25.8ZM31.5649 26.2097C32.4019 25.9635 33.6055 25.8 34.9686 25.8V25.4C33.5784 25.4 32.3349 25.5662 31.452 25.8259L31.5649 26.2097ZM30.6959 26.5788C30.8565 26.4672 31.1411 26.3343 31.5649 26.2097L31.452 25.8259C31.008 25.9565 30.6777 26.1043 30.4675 26.2504L30.6959 26.5788ZM30.6073 26.6501C30.6201 26.6371 30.6468 26.613 30.6959 26.5788L30.4675 26.2504C30.4021 26.2959 30.3557 26.3356 30.3225 26.3692L30.6073 26.6501ZM30.6959 26.4405C30.6468 26.4063 30.6201 26.3822 30.6073 26.3692L30.3225 26.6501C30.3557 26.6838 30.4021 26.7234 30.4675 26.7689L30.6959 26.4405ZM31.5649 26.8097C31.1411 26.685 30.8565 26.5522 30.6959 26.4405L30.4675 26.7689C30.6777 26.9151 31.008 27.0628 31.452 27.1934L31.5649 26.8097ZM34.9686 27.2193C33.6055 27.2193 32.4019 27.0558 31.5649 26.8097L31.452 27.1934C32.3349 27.4531 33.5784 27.6193 34.9686 27.6193V27.2193ZM38.3724 26.8097C37.5354 27.0558 36.3318 27.2193 34.9686 27.2193V27.6193C36.3589 27.6193 37.6023 27.4531 38.4852 27.1934L38.3724 26.8097ZM39.2414 26.4405C39.0808 26.5522 38.7961 26.685 38.3724 26.8097L38.4852 27.1934C38.9293 27.0628 39.2595 26.9151 39.4698 26.7689L39.2414 26.4405ZM39.33 26.3692C39.3172 26.3822 39.2905 26.4063 39.2414 26.4405L39.4698 26.7689C39.5351 26.7234 39.5816 26.6838 39.6148 26.6501L39.33 26.3692ZM30.4475 26.6628C30.3901 26.6683 30.348 26.6477 30.3318 26.6388C30.3128 26.6283 30.2997 26.6171 30.2934 26.6113C30.2804 26.5994 30.272 26.5884 30.269 26.5846C30.2621 26.5753 30.2575 26.5676 30.256 26.5651C30.2522 26.5586 30.2496 26.5534 30.2486 26.5511C30.246 26.5457 30.2441 26.5413 30.243 26.5385L30.6159 26.3937C30.6142 26.3892 30.6119 26.3836 30.6089 26.3774C30.6076 26.3748 30.6049 26.3692 30.601 26.3626C30.5994 26.36 30.5948 26.3522 30.5878 26.3429C30.5848 26.339 30.5764 26.328 30.5634 26.3161C30.557 26.3103 30.544 26.299 30.525 26.2886C30.5088 26.2796 30.4667 26.2591 30.4093 26.2646L30.4475 26.6628ZM30.6055 26.3711C30.6067 26.3734 30.6089 26.3775 30.6113 26.383C30.6123 26.3851 30.6149 26.3912 30.6177 26.3992C30.6185 26.4017 30.6225 26.4131 30.6252 26.4282C30.626 26.4329 30.6304 26.4559 30.6272 26.4853C30.6257 26.4993 30.6207 26.5339 30.5973 26.5708C30.5685 26.6162 30.5164 26.6563 30.4471 26.6628L30.4096 26.2646C30.3404 26.2711 30.2883 26.3112 30.2595 26.3566C30.2361 26.3935 30.2311 26.4281 30.2295 26.4421C30.2263 26.4715 30.2307 26.4945 30.2315 26.4992C30.2343 26.5144 30.2383 26.5259 30.2391 26.5285C30.2419 26.5367 30.2447 26.543 30.2458 26.5455C30.2486 26.5519 30.2514 26.5572 30.2535 26.561L30.6055 26.3711ZM39.4026 27.0447C38.5834 27.4958 36.9198 27.8193 34.9686 27.8193V28.2193C36.9411 28.2193 38.6869 27.8954 39.5955 27.3951L39.4026 27.0447ZM39.6991 28.6231V27.2199H39.2991V28.6231H39.6991ZM39.499 28.8231H39.4991V28.4231H39.499V28.8231ZM39.3812 29.1319C39.6016 28.96 39.699 28.7872 39.699 28.6231H39.299C39.299 28.6149 39.305 28.684 39.1352 28.8166L39.3812 29.1319ZM38.4161 29.5954C38.8368 29.4607 39.1627 29.3025 39.3813 29.1319L39.1352 28.8166C38.9681 28.9469 38.6914 29.0873 38.2941 29.2144L38.4161 29.5954ZM34.968 30.0328C36.3788 30.0328 37.5755 29.8645 38.4161 29.5954L38.2941 29.2144C37.5049 29.4671 36.3521 29.6328 34.968 29.6328V30.0328ZM31.52 29.5954C32.3606 29.8645 33.5573 30.0328 34.968 30.0328V29.6328C33.584 29.6328 32.4312 29.4671 31.642 29.2144L31.52 29.5954ZM30.5548 29.1319C30.7734 29.3025 31.0992 29.4607 31.52 29.5954L31.642 29.2144C31.2447 29.0873 30.968 28.9469 30.8009 28.8166L30.5548 29.1319ZM30.2371 28.6231C30.2371 28.7872 30.3345 28.96 30.5548 29.1319L30.8009 28.8166C30.6311 28.684 30.6371 28.6149 30.6371 28.6231H30.2371ZM30.2371 27.2193V28.6231H30.6371V27.2193H30.2371ZM34.9686 27.8193C33.0167 27.8193 31.3525 27.4955 30.5337 27.0442L30.3406 27.3945C31.2489 27.8952 32.9954 28.2193 34.9686 28.2193V27.8193ZM30.2371 29.5397V31.0386H30.6371V29.5397H30.2371ZM30.4371 31.2386H30.4378V30.8386H30.4371V31.2386ZM30.2378 31.0368L30.2377 31.0521L30.6377 31.0557L30.6378 31.0404L30.2378 31.0368ZM30.2382 31.0686C30.2498 31.2249 30.3485 31.3864 30.5548 31.5474L30.8009 31.2321C30.7223 31.1707 30.6808 31.1221 30.6593 31.0889C30.6385 31.0568 30.6372 31.0403 30.6371 31.0391L30.2382 31.0686ZM30.5548 31.5474C30.7734 31.718 31.0992 31.8762 31.52 32.0109L31.642 31.6299C31.2447 31.5027 30.968 31.3624 30.8009 31.2321L30.5548 31.5474ZM31.52 32.0109C32.3606 32.28 33.5573 32.4483 34.968 32.4483V32.0483C33.584 32.0483 32.4312 31.8826 31.642 31.6299L31.52 32.0109ZM34.968 32.4483C36.3788 32.4483 37.5755 32.28 38.4161 32.0109L38.2941 31.6299C37.5049 31.8826 36.3521 32.0483 34.968 32.0483V32.4483ZM38.4161 32.0109C38.8368 31.8762 39.1627 31.718 39.3813 31.5474L39.1352 31.2321C38.9681 31.3624 38.6914 31.5027 38.2941 31.6299L38.4161 32.0109ZM39.3812 31.5474C39.6016 31.3755 39.699 31.2027 39.699 31.0386H39.299C39.299 31.0304 39.305 31.0995 39.1352 31.2321L39.3812 31.5474ZM39.499 31.2386H39.4991V30.8386H39.499V31.2386ZM39.6991 31.0386V29.5396H39.2991V31.0386H39.6991ZM39.3882 29.3732C39.153 29.5299 38.844 29.6684 38.477 29.7859L38.599 30.1668C38.9876 30.0424 39.3339 29.8901 39.61 29.706L39.3882 29.3732ZM38.477 29.7859C37.6108 30.0632 36.3921 30.2328 34.968 30.2328V30.6328C36.4188 30.6328 37.6814 30.4606 38.599 30.1668L38.477 29.7859ZM34.968 30.2328C33.544 30.2328 32.3253 30.0632 31.459 29.7859L31.3371 30.1668C32.2547 30.4606 33.5173 30.6328 34.968 30.6328V30.2328ZM31.459 29.7859C31.0921 29.6684 30.7832 29.53 30.548 29.3733L30.3262 29.7061C30.6023 29.8901 30.9485 30.0424 31.3371 30.1668L31.459 29.7859ZM30.0371 31.0556V31.0386H29.6371V31.0556H30.0371ZM29.7201 31.5474C29.9249 31.3876 30.0237 31.2273 30.0365 31.072L29.6378 31.0392C29.6377 31.04 29.6321 31.1088 29.474 31.2321L29.7201 31.5474ZM28.7549 32.0109C29.1757 31.8762 29.5016 31.718 29.7201 31.5474L29.474 31.2321C29.307 31.3624 29.0302 31.5027 28.633 31.6299L28.7549 32.0109ZM25.3069 32.4483C26.7176 32.4483 27.9144 32.28 28.7549 32.0109L28.633 31.6299C27.8438 31.8826 26.691 32.0483 25.3069 32.0483V32.4483ZM21.8589 32.0109C22.6994 32.28 23.8962 32.4483 25.3069 32.4483V32.0483C23.9229 32.0483 22.7701 31.8826 21.9809 31.6299L21.8589 32.0109ZM20.8937 31.5474C21.1123 31.718 21.4381 31.8762 21.8589 32.0109L21.9809 31.6299C21.5836 31.5027 21.3068 31.3624 21.1398 31.2321L20.8937 31.5474ZM20.576 31.0386C20.576 31.2027 20.6734 31.3755 20.8937 31.5474L21.1398 31.2321C20.9699 31.0995 20.976 31.0304 20.976 31.0386H20.576ZM20.576 29.6353V31.0386H20.976V29.6353H20.576ZM25.3067 30.2348C23.3554 30.2348 21.6916 29.9112 20.8725 29.4601L20.6795 29.8105C21.5881 30.3109 23.3341 30.6348 25.3067 30.6348V30.2348ZM29.7407 29.4602C28.9214 29.9113 27.2578 30.2348 25.3067 30.2348V30.6348C27.2791 30.6348 29.0249 30.3109 29.9336 29.8106L29.7407 29.4602ZM30.0371 31.0386V29.6354H29.6371V31.0386H30.0371ZM20.6651 32.1216C20.9412 32.3056 21.2874 32.4579 21.676 32.5823L21.7979 32.2013C21.431 32.0839 21.1221 31.9455 20.8869 31.7888L20.6651 32.1216ZM20.976 33.4541V31.9552H20.576V33.4541H20.976ZM21.1398 33.6476C20.9699 33.515 20.976 33.4459 20.976 33.4541H20.576C20.576 33.6182 20.6734 33.791 20.8937 33.9629L21.1398 33.6476ZM21.9809 34.0454C21.5836 33.9182 21.3068 33.7779 21.1398 33.6476L20.8937 33.9629C21.1123 34.1335 21.4381 34.2917 21.8589 34.4264L21.9809 34.0454ZM25.3069 34.4638C23.9229 34.4638 22.7701 34.2981 21.9809 34.0454L21.8589 34.4264C22.6994 34.6954 23.8962 34.8638 25.3069 34.8638V34.4638ZM28.633 34.0454C27.8438 34.2981 26.691 34.4638 25.3069 34.4638V34.8638C26.7176 34.8638 27.9144 34.6954 28.7549 34.4264L28.633 34.0454ZM29.474 33.6476C29.307 33.7779 29.0302 33.9182 28.633 34.0454L28.7549 34.4264C29.1757 34.2917 29.5016 34.1335 29.7201 33.9629L29.474 33.6476ZM29.6378 33.4547C29.6377 33.4555 29.6321 33.5242 29.474 33.6476L29.7201 33.9629C29.9249 33.8031 30.0237 33.6428 30.0365 33.4875L29.6378 33.4547ZM29.6371 33.4541V33.4711H30.0371V33.4541H29.6371ZM29.6371 33.454V33.4541H30.0371V33.454H29.6371ZM29.6371 31.9557V33.454H30.0371V31.9557H29.6371ZM28.9379 32.5823C29.3261 32.458 29.672 32.3059 29.948 32.1221L29.7263 31.7892C29.4912 31.9457 29.1825 32.084 28.8159 32.2013L28.9379 32.5823ZM25.3069 33.0483C26.7577 33.0483 28.0203 32.876 28.9379 32.5823L28.8159 32.2013C27.9497 32.4787 26.731 32.6483 25.3069 32.6483V33.0483ZM21.676 32.5823C22.5935 32.876 23.8562 33.0483 25.3069 33.0483V32.6483C23.8828 32.6483 22.6641 32.4787 21.7979 32.2013L21.676 32.5823ZM20.376 31.0386V28.9695H19.976V31.0386H20.376ZM20.376 33.4541V31.0386H19.976V33.4541H20.376ZM20.376 35.8695V33.4541H19.976V35.8695H20.376ZM20.776 35.6695H20.176V36.0695H20.776V35.6695ZM20.576 34.3707V35.8695H20.976V34.3707H20.576ZM21.7979 34.6168C21.431 34.4994 21.1221 34.361 20.8869 34.2042L20.6651 34.5371C20.9412 34.7211 21.2874 34.8734 21.676 34.9978L21.7979 34.6168ZM25.3069 35.0638C23.8828 35.0638 22.6641 34.8941 21.7979 34.6168L21.676 34.9978C22.5935 35.2915 23.8562 35.4638 25.3069 35.4638V35.0638ZM28.8159 34.6168C27.9497 34.8941 26.731 35.0638 25.3069 35.0638V35.4638C26.7577 35.4638 28.0203 35.2915 28.9379 34.9978L28.8159 34.6168ZM29.7263 34.2047C29.4912 34.3612 29.1825 34.4995 28.8159 34.6168L28.9379 34.9978C29.3261 34.8735 29.672 34.7214 29.948 34.5376L29.7263 34.2047ZM30.0371 35.8695V34.3711H29.6371V35.8695H30.0371ZM30.4371 35.6695H29.8371V36.0695H30.4371V35.6695ZM30.2371 34.3707V35.8695H30.6371V34.3707H30.2371ZM31.459 34.6168C31.0921 34.4994 30.7832 34.361 30.548 34.2042L30.3262 34.5371C30.6023 34.7211 30.9485 34.8734 31.3371 34.9978L31.459 34.6168ZM34.968 35.0638C33.544 35.0638 32.3253 34.8941 31.459 34.6168L31.3371 34.9978C32.2547 35.2915 33.5173 35.4638 34.968 35.4638V35.0638ZM38.477 34.6168C37.6108 34.8941 36.3921 35.0638 34.968 35.0638V35.4638C36.4188 35.4638 37.6814 35.2915 38.599 34.9978L38.477 34.6168ZM39.3882 34.2042C39.153 34.3609 38.844 34.4994 38.477 34.6168L38.599 34.9978C38.9876 34.8734 39.3339 34.721 39.61 34.537L39.3882 34.2042ZM39.6991 35.8695V34.3706H39.2991V35.8695H39.6991ZM40.0991 35.6695H39.4991V36.0695H40.0991V35.6695ZM39.8991 26.5563V35.8695H40.2991V26.5563H39.8991ZM39.9015 26.5097C39.9015 26.5184 39.901 26.5271 39.9001 26.5358L40.298 26.5768C40.3003 26.5546 40.3015 26.5322 40.3015 26.5097H39.9015ZM34.9686 25.2C36.3725 25.2 37.6358 25.3676 38.5417 25.634C38.9959 25.7676 39.349 25.9228 39.5839 26.0862C39.8248 26.2537 39.9015 26.4 39.9015 26.5097H40.3015C40.3015 26.2024 40.0909 25.9516 39.8123 25.7578C39.5278 25.56 39.1291 25.3899 38.6545 25.2503C37.7027 24.9703 36.3996 24.8 34.9686 24.8V25.2ZM30.0358 26.5097C30.0358 26.4 30.1125 26.2537 30.3533 26.0862C30.5883 25.9228 30.9413 25.7676 31.3956 25.634C32.3015 25.3676 33.5648 25.2 34.9686 25.2V24.8C33.5377 24.8 32.2346 24.9703 31.2827 25.2503C30.8081 25.3899 30.4095 25.56 30.125 25.7578C29.8463 25.9516 29.6358 26.2024 29.6358 26.5097H30.0358ZM30.0365 26.5292C30.036 26.5227 30.0358 26.5162 30.0358 26.5097H29.6358C29.6358 26.5265 29.6364 26.5432 29.6377 26.5599L30.0365 26.5292ZM30.0371 28.2149V26.5445H29.6371V28.2149H30.0371ZM25.3067 27.6155C27.2578 27.6155 28.9214 27.939 29.7407 28.3901L29.9336 28.0397C29.0249 27.5394 27.2791 27.2155 25.3067 27.2155V27.6155ZM20.3738 28.9252C20.3738 28.8155 20.4505 28.6692 20.6914 28.5017C20.9263 28.3383 21.2794 28.1831 21.7336 28.0495C22.6395 27.7831 23.9028 27.6155 25.3067 27.6155V27.2155C23.8757 27.2155 22.5726 27.3858 21.6208 27.6658C21.1462 27.8054 20.7475 27.9755 20.463 28.1733C20.1844 28.3671 19.9738 28.6179 19.9738 28.9252H20.3738ZM20.375 28.95C20.3742 28.9417 20.3738 28.9334 20.3738 28.9252H19.9738C19.9738 28.9465 19.9749 28.9678 19.9769 28.989L20.375 28.95ZM31.459 32.2013C31.0921 32.0839 30.7832 31.9455 30.548 31.7888L30.3262 32.1216C30.6023 32.3056 30.9485 32.4579 31.3371 32.5823L31.459 32.2013ZM34.968 32.6483C33.544 32.6483 32.3253 32.4787 31.459 32.2013L31.3371 32.5823C32.2547 32.876 33.5173 33.0483 34.968 33.0483V32.6483ZM38.477 32.2013C37.6108 32.4787 36.3921 32.6483 34.968 32.6483V33.0483C36.4188 33.0483 37.6814 32.876 38.599 32.5823L38.477 32.2013ZM39.3882 31.7887C39.153 31.9454 38.844 32.0839 38.477 32.2013L38.599 32.5823C38.9876 32.4579 39.3339 32.3056 39.61 32.1215L39.3882 31.7887ZM39.6991 33.4541V31.9551H39.2991V33.4541H39.6991ZM39.499 33.6541H39.4991V33.2541H39.499V33.6541ZM39.3812 33.9629C39.6016 33.791 39.699 33.6182 39.699 33.4541H39.299C39.299 33.4459 39.305 33.515 39.1352 33.6476L39.3812 33.9629ZM38.4161 34.4264C38.8368 34.2917 39.1627 34.1335 39.3813 33.9629L39.1352 33.6476C38.9681 33.7779 38.6914 33.9182 38.2941 34.0454L38.4161 34.4264ZM34.968 34.8638C36.3788 34.8638 37.5755 34.6954 38.4161 34.4264L38.2941 34.0454C37.5049 34.2981 36.3521 34.4638 34.968 34.4638V34.8638ZM31.52 34.4264C32.3606 34.6954 33.5573 34.8638 34.968 34.8638V34.4638C33.584 34.4638 32.4312 34.2981 31.642 34.0454L31.52 34.4264ZM30.5548 33.9629C30.7734 34.1335 31.0992 34.2917 31.52 34.4264L31.642 34.0454C31.2447 33.9182 30.968 33.7779 30.8009 33.6476L30.5548 33.9629ZM30.2382 33.4841C30.2498 33.6404 30.3485 33.8018 30.5548 33.9629L30.8009 33.6476C30.7223 33.5862 30.6808 33.5376 30.6593 33.5044C30.6385 33.4723 30.6372 33.4558 30.6371 33.4546L30.2382 33.4841ZM30.2378 33.4523L30.2377 33.4675L30.6377 33.4712L30.6378 33.4559L30.2378 33.4523ZM30.4371 33.6541H30.4378V33.2541H30.4371V33.6541ZM30.2371 33.454V33.4541H30.6371V33.454H30.2371ZM30.2371 31.9552V33.454H30.6371V31.9552H30.2371ZM29.9528 28.7847C29.9196 28.7511 29.8732 28.7114 29.8078 28.6659L29.5794 28.9943C29.6285 29.0285 29.6552 29.0526 29.668 29.0656L29.9528 28.7847ZM29.8078 29.1844C29.8732 29.1389 29.9196 29.0993 29.9528 29.0656L29.668 28.7847C29.6552 28.7977 29.6285 28.8218 29.5794 28.856L29.8078 29.1844ZM28.8233 29.6089C29.2673 29.4783 29.5976 29.3305 29.8078 29.1844L29.5794 28.856C29.4188 28.9677 29.1342 29.1005 28.7104 29.2252L28.8233 29.6089ZM25.3067 30.0348C26.6969 30.0348 27.9404 29.8686 28.8233 29.6089L28.7104 29.2252C27.8734 29.4713 26.6698 29.6348 25.3067 29.6348V30.0348ZM21.7901 29.6089C22.673 29.8686 23.9164 30.0348 25.3067 30.0348V29.6348C23.9435 29.6348 22.7399 29.4713 21.9029 29.2252L21.7901 29.6089ZM20.8056 29.1844C21.0158 29.3305 21.346 29.4783 21.7901 29.6089L21.9029 29.2252C21.4792 29.1005 21.1945 28.9677 21.0339 28.856L20.8056 29.1844ZM20.6605 29.0656C20.6937 29.0993 20.7402 29.1389 20.8056 29.1844L21.0339 28.856C20.9848 28.8218 20.9581 28.7977 20.9454 28.7847L20.6605 29.0656ZM20.8056 28.6659C20.7402 28.7114 20.6937 28.751 20.6605 28.7847L20.9454 29.0656C20.9581 29.0526 20.9848 29.0285 21.0339 28.9943L20.8056 28.6659ZM21.7901 28.2414C21.346 28.372 21.0158 28.5198 20.8056 28.6659L21.0339 28.9943C21.1945 28.8826 21.4792 28.7498 21.9029 28.6252L21.7901 28.2414ZM25.3067 27.8155C23.9164 27.8155 22.673 27.9817 21.7901 28.2414L21.9029 28.6252C22.7399 28.379 23.9435 28.2155 25.3067 28.2155V27.8155ZM28.8233 28.2414C27.9404 27.9817 26.6969 27.8155 25.3067 27.8155V28.2155C26.6698 28.2155 27.8734 28.379 28.7104 28.6252L28.8233 28.2414ZM29.8078 28.6659C29.5976 28.5198 29.2673 28.372 28.8233 28.2414L28.7104 28.6252C29.1342 28.7498 29.4188 28.8826 29.5794 28.9943L29.8078 28.6659ZM20.7853 29.0783C20.7285 29.0837 20.6866 29.0635 20.6703 29.0546C20.6513 29.0441 20.6382 29.0329 20.6318 29.027C20.6187 29.0151 20.6102 29.0041 20.6072 29.0003C20.6002 28.991 20.5956 28.9832 20.5941 28.9807C20.5903 28.9742 20.5877 28.9689 20.5866 28.9667C20.584 28.9612 20.5822 28.9568 20.5811 28.954L20.954 28.8092C20.9522 28.8047 20.9499 28.7991 20.9469 28.7929C20.9456 28.7902 20.9429 28.7847 20.9389 28.778C20.9374 28.7754 20.9328 28.7675 20.9257 28.7582C20.9227 28.7543 20.9142 28.7433 20.9011 28.7313C20.8947 28.7255 20.8816 28.7142 20.8626 28.7038C20.8462 28.6949 20.8044 28.6747 20.7475 28.6801L20.7853 29.0783ZM20.9435 28.7865C20.9447 28.7888 20.9469 28.793 20.9494 28.7985C20.9503 28.8006 20.953 28.8067 20.9557 28.8147C20.9566 28.8172 20.9605 28.8285 20.9632 28.8435C20.9641 28.8482 20.9684 28.871 20.9653 28.9002C20.9638 28.9141 20.959 28.9486 20.9358 28.9855C20.9073 29.0309 20.8552 29.0717 20.7853 29.0783L20.7475 28.6801C20.6777 28.6867 20.6255 28.7274 20.597 28.7728C20.5739 28.8097 20.569 28.8443 20.5675 28.8581C20.5644 28.8873 20.5688 28.9102 20.5696 28.9149C20.5724 28.93 20.5763 28.9414 20.5772 28.944C20.58 28.9522 20.5828 28.9585 20.5839 28.961C20.5867 28.9674 20.5895 28.9727 20.5915 28.9766L20.9435 28.7865ZM21.8589 36.8419C22.6994 37.1109 23.8962 37.2793 25.3069 37.2793V36.8793C23.9229 36.8793 22.7701 36.7135 21.9809 36.4609L21.8589 36.8419ZM20.8937 36.3784C21.1123 36.549 21.4381 36.7071 21.8589 36.8419L21.9809 36.4609C21.5836 36.3337 21.3068 36.1934 21.1398 36.0631L20.8937 36.3784ZM20.576 35.8696C20.576 36.0337 20.6734 36.2064 20.8937 36.3784L21.1398 36.0631C20.9699 35.9305 20.976 35.8614 20.976 35.8696H20.576ZM20.176 36.0696H20.776V35.6696H20.176V36.0696ZM20.7707 36.5361C20.5267 36.3457 20.376 36.1212 20.376 35.8696H19.976C19.976 36.2959 20.233 36.6238 20.5246 36.8514L20.7707 36.5361ZM21.7979 37.0323C21.3654 36.8938 21.015 36.7267 20.7707 36.5361L20.5246 36.8514C20.8204 37.0823 21.2198 37.2673 21.676 37.4133L21.7979 37.0323ZM25.3069 37.4793C23.8828 37.4793 22.6641 37.3096 21.7979 37.0323L21.676 37.4133C22.5935 37.707 23.8562 37.8793 25.3069 37.8793V37.4793ZM28.8159 37.0323C27.9497 37.3096 26.731 37.4793 25.3069 37.4793V37.8793C26.7577 37.8793 28.0203 37.707 28.9379 37.4133L28.8159 37.0323ZM29.8432 36.5361C29.5989 36.7267 29.2485 36.8938 28.8159 37.0323L28.9379 37.4133C29.394 37.2673 29.7934 37.0823 30.0893 36.8514L29.8432 36.5361ZM29.9937 36.4016C29.9482 36.4486 29.8977 36.4935 29.8432 36.5361L30.0893 36.8514C30.1566 36.7988 30.2214 36.7416 30.2813 36.6796L29.9937 36.4016ZM30.4318 36.5361C30.3773 36.4935 30.3267 36.4486 30.2813 36.4016L29.9937 36.6796C30.0536 36.7416 30.1183 36.7988 30.1857 36.8514L30.4318 36.5361ZM31.459 37.0323C31.0265 36.8938 30.6761 36.7267 30.4318 36.5361L30.1857 36.8514C30.4815 37.0823 30.881 37.2673 31.3371 37.4133L31.459 37.0323ZM34.968 37.4793C33.544 37.4793 32.3253 37.3096 31.459 37.0323L31.3371 37.4133C32.2547 37.707 33.5173 37.8793 34.968 37.8793V37.4793ZM38.477 37.0323C37.6108 37.3096 36.3921 37.4793 34.968 37.4793V37.8793C36.4188 37.8793 37.6814 37.707 38.599 37.4133L38.477 37.0323ZM39.5043 36.5361C39.26 36.7267 38.9096 36.8938 38.477 37.0323L38.599 37.4133C39.0551 37.2673 39.4546 37.0823 39.7504 36.8514L39.5043 36.5361ZM39.899 35.8696C39.899 36.1212 39.7483 36.3457 39.5043 36.5361L39.7504 36.8514C40.042 36.6238 40.299 36.2959 40.299 35.8696H39.899ZM39.499 36.0696H40.099V35.6696H39.499V36.0696ZM39.3812 36.3784C39.6016 36.2064 39.699 36.0337 39.699 35.8696H39.299C39.299 35.8614 39.305 35.9305 39.1352 36.0631L39.3812 36.3784ZM38.4161 36.8419C38.8368 36.7071 39.1627 36.549 39.3813 36.3784L39.1352 36.0631C38.9681 36.1934 38.6914 36.3337 38.2941 36.4609L38.4161 36.8419ZM34.968 37.2793C36.3788 37.2793 37.5755 37.1109 38.4161 36.8419L38.2941 36.4609C37.5049 36.7135 36.3521 36.8793 34.968 36.8793V37.2793ZM31.52 36.8419C32.3606 37.1109 33.5573 37.2793 34.968 37.2793V36.8793C33.584 36.8793 32.4312 36.7135 31.642 36.4609L31.52 36.8419ZM30.5548 36.3784C30.7734 36.549 31.0992 36.7071 31.52 36.8419L31.642 36.4609C31.2447 36.3337 30.968 36.1934 30.8009 36.0631L30.5548 36.3784ZM30.2382 35.8996C30.2498 36.0559 30.3485 36.2173 30.5548 36.3784L30.8009 36.0631C30.7223 36.0017 30.6808 35.9531 30.6593 35.9199C30.6385 35.8877 30.6372 35.8713 30.6371 35.8701L30.2382 35.8996ZM30.2378 35.8678L30.2377 35.883L30.6377 35.8866L30.6378 35.8714L30.2378 35.8678ZM30.4371 36.0696H30.4378V35.6696H30.4371V36.0696ZM29.8378 36.0696H30.4371V35.6696H29.8378V36.0696ZM29.8371 36.0696H29.8378V35.6696H29.8371V36.0696ZM30.0373 35.883L30.0371 35.8678L29.6371 35.8714L29.6373 35.8866L30.0373 35.883ZM29.7201 36.3784C29.9265 36.2173 30.0252 36.0559 30.0367 35.8996L29.6378 35.8701C29.6377 35.8713 29.6364 35.8877 29.6156 35.9199C29.5942 35.9531 29.5526 36.0017 29.474 36.0631L29.7201 36.3784ZM28.7549 36.8419C29.1757 36.7071 29.5016 36.549 29.7201 36.3784L29.474 36.0631C29.307 36.1934 29.0302 36.3337 28.633 36.4609L28.7549 36.8419ZM25.3069 37.2793C26.7176 37.2793 27.9144 37.1109 28.7549 36.8419L28.633 36.4609C27.8438 36.7135 26.691 36.8793 25.3069 36.8793V37.2793Z" fill="white" mask="url(#path-4-outside-1_1013_42551)"/>
</svg>
