<svg width="18" height="18" viewBox="0 0 18 18" fill="none" xmlns="http://www.w3.org/2000/svg">
<circle cx="9" cy="9" r="8.75" stroke="#3D4548" stroke-width="0.5"/>
<path d="M13.8986 11.508C13.7839 11.3858 13.3789 11.0246 12.6345 10.5467C11.8846 10.0646 11.3315 9.76398 11.1729 9.69389C11.1589 9.68769 11.1435 9.68542 11.1283 9.68731C11.1131 9.68921 11.0988 9.69521 11.0867 9.70466C10.8312 9.90395 10.401 10.27 10.3779 10.2898C10.2289 10.4175 10.2289 10.4175 10.107 10.3777C9.89251 10.3074 9.2263 9.95361 8.64578 9.37177C8.06527 8.78994 7.69327 8.10725 7.62296 7.89301C7.58275 7.77084 7.58275 7.77084 7.71085 7.62187C7.73062 7.5988 8.09691 7.16857 8.2962 6.91325C8.30565 6.90123 8.31165 6.88686 8.31355 6.87168C8.31544 6.85651 8.31317 6.8411 8.30697 6.82712C8.23687 6.66826 7.93629 6.11542 7.45421 5.3655C6.97564 4.62128 6.61485 4.21633 6.49268 4.10163C6.48147 4.09105 6.46762 4.08369 6.45257 4.08033C6.43753 4.07696 6.42186 4.07772 6.40721 4.08252C5.98017 4.22927 5.56813 4.41652 5.17674 4.64172C4.7989 4.86136 4.44119 5.11393 4.10777 5.39648C4.09613 5.40637 4.08741 5.41925 4.08253 5.43373C4.07765 5.44821 4.07681 5.46374 4.08009 5.47866C4.12601 5.69267 4.34552 6.58608 5.02667 7.82358C5.72166 9.08657 6.2033 9.73366 7.22393 10.7508C8.24456 11.7679 8.91209 12.2785 10.1764 12.9735C11.4139 13.6547 12.3077 13.8744 12.5213 13.9199C12.5363 13.9231 12.5518 13.9223 12.5663 13.9174C12.5808 13.9125 12.5938 13.9038 12.6037 13.8922C12.8862 13.5588 13.1387 13.2011 13.3583 12.8232C13.5834 12.4318 13.7707 12.0198 13.9175 11.5928C13.9222 11.5782 13.9229 11.5627 13.9196 11.5478C13.9162 11.5329 13.909 11.5191 13.8986 11.508Z" fill="#3D4548"/>
</svg>
