<svg width="61" height="61" viewBox="0 0 61 61" fill="none" xmlns="http://www.w3.org/2000/svg">
<circle cx="30.5" cy="30.5" r="30.5" fill="#499647"/>
<path fill-rule="evenodd" clip-rule="evenodd" d="M19.5964 44.5887C22.823 47.418 27.0003 48.9224 31.29 48.7999C35.5796 48.6774 39.6643 46.9371 42.7241 43.9282C45.784 40.9193 47.5927 36.8644 47.7872 32.5774C47.9817 28.2904 46.5477 24.0885 43.7729 20.8148L44.5358 20.1682C47.4738 23.6345 48.9921 28.0836 48.7862 32.6228C48.5802 37.1619 46.6651 41.4553 43.4253 44.6412C40.1854 47.8271 35.8605 49.6698 31.3185 49.7995C26.7765 49.9292 22.3535 48.3363 18.9371 45.3406C15.5207 42.3448 13.3637 38.1677 12.899 33.6477C12.4343 29.1277 13.6963 24.5991 16.4317 20.9709C19.1671 17.3426 23.1735 14.8831 27.6468 14.086C31.7351 13.3575 35.937 14.0667 39.5464 16.072L38.8379 12.8013C38.7795 12.5314 38.9509 12.2652 39.2208 12.2068C39.4907 12.1483 39.7568 12.3197 39.8153 12.5896L40.7678 16.9876C40.8263 17.2575 40.6549 17.5237 40.385 17.5821L35.987 18.5347C35.7171 18.5931 35.4509 18.4217 35.3925 18.1519C35.334 17.882 35.5054 17.6158 35.7753 17.5573L38.9297 16.8741C35.5504 15.0353 31.6341 14.3912 27.8223 15.0705C23.5974 15.8233 19.8136 18.1462 17.2302 21.5729C14.6468 24.9996 13.4549 29.2765 13.8938 33.5454C14.3327 37.8143 16.3698 41.7593 19.5964 44.5887Z" fill="white"/>
<path fill-rule="evenodd" clip-rule="evenodd" d="M23.939 25.8205L22.6809 25.3046L19.5546 32.9292L20.8127 33.445L23.939 25.8205ZM25.2436 25.2746L24.3184 24.8952L23.0603 24.3794L22.1351 24L21.7557 24.9252L18.6294 32.5498L18.25 33.475L19.1752 33.8544L20.4333 34.3703L21.3586 34.7497L21.738 33.8244L21.9224 33.3746C22.5221 33.6936 22.9571 34.2597 23.1076 34.9287L22.3846 36.3747L22.3318 36.4802V36.5983C22.3318 37.9075 23.5704 38.7999 24.7612 38.4969C24.9791 39.4123 25.9119 39.9922 26.8192 39.8074C27.1393 40.5736 27.977 41.0093 28.7862 40.8716C28.965 42.0259 30.3674 42.5779 31.2888 41.7881L31.3245 41.7576L31.3539 41.7209L31.5595 41.4638L32.1232 41.7457C32.701 42.0346 33.388 41.9992 33.933 41.6523C34.3695 41.3746 34.6644 40.9291 34.7552 40.4297L34.8701 40.4849L34.9835 40.5393L35.1092 40.5336L35.4281 40.5191C36.5653 40.4675 37.3415 39.4611 37.229 38.4235C38.1996 38.2007 38.834 37.2549 38.6991 36.2871C39.4585 35.983 39.8995 35.1606 39.7354 34.361L40.9987 33.8557L40.6273 32.9272L39.1316 33.5255L35.6467 31.5653C34.3769 30.851 32.8818 30.6499 31.4683 31.0032L30.9916 31.1224C30.0391 31.3605 29.0426 31.2852 28.1461 30.9192L31.4945 28.5556C32.5265 27.8271 33.828 27.593 35.0492 27.9163L35.3056 27.9842C36.3654 28.2647 37.4903 28.1545 38.4749 27.6748L40.9965 33.8244L41.3758 34.7497L42.3011 34.3703L43.5592 33.8544L44.4844 33.475L44.105 32.5498L40.9787 24.9252L40.5993 24L39.6741 24.3794L38.416 24.8952L37.4908 25.2746L37.8701 26.1999L38.2362 27.0926L38.0697 26.7596C37.2929 27.148 36.4011 27.2397 35.5615 27.0175L35.3051 26.9496C34.043 26.6155 32.7112 26.7638 31.5636 27.3488L31.4948 27.3144C30.3852 26.7596 29.1389 26.5373 27.9059 26.6743C27.0922 26.7648 26.2685 26.6702 25.4965 26.3977L24.8733 26.1778L25.2436 25.2746ZM24.5268 27.0228L22.3031 32.4461C22.8902 32.7362 23.3734 33.1895 23.7004 33.7431L23.7214 33.7011L23.8767 33.6272L23.9035 33.6144C25.1222 33.0341 26.501 33.7008 26.8898 34.8883C27.7111 34.7419 28.5515 35.1775 28.8984 35.9452C29.7976 35.7823 30.7065 36.3448 30.945 37.2436H31.9942V38.2436H30.8078L29.7508 40.2614L29.7678 40.6513C29.7863 41.0774 30.273 41.3013 30.607 41.0536L31.0065 40.5542L32.1323 38.5773L32.2348 38.6357L32.4396 38.209L32.7832 38.374L34.5011 39.1986L35.1894 39.529L35.3827 39.5202C35.9915 39.4925 36.3813 38.8857 36.1893 38.3345L31.9904 36.1245L32.4561 35.2396L36.6989 37.4726H36.7902C37.4268 37.4726 37.8573 36.852 37.6729 36.2719L34.0558 34.4086L34.5138 33.5196L38.1667 35.4014C38.6183 35.3334 38.8849 34.857 38.7182 34.4403L35.1564 32.4368C34.1093 31.8478 32.8764 31.682 31.7109 31.9734L31.2341 32.0926C29.7627 32.4604 28.2051 32.2141 26.9189 31.4103L26.281 31.0116L26.8956 30.5778L30.5572 27.9932C29.7506 27.6849 28.8796 27.5723 28.0163 27.6682C27.0529 27.7753 26.0777 27.6633 25.1636 27.3407L24.4976 27.1056L24.5268 27.0228ZM40.0535 25.3046L38.7954 25.8205L41.9217 33.445L43.1798 32.9292L40.0535 25.3046ZM32.1172 40.6247L32.7707 39.4772L33.7848 39.9639V40.1008C33.7848 40.3877 33.6382 40.6547 33.3962 40.8087C33.1475 40.9669 32.834 40.9831 32.5704 40.8513L32.1172 40.6247ZM30.0011 37.6285L28.8639 39.7996C28.3743 40.0684 27.7687 39.7565 27.692 39.2306L28.9225 36.9748C29.4031 36.7822 29.9482 37.1062 30.0011 37.6285ZM28.0381 36.5077L26.8099 38.7595C26.2965 39.018 25.6686 38.6183 25.7165 38.0184L25.7263 37.8962L26.8597 35.9385C27.3414 35.7166 27.9128 35.9933 28.0381 36.5077ZM25.9905 35.4441L24.8767 37.3678L24.7303 37.4445C24.1264 37.7608 23.4084 37.3608 23.3375 36.7049L24.4566 34.4667C25.1588 34.2232 25.9142 34.7032 25.9905 35.4441Z" fill="white"/>
</svg>
