<svg width="61" height="61" viewBox="0 0 61 61" fill="none" xmlns="http://www.w3.org/2000/svg">
<circle cx="30.5" cy="30.5" r="30.5" fill="#499647"/>
<path fill-rule="evenodd" clip-rule="evenodd" d="M44.3934 42.2082C47.2227 38.9816 48.7271 34.8044 48.6046 30.5147C48.4821 26.225 46.7417 22.1404 43.7328 19.0806C40.7239 16.0207 36.6691 14.212 32.3821 14.0175C28.0951 13.823 23.8932 15.257 20.6195 18.0318L19.9729 17.2689C23.4391 14.3309 27.8883 12.8125 32.4275 13.0185C36.9666 13.2245 41.26 15.1396 44.4459 18.3794C47.6318 21.6193 49.4745 25.9442 49.6042 30.4861C49.7339 35.0281 48.141 39.4512 45.1452 42.8675C42.1494 46.2839 37.9724 48.4409 33.4524 48.9056C28.9324 49.3703 24.4038 48.1084 20.7756 45.373C17.1473 42.6376 14.6878 38.6312 13.8907 34.1578C13.1621 30.0695 13.8713 25.8677 15.8767 22.2583L12.6059 22.9667C12.3361 23.0252 12.0699 22.8538 12.0114 22.5839C11.953 22.314 12.1244 22.0479 12.3943 21.9894L16.7923 21.0368C17.0622 20.9784 17.3283 21.1498 17.3868 21.4197L18.3394 25.8177C18.3978 26.0876 18.2264 26.3537 17.9565 26.4122C17.6867 26.4707 17.4205 26.2993 17.362 26.0294L16.6788 22.875C14.84 26.2543 14.1959 30.1706 14.8752 33.9824C15.628 38.2073 17.9509 41.9911 21.3776 44.5745C24.8043 47.1579 29.0812 48.3498 33.3501 47.9109C37.619 47.472 41.564 45.4348 44.3934 42.2082ZM39.1115 23C38.8354 23 38.6115 23.2239 38.6115 23.5C38.6115 23.7761 38.8354 24 39.1115 24H41.8687L30.9721 34.4608C30.7757 34.6493 30.4647 34.6461 30.2723 34.4536L27.1722 31.3536C26.5864 30.7678 25.6367 30.7678 25.0509 31.3536L18.758 37.6464C18.71 37.6944 18.6739 37.7496 18.6495 37.8086C18.625 37.8676 18.6115 37.9322 18.6115 38C18.6115 38.0678 18.625 38.1324 18.6495 38.1914C18.6739 38.2504 18.71 38.3056 18.758 38.3536C18.8059 38.4015 18.8612 38.4377 18.9201 38.4621C18.9738 38.4842 19.0305 38.4967 19.0875 38.4994C19.0955 38.4998 19.1035 38.5 19.1115 38.5H19.112H43.1115C43.3877 38.5 43.6115 38.2761 43.6115 38C43.6115 37.7239 43.3877 37.5 43.1115 37.5H20.3186L25.758 32.0607C25.9532 31.8654 26.2698 31.8654 26.4651 32.0607L29.5651 35.1607C30.1425 35.7381 31.0756 35.7476 31.6646 35.1822L42.6115 24.6731V27.5C42.6115 27.7761 42.8354 28 43.1115 28C43.3877 28 43.6115 27.7761 43.6115 27.5V23.5V23H43.1115H39.1115ZM32.1115 24.5C31.8354 24.5 31.6115 24.7239 31.6115 25C31.6115 25.2761 31.8354 25.5 32.1115 25.5H33.3261L28.2737 30.1314C28.0701 30.318 28.0564 30.6343 28.2429 30.8379C28.4295 31.0414 28.7458 31.0552 28.9494 30.8686L34.1115 26.1366V27.5C34.1115 27.7761 34.3354 28 34.6115 28C34.8877 28 35.1115 27.7761 35.1115 27.5V25V24.5H34.6115H32.1115Z" fill="white"/>
</svg>
