<svg width="61" height="61" viewBox="0 0 61 61" fill="none" xmlns="http://www.w3.org/2000/svg">
<circle cx="30.5" cy="30.5" r="30.5" fill="#499647"/>
<path d="M14.018 30.7067L14.5175 30.7294L14.018 30.7067ZM19.23 19.0222L18.8794 18.6657L19.23 19.0222ZM31.0004 14.0071L30.9861 13.5073L31.0004 14.0071ZM21.9197 45.7247C21.6498 45.7832 21.4784 46.0494 21.5368 46.3192L22.4894 50.7173C22.5479 50.9871 22.814 51.1585 23.0839 51.1001C23.3538 51.0416 23.5252 50.7755 23.4667 50.5056L22.62 46.5962L26.5294 45.7495C26.7993 45.691 26.9707 45.4249 26.9122 45.155C26.8537 44.8851 26.5876 44.7137 26.3177 44.7722L21.9197 45.7247ZM18.5318 42.492C15.757 39.2184 14.323 35.0164 14.5175 30.7294L13.5185 30.6841C13.3125 35.2232 14.8309 39.6724 17.7689 43.1386L18.5318 42.492ZM14.5175 30.7294C14.712 26.4424 16.5207 22.3876 19.5806 19.3787L18.8794 18.6657C15.6396 21.8516 13.7245 26.1449 13.5185 30.6841L14.5175 30.7294ZM19.5806 19.3787C22.6404 16.3698 26.725 14.6294 31.0147 14.5069L30.9861 13.5073C26.4442 13.6371 22.1193 15.4798 18.8794 18.6657L19.5806 19.3787ZM31.0147 14.5069C35.3044 14.3844 39.4816 15.8888 42.7082 18.7182L43.3675 17.9663C39.9512 14.9705 35.5281 13.3776 30.9861 13.5073L31.0147 14.5069ZM42.7082 18.7182C45.9348 21.5475 47.972 25.4925 48.4109 29.7614L49.4056 29.6591C48.9409 25.1391 46.7839 20.9621 43.3675 17.9663L42.7082 18.7182ZM48.4109 29.7614C48.8498 34.0303 47.6579 38.3073 45.0745 41.734L45.873 42.336C48.6084 38.7077 49.8703 34.1792 49.4056 29.6591L48.4109 29.7614ZM45.0745 41.734C42.4911 45.1606 38.7073 47.4835 34.4824 48.2364L34.6578 49.2208C39.1312 48.4237 43.1376 45.9642 45.873 42.336L45.0745 41.734ZM34.4824 48.2364C30.2575 48.9892 25.9043 48.1164 22.2962 45.793L21.7548 46.6338C25.5751 49.0938 30.1845 50.018 34.6578 49.2208L34.4824 48.2364Z" fill="white"/>
<rect x="29.2856" y="31.9604" width="4.58117" height="8.10847" stroke="white"/>
<rect x="22.5884" y="34.1025" width="4.58117" height="5.9653" stroke="white"/>
<rect x="35.9832" y="28.2109" width="4.58117" height="11.859" stroke="white"/>
<path opacity="0.7" d="M38.0387 22.6217L38.3985 22.9761L38.0387 22.6217ZM40.2171 21.0069C40.2154 20.734 39.9876 20.5097 39.7083 20.5058L35.1569 20.4434C34.8776 20.4396 34.6526 20.6577 34.6544 20.9307C34.6561 21.2036 34.8839 21.4279 35.1632 21.4318L39.2088 21.4872L39.234 25.4406C39.2357 25.7136 39.4635 25.9379 39.7428 25.9417C40.0221 25.9456 40.2471 25.7274 40.2454 25.4545L40.2171 21.0069ZM38.3985 22.9761L40.0712 21.3543L39.3516 20.6457L37.6789 22.2674L38.3985 22.9761ZM22.2218 31.9049C28.3523 30.3861 33.932 27.3063 38.3985 22.9761L37.6789 22.2674C33.3373 26.4765 27.9137 29.4701 21.9547 30.9464L22.2218 31.9049Z" fill="white"/>
</svg>
