<svg width="61" height="61" viewBox="0 0 61 61" fill="none" xmlns="http://www.w3.org/2000/svg">
<circle cx="30.5" cy="30.5" r="30.5" fill="#499647"/>
<path d="M48.982 31.2933L48.4825 31.2706L48.982 31.2933ZM43.77 42.9778L44.1206 43.3343L43.77 42.9778ZM31.9996 47.9929L32.0139 48.4927L31.9996 47.9929ZM41.0803 16.2753C41.3502 16.2168 41.5216 15.9506 41.4632 15.6808L40.5106 11.2827C40.4521 11.0129 40.186 10.8415 39.9161 10.8999C39.6462 10.9584 39.4748 11.2245 39.5333 11.4944L40.38 15.4038L36.4706 16.2505C36.2007 16.309 36.0293 16.5751 36.0878 16.845C36.1463 17.1149 36.4124 17.2863 36.6823 17.2278L41.0803 16.2753ZM44.4683 19.508C47.243 22.7816 48.677 26.9836 48.4825 31.2706L49.4815 31.3159C49.6875 26.7768 48.1691 22.3276 45.2311 18.8614L44.4683 19.508ZM48.4825 31.2706C48.288 35.5576 46.4793 39.6124 43.4194 42.6213L44.1206 43.3343C47.3604 40.1484 49.2755 35.8551 49.4815 31.3159L48.4825 31.2706ZM43.4194 42.6213C40.3596 45.6302 36.275 47.3706 31.9853 47.4931L32.0139 48.4927C36.5558 48.3629 40.8807 46.5202 44.1206 43.3343L43.4194 42.6213ZM31.9853 47.4931C27.6956 47.6156 23.5184 46.1112 20.2918 43.2818L19.6325 44.0337C23.0488 47.0295 27.4719 48.6224 32.0139 48.4927L31.9853 47.4931ZM20.2918 43.2818C17.0652 40.4525 15.028 36.5075 14.5891 32.2386L13.5944 32.3409C14.0591 36.8609 16.2161 41.0379 19.6325 44.0337L20.2918 43.2818ZM14.5891 32.2386C14.1502 27.9697 15.3421 23.6927 17.9255 20.266L17.127 19.664C14.3916 23.2923 13.1297 27.8208 13.5944 32.3409L14.5891 32.2386ZM17.9255 20.266C20.5089 16.8394 24.2927 14.5165 28.5176 13.7636L28.3422 12.7792C23.8688 13.5763 19.8624 16.0358 17.127 19.664L17.9255 20.266ZM28.5176 13.7636C32.7425 13.0108 37.0957 13.8836 40.7038 16.207L41.2452 15.3662C37.4249 12.9062 32.8155 11.982 28.3422 12.7792L28.5176 13.7636Z" fill="white"/>
<path fill-rule="evenodd" clip-rule="evenodd" d="M31.4793 20L31.6325 20.0941C34.4148 21.8025 37.4139 23.1297 40.5494 24.04L40.91 24.1447V24.5202V35.33C40.91 36.0502 40.6535 36.7468 40.1865 37.2951C38.1981 39.6293 35.6052 41.3707 32.6923 42.3284L31.5559 42.702L31.5362 42.7619L31.4549 42.7352L31.3738 42.7619L31.3542 42.7021L30.2177 42.3284C27.3048 41.3708 24.7119 39.6293 22.7235 37.2951C22.2565 36.7469 22 36.0503 22 35.3301V24.5202V24.1447L22.3606 24.04C25.4961 23.1297 28.4952 21.8026 31.2775 20.0942L31.4307 20.0001L31.455 20.0396L31.4793 20ZM31.455 21.156C28.8018 22.7461 25.9618 24.0015 23 24.8937V35.3301C23 35.8126 23.1718 36.2793 23.4847 36.6467C25.354 38.841 27.7916 40.4782 30.53 41.3785L31.4549 41.6825L32.38 41.3784C35.1184 40.4781 37.556 38.841 39.4253 36.6466C39.7382 36.2793 39.91 35.8125 39.91 35.33V24.8937C36.9482 24.0015 34.1083 22.746 31.455 21.156Z" fill="white"/>
<path d="M32.5 36.5L32.6231 36.5048C33.714 36.5471 34.6661 35.7717 34.8456 34.6948L34.9028 34.3515C35.0335 33.5676 34.6115 32.7958 33.881 32.4828L33.8492 32.4691C33.3471 32.254 32.9832 31.8054 32.876 31.2698V31.2698C32.7951 30.8652 32.8679 30.4449 33.0802 30.091L33.2692 29.7761C33.5124 29.3707 33.6409 28.9067 33.6409 28.4339V27.7372C33.6409 27.1305 33.3758 26.5541 32.9152 26.1593V26.1593C32.1369 25.4922 30.9885 25.4922 30.2102 26.1593V26.1593C29.7496 26.5541 29.4845 27.1305 29.4845 27.7372V28.4339C29.4845 28.9067 29.613 29.3707 29.8562 29.7761L30.0452 30.091C30.2575 30.4449 30.3303 30.8652 30.2494 31.2698V31.2698C30.1422 31.8054 29.7783 32.254 29.2762 32.4691L29.2014 32.5012C28.4839 32.8087 28.0437 33.5408 28.1085 34.3187L28.1278 34.5496C28.2225 35.6855 29.1927 36.5468 30.3318 36.506L30.5 36.5" stroke="white" stroke-width="0.9"/>
</svg>
