<svg width="47" height="47" viewBox="0 0 47 47" fill="none" xmlns="http://www.w3.org/2000/svg">
<circle cx="23.5" cy="23.5" r="23" stroke="#282828"/>
<g clip-path="url(#clip0_1013_37562)">
<path d="M30.5625 16.125H17.4375C16.8575 16.1256 16.3015 16.3563 15.8914 16.7664C15.4813 17.1765 15.2506 17.7325 15.25 18.3125V27.6875C15.2506 28.2675 15.4813 28.8235 15.8914 29.2336C16.3015 29.6437 16.8575 29.8744 17.4375 29.875H30.5625C31.1425 29.8744 31.6985 29.6437 32.1086 29.2336C32.5187 28.8235 32.7494 28.2675 32.75 27.6875V18.3125C32.7494 17.7325 32.5187 17.1765 32.1086 16.7664C31.6985 16.3563 31.1425 16.1256 30.5625 16.125ZM30.0086 19.7434L24.3836 24.1184C24.2739 24.2036 24.1389 24.2499 24 24.2499C23.8611 24.2499 23.7261 24.2036 23.6164 24.1184L17.9914 19.7434C17.9253 19.6935 17.8698 19.6309 17.8281 19.5594C17.7864 19.4878 17.7593 19.4087 17.7485 19.3266C17.7376 19.2445 17.7432 19.161 17.7648 19.0811C17.7865 19.0012 17.8238 18.9263 17.8746 18.861C17.9255 18.7956 17.9888 18.741 18.0609 18.7003C18.1331 18.6596 18.2126 18.6336 18.2948 18.6239C18.377 18.6142 18.4604 18.6209 18.54 18.6437C18.6196 18.6665 18.6939 18.7049 18.7586 18.7566L24 22.8332L29.2414 18.7566C29.3725 18.6577 29.5372 18.6143 29.7 18.6358C29.8629 18.6573 30.0107 18.7421 30.1115 18.8718C30.2123 19.0014 30.258 19.1656 30.2387 19.3287C30.2195 19.4918 30.1368 19.6407 30.0086 19.7434Z" fill="#282828"/>
</g>
<defs>
<clipPath id="clip0_1013_37562">
<rect width="20" height="20" fill="white" transform="translate(14 13)"/>
</clipPath>
</defs>
</svg>
