<svg width="61" height="61" viewBox="0 0 61 61" fill="none" xmlns="http://www.w3.org/2000/svg">
<circle cx="30.5" cy="30.5" r="30.5" fill="#499647"/>
<path d="M48.982 31.2933L48.4825 31.2706L48.982 31.2933ZM43.77 42.9778L44.1206 43.3343L43.77 42.9778ZM31.9996 47.9929L32.0139 48.4927L31.9996 47.9929ZM41.0803 16.2753C41.3502 16.2168 41.5216 15.9506 41.4632 15.6808L40.5106 11.2827C40.4521 11.0129 40.186 10.8415 39.9161 10.8999C39.6462 10.9584 39.4748 11.2245 39.5333 11.4944L40.38 15.4038L36.4706 16.2505C36.2007 16.309 36.0293 16.5751 36.0878 16.845C36.1463 17.1149 36.4124 17.2863 36.6823 17.2278L41.0803 16.2753ZM44.4683 19.508C47.243 22.7816 48.677 26.9836 48.4825 31.2706L49.4815 31.3159C49.6875 26.7768 48.1691 22.3276 45.2311 18.8614L44.4683 19.508ZM48.4825 31.2706C48.288 35.5576 46.4793 39.6124 43.4194 42.6213L44.1206 43.3343C47.3604 40.1484 49.2755 35.8551 49.4815 31.3159L48.4825 31.2706ZM43.4194 42.6213C40.3596 45.6302 36.275 47.3706 31.9853 47.4931L32.0139 48.4927C36.5558 48.3629 40.8807 46.5202 44.1206 43.3343L43.4194 42.6213ZM31.9853 47.4931C27.6956 47.6156 23.5184 46.1112 20.2918 43.2818L19.6325 44.0337C23.0488 47.0295 27.4719 48.6224 32.0139 48.4927L31.9853 47.4931ZM20.2918 43.2818C17.0652 40.4525 15.028 36.5075 14.5891 32.2386L13.5944 32.3409C14.0591 36.8609 16.2161 41.0379 19.6325 44.0337L20.2918 43.2818ZM14.5891 32.2386C14.1502 27.9697 15.3421 23.6927 17.9255 20.266L17.127 19.664C14.3916 23.2923 13.1297 27.8208 13.5944 32.3409L14.5891 32.2386ZM17.9255 20.266C20.5089 16.8394 24.2927 14.5165 28.5176 13.7636L28.3422 12.7792C23.8688 13.5763 19.8624 16.0358 17.127 19.664L17.9255 20.266ZM28.5176 13.7636C32.7425 13.0108 37.0957 13.8836 40.7038 16.207L41.2452 15.3662C37.4249 12.9062 32.8155 11.982 28.3422 12.7792L28.5176 13.7636Z" fill="white"/>
<path d="M25 31.5L38 21L34.4545 31.5H38L25 42L28.5455 31.5H25Z" stroke="white"/>
</svg>
