<svg width="47" height="47" viewBox="0 0 47 47" fill="none" xmlns="http://www.w3.org/2000/svg">
<circle cx="23.5" cy="23.5" r="23" stroke="#282828"/>
<path d="M27.3161 15.309C26.4741 14.4649 25.298 14 24 14C22.695 14 21.5151 14.4621 20.677 15.301C19.8298 16.1491 19.417 17.3019 19.514 18.5466C19.7061 21.0023 21.7185 22.9999 24 22.9999C26.2815 22.9999 28.2905 21.0027 28.4856 18.5474C28.5838 17.3139 28.1684 16.1636 27.3161 15.309ZM31.6152 31.9999H16.3848C16.1855 32.0023 15.9881 31.9634 15.8069 31.8861C15.6258 31.8087 15.4655 31.6948 15.3377 31.5527C15.0565 31.2405 14.9431 30.8142 15.0271 30.3831C15.3923 28.502 16.5319 26.9218 18.3232 25.8124C19.9146 24.8277 21.9305 24.2857 24 24.2857C26.0695 24.2857 28.0854 24.8281 29.6768 25.8124C31.4681 26.9214 32.6077 28.5016 32.9729 30.3827C33.0569 30.8138 32.9435 31.2401 32.6623 31.5523C32.5345 31.6945 32.3743 31.8084 32.1931 31.8859C32.012 31.9633 31.8146 32.0023 31.6152 31.9999Z" fill="#282828"/>
</svg>
