<svg width="61" height="61" viewBox="0 0 61 61" fill="none" xmlns="http://www.w3.org/2000/svg">
<circle cx="30.5" cy="30.5" r="30.5" fill="#499647"/>
<path d="M38.6468 46.7409C34.9281 48.5474 30.6899 48.979 26.6834 47.9593C22.6768 46.9395 19.1607 44.5342 16.7582 41.1696C14.3557 37.805 13.2219 33.6985 13.5579 29.5779C13.8938 25.4573 15.6778 21.5887 18.5936 18.6577C21.5094 15.7268 25.3687 13.9228 29.4875 13.5655C33.6063 13.2082 37.7187 14.3206 41.0956 16.7057C44.4726 19.0907 46.8961 22.5943 47.9367 26.5955C48.9772 30.5967 48.5676 34.8371 46.7803 38.5651" stroke="white"/>
<circle opacity="0.7" cx="31" cy="31" r="11.5" transform="rotate(90 31 31)" stroke="white"/>
<circle opacity="0.7" cx="31" cy="31" r="6.5" transform="rotate(90 31 31)" stroke="white" stroke-dasharray="2 2"/>
<circle cx="31" cy="31" r="2" fill="white"/>
<path d="M39.5 44.5L45 40L43.9091 44.5H47L40 49.5L42.0909 44.5H39.5Z" stroke="white"/>
</svg>
