<svg width="47" height="47" viewBox="0 0 47 47" fill="none" xmlns="http://www.w3.org/2000/svg">
<circle cx="23.5" cy="23.5" r="23" stroke="#282828"/>
<path d="M32.7086 27.4588C32.5047 27.2416 31.7847 26.5995 30.4613 25.7498C29.1281 24.8928 28.1449 24.3584 27.8629 24.2338C27.838 24.2228 27.8106 24.2188 27.7836 24.2221C27.7567 24.2255 27.7311 24.2362 27.7097 24.253C27.2554 24.6073 26.4906 25.258 26.4496 25.2932C26.1847 25.5202 26.1847 25.5202 25.9679 25.4495C25.5867 25.3245 24.4023 24.6955 23.3703 23.6612C22.3383 22.6268 21.6769 21.4131 21.5519 21.0323C21.4804 20.8151 21.4804 20.8151 21.7082 20.5502C21.7433 20.5092 22.3945 19.7444 22.7488 19.2905C22.7656 19.2691 22.7763 19.2435 22.7796 19.2166C22.783 19.1896 22.779 19.1622 22.7679 19.1373C22.6433 18.8549 22.109 17.8721 21.2519 16.5389C20.4011 15.2159 19.7597 14.4959 19.5425 14.292C19.5226 14.2732 19.498 14.2601 19.4712 14.2542C19.4445 14.2482 19.4166 14.2495 19.3906 14.258C18.6314 14.5189 17.8989 14.8518 17.2031 15.2522C16.5314 15.6427 15.8955 16.0917 15.3027 16.594C15.282 16.6116 15.2665 16.6345 15.2578 16.6602C15.2492 16.6859 15.2477 16.7136 15.2535 16.7401C15.3351 17.1205 15.7254 18.7088 16.9363 20.9088C18.1718 23.1541 19.0281 24.3045 20.8425 26.1127C22.657 27.9209 23.8437 28.8287 26.0914 30.0643C28.2914 31.2752 29.8804 31.6659 30.2601 31.7467C30.2867 31.7525 30.3144 31.751 30.3402 31.7423C30.3659 31.7336 30.3889 31.7182 30.4066 31.6975C30.9088 31.1048 31.3577 30.4688 31.748 29.7971C32.1483 29.1013 32.4812 28.3688 32.7422 27.6096C32.7505 27.5838 32.7518 27.5562 32.7459 27.5296C32.74 27.5031 32.7271 27.4787 32.7086 27.4588Z" fill="#282828"/>
</svg>
