<svg width="61" height="61" viewBox="0 0 61 61" fill="none" xmlns="http://www.w3.org/2000/svg">
<circle cx="30.5" cy="30.5" r="30.5" fill="#499647"/>
<path fill-rule="evenodd" clip-rule="evenodd" d="M14.0069 31.4854C13.8844 27.1957 15.3888 23.0184 18.2182 19.7918C21.0475 16.5652 24.9925 14.5281 29.2614 14.0892C33.5303 13.6503 37.8073 14.8422 41.234 17.4256C44.6606 20.009 46.9835 23.7928 47.7364 28.0177C48.4156 31.8295 47.7715 35.7458 45.9327 39.1251L45.2495 35.9707C45.191 35.7008 44.9249 35.5294 44.655 35.5879C44.3851 35.6463 44.2137 35.9125 44.2722 36.1824L45.2247 40.5804C45.2832 40.8503 45.5493 41.0217 45.8192 40.9632L50.2173 40.0107C50.4871 39.9522 50.6585 39.686 50.6001 39.4161C50.5416 39.1463 50.2755 38.9749 50.0056 39.0333L46.7348 39.7417C48.7402 36.1324 49.4494 31.9305 48.7208 27.8422C47.9237 23.3688 45.4642 19.3625 41.836 16.6271C38.2077 13.8917 33.6792 12.6297 29.1591 13.0944C24.6391 13.5591 20.4621 15.7161 17.4663 19.1325C14.4705 22.5489 12.8776 26.9719 13.0073 31.5139C13.1371 36.0559 14.9798 40.3808 18.1657 43.6206C21.3516 46.8605 25.6449 48.7756 30.1841 48.9815C34.7232 49.1875 39.1724 47.6692 42.6386 44.7312L41.992 43.9683C38.7184 46.7431 34.5164 48.1771 30.2294 47.9826C25.9424 47.788 21.8876 45.9794 18.8787 42.9195C15.8698 39.8596 14.1294 35.775 14.0069 31.4854ZM29.3905 21.0001C29.1457 21.0001 28.9369 21.1773 28.8971 21.4189L28.6237 23.0807C28.546 23.5526 28.248 23.9592 27.8213 24.1753L26.6736 24.7566C26.3146 24.9384 25.8974 24.9684 25.5161 24.8396L23.7456 24.2418C23.516 24.1643 23.2638 24.2626 23.1473 24.4751L21.4836 27.5084C21.3674 27.7203 21.4194 27.9851 21.6072 28.1373L23.0562 29.3114C23.4076 29.5962 23.6118 30.0245 23.6118 30.4768V31.6528C23.6118 31.9902 23.498 32.3177 23.2889 32.5825L21.9456 34.2833C21.8198 34.4426 21.8028 34.6621 21.9025 34.8389L23.1406 37.0335C23.2586 37.2426 23.5085 37.3384 23.736 37.2616L25.5161 36.6605C25.8974 36.5318 26.3146 36.5617 26.6736 36.7436L28.1666 37.4997L28.4967 37.4989L28.5034 40.5001H33.5034L33.4967 37.5012L33.8513 37.5004L35.3456 36.7436C35.7047 36.5617 36.1219 36.5318 36.5032 36.6605L38.2833 37.2616C38.5108 37.3384 38.7607 37.2426 38.8787 37.0335L40.1168 34.8389C40.2165 34.6621 40.1994 34.4426 40.0737 34.2833L38.7304 32.5825C38.5212 32.3177 38.4075 31.9902 38.4075 31.6528V30.4768C38.4075 30.0245 38.6117 29.5962 38.9631 29.3114L40.4121 28.1373C40.5999 27.9851 40.6519 27.7203 40.5357 27.5084L38.872 24.4751C38.7555 24.2626 38.5033 24.1643 38.2737 24.2418L36.5032 24.8396C36.1219 24.9684 35.7047 24.9384 35.3456 24.7566L34.198 24.1753C33.7713 23.9592 33.4733 23.5526 33.3956 23.0807L33.1222 21.4189C33.0824 21.1773 32.8736 21.0001 32.6288 21.0001H29.3905ZM34.4985 38.2935L35.7975 37.6357C35.9172 37.575 36.0562 37.5651 36.1833 37.608L37.9634 38.209C38.6458 38.4394 39.3957 38.1522 39.7497 37.5248L40.9877 35.3302C41.2869 34.7999 41.2358 34.1414 40.8584 33.6635L39.5151 31.9627C39.4454 31.8744 39.4075 31.7653 39.4075 31.6528V30.4768C39.4075 30.326 39.4756 30.1833 39.5927 30.0884L41.0416 28.9142C41.6051 28.4577 41.7612 27.6634 41.4124 27.0275L39.7488 23.9942C39.3991 23.3567 38.6426 23.0618 37.9538 23.2944L36.1833 23.8921C36.0562 23.9351 35.9172 23.9251 35.7975 23.8645L34.6498 23.2832C34.5076 23.2112 34.4082 23.0756 34.3824 22.9183L34.1089 21.2565C34.0095 20.6522 33.5574 20.1821 32.9841 20.0425V20.0001H32.6288H29.3905H29.0352V20.0425C28.4619 20.1821 28.0098 20.6522 27.9104 21.2565L27.6369 22.9183C27.6111 23.0756 27.5117 23.2112 27.3695 23.2832L26.2218 23.8645C26.1021 23.9251 25.9631 23.9351 25.836 23.8921L24.0655 23.2944C23.3766 23.0618 22.6201 23.3567 22.2705 23.9942L20.6068 27.0275C20.2581 27.6634 20.4142 28.4577 20.9777 28.9142L22.4266 30.0884C22.5437 30.1833 22.6118 30.326 22.6118 30.4768V31.6528C22.6118 31.7653 22.5739 31.8744 22.5042 31.9627L21.1609 33.6635C20.7835 34.1414 20.7324 34.7999 21.0316 35.3302L22.2696 37.5248C22.6236 38.1522 23.3735 38.4394 24.0559 38.209L25.836 37.608C25.9631 37.5651 26.1021 37.575 26.2218 37.6357L27.4985 38.2822L27.5045 41.0012L27.5057 41.5001H28.0045H34.0045H34.5057L34.5045 40.9989L34.4985 38.2935ZM31.0001 34.0001C32.6569 34.0001 34.0001 32.6569 34.0001 31.0001C34.0001 29.3432 32.6569 28.0001 31.0001 28.0001C29.3432 28.0001 28.0001 29.3432 28.0001 31.0001C28.0001 32.6569 29.3432 34.0001 31.0001 34.0001ZM31.0001 35.0001C33.2092 35.0001 35.0001 33.2092 35.0001 31.0001C35.0001 28.7909 33.2092 27.0001 31.0001 27.0001C28.7909 27.0001 27.0001 28.7909 27.0001 31.0001C27.0001 33.2092 28.7909 35.0001 31.0001 35.0001ZM30.5001 30.0001L32.0001 31.0001L30.5001 32.0001V30.0001Z" fill="white"/>
</svg>
