<svg width="61" height="61" viewBox="0 0 61 61" fill="none" xmlns="http://www.w3.org/2000/svg">
<circle cx="30.5" cy="30.5" r="30.5" fill="#499647"/>
<path fill-rule="evenodd" clip-rule="evenodd" d="M25 22H25.25H26.25H26.5V22.25V24H28V22.25V22H28.25H29.25H29.5V22.25V24H31V22.25V22H31.25H32.25H32.5V22.25V24H34V22.25V22H34.25H35.25H35.5V22.25V24.025C35.9898 24.1244 36.3756 24.5102 36.475 25H38.25H38.5V25.25V26.25V26.5H38.25H36.5V28H38.25H38.5V28.25V29.25V29.5H38.25H36.5V31H38.25H38.5V31.25V32.25V32.5H38.25H36.5V34H38.25H38.5V34.25V35.25V35.5H38.25H36.475C36.3756 35.9898 35.9898 36.3756 35.5 36.475V38.25V38.5H35.25H34.25H34V38.25V36.5H32.5V38.25V38.5H32.25H31.25H31V38.25V36.5H29.5V38.25V38.5H29.25H28.25H28V38.25V36.5H26.5V38.25V38.5H26.25H25.25H25V38.25V36.475C24.5102 36.3756 24.1244 35.9898 24.025 35.5H22.25H22V35.25V34.25V34H22.25H24V32.5H22.25H22V32.25V31.25V31H22.25H24V29.5H22.25H22V29.25V28.25V28H22.25H24V26.5H22.25H22V26.25V25.25V25H22.25H24.025C24.1244 24.5102 24.5102 24.1244 25 24.025V22.25V22ZM36 35.25V34.25V34V32.5V32.25V31.25V31V29.5V29.25V28.25V28V26.5V26.25V25.25C36 24.8358 35.6642 24.5 35.25 24.5H34.25H34H32.5H32.25H31.25H31H29.5H29.25H28.25H28H26.5H26.25H25.25C24.8358 24.5 24.5 24.8358 24.5 25.25V26.25V26.5V28V28.25V29.25V29.5V31V31.25L24.5 32.25V32.5L24.5 34V34.25V35.25C24.5 35.6642 24.8358 36 25.25 36H26.25H26.5H28H28.25H29.25H29.5H31H31.25H32.25H32.5H34H34.25H35.25C35.6642 36 36 35.6642 36 35.25ZM36.5 35H38V34.5H36.5V35ZM24 34.5V35H22.5L22.5 34.5H24ZM36.5 32H38V31.5H36.5V32ZM24 31.5L24 32H22.5L22.5 31.5H24ZM36.5 29H38V28.5H36.5V29ZM24 28.5V29H22.5L22.5 28.5H24ZM36.5 26H38V25.5H36.5V26ZM24 25.5V26H22.5L22.5 25.5H24ZM34.5 36.5V38H35V36.5H34.5ZM35 24H34.5V22.5H35V24ZM31.5 36.5V38H32V36.5H31.5ZM32 24H31.5V22.5H32V24ZM28.5 36.5V38H29V36.5H28.5ZM29 24H28.5V22.5H29V24ZM25.5 36.5V38H26V36.5H25.5ZM26 22.5V24H25.5V22.5H26ZM29.75 28.75C29.75 28.5649 29.8506 28.4033 30 28.3169V26.5H29V27.3074C29 27.4664 28.9697 27.624 28.9106 27.7717L28.6429 28.4408C28.71 28.5259 28.75 28.6333 28.75 28.75C28.75 29.0261 28.5261 29.25 28.25 29.25C27.9739 29.25 27.75 29.0261 27.75 28.75C27.75 28.4981 27.9363 28.2896 28.1787 28.255L28.4464 27.586C28.4818 27.4974 28.5 27.4028 28.5 27.3074V26.5H27.25C26.8358 26.5 26.5 26.8358 26.5 27.25V33.25C26.5 33.6642 26.8358 34 27.25 34H28.5V33.1926C28.5 33.0972 28.4818 33.0026 28.4464 32.914L28.1787 32.245C27.9363 32.2104 27.75 32.0019 27.75 31.75C27.75 31.4739 27.9739 31.25 28.25 31.25C28.5261 31.25 28.75 31.4739 28.75 31.75C28.75 31.8667 28.71 31.9741 28.6429 32.0592L28.9106 32.7283C28.9697 32.876 29 33.0336 29 33.1926V34H30V32.1831C29.8506 32.0967 29.75 31.9351 29.75 31.75C29.75 31.4739 29.9739 31.25 30.25 31.25C30.5261 31.25 30.75 31.4739 30.75 31.75C30.75 31.9351 30.6495 32.0967 30.5 32.1831V34H31.5V33.1926C31.5 33.0336 31.5303 32.876 31.5894 32.7283L31.8571 32.0592C31.79 31.9741 31.75 31.8667 31.75 31.75C31.75 31.4739 31.9739 31.25 32.25 31.25C32.5261 31.25 32.75 31.4739 32.75 31.75C32.75 32.0019 32.5637 32.2104 32.3213 32.245L32.0536 32.914C32.0182 33.0026 32 33.0972 32 33.1926V34H33.25C33.6642 34 34 33.6642 34 33.25V27.25C34 26.8358 33.6642 26.5 33.25 26.5H32V27.3074C32 27.4028 32.0182 27.4974 32.0536 27.586L32.3213 28.255C32.5637 28.2896 32.75 28.4981 32.75 28.75C32.75 29.0261 32.5261 29.25 32.25 29.25C31.9739 29.25 31.75 29.0261 31.75 28.75C31.75 28.6333 31.79 28.5259 31.8571 28.4408L31.5894 27.7717C31.5303 27.624 31.5 27.4664 31.5 27.3074V26.5H30.5V28.3169C30.6495 28.4033 30.75 28.5649 30.75 28.75C30.75 29.0261 30.5261 29.25 30.25 29.25C29.9739 29.25 29.75 29.0261 29.75 28.75ZM27.25 26C26.5596 26 26 26.5596 26 27.25V33.25C26 33.9404 26.5596 34.5 27.25 34.5H33.25C33.9404 34.5 34.5 33.9404 34.5 33.25V27.25C34.5 26.5596 33.9404 26 33.25 26H27.25Z" fill="white"/>
<circle cx="30.5" cy="30.5" r="17" stroke="white"/>
</svg>
