<svg width="61" height="61" viewBox="0 0 61 61" fill="none" xmlns="http://www.w3.org/2000/svg">
<circle cx="30.5" cy="30.5" r="30.5" fill="#499647"/>
<path fill-rule="evenodd" clip-rule="evenodd" d="M26 18.25C26 17.5596 26.5596 17 27.25 17H35.25C35.9404 17 36.5 17.5596 36.5 18.25V22.75V26.25V30.25V33.75V38.25V39.25C36.5 39.9404 35.9404 40.5 35.25 40.5H27.25C26.5596 40.5 26 39.9404 26 39.25V38.25V33.75V30.25V26.25V22.75V18.25ZM27.25 17.5C26.8358 17.5 26.5 17.8358 26.5 18.25V22.5H36V18.25C36 17.8358 35.6642 17.5 35.25 17.5H27.25ZM36 23H26.5V26H36V23ZM36 26.5H26.5V30H36V26.5ZM36 30.5H26.5V33.5H36V30.5ZM36 34H26.5V38H36V34ZM36 38.5H26.5V39.25C26.5 39.6642 26.8358 40 27.25 40H35.25C35.6642 40 36 39.6642 36 39.25V38.5ZM32.75 25H27.75V24.5H32.75V25ZM27.75 29H32.75V28.5H27.75V29ZM32.75 33H27.75V32.5H32.75V33ZM27.75 37H32.75V36.5H27.75V37ZM34.75 25H33.75V24.5H34.75V25ZM33.75 29H34.75V28.5H33.75V29ZM34.75 33H33.75V32.5H34.75V33ZM33.75 37H34.75V36.5H33.75V37ZM17 20.25C17 19.5596 17.5596 19 18.25 19H24.75V19.5H18.25C17.8358 19.5 17.5 19.8358 17.5 20.25V24H24.75V24.5H17.5V28H24.75V28.5H17.5V32H24.75V32.5H17.5V33.25H17V32.25V28.25V24.25V20.25ZM17 36.25V34.25H17.5V36H24.75V36.5H17.5V37.25C17.5 37.6642 17.8358 38 18.25 38H24.75V38.5H18.25C17.5596 38.5 17 37.9404 17 37.25V36.25ZM18.75 26.5H22.75V26H18.75V26.5ZM22.75 30H18.75V29.5H22.75V30ZM18.75 34H22.75V33.5H18.75V34ZM24.75 26.5H23.75V26H24.75V26.5ZM23.75 30H24.75V29.5H23.75V30ZM24.75 34H23.75V33.5H24.75V34ZM21 39.75V44.25V44.5H21.25H30.9453H31.1953H31.25H31.5H41.1953H41.4453V44.25V39.75H40.9453V44H31.5V41.75H31.4453H31H30.9453V44H21.5V39.75H21ZM44.1953 19C44.8857 19 45.4453 19.5596 45.4453 20.25V24.25V28.25V32.25V33.25H44.9453V32.5H37.6953V32H44.9453V28.5H37.6953V28H44.9453V24.5H37.6953V24H44.9453V20.25C44.9453 19.8358 44.6095 19.5 44.1953 19.5H37.6953V19H44.1953ZM45.4453 34.25V36.25V37.25C45.4453 37.9404 44.8857 38.5 44.1953 38.5H37.6953V38H44.1953C44.6095 38 44.9453 37.6642 44.9453 37.25V36.5H37.6953V36H44.9453V34.25H45.4453ZM39.6953 26.5H43.6953V26H39.6953V26.5ZM43.6953 30H39.6953V29.5H43.6953V30ZM39.6953 34H43.6953V33.5H39.6953V34ZM38.6953 26.5H37.6953V26H38.6953V26.5ZM37.6953 30H38.6953V29.5H37.6953V30ZM38.6953 34H37.6953V33.5H38.6953V34Z" fill="white"/>
<path d="M26.5 22.5H26.4V22.6H26.5V22.5ZM36 22.5V22.6H36.1V22.5H36ZM26.5 23V22.9H26.4V23H26.5ZM36 23H36.1V22.9H36V23ZM26.5 26H26.4V26.1H26.5V26ZM36 26V26.1H36.1V26H36ZM26.5 26.5V26.4H26.4V26.5H26.5ZM36 26.5H36.1V26.4H36V26.5ZM26.5 30H26.4V30.1H26.5V30ZM36 30V30.1H36.1V30H36ZM26.5 30.5V30.4H26.4V30.5H26.5ZM36 30.5H36.1V30.4H36V30.5ZM26.5 33.5H26.4V33.6H26.5V33.5ZM36 33.5V33.6H36.1V33.5H36ZM26.5 34V33.9H26.4V34H26.5ZM36 34H36.1V33.9H36V34ZM26.5 38H26.4V38.1H26.5V38ZM36 38V38.1H36.1V38H36ZM26.5 38.5V38.4H26.4V38.5H26.5ZM36 38.5H36.1V38.4H36V38.5ZM27.75 25H27.65V25.1H27.75V25ZM32.75 25V25.1H32.85V25H32.75ZM27.75 24.5V24.4H27.65V24.5H27.75ZM32.75 24.5H32.85V24.4H32.75V24.5ZM32.75 29V29.1H32.85V29H32.75ZM27.75 29H27.65V29.1H27.75V29ZM32.75 28.5H32.85V28.4H32.75V28.5ZM27.75 28.5V28.4H27.65V28.5H27.75ZM27.75 33H27.65V33.1H27.75V33ZM32.75 33V33.1H32.85V33H32.75ZM27.75 32.5V32.4H27.65V32.5H27.75ZM32.75 32.5H32.85V32.4H32.75V32.5ZM32.75 37V37.1H32.85V37H32.75ZM27.75 37H27.65V37.1H27.75V37ZM32.75 36.5H32.85V36.4H32.75V36.5ZM27.75 36.5V36.4H27.65V36.5H27.75ZM33.75 25H33.65V25.1H33.75V25ZM34.75 25V25.1H34.85V25H34.75ZM33.75 24.5V24.4H33.65V24.5H33.75ZM34.75 24.5H34.85V24.4H34.75V24.5ZM34.75 29V29.1H34.85V29H34.75ZM33.75 29H33.65V29.1H33.75V29ZM34.75 28.5H34.85V28.4H34.75V28.5ZM33.75 28.5V28.4H33.65V28.5H33.75ZM33.75 33H33.65V33.1H33.75V33ZM34.75 33V33.1H34.85V33H34.75ZM33.75 32.5V32.4H33.65V32.5H33.75ZM34.75 32.5H34.85V32.4H34.75V32.5ZM34.75 37V37.1H34.85V37H34.75ZM33.75 37H33.65V37.1H33.75V37ZM34.75 36.5H34.85V36.4H34.75V36.5ZM33.75 36.5V36.4H33.65V36.5H33.75ZM24.75 19H24.85V18.9H24.75V19ZM24.75 19.5V19.6H24.85V19.5H24.75ZM17.5 24H17.4V24.1H17.5V24ZM24.75 24H24.85V23.9H24.75V24ZM24.75 24.5V24.6H24.85V24.5H24.75ZM17.5 24.5V24.4H17.4V24.5H17.5ZM17.5 28H17.4V28.1H17.5V28ZM24.75 28H24.85V27.9H24.75V28ZM24.75 28.5V28.6H24.85V28.5H24.75ZM17.5 28.5V28.4H17.4V28.5H17.5ZM17.5 32H17.4V32.1H17.5V32ZM24.75 32H24.85V31.9H24.75V32ZM24.75 32.5V32.6H24.85V32.5H24.75ZM17.5 32.5V32.4H17.4V32.5H17.5ZM17.5 33.25V33.35H17.6V33.25H17.5ZM17 33.25H16.9V33.35H17V33.25ZM17 34.25V34.15H16.9V34.25H17ZM17.5 34.25H17.6V34.15H17.5V34.25ZM17.5 36H17.4V36.1H17.5V36ZM24.75 36H24.85V35.9H24.75V36ZM24.75 36.5V36.6H24.85V36.5H24.75ZM17.5 36.5V36.4H17.4V36.5H17.5ZM24.75 38H24.85V37.9H24.75V38ZM24.75 38.5V38.6H24.85V38.5H24.75ZM22.75 26.5V26.6H22.85V26.5H22.75ZM18.75 26.5H18.65V26.6H18.75V26.5ZM22.75 26H22.85V25.9H22.75V26ZM18.75 26V25.9H18.65V26H18.75ZM18.75 30H18.65V30.1H18.75V30ZM22.75 30V30.1H22.85V30H22.75ZM18.75 29.5V29.4H18.65V29.5H18.75ZM22.75 29.5H22.85V29.4H22.75V29.5ZM22.75 34V34.1H22.85V34H22.75ZM18.75 34H18.65V34.1H18.75V34ZM22.75 33.5H22.85V33.4H22.75V33.5ZM18.75 33.5V33.4H18.65V33.5H18.75ZM23.75 26.5H23.65V26.6H23.75V26.5ZM24.75 26.5V26.6H24.85V26.5H24.75ZM23.75 26V25.9H23.65V26H23.75ZM24.75 26H24.85V25.9H24.75V26ZM24.75 30V30.1H24.85V30H24.75ZM23.75 30H23.65V30.1H23.75V30ZM24.75 29.5H24.85V29.4H24.75V29.5ZM23.75 29.5V29.4H23.65V29.5H23.75ZM23.75 34H23.65V34.1H23.75V34ZM24.75 34V34.1H24.85V34H24.75ZM23.75 33.5V33.4H23.65V33.5H23.75ZM24.75 33.5H24.85V33.4H24.75V33.5ZM21 39.75V39.65H20.9V39.75H21ZM21 44.5H20.9V44.6H21V44.5ZM41.4453 44.5V44.6H41.5453V44.5H41.4453ZM41.4453 39.75H41.5453V39.65H41.4453V39.75ZM40.9453 39.75V39.65H40.8453V39.75H40.9453ZM40.9453 44V44.1H41.0453V44H40.9453ZM31.5 44H31.4V44.1H31.5V44ZM31.5 41.75H31.6V41.65H31.5V41.75ZM30.9453 41.75V41.65H30.8453V41.75H30.9453ZM30.9453 44V44.1H31.0453V44H30.9453ZM21.5 44H21.4V44.1H21.5V44ZM21.5 39.75H21.6V39.65H21.5V39.75ZM45.4453 33.25V33.35H45.5453V33.25H45.4453ZM44.9453 33.25H44.8453V33.35H44.9453V33.25ZM44.9453 32.5H45.0453V32.4H44.9453V32.5ZM37.6953 32.5H37.5953V32.6H37.6953V32.5ZM37.6953 32V31.9H37.5953V32H37.6953ZM44.9453 32V32.1H45.0453V32H44.9453ZM44.9453 28.5H45.0453V28.4H44.9453V28.5ZM37.6953 28.5H37.5953V28.6H37.6953V28.5ZM37.6953 28V27.9H37.5953V28H37.6953ZM44.9453 28V28.1H45.0453V28H44.9453ZM44.9453 24.5H45.0453V24.4H44.9453V24.5ZM37.6953 24.5H37.5953V24.6H37.6953V24.5ZM37.6953 24V23.9H37.5953V24H37.6953ZM44.9453 24V24.1H45.0453V24H44.9453ZM37.6953 19.5H37.5953V19.6H37.6953V19.5ZM37.6953 19V18.9H37.5953V19H37.6953ZM45.4453 34.25H45.5453V34.15H45.4453V34.25ZM37.6953 38.5H37.5953V38.6H37.6953V38.5ZM37.6953 38V37.9H37.5953V38H37.6953ZM44.9453 36.5H45.0453V36.4H44.9453V36.5ZM37.6953 36.5H37.5953V36.6H37.6953V36.5ZM37.6953 36V35.9H37.5953V36H37.6953ZM44.9453 36V36.1H45.0453V36H44.9453ZM44.9453 34.25V34.15H44.8453V34.25H44.9453ZM43.6953 26.5V26.6H43.7953V26.5H43.6953ZM39.6953 26.5H39.5953V26.6H39.6953V26.5ZM43.6953 26H43.7953V25.9H43.6953V26ZM39.6953 26V25.9H39.5953V26H39.6953ZM39.6953 30H39.5953V30.1H39.6953V30ZM43.6953 30V30.1H43.7953V30H43.6953ZM39.6953 29.5V29.4H39.5953V29.5H39.6953ZM43.6953 29.5H43.7953V29.4H43.6953V29.5ZM43.6953 34V34.1H43.7953V34H43.6953ZM39.6953 34H39.5953V34.1H39.6953V34ZM43.6953 33.5H43.7953V33.4H43.6953V33.5ZM39.6953 33.5V33.4H39.5953V33.5H39.6953ZM37.6953 26.5H37.5953V26.6H37.6953V26.5ZM38.6953 26.5V26.6H38.7953V26.5H38.6953ZM37.6953 26V25.9H37.5953V26H37.6953ZM38.6953 26H38.7953V25.9H38.6953V26ZM38.6953 30V30.1H38.7953V30H38.6953ZM37.6953 30H37.5953V30.1H37.6953V30ZM38.6953 29.5H38.7953V29.4H38.6953V29.5ZM37.6953 29.5V29.4H37.5953V29.5H37.6953ZM37.6953 34H37.5953V34.1H37.6953V34ZM38.6953 34V34.1H38.7953V34H38.6953ZM37.6953 33.5V33.4H37.5953V33.5H37.6953ZM38.6953 33.5H38.7953V33.4H38.6953V33.5ZM27.25 16.9C26.5044 16.9 25.9 17.5044 25.9 18.25H26.1C26.1 17.6149 26.6149 17.1 27.25 17.1V16.9ZM35.25 16.9H27.25V17.1H35.25V16.9ZM36.6 18.25C36.6 17.5044 35.9956 16.9 35.25 16.9V17.1C35.8851 17.1 36.4 17.6149 36.4 18.25H36.6ZM36.6 22.75V18.25H36.4V22.75H36.6ZM36.6 26.25V22.75H36.4V26.25H36.6ZM36.6 30.25V26.25H36.4V30.25H36.6ZM36.6 33.75V30.25H36.4V33.75H36.6ZM36.6 38.25V33.75H36.4V38.25H36.6ZM36.6 39.25V38.25H36.4V39.25H36.6ZM35.25 40.6C35.9956 40.6 36.6 39.9956 36.6 39.25H36.4C36.4 39.8851 35.8851 40.4 35.25 40.4V40.6ZM27.25 40.6H35.25V40.4H27.25V40.6ZM25.9 39.25C25.9 39.9956 26.5044 40.6 27.25 40.6V40.4C26.6149 40.4 26.1 39.8851 26.1 39.25H25.9ZM25.9 38.25V39.25H26.1V38.25H25.9ZM25.9 33.75V38.25H26.1V33.75H25.9ZM25.9 30.25V33.75H26.1V30.25H25.9ZM25.9 26.25V30.25H26.1V26.25H25.9ZM25.9 22.75V26.25H26.1V22.75H25.9ZM25.9 18.25V22.75H26.1V18.25H25.9ZM26.6 18.25C26.6 17.891 26.891 17.6 27.25 17.6V17.4C26.7806 17.4 26.4 17.7806 26.4 18.25H26.6ZM26.6 22.5V18.25H26.4V22.5H26.6ZM36 22.4H26.5V22.6H36V22.4ZM35.9 18.25V22.5H36.1V18.25H35.9ZM35.25 17.6C35.609 17.6 35.9 17.891 35.9 18.25H36.1C36.1 17.7806 35.7194 17.4 35.25 17.4V17.6ZM27.25 17.6H35.25V17.4H27.25V17.6ZM26.5 23.1H36V22.9H26.5V23.1ZM26.6 26V23H26.4V26H26.6ZM36 25.9H26.5V26.1H36V25.9ZM35.9 23V26H36.1V23H35.9ZM26.5 26.6H36V26.4H26.5V26.6ZM26.6 30V26.5H26.4V30H26.6ZM36 29.9H26.5V30.1H36V29.9ZM35.9 26.5V30H36.1V26.5H35.9ZM26.5 30.6H36V30.4H26.5V30.6ZM26.6 33.5V30.5H26.4V33.5H26.6ZM36 33.4H26.5V33.6H36V33.4ZM35.9 30.5V33.5H36.1V30.5H35.9ZM26.5 34.1H36V33.9H26.5V34.1ZM26.6 38V34H26.4V38H26.6ZM36 37.9H26.5V38.1H36V37.9ZM35.9 34V38H36.1V34H35.9ZM26.5 38.6H36V38.4H26.5V38.6ZM26.6 39.25V38.5H26.4V39.25H26.6ZM27.25 39.9C26.891 39.9 26.6 39.609 26.6 39.25H26.4C26.4 39.7194 26.7806 40.1 27.25 40.1V39.9ZM35.25 39.9H27.25V40.1H35.25V39.9ZM35.9 39.25C35.9 39.609 35.609 39.9 35.25 39.9V40.1C35.7194 40.1 36.1 39.7194 36.1 39.25H35.9ZM35.9 38.5V39.25H36.1V38.5H35.9ZM27.75 25.1H32.75V24.9H27.75V25.1ZM27.65 24.5V25H27.85V24.5H27.65ZM32.75 24.4H27.75V24.6H32.75V24.4ZM32.85 25V24.5H32.65V25H32.85ZM32.75 28.9H27.75V29.1H32.75V28.9ZM32.65 28.5V29H32.85V28.5H32.65ZM27.75 28.6H32.75V28.4H27.75V28.6ZM27.85 29V28.5H27.65V29H27.85ZM27.75 33.1H32.75V32.9H27.75V33.1ZM27.65 32.5V33H27.85V32.5H27.65ZM32.75 32.4H27.75V32.6H32.75V32.4ZM32.85 33V32.5H32.65V33H32.85ZM32.75 36.9H27.75V37.1H32.75V36.9ZM32.65 36.5V37H32.85V36.5H32.65ZM27.75 36.6H32.75V36.4H27.75V36.6ZM27.85 37V36.5H27.65V37H27.85ZM33.75 25.1H34.75V24.9H33.75V25.1ZM33.65 24.5V25H33.85V24.5H33.65ZM34.75 24.4H33.75V24.6H34.75V24.4ZM34.85 25V24.5H34.65V25H34.85ZM34.75 28.9H33.75V29.1H34.75V28.9ZM34.65 28.5V29H34.85V28.5H34.65ZM33.75 28.6H34.75V28.4H33.75V28.6ZM33.85 29V28.5H33.65V29H33.85ZM33.75 33.1H34.75V32.9H33.75V33.1ZM33.65 32.5V33H33.85V32.5H33.65ZM34.75 32.4H33.75V32.6H34.75V32.4ZM34.85 33V32.5H34.65V33H34.85ZM34.75 36.9H33.75V37.1H34.75V36.9ZM34.65 36.5V37H34.85V36.5H34.65ZM33.75 36.6H34.75V36.4H33.75V36.6ZM33.85 37V36.5H33.65V37H33.85ZM18.25 18.9C17.5044 18.9 16.9 19.5044 16.9 20.25H17.1C17.1 19.6149 17.6149 19.1 18.25 19.1V18.9ZM24.75 18.9H18.25V19.1H24.75V18.9ZM24.85 19.5V19H24.65V19.5H24.85ZM18.25 19.6H24.75V19.4H18.25V19.6ZM17.6 20.25C17.6 19.891 17.891 19.6 18.25 19.6V19.4C17.7806 19.4 17.4 19.7806 17.4 20.25H17.6ZM17.6 24V20.25H17.4V24H17.6ZM24.75 23.9H17.5V24.1H24.75V23.9ZM24.85 24.5V24H24.65V24.5H24.85ZM17.5 24.6H24.75V24.4H17.5V24.6ZM17.6 28V24.5H17.4V28H17.6ZM24.75 27.9H17.5V28.1H24.75V27.9ZM24.85 28.5V28H24.65V28.5H24.85ZM17.5 28.6H24.75V28.4H17.5V28.6ZM17.6 32V28.5H17.4V32H17.6ZM24.75 31.9H17.5V32.1H24.75V31.9ZM24.85 32.5V32H24.65V32.5H24.85ZM17.5 32.6H24.75V32.4H17.5V32.6ZM17.6 33.25V32.5H17.4V33.25H17.6ZM17 33.35H17.5V33.15H17V33.35ZM16.9 32.25V33.25H17.1V32.25H16.9ZM16.9 28.25V32.25H17.1V28.25H16.9ZM16.9 24.25V28.25H17.1V24.25H16.9ZM16.9 20.25V24.25H17.1V20.25H16.9ZM16.9 34.25V36.25H17.1V34.25H16.9ZM17.5 34.15H17V34.35H17.5V34.15ZM17.6 36V34.25H17.4V36H17.6ZM24.75 35.9H17.5V36.1H24.75V35.9ZM24.85 36.5V36H24.65V36.5H24.85ZM17.5 36.6H24.75V36.4H17.5V36.6ZM17.6 37.25V36.5H17.4V37.25H17.6ZM18.25 37.9C17.891 37.9 17.6 37.609 17.6 37.25H17.4C17.4 37.7194 17.7806 38.1 18.25 38.1V37.9ZM24.75 37.9H18.25V38.1H24.75V37.9ZM24.85 38.5V38H24.65V38.5H24.85ZM18.25 38.6H24.75V38.4H18.25V38.6ZM16.9 37.25C16.9 37.9956 17.5044 38.6 18.25 38.6V38.4C17.6149 38.4 17.1 37.8851 17.1 37.25H16.9ZM16.9 36.25V37.25H17.1V36.25H16.9ZM22.75 26.4H18.75V26.6H22.75V26.4ZM22.65 26V26.5H22.85V26H22.65ZM18.75 26.1H22.75V25.9H18.75V26.1ZM18.85 26.5V26H18.65V26.5H18.85ZM18.75 30.1H22.75V29.9H18.75V30.1ZM18.65 29.5V30H18.85V29.5H18.65ZM22.75 29.4H18.75V29.6H22.75V29.4ZM22.85 30V29.5H22.65V30H22.85ZM22.75 33.9H18.75V34.1H22.75V33.9ZM22.65 33.5V34H22.85V33.5H22.65ZM18.75 33.6H22.75V33.4H18.75V33.6ZM18.85 34V33.5H18.65V34H18.85ZM23.75 26.6H24.75V26.4H23.75V26.6ZM23.65 26V26.5H23.85V26H23.65ZM24.75 25.9H23.75V26.1H24.75V25.9ZM24.85 26.5V26H24.65V26.5H24.85ZM24.75 29.9H23.75V30.1H24.75V29.9ZM24.65 29.5V30H24.85V29.5H24.65ZM23.75 29.6H24.75V29.4H23.75V29.6ZM23.85 30V29.5H23.65V30H23.85ZM23.75 34.1H24.75V33.9H23.75V34.1ZM23.65 33.5V34H23.85V33.5H23.65ZM24.75 33.4H23.75V33.6H24.75V33.4ZM24.85 34V33.5H24.65V34H24.85ZM21.1 44.25V39.75H20.9V44.25H21.1ZM21.1 44.5V44.25H20.9V44.5H21.1ZM21.25 44.4H21V44.6H21.25V44.4ZM30.9453 44.4H21.25V44.6H30.9453V44.4ZM31.1953 44.4H30.9453V44.6H31.1953V44.4ZM31.25 44.4H31.1953V44.6H31.25V44.4ZM31.5 44.4H31.25V44.6H31.5V44.4ZM41.1953 44.4H31.5V44.6H41.1953V44.4ZM41.4453 44.4H41.1953V44.6H41.4453V44.4ZM41.3453 44.25V44.5H41.5453V44.25H41.3453ZM41.3453 39.75V44.25H41.5453V39.75H41.3453ZM40.9453 39.85H41.4453V39.65H40.9453V39.85ZM41.0453 44V39.75H40.8453V44H41.0453ZM31.5 44.1H40.9453V43.9H31.5V44.1ZM31.4 41.75V44H31.6V41.75H31.4ZM31.4453 41.85H31.5V41.65H31.4453V41.85ZM31 41.85H31.4453V41.65H31V41.85ZM30.9453 41.85H31V41.65H30.9453V41.85ZM31.0453 44V41.75H30.8453V44H31.0453ZM21.5 44.1H30.9453V43.9H21.5V44.1ZM21.4 39.75V44H21.6V39.75H21.4ZM21 39.85H21.5V39.65H21V39.85ZM45.5453 20.25C45.5453 19.5044 44.9409 18.9 44.1953 18.9V19.1C44.8304 19.1 45.3453 19.6149 45.3453 20.25H45.5453ZM45.5453 24.25V20.25H45.3453V24.25H45.5453ZM45.5453 28.25V24.25H45.3453V28.25H45.5453ZM45.5453 32.25V28.25H45.3453V32.25H45.5453ZM45.5453 33.25V32.25H45.3453V33.25H45.5453ZM44.9453 33.35H45.4453V33.15H44.9453V33.35ZM44.8453 32.5V33.25H45.0453V32.5H44.8453ZM37.6953 32.6H44.9453V32.4H37.6953V32.6ZM37.5953 32V32.5H37.7953V32H37.5953ZM44.9453 31.9H37.6953V32.1H44.9453V31.9ZM44.8453 28.5V32H45.0453V28.5H44.8453ZM37.6953 28.6H44.9453V28.4H37.6953V28.6ZM37.5953 28V28.5H37.7953V28H37.5953ZM44.9453 27.9H37.6953V28.1H44.9453V27.9ZM44.8453 24.5V28H45.0453V24.5H44.8453ZM37.6953 24.6H44.9453V24.4H37.6953V24.6ZM37.5953 24V24.5H37.7953V24H37.5953ZM44.9453 23.9H37.6953V24.1H44.9453V23.9ZM44.8453 20.25V24H45.0453V20.25H44.8453ZM44.1953 19.6C44.5543 19.6 44.8453 19.891 44.8453 20.25H45.0453C45.0453 19.7806 44.6648 19.4 44.1953 19.4V19.6ZM37.6953 19.6H44.1953V19.4H37.6953V19.6ZM37.5953 19V19.5H37.7953V19H37.5953ZM44.1953 18.9H37.6953V19.1H44.1953V18.9ZM45.5453 36.25V34.25H45.3453V36.25H45.5453ZM45.5453 37.25V36.25H45.3453V37.25H45.5453ZM44.1953 38.6C44.9409 38.6 45.5453 37.9956 45.5453 37.25H45.3453C45.3453 37.8851 44.8304 38.4 44.1953 38.4V38.6ZM37.6953 38.6H44.1953V38.4H37.6953V38.6ZM37.5953 38V38.5H37.7953V38H37.5953ZM44.1953 37.9H37.6953V38.1H44.1953V37.9ZM44.8453 37.25C44.8453 37.609 44.5543 37.9 44.1953 37.9V38.1C44.6648 38.1 45.0453 37.7194 45.0453 37.25H44.8453ZM44.8453 36.5V37.25H45.0453V36.5H44.8453ZM37.6953 36.6H44.9453V36.4H37.6953V36.6ZM37.5953 36V36.5H37.7953V36H37.5953ZM44.9453 35.9H37.6953V36.1H44.9453V35.9ZM44.8453 34.25V36H45.0453V34.25H44.8453ZM45.4453 34.15H44.9453V34.35H45.4453V34.15ZM43.6953 26.4H39.6953V26.6H43.6953V26.4ZM43.5953 26V26.5H43.7953V26H43.5953ZM39.6953 26.1H43.6953V25.9H39.6953V26.1ZM39.7953 26.5V26H39.5953V26.5H39.7953ZM39.6953 30.1H43.6953V29.9H39.6953V30.1ZM39.5953 29.5V30H39.7953V29.5H39.5953ZM43.6953 29.4H39.6953V29.6H43.6953V29.4ZM43.7953 30V29.5H43.5953V30H43.7953ZM43.6953 33.9H39.6953V34.1H43.6953V33.9ZM43.5953 33.5V34H43.7953V33.5H43.5953ZM39.6953 33.6H43.6953V33.4H39.6953V33.6ZM39.7953 34V33.5H39.5953V34H39.7953ZM37.6953 26.6H38.6953V26.4H37.6953V26.6ZM37.5953 26V26.5H37.7953V26H37.5953ZM38.6953 25.9H37.6953V26.1H38.6953V25.9ZM38.7953 26.5V26H38.5953V26.5H38.7953ZM38.6953 29.9H37.6953V30.1H38.6953V29.9ZM38.5953 29.5V30H38.7953V29.5H38.5953ZM37.6953 29.6H38.6953V29.4H37.6953V29.6ZM37.7953 30V29.5H37.5953V30H37.7953ZM37.6953 34.1H38.6953V33.9H37.6953V34.1ZM37.5953 33.5V34H37.7953V33.5H37.5953ZM38.6953 33.4H37.6953V33.6H38.6953V33.4ZM38.7953 34V33.5H38.5953V34H38.7953Z" fill="white"/>
<circle cx="31.25" cy="44.25" r="0.75" fill="#48AD3F" stroke="white"/>
</svg>
