<svg width="61" height="61" viewBox="0 0 61 61" fill="none" xmlns="http://www.w3.org/2000/svg">
<circle cx="30.5" cy="30.5" r="30.5" fill="#499647"/>
<path fill-rule="evenodd" clip-rule="evenodd" d="M42.2082 18.2182C38.9816 15.3888 34.8044 13.8844 30.5147 14.0069C26.225 14.1294 22.1404 15.8698 19.0806 18.8787C16.0207 21.8876 14.212 25.9424 14.0175 30.2294C13.823 34.5164 15.257 38.7184 18.0318 41.992L17.2689 42.6386C14.3309 39.1724 12.8125 34.7232 13.0185 30.1841C13.2245 25.6449 15.1396 21.3516 18.3794 18.1657C21.6193 14.9798 25.9442 13.1371 30.4861 13.0073C35.0281 12.8776 39.4512 14.4705 42.8675 17.4663C46.284 20.4621 48.4409 24.6391 48.9056 29.1591C49.3703 33.6792 48.1084 38.2077 45.373 41.836C42.6376 45.4642 38.6312 47.9237 34.1578 48.7208C30.0695 49.4494 25.8677 48.7402 22.2583 46.7348L22.9667 50.0056C23.0252 50.2755 22.8538 50.5416 22.5839 50.6001C22.314 50.6585 22.0479 50.4871 21.9894 50.2173L21.0368 45.8192C20.9784 45.5494 21.1498 45.2832 21.4197 45.2247L25.8177 44.2722C26.0876 44.2137 26.3537 44.3851 26.4122 44.655C26.4707 44.9249 26.2993 45.191 26.0294 45.2495L22.875 45.9327C26.2543 47.7715 30.1706 48.4156 33.9824 47.7364C38.2073 46.9835 41.9911 44.6606 44.5745 41.234C47.1579 37.8073 48.3498 33.5303 47.9109 29.2614C47.472 24.9925 45.4348 21.0475 42.2082 18.2182ZM31.6965 40.857C31.9414 40.857 32.1502 40.6798 32.1899 40.4382L32.2775 39.906C32.3551 39.434 32.6532 39.0274 33.0799 38.8113L33.4841 38.6066C33.8432 38.4247 34.2603 38.3948 34.6417 38.5236L35.297 38.7448C35.5266 38.8224 35.7788 38.7241 35.8953 38.5115L36.6297 37.1726C36.7459 36.9606 36.6939 36.6959 36.5061 36.5437L35.9864 36.1226C35.635 35.8378 35.4308 35.4096 35.4308 34.9572V34.5343C35.4308 34.1969 35.5446 33.8693 35.7537 33.6046L36.3535 32.845C36.4793 32.6858 36.4964 32.4662 36.3966 32.2895L35.902 31.4127C35.784 31.2036 35.5341 31.1078 35.3066 31.1846L34.6417 31.4091C34.2603 31.5379 33.8432 31.508 33.4841 31.3261L32.6273 30.8922L33.0791 30.0001L33.9359 30.434C34.0556 30.4946 34.1947 30.5046 34.3218 30.4617L34.9867 30.2372C35.6691 30.0067 36.4191 30.294 36.773 30.9213L37.2676 31.7981C37.5668 32.3285 37.5157 32.987 37.1383 33.4648L36.5384 34.2244C36.4687 34.3126 36.4308 34.4218 36.4308 34.5343V34.9572C36.4308 35.108 36.4989 35.2507 36.616 35.3457L37.1357 35.7668C37.6991 36.2233 37.8552 37.0176 37.5065 37.6535L36.7721 38.9924C36.4225 39.6299 35.666 39.9249 34.9771 39.6923L34.3218 39.471C34.1947 39.4281 34.0556 39.4381 33.9359 39.4987L33.5317 39.7034C33.3895 39.7755 33.2901 39.911 33.2642 40.0683L33.1766 40.6006C33.0881 41.1384 32.7202 41.57 32.2361 41.7568V41.857H31.6965H30.3152L29.7756 41.857V41.7568C29.2915 41.57 28.9236 41.1384 28.8351 40.6006L28.7475 40.0683C28.7217 39.911 28.6223 39.7755 28.4801 39.7034L28.0758 39.4987C27.9561 39.4381 27.8171 39.4281 27.69 39.471L27.0347 39.6923C26.3458 39.9249 25.5893 39.6299 25.2397 38.9924L24.5053 37.6535C24.1565 37.0176 24.3126 36.2233 24.8761 35.7668L25.3957 35.3457C25.5129 35.2507 25.5809 35.108 25.5809 34.9572V34.5343C25.5809 34.4218 25.543 34.3126 25.4733 34.2244L24.8735 33.4648C24.4961 32.987 24.445 32.3285 24.7442 31.7981L25.2388 30.9213C25.5927 30.294 26.3426 30.0067 27.0251 30.2372L27.69 30.4617C27.8171 30.5046 27.9561 30.4946 28.0758 30.434L28.9326 30.0001L29.3845 30.8922L28.5277 31.3261C28.1686 31.508 27.7515 31.5379 27.3701 31.4091L26.7052 31.1846C26.4777 31.1078 26.2277 31.2036 26.1097 31.4127L25.6151 32.2895C25.5154 32.4662 25.5324 32.6858 25.6582 32.845L26.2581 33.6046C26.4672 33.8693 26.5809 34.1969 26.5809 34.5343V34.9572C26.5809 35.4096 26.3768 35.8378 26.0253 36.1226L25.5057 36.5437C25.3179 36.6959 25.2658 36.9606 25.3821 37.1726L26.1164 38.5116C26.233 38.7241 26.4852 38.8224 26.7148 38.7448L27.3701 38.5236C27.7515 38.3948 28.1686 38.4247 28.5277 38.6066L28.9319 38.8113C29.3586 39.0274 29.6566 39.434 29.7343 39.906L29.8218 40.4382C29.8615 40.6794 30.0698 40.8565 30.3141 40.857H31.6965ZM29.5176 34.8102C29.5176 33.9851 30.1865 33.3163 31.0115 33.3163C31.8366 33.3163 32.5054 33.9851 32.5054 34.8102C32.5054 35.6353 31.8366 36.3041 31.0115 36.3041C30.1865 36.3041 29.5176 35.6353 29.5176 34.8102ZM28.5176 34.8102C28.5176 33.4328 29.6342 32.3163 31.0115 32.3163C32.3889 32.3163 33.5054 33.4328 33.5054 34.8102C33.5054 36.1875 32.3889 37.3041 31.0115 37.3041C29.6342 37.3041 28.5176 36.1875 28.5176 34.8102ZM27.2829 17.7829C27.4028 17.663 27.5973 17.663 27.7172 17.7829C27.8371 17.9028 27.8371 18.0973 27.7172 18.2172L27.5001 18.4344L27.2829 18.2172C27.163 18.0973 27.163 17.9028 27.2829 17.7829ZM26.7172 18.7829L27.1001 19.1657V22.0858C27.1001 22.4572 27.2476 22.8132 27.5101 23.0758L30.4243 25.99C30.5368 26.1025 30.6001 26.2551 30.6001 26.4143V31.0001H31.4001V26.4143C31.4001 26.043 31.2526 25.6869 30.99 25.4243L28.0758 22.5101C27.9633 22.3976 27.9001 22.245 27.9001 22.0858V19.1657L28.2829 18.7829C28.7153 18.3506 28.7153 17.6496 28.2829 17.2172C27.8505 16.7849 27.1496 16.7849 26.7172 17.2172C26.2849 17.6496 26.2849 18.3506 26.7172 18.7829Z" fill="white"/>
<path d="M31 28.5L34.2071 25.2929C34.3946 25.1054 34.5 24.851 34.5 24.5858V22M34.5 22L34 21.5C33.7239 21.2239 33.7239 20.7761 34 20.5V20.5C34.2761 20.2239 34.7239 20.2239 35 20.5V20.5C35.2761 20.7761 35.2761 21.2239 35 21.5L34.5 22ZM31 24.5V19.5M31 19.5L30.5 19C30.2239 18.7239 30.2239 18.2761 30.5 18V18C30.7761 17.7239 31.2239 17.7239 31.5 18V18C31.7761 18.2761 31.7761 18.7239 31.5 19L31 19.5Z" stroke="white" stroke-width="0.8"/>
<path d="M29 29V27.4142C29 27.149 28.8946 26.8946 28.7071 26.7071L26.5 24.5M26.5 24.5H25.75C25.3358 24.5 25 24.1642 25 23.75V23.75C25 23.3358 25.3358 23 25.75 23V23C26.1642 23 26.5 23.3358 26.5 23.75V24.5ZM33 29V29C33 28.6852 33.1482 28.3889 33.4 28.2L35 27M35 27V26.5C35 26.2239 35.2239 26 35.5 26V26C35.7761 26 36 26.2239 36 26.5V26.5C36 26.7761 35.7761 27 35.5 27H35Z" stroke="white" stroke-width="0.8"/>
</svg>
