<svg width="18" height="18" viewBox="0 0 18 18" fill="none" xmlns="http://www.w3.org/2000/svg">
<circle cx="9" cy="9" r="8.75" stroke="#3D4548" stroke-width="0.5"/>
<g clip-path="url(#clip0_1013_47820)">
<path d="M12.6914 5.13281H5.30859C4.98236 5.13316 4.66959 5.26291 4.43891 5.49359C4.20822 5.72428 4.07847 6.03705 4.07812 6.36328V11.6367C4.07847 11.963 4.20822 12.2757 4.43891 12.5064C4.66959 12.7371 4.98236 12.8668 5.30859 12.8672H12.6914C13.0176 12.8668 13.3304 12.7371 13.5611 12.5064C13.7918 12.2757 13.9215 11.963 13.9219 11.6367V6.36328C13.9215 6.03705 13.7918 5.72428 13.5611 5.49359C13.3304 5.26291 13.0176 5.13316 12.6914 5.13281ZM12.3798 7.16814L9.21577 9.62908C9.15407 9.67704 9.07815 9.70308 9 9.70308C8.92185 9.70308 8.84593 9.67704 8.78423 9.62908L5.62017 7.16814C5.58299 7.14007 5.55177 7.10488 5.52831 7.06464C5.50485 7.02439 5.48962 6.97989 5.48351 6.9337C5.4774 6.88752 5.48052 6.84059 5.49271 6.79563C5.5049 6.75066 5.5259 6.70857 5.55449 6.6718C5.58308 6.63502 5.6187 6.60429 5.65927 6.5814C5.69984 6.55851 5.74456 6.54391 5.79082 6.53845C5.83709 6.53299 5.88397 6.53678 5.92876 6.54959C5.97355 6.56241 6.01534 6.584 6.05171 6.61311L9 8.90618L11.9483 6.61311C12.022 6.55744 12.1147 6.53302 12.2063 6.54514C12.2979 6.55726 12.381 6.60494 12.4377 6.67787C12.4944 6.7508 12.5201 6.84312 12.5093 6.93487C12.4985 7.02662 12.452 7.11041 12.3798 7.16814Z" fill="#3D4548"/>
</g>
<defs>
<clipPath id="clip0_1013_47820">
<rect width="11.25" height="11.25" fill="white" transform="translate(3.375 3.375)"/>
</clipPath>
</defs>
</svg>
