<svg width="61" height="61" viewBox="0 0 61 61" fill="none" xmlns="http://www.w3.org/2000/svg">
<circle cx="30.5" cy="30.5" r="30.5" fill="#499647"/>
<path d="M29.4357 17.1935V19.3226H31.5647V17.1935H32.4866C32.9321 17.1935 33.1552 16.655 32.8402 16.34L30.8537 14.3536C30.6585 14.1583 30.3419 14.1583 30.1466 14.3536L28.1602 16.34C27.8452 16.655 28.0683 17.1935 28.5137 17.1935H29.4357Z" stroke="white" stroke-width="0.8"/>
<path d="M43.8065 28.9034L41.6774 28.9034L41.6774 31.0325L43.8065 31.0325L43.8065 31.9544C43.8065 32.3999 44.345 32.6229 44.66 32.308L46.6464 30.3215C46.8417 30.1263 46.8417 29.8097 46.6464 29.6144L44.66 27.628C44.345 27.313 43.8065 27.5361 43.8065 27.9815L43.8065 28.9034Z" stroke="white" stroke-width="0.8"/>
<path d="M41.2735 38.7126L39.768 37.2072L38.2626 38.7126L39.768 40.2181L39.1161 40.87C38.8011 41.1849 39.0242 41.7235 39.4697 41.7235L42.2789 41.7235C42.5551 41.7235 42.7789 41.4997 42.7789 41.2235L42.7789 38.4143C42.7789 37.9688 42.2404 37.7457 41.9254 38.0607L41.2735 38.7126Z" stroke="white" stroke-width="0.8"/>
<path d="M29.4357 43.8065V41.6774H31.5647V43.8065H32.4866C32.9321 43.8065 33.1552 44.345 32.8402 44.66L30.8537 46.6464C30.6585 46.8417 30.3419 46.8417 30.1466 46.6464L28.1602 44.66C27.8452 44.345 28.0683 43.8065 28.5137 43.8065H29.4357Z" stroke="white" stroke-width="0.8"/>
<path d="M17.1935 28.9034L19.3226 28.9034L19.3226 31.0325L17.1935 31.0325L17.1935 31.9544C17.1935 32.3999 16.655 32.6229 16.34 32.308L14.3536 30.3215C14.1583 30.1263 14.1583 29.8097 14.3536 29.6144L16.34 27.628C16.655 27.313 17.1935 27.5361 17.1935 27.9815L17.1935 28.9034Z" stroke="white" stroke-width="0.8"/>
<path d="M22.4622 19.8925L23.9677 21.398L22.4622 22.9034L20.9567 21.398L20.3048 22.0499C19.9899 22.3649 19.4513 22.1418 19.4513 21.6963L19.4513 18.8871C19.4513 18.6109 19.6752 18.3871 19.9513 18.3871L22.7605 18.3871C23.206 18.3871 23.4291 18.9257 23.1141 19.2406L22.4622 19.8925Z" stroke="white" stroke-width="0.8"/>
<path d="M40.209 21.3977L38.7036 22.9032L37.1981 21.3977L38.7036 19.8923L38.0517 19.2404C37.7367 18.9254 37.9598 18.3868 38.4052 18.3868L41.2145 18.3868C41.4906 18.3868 41.7145 18.6107 41.7145 18.8868L41.7145 21.6961C41.7145 22.1415 41.1759 22.3646 40.8609 22.0496L40.209 21.3977Z" stroke="white" stroke-width="0.8"/>
<path d="M21.3977 40.2173L22.9032 38.7119L21.3977 37.2064L19.8923 38.7119L19.2404 38.06C18.9254 37.745 18.3868 37.9681 18.3868 38.4135L18.3868 41.2228C18.3868 41.4989 18.6107 41.7228 18.8868 41.7228L21.6961 41.7228C22.1415 41.7228 22.3646 41.1842 22.0496 40.8692L21.3977 40.2173Z" stroke="white" stroke-width="0.8"/>
<circle cx="30.5002" cy="30.5002" r="10.7774" stroke="white" stroke-width="0.8"/>
<path fill-rule="evenodd" clip-rule="evenodd" d="M28.7588 19.6543C28.6211 19.7541 28.486 19.8559 28.3535 19.9596L28.6618 20.3533C28.7894 20.2534 28.9195 20.1553 29.0521 20.0592L28.7588 19.6543ZM27.5817 20.6125C27.3304 20.842 27.0901 21.0791 26.861 21.3232L27.2255 21.6654C27.4459 21.4306 27.677 21.2025 27.9188 20.9817L27.5817 20.6125ZM26.1971 22.088C25.9847 22.3528 25.7841 22.6242 25.5953 22.9016L26.0085 23.183C26.1901 22.9164 26.383 22.6554 26.5872 22.4008L26.1971 22.088ZM25.0587 23.7599C24.8904 24.0542 24.7344 24.3537 24.5907 24.6579L25.0427 24.8715C25.1809 24.5791 25.3309 24.291 25.4927 24.0082L25.0587 23.7599ZM24.1941 25.589C24.0738 25.9052 23.966 26.2251 23.8708 26.5482L24.3504 26.6895C24.442 26.3788 24.5457 26.071 24.6614 25.767L24.1941 25.589ZM23.6223 27.5293C23.552 27.8597 23.4944 28.1923 23.4497 28.5264L23.9452 28.5928C23.9883 28.2713 24.0437 27.9513 24.1113 27.6334L23.6223 27.5293ZM23.3536 29.5338C23.3344 29.8707 23.328 30.2082 23.3345 30.5455L23.8344 30.5359C23.8282 30.2113 23.8343 29.8865 23.8528 29.5623L23.3536 29.5338ZM23.3924 31.5558C23.4246 31.8914 23.4695 32.2259 23.5273 32.5587L24.0199 32.4732C23.9643 32.153 23.9211 31.8311 23.8902 31.5082L23.3924 31.5558ZM23.7386 33.5485C23.8215 33.8749 23.9171 34.1988 24.0254 34.5192L24.4991 34.3591C24.3949 34.0509 24.3029 33.7394 24.2232 33.4254L23.7386 33.5485ZM24.3865 35.4647C24.5187 35.774 24.6633 36.0793 24.8203 36.3797L25.2634 36.148C25.1124 35.8592 24.9734 35.5657 24.8463 35.2683L24.3865 35.4647ZM25.3241 37.2577C25.5023 37.542 25.6925 37.8208 25.8948 38.0934L26.2964 37.7956C26.1019 37.5334 25.919 37.2654 25.7477 36.9921L25.3241 37.2577ZM26.5293 38.8827C26.749 39.1353 26.9801 39.3814 27.2226 39.6202L27.5735 39.2639C27.3402 39.0342 27.1178 38.7975 26.9065 38.5545L26.5293 38.8827ZM27.9692 40.3017C28.0977 40.4104 28.2289 40.5172 28.3627 40.6221L28.5929 40.8025L28.9013 40.409L28.6711 40.2286C28.5422 40.1275 28.4159 40.0246 28.2921 39.92L27.9692 40.3017ZM29.0533 41.1634L29.2835 41.3438L29.5919 40.9503L29.3617 40.7699L29.0533 41.1634ZM29.7309 19.7837L29.6124 20.1714L30.0905 20.3175L30.209 19.9298L29.7309 19.7837ZM29.3753 20.9468L29.2568 21.3345C29.2075 21.4959 29.1595 21.6577 29.1128 21.8197L29.5933 21.9581C29.6392 21.7987 29.6864 21.6395 29.735 21.4806L29.8535 21.0929L29.3753 20.9468ZM28.8484 22.7969C28.7654 23.1243 28.6879 23.4527 28.6158 23.782L29.1042 23.889C29.1752 23.565 29.2515 23.2418 29.3331 22.9196L28.8484 22.7969ZM28.4152 24.7742C28.3536 25.1062 28.2975 25.4389 28.2468 25.7723L28.7411 25.8475C28.791 25.5194 28.8462 25.192 28.9068 24.8653L28.4152 24.7742ZM28.1109 26.7754C28.071 27.1106 28.0365 27.4464 28.0075 27.7824L28.5057 27.8254C28.5342 27.4947 28.5681 27.1644 28.6074 26.8345L28.1109 26.7754ZM27.9368 28.7922C27.9187 29.1292 27.9061 29.4664 27.8989 29.8037L28.3988 29.8144C28.4058 29.4825 28.4183 29.1506 28.4361 28.819L27.9368 28.7922ZM27.8937 30.816C27.8974 31.1533 27.9066 31.4907 27.9213 31.8278L28.4208 31.8061C28.4064 31.4743 28.3974 31.1424 28.3937 30.8104L27.8937 30.816ZM27.9817 32.8383C28.0072 33.1746 28.0383 33.5107 28.0747 33.8463L28.5718 33.7922C28.5359 33.462 28.5054 33.1314 28.4802 32.8004L27.9817 32.8383ZM28.2004 34.8507C28.2477 35.1846 28.3004 35.5179 28.3585 35.8505L28.851 35.7644C28.7938 35.4371 28.742 35.1092 28.6955 34.7806L28.2004 34.8507ZM28.5489 36.8447C28.6177 37.1747 28.6919 37.5039 28.7715 37.8322L29.2574 37.7144C29.1791 37.3914 29.1061 37.0674 29.0384 36.7427L28.5489 36.8447ZM29.0259 38.812C29.0709 38.9745 29.1172 39.1367 29.1649 39.2987L29.3062 39.7784L29.7859 39.6372L29.6446 39.1574C29.5976 38.9981 29.552 38.8384 29.5077 38.6785L29.0259 38.812ZM29.5888 40.7379L29.7301 41.2177L30.2098 41.0764L30.0685 40.5967L29.5888 40.7379ZM32.651 19.9596C32.5185 19.8559 32.3834 19.7541 32.2457 19.6543L31.9523 20.0592C32.085 20.1553 32.2151 20.2534 32.3427 20.3533L32.651 19.9596ZM34.1435 21.3232C33.9143 21.0791 33.6741 20.842 33.4228 20.6125L33.0856 20.9817C33.3274 21.2025 33.5585 21.4306 33.7789 21.6654L34.1435 21.3232ZM35.4092 22.9016C35.2203 22.6242 35.0197 22.3528 34.8073 22.088L34.4173 22.4008C34.6215 22.6554 34.8144 22.9164 34.9959 23.183L35.4092 22.9016ZM36.4138 24.6579C36.27 24.3537 36.114 24.0542 35.9457 23.7599L35.5117 24.0082C35.6735 24.291 35.8235 24.5791 35.9617 24.8715L36.4138 24.6579ZM37.1336 26.5482C37.0385 26.2251 36.9307 25.9052 36.8103 25.589L36.343 25.767C36.4588 26.071 36.5625 26.3788 36.654 26.6895L37.1336 26.5482ZM37.5548 28.5264C37.51 28.1923 37.4525 27.8597 37.3822 27.5293L36.8931 27.6334C36.9608 27.9513 37.0161 28.2713 37.0592 28.5928L37.5548 28.5264ZM37.67 30.5455C37.6764 30.2082 37.6701 29.8707 37.6509 29.5338L37.1517 29.5623C37.1702 29.8865 37.1763 30.2113 37.1701 30.5359L37.67 30.5455ZM37.4772 32.5587C37.5349 32.2259 37.5799 31.8914 37.612 31.5558L37.1143 31.5082C37.0834 31.8311 37.0401 32.153 36.9845 32.4732L37.4772 32.5587ZM36.979 34.5192C37.0873 34.1988 37.183 33.8749 37.2659 33.5485L36.7813 33.4254C36.7015 33.7394 36.6095 34.0509 36.5053 34.3591L36.979 34.5192ZM36.1841 36.3797C36.3412 36.0793 36.4858 35.774 36.6179 35.4647L36.1581 35.2683C36.031 35.5657 35.892 35.8592 35.741 36.148L36.1841 36.3797ZM35.1097 38.0934C35.3119 37.8208 35.5021 37.542 35.6804 37.2577L35.2568 36.9921C35.0854 37.2654 34.9025 37.5334 34.7081 37.7956L35.1097 38.0934ZM33.7818 39.6202C34.0243 39.3814 34.2554 39.1353 34.4752 38.8827L34.098 38.5545C33.8866 38.7975 33.6643 39.0342 33.431 39.2639L33.7818 39.6202ZM32.6418 40.6221C32.7756 40.5172 32.9067 40.4104 33.0352 40.3017L32.7123 39.92C32.5886 40.0246 32.4622 40.1275 32.3333 40.2286L32.1031 40.409L32.4116 40.8025L32.6418 40.6221ZM31.721 41.3438L31.9512 41.1634L31.6427 40.7699L31.4125 40.9503L31.721 41.3438ZM31.2736 19.7837L31.3921 20.1714L30.9139 20.3175L30.7954 19.9298L31.2736 19.7837ZM31.6291 20.9468L31.7476 21.3345C31.797 21.4959 31.845 21.6577 31.8917 21.8197L31.4112 21.9581C31.3653 21.7987 31.318 21.6395 31.2694 21.4806L31.1509 21.0929L31.6291 20.9468ZM32.1561 22.7969C32.239 23.1243 32.3165 23.4527 32.3887 23.782L31.9003 23.889C31.8293 23.565 31.753 23.2418 31.6714 22.9196L32.1561 22.7969ZM32.5893 24.7742C32.6508 25.1062 32.7069 25.4389 32.7576 25.7723L32.2633 25.8475C32.2134 25.5194 32.1582 25.192 32.0977 24.8653L32.5893 24.7742ZM32.8935 26.7754C32.9334 27.1106 32.9679 27.4464 32.9969 27.7824L32.4988 27.8254C32.4702 27.4947 32.4363 27.1644 32.3971 26.8345L32.8935 26.7754ZM33.0676 28.7922C33.0857 29.1292 33.0984 29.4664 33.1056 29.8037L32.6057 29.8144C32.5986 29.4825 32.5861 29.1506 32.5683 28.819L33.0676 28.7922ZM33.1107 30.816C33.107 31.1533 33.0978 31.4907 33.0831 31.8278L32.5836 31.8061C32.598 31.4743 32.6071 31.1424 32.6108 30.8104L33.1107 30.816ZM33.0228 32.8383C32.9972 33.1746 32.9662 33.5107 32.9297 33.8463L32.4326 33.7922C32.4685 33.462 32.4991 33.1314 32.5242 32.8004L33.0228 32.8383ZM32.8041 34.8507C32.7568 35.1846 32.7041 35.5179 32.6459 35.8505L32.1534 35.7644C32.2106 35.4371 32.2625 35.1092 32.309 34.7806L32.8041 34.8507ZM32.4555 36.8447C32.3867 37.1747 32.3126 37.5039 32.233 37.8322L31.7471 37.7144C31.8254 37.3914 31.8984 37.0674 31.966 36.7427L32.4555 36.8447ZM31.9786 38.812C31.9336 38.9745 31.8872 39.1367 31.8395 39.2987L31.6982 39.7784L31.2186 39.6372L31.3599 39.1574C31.4068 38.9981 31.4524 38.8384 31.4967 38.6785L31.9786 38.812ZM31.4156 40.7379L31.2743 41.2177L30.7947 41.0764L30.936 40.5967L31.4156 40.7379Z" fill="white"/>
<path opacity="0.3" fill-rule="evenodd" clip-rule="evenodd" d="M41.3408 28.7505C41.2411 28.6128 41.1393 28.4777 41.0355 28.3452L40.6418 28.6535C40.7418 28.7811 40.8398 28.9112 40.9359 29.0438L41.3408 28.7505ZM40.3826 27.5734C40.1532 27.3221 39.916 27.0818 39.6719 26.8527L39.3297 27.2172C39.5645 27.4376 39.7926 27.6687 40.0134 27.9105L40.3826 27.5734ZM38.9072 26.1888C38.6423 25.9764 38.3709 25.7758 38.0935 25.587L37.8121 26.0002C38.0788 26.1818 38.3397 26.3747 38.5943 26.5789L38.9072 26.1888ZM37.2352 25.0504C36.941 24.8821 36.6414 24.7261 36.3372 24.5824L36.1236 25.0344C36.416 25.1726 36.7041 25.3226 36.9869 25.4844L37.2352 25.0504ZM35.4061 24.1858C35.09 24.0655 34.77 23.9577 34.4469 23.8625L34.3056 24.3421C34.6164 24.4337 34.9241 24.5373 35.2282 24.6531L35.4061 24.1858ZM33.4658 23.614C33.1354 23.5437 32.8028 23.4861 32.4687 23.4414L32.4023 23.9369C32.7238 23.98 33.0439 24.0354 33.3617 24.103L33.4658 23.614ZM31.4613 23.3453C31.1245 23.3261 30.7869 23.3197 30.4496 23.3262L30.4592 23.8261C30.7838 23.8199 31.1087 23.826 31.4328 23.8445L31.4613 23.3453ZM29.4393 23.3841C29.1037 23.4163 28.7692 23.4612 28.4364 23.519L28.5219 24.0116C28.8421 23.956 29.164 23.9128 29.4869 23.8819L29.4393 23.3841ZM27.4466 23.7303C27.1202 23.8132 26.7963 23.9088 26.4759 24.0171L26.636 24.4908C26.9442 24.3866 27.2557 24.2946 27.5697 24.2149L27.4466 23.7303ZM25.5304 24.3782C25.2211 24.5104 24.9158 24.655 24.6154 24.812L24.8471 25.2551C25.1359 25.1041 25.4294 24.9651 25.7268 24.838L25.5304 24.3782ZM23.7374 25.3158C23.4532 25.494 23.1743 25.6842 22.9017 25.8865L23.1995 26.2881C23.4617 26.0936 23.7297 25.9107 24.003 25.7394L23.7374 25.3158ZM22.1124 26.521C21.8598 26.7407 21.6138 26.9718 21.3749 27.2143L21.7312 27.5652C21.961 27.3319 22.1977 27.1095 22.4406 26.8982L22.1124 26.521ZM20.6934 27.9609C20.5847 28.0894 20.4779 28.2206 20.373 28.3544L20.1926 28.5846L20.5861 28.893L20.7665 28.6628C20.8676 28.5339 20.9705 28.4076 21.0751 28.2838L20.6934 27.9609ZM19.8317 29.045L19.6513 29.2752L20.0448 29.5836L20.2252 29.3534L19.8317 29.045ZM41.2115 29.7226L40.8238 29.6041L40.6776 30.0822L41.0653 30.2007L41.2115 29.7226ZM40.0484 29.367L39.6607 29.2485C39.4992 29.1992 39.3374 29.1512 39.1754 29.1045L39.037 29.585C39.1964 29.6309 39.3556 29.6781 39.5145 29.7267L39.9022 29.8452L40.0484 29.367ZM38.1982 28.8401C37.8708 28.7571 37.5424 28.6796 37.2131 28.6074L37.1061 29.0959C37.4301 29.1669 37.7533 29.2432 38.0755 29.3248L38.1982 28.8401ZM36.2209 28.4069C35.8889 28.3453 35.5562 28.2892 35.2228 28.2385L35.1476 28.7328C35.4757 28.7827 35.8031 28.8379 36.1298 28.8985L36.2209 28.4069ZM34.2197 28.1026C33.8845 28.0627 33.5488 28.0282 33.2127 27.9992L33.1697 28.4974C33.5004 28.5259 33.8307 28.5598 34.1606 28.5991L34.2197 28.1026ZM32.2029 27.9285C31.8659 27.9104 31.5287 27.8978 31.1914 27.8906L31.1807 28.3905C31.5127 28.3975 31.8445 28.41 32.1761 28.4278L32.2029 27.9285ZM30.1791 27.8854C29.8418 27.8891 29.5044 27.8983 29.1673 27.913L29.189 28.4125C29.5208 28.3981 29.8527 28.3891 30.1847 28.3854L30.1791 27.8854ZM28.1568 27.9734C27.8205 27.9989 27.4844 28.03 27.1489 28.0664L27.2029 28.5635C27.5331 28.5276 27.8638 28.4971 28.1947 28.4719L28.1568 27.9734ZM26.1444 28.1921C25.8105 28.2394 25.4772 28.2921 25.1446 28.3502L25.2307 28.8427C25.558 28.7855 25.8859 28.7337 26.2145 28.6871L26.1444 28.1921ZM24.1504 28.5406C23.8204 28.6094 23.4912 28.6836 23.1629 28.7632L23.2807 29.2491C23.6037 29.1708 23.9277 29.0978 24.2524 29.0301L24.1504 28.5406ZM22.1831 29.0176C22.0206 29.0626 21.8584 29.1089 21.6964 29.1566L21.2167 29.2979L21.3579 29.7776L21.8377 29.6363C21.9971 29.5893 22.1567 29.5437 22.3166 29.4994L22.1831 29.0176ZM20.2572 29.5805L19.7774 29.7218L19.9187 30.2015L20.3984 30.0602L20.2572 29.5805ZM41.0355 32.6427C41.1393 32.5102 41.2411 32.3751 41.3408 32.2374L40.9359 31.944C40.8398 32.0767 40.7418 32.2068 40.6418 32.3344L41.0355 32.6427ZM39.6719 34.1352C39.916 33.906 40.1532 33.6658 40.3826 33.4145L40.0134 33.0773C39.7926 33.3191 39.5645 33.5502 39.3297 33.7706L39.6719 34.1352ZM38.0935 35.4009C38.3709 35.212 38.6423 35.0114 38.9072 34.799L38.5943 34.409C38.3397 34.6132 38.0788 34.806 37.8121 34.9876L38.0935 35.4009ZM36.3372 36.4055C36.6414 36.2617 36.941 36.1057 37.2352 35.9374L36.9869 35.5034C36.7041 35.6652 36.416 35.8152 36.1236 35.9534L36.3372 36.4055ZM34.4469 37.1253C34.77 37.0302 35.09 36.9224 35.4061 36.802L35.2282 36.3347C34.9241 36.4505 34.6164 36.5542 34.3056 36.6457L34.4469 37.1253ZM32.4687 37.5465C32.8028 37.5017 33.1354 37.4442 33.4658 37.3739L33.3617 36.8848C33.0439 36.9525 32.7238 37.0078 32.4023 37.0509L32.4687 37.5465ZM30.4496 37.6617C30.7869 37.6681 31.1245 37.6618 31.4613 37.6426L31.4328 37.1434C31.1087 37.1619 30.7838 37.168 30.4592 37.1618L30.4496 37.6617ZM28.4364 37.4689C28.7692 37.5266 29.1037 37.5716 29.4393 37.6037L29.4869 37.106C29.164 37.0751 28.8421 37.0318 28.5219 36.9762L28.4364 37.4689ZM26.4759 36.9707C26.7963 37.079 27.1202 37.1747 27.4466 37.2576L27.5697 36.773C27.2557 36.6932 26.9442 36.6012 26.636 36.497L26.4759 36.9707ZM24.6154 36.1758C24.9158 36.3329 25.2211 36.4775 25.5304 36.6096L25.7268 36.1498C25.4294 36.0227 25.1359 35.8837 24.8471 35.7327L24.6154 36.1758ZM22.9017 35.1014C23.1743 35.3036 23.4532 35.4938 23.7374 35.6721L24.003 35.2484C23.7297 35.0771 23.4617 34.8942 23.1995 34.6998L22.9017 35.1014ZM21.3749 33.7735C21.6138 34.016 21.8598 34.2471 22.1124 34.4669L22.4406 34.0897C22.1977 33.8783 21.961 33.656 21.7312 33.4227L21.3749 33.7735ZM20.373 32.6335C20.4779 32.7673 20.5847 32.8984 20.6934 33.0269L21.0751 32.704C20.9705 32.5803 20.8676 32.4539 20.7665 32.325L20.5861 32.0948L20.1926 32.4033L20.373 32.6335ZM19.6513 31.7127L19.8317 31.9429L20.2252 31.6344L20.0448 31.4042L19.6513 31.7127ZM41.2115 31.2653L40.8238 31.3838L40.6776 30.9056L41.0653 30.7871L41.2115 31.2653ZM40.0484 31.6208L39.6607 31.7393C39.4992 31.7887 39.3374 31.8367 39.1754 31.8834L39.037 31.4029C39.1964 31.357 39.3556 31.3097 39.5145 31.2611L39.9022 31.1426L40.0484 31.6208ZM38.1982 32.1478C37.8708 32.2307 37.5424 32.3082 37.2131 32.3804L37.1061 31.892C37.4301 31.821 37.7533 31.7447 38.0755 31.6631L38.1982 32.1478ZM36.2209 32.581C35.8889 32.6425 35.5562 32.6986 35.2228 32.7493L35.1476 32.255C35.4757 32.2051 35.8031 32.1499 36.1298 32.0894L36.2209 32.581ZM34.2197 32.8852C33.8845 32.9251 33.5488 32.9596 33.2127 32.9886L33.1697 32.4905C33.5004 32.4619 33.8307 32.428 34.1606 32.3887L34.2197 32.8852ZM32.2029 33.0593C31.8659 33.0774 31.5287 33.0901 31.1914 33.0973L31.1807 32.5974C31.5127 32.5903 31.8445 32.5778 32.1761 32.56L32.2029 33.0593ZM30.1791 33.1024C29.8418 33.0987 29.5044 33.0895 29.1673 33.0748L29.189 32.5753C29.5208 32.5897 29.8527 32.5988 30.1847 32.6025L30.1791 33.1024ZM28.1568 33.0145C27.8205 32.9889 27.4844 32.9579 27.1489 32.9214L27.2029 32.4243C27.5331 32.4602 27.8638 32.4908 28.1947 32.5159L28.1568 33.0145ZM26.1444 32.7958C25.8105 32.7485 25.4772 32.6958 25.1446 32.6376L25.2307 32.1451C25.558 32.2023 25.8859 32.2542 26.2145 32.3007L26.1444 32.7958ZM24.1504 32.4472C23.8204 32.3784 23.4912 32.3043 23.1629 32.2247L23.2807 31.7388C23.6037 31.8171 23.9277 31.89 24.2524 31.9577L24.1504 32.4472ZM22.1831 31.9703C22.0206 31.9253 21.8584 31.8789 21.6964 31.8312L21.2167 31.6899L21.3579 31.2103L21.8377 31.3516C21.9971 31.3985 22.1567 31.4441 22.3166 31.4884L22.1831 31.9703ZM20.2572 31.4073L19.7774 31.266L19.9187 30.7864L20.3984 30.9277L20.2572 31.4073Z" fill="white"/>
</svg>
