<svg width="47" height="47" viewBox="0 0 47 47" fill="none" xmlns="http://www.w3.org/2000/svg">
<circle cx="23.5" cy="23.5" r="23" stroke="#282828"/>
<path d="M24 14.25C20.5496 14.25 17.75 16.7699 17.75 19.875C17.75 24.875 24 31.75 24 31.75C24 31.75 30.25 24.875 30.25 19.875C30.25 16.7699 27.4504 14.25 24 14.25ZM24 23C23.5055 23 23.0222 22.8534 22.6111 22.5787C22.2 22.304 21.8795 21.9135 21.6903 21.4567C21.5011 20.9999 21.4516 20.4972 21.548 20.0123C21.6445 19.5273 21.8826 19.0819 22.2322 18.7322C22.5819 18.3826 23.0273 18.1445 23.5123 18.048C23.9972 17.9516 24.4999 18.0011 24.9567 18.1903C25.4135 18.3795 25.804 18.7 26.0787 19.1111C26.3534 19.5222 26.5 20.0055 26.5 20.5C26.4993 21.1628 26.2357 21.7983 25.767 22.267C25.2983 22.7357 24.6628 22.9993 24 23Z" fill="#282828"/>
</svg>
