<svg width="61" height="61" viewBox="0 0 61 61" fill="none" xmlns="http://www.w3.org/2000/svg">
<circle cx="30.5" cy="30.5" r="30.5" fill="#499647"/>
<path fill-rule="evenodd" clip-rule="evenodd" d="M34.983 20.7485C31.7161 13.0839 20.4095 15.2239 20.0212 23.3853L19.0073 23.5121C15.0961 24.001 12.8434 28.2103 14.6061 31.7358C15.3219 33.1673 16.6053 34.233 18.144 34.6733L19.7298 35.1272C19.7796 35.1415 19.8311 35.1487 19.8829 35.1487H21.6624V37.0844C21.6624 37.2435 21.5992 37.3961 21.4866 37.5086L18.7703 40.225C18.5077 40.4875 18.3602 40.8436 18.3602 41.2149V42.8364L17.5334 43.6632C16.9867 44.21 16.9867 45.0964 17.5334 45.6431L17.7703 45.88C18.317 46.4267 19.2035 46.4267 19.7502 45.88L19.9871 45.6431C20.5338 45.0964 20.5338 44.21 19.9871 43.6632L19.1602 42.8364V41.2149C19.1602 41.0558 19.2235 40.9032 19.336 40.7906L22.0523 38.0743C22.3149 37.8117 22.4624 37.4557 22.4624 37.0844V35.1487H26.0652V39.5L25.0905 40.2311C24.3438 40.7911 24.3438 41.9111 25.0905 42.4711L25.5314 42.8017C26.0888 43.2198 26.8687 43.1643 27.3613 42.6717L27.692 42.341C28.2388 41.7943 28.2388 40.9078 27.692 40.3611L26.8652 39.5343V35.1487H29.3674V37.5683C29.3674 37.9936 29.5607 38.3958 29.8928 38.6615L31.894 40.2624C32.0363 40.3763 32.1191 40.5487 32.1191 40.731V42.8364L31.2923 43.6632C30.7456 44.21 30.7456 45.0964 31.2923 45.6431L31.5292 45.88C32.0759 46.4267 32.9624 46.4267 33.5091 45.88L33.7459 45.6431C34.2927 45.0964 34.2927 44.21 33.7459 43.6632L32.9191 42.8364V40.731C32.9191 40.3057 32.7258 39.9034 32.3937 39.6378L30.3925 38.0368C30.2502 37.923 30.1674 37.7506 30.1674 37.5683V35.1487H35.9716V38.4336L35.1448 39.2604C34.5981 39.8071 34.5981 40.6936 35.1448 41.2403L35.3817 41.4771C35.9284 42.0239 36.8148 42.0239 37.3616 41.4771L37.5984 41.2403C38.1452 40.6936 38.1452 39.8071 37.5984 39.2604L36.7716 38.4336V35.1487H39.8241V37.6347C39.8241 38.006 39.9716 38.3621 40.2342 38.6247L41.3605 39.751L40.7803 40.6212C40.4857 41.0631 40.4857 41.639 40.7803 42.081C41.3012 42.8622 42.4492 42.8622 42.97 42.081C43.2647 41.639 43.2647 41.0631 42.97 40.6212L42.208 39.4781L42.186 39.4452L42.158 39.4171L40.7999 38.059C40.6873 37.9464 40.6241 37.7938 40.6241 37.6347V35.1487H40.7633C40.7897 35.1487 40.8161 35.1468 40.8423 35.1431L42.5427 34.8993C44.0183 34.6878 45.3432 33.8819 46.2096 32.6689C48.4259 29.5662 46.8587 25.205 43.1745 24.2225L42.3111 23.9923C42.5886 20.171 37.7244 18.0892 35.1664 21.1269L35.1517 21.1443L34.983 20.7485ZM20.8113 23.7433C20.8794 16.1605 31.2737 14.0863 34.247 21.0622L34.6708 22.0563L34.9258 22.6546L35.3447 22.1571L35.7783 21.6422C37.8945 19.1292 41.9776 20.982 41.4798 24.2294L41.4254 24.5841L41.7721 24.6765L42.9684 24.9955C44.6998 25.4572 45.8833 26.7933 46.2815 28.3429H42.0202L41.5723 27.895C41.1317 27.4544 40.4173 27.4544 39.9766 27.895C39.536 28.3357 39.536 29.0501 39.9766 29.4907C40.4173 29.9314 41.1317 29.9314 41.5723 29.4907L42.0202 29.0429H46.406C46.5132 30.1106 46.2544 31.2299 45.5587 32.2039C44.8192 33.2391 43.6885 33.9269 42.4291 34.1074L40.7459 34.3487H40.0238V33.5454C40.0238 32.7998 39.4193 32.1954 38.6738 32.1954H37.067L36.6191 31.7475C36.1785 31.3069 35.4641 31.3069 35.0234 31.7475C34.5828 32.1882 34.5828 32.9026 35.0234 33.3432C35.4641 33.7838 36.1785 33.7838 36.6191 33.3432L37.067 32.8954H38.6738C39.0327 32.8954 39.3238 33.1864 39.3238 33.5454V34.3487H20.211V33.5454C20.211 33.1864 20.502 32.8954 20.861 32.8954H21.3671L21.7604 33.2887C22.2311 33.7594 22.9943 33.7594 23.4651 33.2887C23.8714 32.8824 23.9344 32.2458 23.6157 31.7677C23.1386 31.0521 22.0869 31.0521 21.6098 31.7677L21.3247 32.1954H20.861C20.1154 32.1954 19.511 32.7998 19.511 33.5454V34.2325L18.3641 33.9042C17.0409 33.5255 15.9372 32.6091 15.3217 31.378C14.7572 30.2491 14.6715 29.0386 14.96 27.9422H17.5146L17.9624 28.39C18.403 28.8306 19.1175 28.8306 19.5581 28.39C19.9987 27.9494 19.9987 27.235 19.5581 26.7943C19.1175 26.3537 18.403 26.3537 17.9624 26.7943L17.5146 27.2422H15.2014C15.8571 25.7202 17.269 24.5356 19.1066 24.3059L20.4609 24.1366L20.8082 24.0932L20.8113 23.7433ZM25.2638 21.1383H26.0652V19.3368H26.8652V21.1383H28.2666V19.3368H29.0666V21.1383H30.4681V19.3368H31.2681V21.1383H32.0695C32.8427 21.1383 33.4695 21.7651 33.4695 22.5383V23.3397H35.2709V24.1397H33.4695V25.5411H35.2709V26.3411H33.4695V27.4673H35.2709V28.2673H33.4695V28.7936C33.4695 29.5668 32.8427 30.1936 32.0695 30.1936H31.2681V31.995H30.4681V30.1936H29.0666V31.995H28.2666V30.1936H26.8652V31.995H26.0652V30.1936H25.2638C24.4906 30.1936 23.8638 29.5668 23.8638 28.7936V28.2673H22.0624V27.4673H23.8638V26.3411H22.0624V25.5411H23.8638V24.1397H22.0624V23.3397H23.8638V22.5383C23.8638 21.7651 24.4906 21.1383 25.2638 21.1383ZM24.6638 22.5383C24.6638 22.2069 24.9324 21.9383 25.2638 21.9383H26.4652H28.6666H30.8681H32.0695C32.4009 21.9383 32.6695 22.2069 32.6695 22.5383V23.7397V25.9411V27.8673V28.7936C32.6695 29.125 32.4009 29.3936 32.0695 29.3936H30.8681H28.6666H26.4652H25.2638C24.9324 29.3936 24.6638 29.125 24.6638 28.7936V27.8673V25.9411V23.7397V22.5383ZM18.0991 44.2289L18.7602 43.5678L19.4214 44.2289C19.6557 44.4632 19.6557 44.8431 19.4214 45.0774L19.1845 45.3143C18.9502 45.5486 18.5703 45.5486 18.336 45.3143L18.0991 45.0774C17.8648 44.8431 17.8648 44.4632 18.0991 44.2289ZM25.5705 40.8711L26.4277 40.2281L27.1263 40.9268C27.3607 41.1611 27.3607 41.541 27.1263 41.7753L26.7957 42.106C26.5845 42.3171 26.2503 42.3409 26.0114 42.1617L25.5705 41.8311C25.2505 41.5911 25.2505 41.1111 25.5705 40.8711ZM31.858 44.2289L32.5191 43.5678L33.1803 44.2289C33.4146 44.4632 33.4146 44.8431 33.1803 45.0774L32.9434 45.3143C32.7091 45.5486 32.3292 45.5486 32.0949 45.3143L31.858 45.0774C31.6237 44.8431 31.6237 44.4632 31.858 44.2289ZM35.7105 39.8261L36.3716 39.165L37.0327 39.8261C37.2671 40.0604 37.2671 40.4403 37.0327 40.6746L36.7959 40.9115C36.5616 41.1458 36.1817 41.1458 35.9474 40.9115L35.7105 40.6746C35.4762 40.4403 35.4762 40.0604 35.7105 39.8261ZM41.446 41.0649L41.8752 40.4211L42.3044 41.0649C42.4199 41.2382 42.4199 41.4639 42.3044 41.6372C42.1002 41.9435 41.6502 41.9435 41.446 41.6372C41.3305 41.4639 41.3305 41.2382 41.446 41.0649ZM26.6156 24.1893C26.6156 23.4161 27.2424 22.7893 28.0156 22.7893H29.3177C30.0909 22.7893 30.7177 23.4161 30.7177 24.1893V26.5922C30.7177 27.3654 30.0909 27.9922 29.3177 27.9922H28.0156C27.2424 27.9922 26.6156 27.3654 26.6156 26.5922V24.1893ZM28.0156 23.5893C27.6842 23.5893 27.4156 23.8579 27.4156 24.1893V26.5922C27.4156 26.9235 27.6842 27.1922 28.0156 27.1922H29.3177C29.6491 27.1922 29.9177 26.9235 29.9177 26.5922V24.1893C29.9177 23.8579 29.6491 23.5893 29.3177 23.5893H28.0156ZM18.4574 27.895L18.1545 27.5922L18.4574 27.2893C18.6246 27.122 18.8958 27.122 19.0631 27.2893C19.2304 27.4566 19.2304 27.7278 19.0631 27.895C18.8958 28.0623 18.6246 28.0623 18.4574 27.895ZM41.0773 28.39L41.3802 28.6929L41.0773 28.9957C40.9101 29.163 40.6389 29.163 40.4716 28.9957C40.3043 28.8285 40.3043 28.5573 40.4716 28.39C40.6389 28.2227 40.9101 28.2227 41.0773 28.39ZM22.1922 32.156C22.3923 31.856 22.8332 31.856 23.0332 32.156C23.1669 32.3565 23.1404 32.6234 22.9701 32.7937C22.7727 32.9911 22.4527 32.9911 22.2554 32.7937L21.9624 32.5008L22.1922 32.156ZM36.1241 32.2425L36.427 32.5454L36.1241 32.8482C35.9569 33.0155 35.6857 33.0155 35.5184 32.8482C35.3511 32.681 35.3511 32.4098 35.5184 32.2425C35.6857 32.0752 35.9569 32.0752 36.1241 32.2425Z" fill="white"/>
</svg>
