<svg width="61" height="61" viewBox="0 0 61 61" fill="none" xmlns="http://www.w3.org/2000/svg">
<circle cx="30.5" cy="30.5" r="30.5" fill="#499647"/>
<circle cx="30.5" cy="30.5" r="17" stroke="white"/>
<circle opacity="0.1" cx="30.5" cy="30.5" r="9.5" fill="white"/>
<path d="M30.2928 22.4844V22.4844C28.5763 27.533 28.5442 33.0021 30.2013 38.0705L30.2928 38.3503" stroke="white" stroke-width="0.5"/>
<path d="M29.9577 22.4844V22.4844C24.7727 26.253 24.546 33.9043 29.4988 37.9733L29.9577 38.3503" stroke="white" stroke-width="0.5"/>
<path d="M31.6126 22.4844V22.4844C36.7976 26.253 37.0243 33.9043 32.0715 37.9733L31.6126 38.3503" stroke="white" stroke-width="0.5"/>
<path d="M30.9543 22.4844L31.0219 22.7498C32.2796 27.6821 32.3034 32.8482 31.0912 37.7919L30.9543 38.3503" stroke="white" stroke-width="0.5"/>
<circle cx="30.6229" cy="30.412" r="8.01352" stroke="white" stroke-width="0.5"/>
<circle cx="32.2705" cy="28.7626" r="1.16108" fill="#499647" stroke="white"/>
<circle cx="34.9111" cy="33.3916" r="1.16108" fill="#499647" stroke="white"/>
<circle cx="26.9814" cy="26.1181" r="1.16108" fill="#499647" stroke="white"/>
<circle cx="28.9658" cy="33.3916" r="1.16108" fill="#499647" stroke="white"/>
<path d="M22.1167 28.0204C22.2539 28.0356 22.3775 27.9367 22.3928 27.7995L22.6413 25.5633C22.6565 25.426 22.5576 25.3024 22.4204 25.2872C22.2832 25.2719 22.1596 25.3708 22.1443 25.508L21.9235 27.4958L19.9357 27.275C19.7985 27.2597 19.6749 27.3586 19.6596 27.4958C19.6444 27.633 19.7433 27.7566 19.8805 27.7719L22.1167 28.0204ZM20.8778 26.1887L20.6825 26.3449L20.8778 26.1887ZM26.2876 23.6286L25.0736 22.4147L24.7201 22.7682L25.934 23.9822L26.2876 23.6286ZM20.6825 26.3449L21.9491 27.9281L22.3395 27.6157L21.073 26.0325L20.6825 26.3449ZM20.7199 22.6121C19.8221 23.6895 19.8065 25.2498 20.6825 26.3449L21.073 26.0325C20.3454 25.123 20.3583 23.827 21.104 22.9322L20.7199 22.6121ZM25.0736 22.4147C23.8466 21.1876 21.8308 21.279 20.7199 22.6121L21.104 22.9322C22.0267 21.825 23.7009 21.7491 24.7201 22.7682L25.0736 22.4147Z" fill="white"/>
<path d="M39.1613 33.252C39.1707 33.1143 39.29 33.0103 39.4278 33.0197L41.6725 33.173C41.8103 33.1825 41.9143 33.3018 41.9049 33.4395C41.8955 33.5773 41.7762 33.6813 41.6385 33.6719L39.6431 33.5356L39.5068 35.5309C39.4974 35.6686 39.3781 35.7727 39.2403 35.7633C39.1026 35.7539 38.9985 35.6346 39.0079 35.4968L39.1613 33.252ZM36.6763 38.3275L36.5072 38.5116L36.6763 38.3275ZM39.5991 33.1048L40.7275 34.3987L40.3507 34.7273L39.2223 33.4334L39.5991 33.1048ZM36.5072 38.5116L35.014 37.1401L35.3522 36.7719L36.8454 38.1434L36.5072 38.5116ZM40.2337 38.7288C39.0977 39.5511 37.54 39.4603 36.5072 38.5116L36.8454 38.1434C37.7032 38.9313 38.997 39.0067 39.9406 38.3238L40.2337 38.7288ZM40.7275 34.3987C41.8681 35.7065 41.6395 37.7114 40.2337 38.7288L39.9406 38.3238C41.1081 37.4787 41.298 35.8136 40.3507 34.7273L40.7275 34.3987Z" fill="white"/>
</svg>
