<svg width="61" height="61" viewBox="0 0 61 61" fill="none" xmlns="http://www.w3.org/2000/svg">
<circle cx="30.5" cy="30.5" r="30.5" fill="#499647"/>
<path fill-rule="evenodd" clip-rule="evenodd" d="M17.25 16.25C17.25 15.5596 17.8096 15 18.5 15H38.5C39.1904 15 39.75 15.5596 39.75 16.25V21H41.5V21.5H39.75V25H41.5C42.1904 25 42.75 25.5596 42.75 26.25V31H45C45.4142 31 45.75 30.6642 45.75 30.25V29.3536L45.3232 28.9268C44.9494 28.553 44.9494 27.947 45.3232 27.5732C45.697 27.1994 46.303 27.1994 46.6768 27.5732C47.0506 27.947 47.0505 28.553 46.6768 28.9268L46.25 29.3536V30.25C46.25 30.9404 45.6904 31.5 45 31.5H42.75V35H44.3964L45.1161 34.2803C45.6043 33.7922 46.3957 33.7922 46.8839 34.2803L46.9697 34.3661C47.4578 34.8543 47.4578 35.6457 46.9697 36.1339L46.8839 36.2197C46.3957 36.7078 45.6043 36.7078 45.1161 36.2197L44.3964 35.5H42.75V39H44.5C45.1904 39 45.75 39.5596 45.75 40.25V41.1743L46.3546 42.0812C46.6262 42.4886 46.5725 43.0311 46.2263 43.3773C45.8252 43.7784 45.1748 43.7784 44.7737 43.3773C44.4275 43.0311 44.3738 42.4886 44.6454 42.0812L45.25 41.1743V40.25C45.25 39.8358 44.9142 39.5 44.5 39.5H42.75V44.25C42.75 44.9404 42.1904 45.5 41.5 45.5H33C32.3096 45.5 31.75 44.9404 31.75 44.25V35.5H25H18.5C17.8096 35.5 17.25 34.9404 17.25 34.25V22.25V16.25ZM25.25 35H31.75V33H25.25V35ZM24.75 35V32.75V30.25V27.25V23.25C24.75 22.8862 24.491 22.5829 24.1473 22.5145L23.7236 23.3618L23.6545 23.5H23.5H19.5H19.3455L19.2764 23.3618L18.8455 22.5H17.75V34.25C17.75 34.6642 18.0858 35 18.5 35H24.75ZM19.4045 22.5H23.5955L23.3455 23H19.6545L19.4045 22.5ZM17.75 22H18.75V16.75V16.5H19H38.5H38.75V16.75V25H39.25V16.25C39.25 15.8358 38.9142 15.5 38.5 15.5H18.5C18.0858 15.5 17.75 15.8358 17.75 16.25V22ZM38.25 25V17H19.25V22H24C24.6904 22 25.25 22.5596 25.25 23.25V27H31.75V26.25C31.75 25.5596 32.3096 25 33 25H38.25ZM31.75 27.5H25.25V30H31.75V27.5ZM31.75 30.5H25.25V32.5H31.75V30.5ZM33 25.5C32.5858 25.5 32.25 25.8358 32.25 26.25V27.25V30.25V32.75V35.25V44.25C32.25 44.6642 32.5858 45 33 45H41.5C41.9142 45 42.25 44.6642 42.25 44.25V26.25C42.25 25.8358 41.9142 25.5 41.5 25.5H39.5H38.5H33ZM20.75 33.5C20.4739 33.5 20.25 33.7239 20.25 34C20.25 34.2761 20.4739 34.5 20.75 34.5H22.25C22.5261 34.5 22.75 34.2761 22.75 34C22.75 33.7239 22.5261 33.5 22.25 33.5H20.75ZM34.25 28.75C34.25 28.0596 34.8096 27.5 35.5 27.5H39.5C40.1904 27.5 40.75 28.0596 40.75 28.75V30.75V33.25V36.25V38.25C40.75 38.9404 40.1904 39.5 39.5 39.5H35.5C34.8096 39.5 34.25 38.9404 34.25 38.25V36.25V33.25V30.75V28.75ZM35.5 28C35.0858 28 34.75 28.3358 34.75 28.75V30.5H40.25V28.75C40.25 28.3358 39.9142 28 39.5 28H35.5ZM40.25 31H34.75V33H40.25V31ZM40.25 33.5H34.75V36H40.25V33.5ZM40.25 36.5H34.75V38.25C34.75 38.6642 35.0858 39 35.5 39H39.5C39.9142 39 40.25 38.6642 40.25 38.25V36.5ZM16 38H16.25V37.25H16.75V38H17.25H17.75V37.25H18.25V38H19.75V37.25H20.25V38H20.5H21.25V37.25H21.75V38H22C22.6904 38 23.25 38.5596 23.25 39.25V39.5H24V40H23.25V40.75V41H24V41.5H23.25V43H24V43.5H23.25V44.25V44.5H24V45H23.25V45.25C23.25 45.9404 22.6904 46.5 22 46.5H21.75V47.25H21.25V46.5H20.25V47.25H19.75V46.5H18.25V47.25H17.75V46.5H16.75V47.25H16.25V46.5H16C15.3096 46.5 14.75 45.9404 14.75 45.25V45H14V44.5H14.75V43.5H14V43H14.75V41.5H14V41H14.75V40H14V39.5H14.75V39.25C14.75 38.5596 15.3096 38 16 38ZM15.25 39.25C15.25 38.8358 15.5858 38.5 16 38.5H16.5H17V39.8661L16.6782 40.2023C16.385 40.5086 16.3853 40.9916 16.6789 41.2975C16.9904 41.6222 17.5096 41.6222 17.8211 41.2975C18.1147 40.9916 18.115 40.5086 17.8218 40.2023L17.5 39.8661V38.5H18H20H20.5H21.5H22C22.4142 38.5 22.75 38.8358 22.75 39.25V39.75V40.75V41.25V43.25V44.25V44.75V45.25C22.75 45.6642 22.4142 46 22 46H21.5H20H18.25V45.4708C18.25 45.1479 18.4566 44.8613 18.7628 44.7592L19.4325 44.536L19.5327 44.6362C19.7908 44.8943 20.2092 44.8943 20.4673 44.6362C20.6685 44.435 20.7184 44.1277 20.5912 43.8733C20.3476 43.3862 19.6524 43.3862 19.4088 43.8733L19.3227 44.0456L18.6047 44.2849C18.0943 44.455 17.75 44.9327 17.75 45.4708V46H16.5H16C15.5858 46 15.25 45.6642 15.25 45.25V44.75V43.25V41.25V39.75V39.25ZM17.0394 40.548L17.25 40.328L17.4606 40.548C17.5686 40.6608 17.5685 40.8387 17.4603 40.9514C17.3456 41.0709 17.1544 41.0709 17.0397 40.9514C16.9315 40.8387 16.9314 40.6608 17.0394 40.548ZM19.8862 44.2827L19.8042 44.2006L19.8561 44.0969C19.9154 43.9783 20.0846 43.9783 20.1439 44.0969C20.1749 44.1588 20.1628 44.2337 20.1138 44.2827C20.0509 44.3455 19.9491 44.3455 19.8862 44.2827ZM19.9341 40.3886C19.7934 40.6091 19.7935 40.8912 19.9344 41.1115C20.1985 41.5243 20.8015 41.5243 21.0656 41.1115C21.2065 40.8912 21.2066 40.6091 21.0659 40.3886C20.802 39.975 20.198 39.975 19.9341 40.3886ZM46.3232 27.9268C46.1447 27.7483 45.8553 27.7483 45.6768 27.9268C45.4983 28.1053 45.4983 28.3947 45.6768 28.5732L46 28.8964L46.3232 28.5732C46.5017 28.3947 46.5017 28.1053 46.3232 27.9268ZM44.8536 35.25L45.4697 35.8661C45.7626 36.159 46.2374 36.159 46.5303 35.8661L46.6161 35.7803C46.909 35.4874 46.909 35.0126 46.6161 34.7197L46.5303 34.6339C46.2374 34.341 45.7626 34.341 45.4697 34.6339L44.8536 35.25ZM45.5 41.7007L45.0614 42.3586C44.922 42.5677 44.9496 42.846 45.1273 43.0237C45.3331 43.2296 45.6669 43.2296 45.8727 43.0237C46.0504 42.846 46.078 42.5677 45.9386 42.3586L45.5 41.7007ZM43 21.5C43.4142 21.5 43.75 21.8358 43.75 22.25V22.75H44.25V22.25C44.25 21.5596 43.6904 21 43 21V21.5ZM16.25 22.75V21.25H15.75V22.75H16.25ZM16.25 25.75V24.25H15.75V25.75H16.25ZM44.25 24.25H43.75V25.75H44.25V24.25ZM16.25 28.75V27.25H15.75V28.75H16.25ZM16.25 31.75V30.25H15.75V31.75H16.25ZM16.25 34.25V32.75H15.75V34.25H16.25ZM26 43H27.5V42.5H26V43ZM28.5 43H30V42.5H28.5V43Z" fill="white"/>
<path d="M39.75 21H39.65V21.1H39.75V21ZM41.5 21H41.6V20.9H41.5V21ZM41.5 21.5V21.6H41.6V21.5H41.5ZM39.75 21.5V21.4H39.65V21.5H39.75ZM39.75 25H39.65V25.1H39.75V25ZM42.75 31H42.65V31.1H42.75V31ZM45.75 29.3536H45.85V29.3121L45.8207 29.2828L45.75 29.3536ZM46.6768 28.9268L46.7475 28.9975V28.9975L46.6768 28.9268ZM46.25 29.3536L46.1793 29.2828L46.15 29.3121V29.3536H46.25ZM42.75 31.5V31.4H42.65V31.5H42.75ZM42.75 35H42.65V35.1H42.75V35ZM44.3964 35V35.1H44.4379L44.4672 35.0707L44.3964 35ZM45.1161 34.2803L45.0454 34.2096L45.1161 34.2803ZM44.3964 35.5L44.4672 35.4293L44.4379 35.4H44.3964V35.5ZM42.75 35.5V35.4H42.65V35.5H42.75ZM42.75 39H42.65V39.1H42.75V39ZM45.75 41.1743H45.65V41.2046L45.6668 41.2298L45.75 41.1743ZM46.3546 42.0812L46.2714 42.1367L46.3546 42.0812ZM46.2263 43.3773L46.297 43.448L46.2263 43.3773ZM44.7737 43.3773L44.703 43.448L44.7737 43.3773ZM44.6454 42.0812L44.7286 42.1367L44.6454 42.0812ZM45.25 41.1743L45.3332 41.2298L45.35 41.2046V41.1743H45.25ZM42.75 39.5V39.4H42.65V39.5H42.75ZM31.75 35.5H31.85V35.4H31.75V35.5ZM31.75 35V35.1H31.85V35H31.75ZM25.25 35H25.15V35.1H25.25V35ZM31.75 33H31.85V32.9H31.75V33ZM25.25 33V32.9H25.15V33H25.25ZM24.75 35V35.1H24.85V35H24.75ZM24.1473 22.5145L24.1668 22.4164L24.092 22.4015L24.0578 22.4697L24.1473 22.5145ZM23.7236 23.3618L23.6342 23.3171L23.6342 23.3171L23.7236 23.3618ZM23.6545 23.5V23.6H23.7163L23.744 23.5447L23.6545 23.5ZM19.3455 23.5L19.256 23.5447L19.2837 23.6H19.3455V23.5ZM19.2764 23.3618L19.3658 23.3171V23.3171L19.2764 23.3618ZM18.8455 22.5L18.9349 22.4553L18.9073 22.4H18.8455V22.5ZM17.75 22.5V22.4H17.65V22.5H17.75ZM23.5955 22.5L23.6849 22.5447L23.7573 22.4H23.5955V22.5ZM19.4045 22.5V22.4H19.2427L19.3151 22.5447L19.4045 22.5ZM23.3455 23V23.1H23.4073L23.4349 23.0447L23.3455 23ZM19.6545 23L19.5651 23.0447L19.5927 23.1H19.6545V23ZM18.75 22V22.1H18.85V22H18.75ZM17.75 22H17.65V22.1H17.75V22ZM18.75 16.5V16.4H18.65V16.5H18.75ZM38.75 16.5H38.85V16.4H38.75V16.5ZM38.75 25H38.65V25.1H38.75V25ZM39.25 25V25.1H39.35V25H39.25ZM38.25 17H38.35V16.9H38.25V17ZM38.25 25V25.1H38.35V25H38.25ZM19.25 17V16.9H19.15V17H19.25ZM19.25 22H19.15V22.1H19.25V22ZM25.25 27H25.15V27.1H25.25V27ZM31.75 27V27.1H31.85V27H31.75ZM25.25 27.5V27.4H25.15V27.5H25.25ZM31.75 27.5H31.85V27.4H31.75V27.5ZM25.25 30H25.15V30.1H25.25V30ZM31.75 30V30.1H31.85V30H31.75ZM25.25 30.5V30.4H25.15V30.5H25.25ZM31.75 30.5H31.85V30.4H31.75V30.5ZM25.25 32.5H25.15V32.6H25.25V32.5ZM31.75 32.5V32.6H31.85V32.5H31.75ZM34.75 30.5H34.65V30.6H34.75V30.5ZM40.25 30.5V30.6H40.35V30.5H40.25ZM34.75 31V30.9H34.65V31H34.75ZM40.25 31H40.35V30.9H40.25V31ZM34.75 33H34.65V33.1H34.75V33ZM40.25 33V33.1H40.35V33H40.25ZM34.75 33.5V33.4H34.65V33.5H34.75ZM40.25 33.5H40.35V33.4H40.25V33.5ZM34.75 36H34.65V36.1H34.75V36ZM40.25 36V36.1H40.35V36H40.25ZM34.75 36.5V36.4H34.65V36.5H34.75ZM40.25 36.5H40.35V36.4H40.25V36.5ZM16.25 38V38.1H16.35V38H16.25ZM16.25 37.25V37.15H16.15V37.25H16.25ZM16.75 37.25H16.85V37.15H16.75V37.25ZM16.75 38H16.65V38.1H16.75V38ZM17.75 38V38.1H17.85V38H17.75ZM17.75 37.25V37.15H17.65V37.25H17.75ZM18.25 37.25H18.35V37.15H18.25V37.25ZM18.25 38H18.15V38.1H18.25V38ZM19.75 38V38.1H19.85V38H19.75ZM19.75 37.25V37.15H19.65V37.25H19.75ZM20.25 37.25H20.35V37.15H20.25V37.25ZM20.25 38H20.15V38.1H20.25V38ZM21.25 38V38.1H21.35V38H21.25ZM21.25 37.25V37.15H21.15V37.25H21.25ZM21.75 37.25H21.85V37.15H21.75V37.25ZM21.75 38H21.65V38.1H21.75V38ZM23.25 39.5H23.15V39.6H23.25V39.5ZM24 39.5H24.1V39.4H24V39.5ZM24 40V40.1H24.1V40H24ZM23.25 40V39.9H23.15V40H23.25ZM23.25 41H23.15V41.1H23.25V41ZM24 41H24.1V40.9H24V41ZM24 41.5V41.6H24.1V41.5H24ZM23.25 41.5V41.4H23.15V41.5H23.25ZM23.25 43H23.15V43.1H23.25V43ZM24 43H24.1V42.9H24V43ZM24 43.5V43.6H24.1V43.5H24ZM23.25 43.5V43.4H23.15V43.5H23.25ZM23.25 44.5H23.15V44.6H23.25V44.5ZM24 44.5H24.1V44.4H24V44.5ZM24 45V45.1H24.1V45H24ZM23.25 45V44.9H23.15V45H23.25ZM21.75 46.5V46.4H21.65V46.5H21.75ZM21.75 47.25V47.35H21.85V47.25H21.75ZM21.25 47.25H21.15V47.35H21.25V47.25ZM21.25 46.5H21.35V46.4H21.25V46.5ZM20.25 46.5V46.4H20.15V46.5H20.25ZM20.25 47.25V47.35H20.35V47.25H20.25ZM19.75 47.25H19.65V47.35H19.75V47.25ZM19.75 46.5H19.85V46.4H19.75V46.5ZM18.25 46.5V46.4H18.15V46.5H18.25ZM18.25 47.25V47.35H18.35V47.25H18.25ZM17.75 47.25H17.65V47.35H17.75V47.25ZM17.75 46.5H17.85V46.4H17.75V46.5ZM16.75 46.5V46.4H16.65V46.5H16.75ZM16.75 47.25V47.35H16.85V47.25H16.75ZM16.25 47.25H16.15V47.35H16.25V47.25ZM16.25 46.5H16.35V46.4H16.25V46.5ZM14.75 45H14.85V44.9H14.75V45ZM14 45H13.9V45.1H14V45ZM14 44.5V44.4H13.9V44.5H14ZM14.75 44.5V44.6H14.85V44.5H14.75ZM14.75 43.5H14.85V43.4H14.75V43.5ZM14 43.5H13.9V43.6H14V43.5ZM14 43V42.9H13.9V43H14ZM14.75 43V43.1H14.85V43H14.75ZM14.75 41.5H14.85V41.4H14.75V41.5ZM14 41.5H13.9V41.6H14V41.5ZM14 41V40.9H13.9V41H14ZM14.75 41V41.1H14.85V41H14.75ZM14.75 40H14.85V39.9H14.75V40ZM14 40H13.9V40.1H14V40ZM14 39.5V39.4H13.9V39.5H14ZM14.75 39.5V39.6H14.85V39.5H14.75ZM17 38.5H17.1V38.4H17V38.5ZM17 39.8661L17.0722 39.9352L17.1 39.9062V39.8661H17ZM16.6782 40.2023L16.606 40.1331H16.606L16.6782 40.2023ZM16.6789 41.2975L16.6067 41.3668L16.6789 41.2975ZM17.8211 41.2975L17.8933 41.3668L17.8211 41.2975ZM17.8218 40.2023L17.7495 40.2714H17.7495L17.8218 40.2023ZM17.5 39.8661H17.4V39.9062L17.4278 39.9352L17.5 39.8661ZM17.5 38.5V38.4H17.4V38.5H17.5ZM18.25 46H18.15V46.1H18.25V46ZM18.7628 44.7592L18.7945 44.8541H18.7945L18.7628 44.7592ZM19.4325 44.536L19.5032 44.4653L19.4595 44.4216L19.4009 44.4412L19.4325 44.536ZM19.5327 44.6362L19.4619 44.7069H19.4619L19.5327 44.6362ZM20.4673 44.6362L20.5381 44.7069L20.4673 44.6362ZM19.4088 43.8733L19.3194 43.8286L19.4088 43.8733ZM19.3227 44.0456L19.3543 44.1404L19.3936 44.1273L19.4121 44.0903L19.3227 44.0456ZM18.6047 44.2849L18.5731 44.19H18.5731L18.6047 44.2849ZM17.75 46V46.1H17.85V46H17.75ZM17.25 40.328L17.3222 40.2589L17.25 40.1834L17.1778 40.2589L17.25 40.328ZM17.0394 40.548L17.1117 40.6171H17.1117L17.0394 40.548ZM17.4606 40.548L17.3883 40.6171H17.3883L17.4606 40.548ZM17.4603 40.9514L17.5325 41.0206H17.5325L17.4603 40.9514ZM17.0397 40.9514L16.9675 41.0206H16.9675L17.0397 40.9514ZM19.8042 44.2006L19.7147 44.1559L19.6825 44.2204L19.7335 44.2713L19.8042 44.2006ZM19.8862 44.2827L19.9569 44.2119L19.9569 44.2119L19.8862 44.2827ZM19.8561 44.0969L19.9455 44.1416L19.8561 44.0969ZM20.1439 44.0969L20.0545 44.1416H20.0545L20.1439 44.0969ZM20.1138 44.2827L20.1845 44.3534L20.1138 44.2827ZM19.9344 41.1115L20.0187 41.0576L19.9344 41.1115ZM19.9341 40.3886L20.0184 40.4424L19.9341 40.3886ZM21.0656 41.1115L20.9813 41.0576L21.0656 41.1115ZM21.0659 40.3886L21.1502 40.3348L21.0659 40.3886ZM45.6768 27.9268L45.7475 27.9975V27.9975L45.6768 27.9268ZM46.3232 27.9268L46.2525 27.9975L46.3232 27.9268ZM45.6768 28.5732L45.7475 28.5025L45.6768 28.5732ZM46 28.8964L45.9293 28.9672L46 29.0379L46.0707 28.9672L46 28.8964ZM46.3232 28.5732L46.2525 28.5025L46.3232 28.5732ZM44.8536 35.25L44.7828 35.1793L44.7121 35.25L44.7828 35.3207L44.8536 35.25ZM46.5303 35.8661L46.4596 35.7954L46.5303 35.8661ZM46.6161 34.7197L46.6868 34.649L46.6161 34.7197ZM46.5303 34.6339L46.4596 34.7046L46.5303 34.6339ZM45.0614 42.3586L44.9782 42.3031H44.9782L45.0614 42.3586ZM45.5 41.7007L45.5832 41.6452L45.5 41.5204L45.4168 41.6452L45.5 41.7007ZM45.9386 42.3586L46.0218 42.3031L45.9386 42.3586ZM43 21.5H42.9V21.6H43V21.5ZM43.75 22.75H43.65V22.85H43.75V22.75ZM44.25 22.75V22.85H44.35V22.75H44.25ZM43 21V20.9H42.9V21H43ZM16.25 21.25H16.35V21.15H16.25V21.25ZM16.25 22.75V22.85H16.35V22.75H16.25ZM15.75 21.25V21.15H15.65V21.25H15.75ZM15.75 22.75H15.65V22.85H15.75V22.75ZM16.25 24.25H16.35V24.15H16.25V24.25ZM16.25 25.75V25.85H16.35V25.75H16.25ZM15.75 24.25V24.15H15.65V24.25H15.75ZM15.75 25.75H15.65V25.85H15.75V25.75ZM43.75 24.25V24.15H43.65V24.25H43.75ZM44.25 24.25H44.35V24.15H44.25V24.25ZM43.75 25.75H43.65V25.85H43.75V25.75ZM44.25 25.75V25.85H44.35V25.75H44.25ZM16.25 27.25H16.35V27.15H16.25V27.25ZM16.25 28.75V28.85H16.35V28.75H16.25ZM15.75 27.25V27.15H15.65V27.25H15.75ZM15.75 28.75H15.65V28.85H15.75V28.75ZM16.25 30.25H16.35V30.15H16.25V30.25ZM16.25 31.75V31.85H16.35V31.75H16.25ZM15.75 30.25V30.15H15.65V30.25H15.75ZM15.75 31.75H15.65V31.85H15.75V31.75ZM16.25 32.75H16.35V32.65H16.25V32.75ZM16.25 34.25V34.35H16.35V34.25H16.25ZM15.75 32.75V32.65H15.65V32.75H15.75ZM15.75 34.25H15.65V34.35H15.75V34.25ZM27.5 43V43.1H27.6V43H27.5ZM26 43H25.9V43.1H26V43ZM27.5 42.5H27.6V42.4H27.5V42.5ZM26 42.5V42.4H25.9V42.5H26ZM30 43V43.1H30.1V43H30ZM28.5 43H28.4V43.1H28.5V43ZM30 42.5H30.1V42.4H30V42.5ZM28.5 42.5V42.4H28.4V42.5H28.5ZM18.5 14.9C17.7544 14.9 17.15 15.5044 17.15 16.25H17.35C17.35 15.6149 17.8649 15.1 18.5 15.1V14.9ZM38.5 14.9H18.5V15.1H38.5V14.9ZM39.85 16.25C39.85 15.5044 39.2456 14.9 38.5 14.9V15.1C39.1351 15.1 39.65 15.6149 39.65 16.25H39.85ZM39.85 21V16.25H39.65V21H39.85ZM39.75 21.1H41.5V20.9H39.75V21.1ZM41.4 21V21.5H41.6V21H41.4ZM41.5 21.4H39.75V21.6H41.5V21.4ZM39.85 25V21.5H39.65V25H39.85ZM41.5 24.9H39.75V25.1H41.5V24.9ZM42.85 26.25C42.85 25.5044 42.2456 24.9 41.5 24.9V25.1C42.1351 25.1 42.65 25.6149 42.65 26.25H42.85ZM42.85 31V26.25H42.65V31H42.85ZM45 30.9H42.75V31.1H45V30.9ZM45.65 30.25C45.65 30.609 45.359 30.9 45 30.9V31.1C45.4694 31.1 45.85 30.7194 45.85 30.25H45.65ZM45.65 29.3536V30.25H45.85V29.3536H45.65ZM45.2525 28.9975L45.6793 29.4243L45.8207 29.2828L45.3939 28.8561L45.2525 28.9975ZM45.2525 27.5025C44.8397 27.9153 44.8397 28.5847 45.2525 28.9975L45.3939 28.8561C45.0592 28.5213 45.0592 27.9787 45.3939 27.6439L45.2525 27.5025ZM46.7475 27.5025C46.3347 27.0897 45.6653 27.0897 45.2525 27.5025L45.3939 27.6439C45.7287 27.3092 46.2713 27.3092 46.6061 27.6439L46.7475 27.5025ZM46.7475 28.9975C47.1603 28.5847 47.1603 27.9153 46.7475 27.5025L46.6061 27.6439C46.9408 27.9787 46.9408 28.5213 46.6061 28.8561L46.7475 28.9975ZM46.3207 29.4243L46.7475 28.9975L46.6061 28.8561L46.1793 29.2828L46.3207 29.4243ZM46.35 30.25V29.3536H46.15V30.25H46.35ZM45 31.6C45.7456 31.6 46.35 30.9956 46.35 30.25H46.15C46.15 30.8851 45.6351 31.4 45 31.4V31.6ZM42.75 31.6H45V31.4H42.75V31.6ZM42.85 35V31.5H42.65V35H42.85ZM44.3964 34.9H42.75V35.1H44.3964V34.9ZM45.0454 34.2096L44.3257 34.9293L44.4672 35.0707L45.1868 34.351L45.0454 34.2096ZM46.9546 34.2096C46.4274 33.6824 45.5726 33.6824 45.0454 34.2096L45.1868 34.351C45.6359 33.9019 46.3641 33.9019 46.8132 34.351L46.9546 34.2096ZM47.0404 34.2954L46.9546 34.2096L46.8132 34.351L46.899 34.4368L47.0404 34.2954ZM47.0404 36.2046C47.5676 35.6774 47.5676 34.8226 47.0404 34.2954L46.899 34.4368C47.3481 34.8859 47.3481 35.6141 46.899 36.0632L47.0404 36.2046ZM46.9546 36.2904L47.0404 36.2046L46.899 36.0632L46.8132 36.149L46.9546 36.2904ZM45.0454 36.2904C45.5726 36.8176 46.4274 36.8176 46.9546 36.2904L46.8132 36.149C46.3641 36.5981 45.6359 36.5981 45.1868 36.149L45.0454 36.2904ZM44.3257 35.5707L45.0454 36.2904L45.1868 36.149L44.4672 35.4293L44.3257 35.5707ZM42.75 35.6H44.3964V35.4H42.75V35.6ZM42.85 39V35.5H42.65V39H42.85ZM44.5 38.9H42.75V39.1H44.5V38.9ZM45.85 40.25C45.85 39.5044 45.2456 38.9 44.5 38.9V39.1C45.1351 39.1 45.65 39.6149 45.65 40.25H45.85ZM45.85 41.1743V40.25H45.65V41.1743H45.85ZM46.4378 42.0258L45.8332 41.1188L45.6668 41.2298L46.2714 42.1367L46.4378 42.0258ZM46.297 43.448C46.6769 43.0681 46.7359 42.4728 46.4378 42.0258L46.2714 42.1367C46.5166 42.5044 46.4681 42.9941 46.1556 43.3066L46.297 43.448ZM44.703 43.448C45.1432 43.8881 45.8568 43.8881 46.297 43.448L46.1556 43.3066C45.7935 43.6686 45.2065 43.6686 44.8444 43.3066L44.703 43.448ZM44.5622 42.0258C44.2641 42.4728 44.3231 43.0681 44.703 43.448L44.8444 43.3066C44.5319 42.9941 44.4834 42.5044 44.7286 42.1367L44.5622 42.0258ZM45.1668 41.1188L44.5622 42.0258L44.7286 42.1367L45.3332 41.2298L45.1668 41.1188ZM45.15 40.25V41.1743H45.35V40.25H45.15ZM44.5 39.6C44.859 39.6 45.15 39.891 45.15 40.25H45.35C45.35 39.7806 44.9694 39.4 44.5 39.4V39.6ZM42.75 39.6H44.5V39.4H42.75V39.6ZM42.85 44.25V39.5H42.65V44.25H42.85ZM41.5 45.6C42.2456 45.6 42.85 44.9956 42.85 44.25H42.65C42.65 44.8851 42.1351 45.4 41.5 45.4V45.6ZM33 45.6H41.5V45.4H33V45.6ZM31.65 44.25C31.65 44.9956 32.2544 45.6 33 45.6V45.4C32.3649 45.4 31.85 44.8851 31.85 44.25H31.65ZM31.65 35.5V44.25H31.85V35.5H31.65ZM25 35.6H31.75V35.4H25V35.6ZM18.5 35.6H25V35.4H18.5V35.6ZM17.15 34.25C17.15 34.9956 17.7544 35.6 18.5 35.6V35.4C17.8649 35.4 17.35 34.8851 17.35 34.25H17.15ZM17.15 22.25V34.25H17.35V22.25H17.15ZM17.15 16.25V22.25H17.35V16.25H17.15ZM31.75 34.9H25.25V35.1H31.75V34.9ZM31.65 33V35H31.85V33H31.65ZM25.25 33.1H31.75V32.9H25.25V33.1ZM25.35 35V33H25.15V35H25.35ZM24.65 32.75V35H24.85V32.75H24.65ZM24.65 30.25V32.75H24.85V30.25H24.65ZM24.65 27.25V30.25H24.85V27.25H24.65ZM24.65 23.25V27.25H24.85V23.25H24.65ZM24.1278 22.6125C24.4256 22.6718 24.65 22.9348 24.65 23.25H24.85C24.85 22.8376 24.5564 22.494 24.1668 22.4164L24.1278 22.6125ZM23.813 23.4065L24.2367 22.5592L24.0578 22.4697L23.6342 23.3171L23.813 23.4065ZM23.744 23.5447L23.813 23.4065L23.6342 23.3171L23.5651 23.4553L23.744 23.5447ZM23.5 23.6H23.6545V23.4H23.5V23.6ZM19.5 23.6H23.5V23.4H19.5V23.6ZM19.3455 23.6H19.5V23.4H19.3455V23.6ZM19.187 23.4065L19.256 23.5447L19.4349 23.4553L19.3658 23.3171L19.187 23.4065ZM18.756 22.5447L19.187 23.4065L19.3658 23.3171L18.9349 22.4553L18.756 22.5447ZM17.75 22.6H18.8455V22.4H17.75V22.6ZM17.85 34.25V22.5H17.65V34.25H17.85ZM18.5 34.9C18.141 34.9 17.85 34.609 17.85 34.25H17.65C17.65 34.7194 18.0306 35.1 18.5 35.1V34.9ZM24.75 34.9H18.5V35.1H24.75V34.9ZM23.5955 22.4H19.4045V22.6H23.5955V22.4ZM23.4349 23.0447L23.6849 22.5447L23.506 22.4553L23.256 22.9553L23.4349 23.0447ZM19.6545 23.1H23.3455V22.9H19.6545V23.1ZM19.3151 22.5447L19.5651 23.0447L19.744 22.9553L19.494 22.4553L19.3151 22.5447ZM18.75 21.9H17.75V22.1H18.75V21.9ZM18.65 16.75V22H18.85V16.75H18.65ZM18.65 16.5V16.75H18.85V16.5H18.65ZM19 16.4H18.75V16.6H19V16.4ZM38.5 16.4H19V16.6H38.5V16.4ZM38.75 16.4H38.5V16.6H38.75V16.4ZM38.85 16.75V16.5H38.65V16.75H38.85ZM38.85 25V16.75H38.65V25H38.85ZM39.25 24.9H38.75V25.1H39.25V24.9ZM39.15 16.25V25H39.35V16.25H39.15ZM38.5 15.6C38.859 15.6 39.15 15.891 39.15 16.25H39.35C39.35 15.7806 38.9694 15.4 38.5 15.4V15.6ZM18.5 15.6H38.5V15.4H18.5V15.6ZM17.85 16.25C17.85 15.891 18.141 15.6 18.5 15.6V15.4C18.0306 15.4 17.65 15.7806 17.65 16.25H17.85ZM17.85 22V16.25H17.65V22H17.85ZM38.15 17V25H38.35V17H38.15ZM19.25 17.1H38.25V16.9H19.25V17.1ZM19.35 22V17H19.15V22H19.35ZM24 21.9H19.25V22.1H24V21.9ZM25.35 23.25C25.35 22.5044 24.7456 21.9 24 21.9V22.1C24.6351 22.1 25.15 22.6149 25.15 23.25H25.35ZM25.35 27V23.25H25.15V27H25.35ZM31.75 26.9H25.25V27.1H31.75V26.9ZM31.65 26.25V27H31.85V26.25H31.65ZM33 24.9C32.2544 24.9 31.65 25.5044 31.65 26.25H31.85C31.85 25.6149 32.3649 25.1 33 25.1V24.9ZM38.25 24.9H33V25.1H38.25V24.9ZM25.25 27.6H31.75V27.4H25.25V27.6ZM25.35 30V27.5H25.15V30H25.35ZM31.75 29.9H25.25V30.1H31.75V29.9ZM31.65 27.5V30H31.85V27.5H31.65ZM25.25 30.6H31.75V30.4H25.25V30.6ZM25.35 32.5V30.5H25.15V32.5H25.35ZM31.75 32.4H25.25V32.6H31.75V32.4ZM31.65 30.5V32.5H31.85V30.5H31.65ZM32.35 26.25C32.35 25.891 32.641 25.6 33 25.6V25.4C32.5306 25.4 32.15 25.7806 32.15 26.25H32.35ZM32.35 27.25V26.25H32.15V27.25H32.35ZM32.35 30.25V27.25H32.15V30.25H32.35ZM32.35 32.75V30.25H32.15V32.75H32.35ZM32.35 35.25V32.75H32.15V35.25H32.35ZM32.35 44.25V35.25H32.15V44.25H32.35ZM33 44.9C32.641 44.9 32.35 44.609 32.35 44.25H32.15C32.15 44.7194 32.5306 45.1 33 45.1V44.9ZM41.5 44.9H33V45.1H41.5V44.9ZM42.15 44.25C42.15 44.609 41.859 44.9 41.5 44.9V45.1C41.9694 45.1 42.35 44.7194 42.35 44.25H42.15ZM42.15 26.25V44.25H42.35V26.25H42.15ZM41.5 25.6C41.859 25.6 42.15 25.891 42.15 26.25H42.35C42.35 25.7806 41.9694 25.4 41.5 25.4V25.6ZM39.5 25.6H41.5V25.4H39.5V25.6ZM38.5 25.6H39.5V25.4H38.5V25.6ZM33 25.6H38.5V25.4H33V25.6ZM20.35 34C20.35 33.7791 20.5291 33.6 20.75 33.6V33.4C20.4186 33.4 20.15 33.6686 20.15 34H20.35ZM20.75 34.4C20.5291 34.4 20.35 34.2209 20.35 34H20.15C20.15 34.3314 20.4186 34.6 20.75 34.6V34.4ZM22.25 34.4H20.75V34.6H22.25V34.4ZM22.65 34C22.65 34.2209 22.4709 34.4 22.25 34.4V34.6C22.5814 34.6 22.85 34.3314 22.85 34H22.65ZM22.25 33.6C22.4709 33.6 22.65 33.7791 22.65 34H22.85C22.85 33.6686 22.5814 33.4 22.25 33.4V33.6ZM20.75 33.6H22.25V33.4H20.75V33.6ZM35.5 27.4C34.7544 27.4 34.15 28.0044 34.15 28.75H34.35C34.35 28.1149 34.8649 27.6 35.5 27.6V27.4ZM39.5 27.4H35.5V27.6H39.5V27.4ZM40.85 28.75C40.85 28.0044 40.2456 27.4 39.5 27.4V27.6C40.1351 27.6 40.65 28.1149 40.65 28.75H40.85ZM40.85 30.75V28.75H40.65V30.75H40.85ZM40.85 33.25V30.75H40.65V33.25H40.85ZM40.85 36.25V33.25H40.65V36.25H40.85ZM40.85 38.25V36.25H40.65V38.25H40.85ZM39.5 39.6C40.2456 39.6 40.85 38.9956 40.85 38.25H40.65C40.65 38.8851 40.1351 39.4 39.5 39.4V39.6ZM35.5 39.6H39.5V39.4H35.5V39.6ZM34.15 38.25C34.15 38.9956 34.7544 39.6 35.5 39.6V39.4C34.8649 39.4 34.35 38.8851 34.35 38.25H34.15ZM34.15 36.25V38.25H34.35V36.25H34.15ZM34.15 33.25V36.25H34.35V33.25H34.15ZM34.15 30.75V33.25H34.35V30.75H34.15ZM34.15 28.75V30.75H34.35V28.75H34.15ZM34.85 28.75C34.85 28.391 35.141 28.1 35.5 28.1V27.9C35.0306 27.9 34.65 28.2806 34.65 28.75H34.85ZM34.85 30.5V28.75H34.65V30.5H34.85ZM40.25 30.4H34.75V30.6H40.25V30.4ZM40.15 28.75V30.5H40.35V28.75H40.15ZM39.5 28.1C39.859 28.1 40.15 28.391 40.15 28.75H40.35C40.35 28.2806 39.9694 27.9 39.5 27.9V28.1ZM35.5 28.1H39.5V27.9H35.5V28.1ZM34.75 31.1H40.25V30.9H34.75V31.1ZM34.85 33V31H34.65V33H34.85ZM40.25 32.9H34.75V33.1H40.25V32.9ZM40.15 31V33H40.35V31H40.15ZM34.75 33.6H40.25V33.4H34.75V33.6ZM34.85 36V33.5H34.65V36H34.85ZM40.25 35.9H34.75V36.1H40.25V35.9ZM40.15 33.5V36H40.35V33.5H40.15ZM34.75 36.6H40.25V36.4H34.75V36.6ZM34.85 38.25V36.5H34.65V38.25H34.85ZM35.5 38.9C35.141 38.9 34.85 38.609 34.85 38.25H34.65C34.65 38.7194 35.0306 39.1 35.5 39.1V38.9ZM39.5 38.9H35.5V39.1H39.5V38.9ZM40.15 38.25C40.15 38.609 39.859 38.9 39.5 38.9V39.1C39.9694 39.1 40.35 38.7194 40.35 38.25H40.15ZM40.15 36.5V38.25H40.35V36.5H40.15ZM16.25 37.9H16V38.1H16.25V37.9ZM16.15 37.25V38H16.35V37.25H16.15ZM16.75 37.15H16.25V37.35H16.75V37.15ZM16.85 38V37.25H16.65V38H16.85ZM17.25 37.9H16.75V38.1H17.25V37.9ZM17.75 37.9H17.25V38.1H17.75V37.9ZM17.65 37.25V38H17.85V37.25H17.65ZM18.25 37.15H17.75V37.35H18.25V37.15ZM18.35 38V37.25H18.15V38H18.35ZM19.75 37.9H18.25V38.1H19.75V37.9ZM19.65 37.25V38H19.85V37.25H19.65ZM20.25 37.15H19.75V37.35H20.25V37.15ZM20.35 38V37.25H20.15V38H20.35ZM20.5 37.9H20.25V38.1H20.5V37.9ZM21.25 37.9H20.5V38.1H21.25V37.9ZM21.15 37.25V38H21.35V37.25H21.15ZM21.75 37.15H21.25V37.35H21.75V37.15ZM21.85 38V37.25H21.65V38H21.85ZM22 37.9H21.75V38.1H22V37.9ZM23.35 39.25C23.35 38.5044 22.7456 37.9 22 37.9V38.1C22.6351 38.1 23.15 38.6149 23.15 39.25H23.35ZM23.35 39.5V39.25H23.15V39.5H23.35ZM24 39.4H23.25V39.6H24V39.4ZM24.1 40V39.5H23.9V40H24.1ZM23.25 40.1H24V39.9H23.25V40.1ZM23.35 40.75V40H23.15V40.75H23.35ZM23.35 41V40.75H23.15V41H23.35ZM24 40.9H23.25V41.1H24V40.9ZM24.1 41.5V41H23.9V41.5H24.1ZM23.25 41.6H24V41.4H23.25V41.6ZM23.35 43V41.5H23.15V43H23.35ZM24 42.9H23.25V43.1H24V42.9ZM24.1 43.5V43H23.9V43.5H24.1ZM23.25 43.6H24V43.4H23.25V43.6ZM23.35 44.25V43.5H23.15V44.25H23.35ZM23.35 44.5V44.25H23.15V44.5H23.35ZM24 44.4H23.25V44.6H24V44.4ZM24.1 45V44.5H23.9V45H24.1ZM23.25 45.1H24V44.9H23.25V45.1ZM23.35 45.25V45H23.15V45.25H23.35ZM22 46.6C22.7456 46.6 23.35 45.9956 23.35 45.25H23.15C23.15 45.8851 22.6351 46.4 22 46.4V46.6ZM21.75 46.6H22V46.4H21.75V46.6ZM21.85 47.25V46.5H21.65V47.25H21.85ZM21.25 47.35H21.75V47.15H21.25V47.35ZM21.15 46.5V47.25H21.35V46.5H21.15ZM20.25 46.6H21.25V46.4H20.25V46.6ZM20.35 47.25V46.5H20.15V47.25H20.35ZM19.75 47.35H20.25V47.15H19.75V47.35ZM19.65 46.5V47.25H19.85V46.5H19.65ZM18.25 46.6H19.75V46.4H18.25V46.6ZM18.35 47.25V46.5H18.15V47.25H18.35ZM17.75 47.35H18.25V47.15H17.75V47.35ZM17.65 46.5V47.25H17.85V46.5H17.65ZM16.75 46.6H17.75V46.4H16.75V46.6ZM16.85 47.25V46.5H16.65V47.25H16.85ZM16.25 47.35H16.75V47.15H16.25V47.35ZM16.15 46.5V47.25H16.35V46.5H16.15ZM16 46.6H16.25V46.4H16V46.6ZM14.65 45.25C14.65 45.9956 15.2544 46.6 16 46.6V46.4C15.3649 46.4 14.85 45.8851 14.85 45.25H14.65ZM14.65 45V45.25H14.85V45H14.65ZM14 45.1H14.75V44.9H14V45.1ZM13.9 44.5V45H14.1V44.5H13.9ZM14.75 44.4H14V44.6H14.75V44.4ZM14.65 43.5V44.5H14.85V43.5H14.65ZM14 43.6H14.75V43.4H14V43.6ZM13.9 43V43.5H14.1V43H13.9ZM14.75 42.9H14V43.1H14.75V42.9ZM14.65 41.5V43H14.85V41.5H14.65ZM14 41.6H14.75V41.4H14V41.6ZM13.9 41V41.5H14.1V41H13.9ZM14.75 40.9H14V41.1H14.75V40.9ZM14.65 40V41H14.85V40H14.65ZM14 40.1H14.75V39.9H14V40.1ZM13.9 39.5V40H14.1V39.5H13.9ZM14.75 39.4H14V39.6H14.75V39.4ZM14.65 39.25V39.5H14.85V39.25H14.65ZM16 37.9C15.2544 37.9 14.65 38.5044 14.65 39.25H14.85C14.85 38.6149 15.3649 38.1 16 38.1V37.9ZM16 38.4C15.5306 38.4 15.15 38.7806 15.15 39.25H15.35C15.35 38.891 15.641 38.6 16 38.6V38.4ZM16.5 38.4H16V38.6H16.5V38.4ZM17 38.4H16.5V38.6H17V38.4ZM17.1 39.8661V38.5H16.9V39.8661H17.1ZM16.7505 40.2714L17.0722 39.9352L16.9278 39.7969L16.606 40.1331L16.7505 40.2714ZM16.751 41.2283C16.4946 40.961 16.4943 40.539 16.7505 40.2714L16.606 40.1331C16.2757 40.4781 16.2761 41.0221 16.6067 41.3668L16.751 41.2283ZM17.749 41.2283C17.4768 41.512 17.0232 41.512 16.751 41.2283L16.6067 41.3668C16.9576 41.7325 17.5424 41.7325 17.8933 41.3668L17.749 41.2283ZM17.7495 40.2714C18.0057 40.539 18.0054 40.961 17.749 41.2283L17.8933 41.3668C18.2239 41.0221 18.2243 40.4781 17.894 40.1331L17.7495 40.2714ZM17.4278 39.9352L17.7495 40.2714L17.894 40.1331L17.5722 39.7969L17.4278 39.9352ZM17.4 38.5V39.8661H17.6V38.5H17.4ZM18 38.4H17.5V38.6H18V38.4ZM20 38.4H18V38.6H20V38.4ZM20.5 38.4H20V38.6H20.5V38.4ZM21.5 38.4H20.5V38.6H21.5V38.4ZM22 38.4H21.5V38.6H22V38.4ZM22.85 39.25C22.85 38.7806 22.4694 38.4 22 38.4V38.6C22.359 38.6 22.65 38.891 22.65 39.25H22.85ZM22.85 39.75V39.25H22.65V39.75H22.85ZM22.85 40.75V39.75H22.65V40.75H22.85ZM22.85 41.25V40.75H22.65V41.25H22.85ZM22.85 43.25V41.25H22.65V43.25H22.85ZM22.85 44.25V43.25H22.65V44.25H22.85ZM22.85 44.75V44.25H22.65V44.75H22.85ZM22.85 45.25V44.75H22.65V45.25H22.85ZM22 46.1C22.4694 46.1 22.85 45.7194 22.85 45.25H22.65C22.65 45.609 22.359 45.9 22 45.9V46.1ZM21.5 46.1H22V45.9H21.5V46.1ZM20 46.1H21.5V45.9H20V46.1ZM18.25 46.1H20V45.9H18.25V46.1ZM18.15 45.4708V46H18.35V45.4708H18.15ZM18.7312 44.6644C18.3841 44.7801 18.15 45.1049 18.15 45.4708H18.35C18.35 45.191 18.529 44.9426 18.7945 44.8541L18.7312 44.6644ZM19.4009 44.4412L18.7312 44.6644L18.7945 44.8541L19.4641 44.6309L19.4009 44.4412ZM19.6034 44.5655L19.5032 44.4653L19.3618 44.6067L19.4619 44.7069L19.6034 44.5655ZM20.3966 44.5655C20.1776 44.7846 19.8224 44.7846 19.6034 44.5655L19.4619 44.7069C19.7591 45.0041 20.2409 45.0041 20.5381 44.7069L20.3966 44.5655ZM20.5017 43.918C20.6097 44.134 20.5674 44.3948 20.3966 44.5655L20.5381 44.7069C20.7697 44.4753 20.8271 44.1215 20.6806 43.8286L20.5017 43.918ZM19.4983 43.918C19.705 43.5046 20.295 43.5046 20.5017 43.918L20.6806 43.8286C20.4002 43.2677 19.5998 43.2677 19.3194 43.8286L19.4983 43.918ZM19.4121 44.0903L19.4983 43.918L19.3194 43.8286L19.2333 44.0009L19.4121 44.0903ZM18.6363 44.3798L19.3543 44.1404L19.2911 43.9507L18.5731 44.19L18.6363 44.3798ZM17.85 45.4708C17.85 44.9758 18.1667 44.5363 18.6363 44.3798L18.5731 44.19C18.0218 44.3738 17.65 44.8897 17.65 45.4708H17.85ZM17.85 46V45.4708H17.65V46H17.85ZM16.5 46.1H17.75V45.9H16.5V46.1ZM16 46.1H16.5V45.9H16V46.1ZM15.15 45.25C15.15 45.7194 15.5306 46.1 16 46.1V45.9C15.641 45.9 15.35 45.609 15.35 45.25H15.15ZM15.15 44.75V45.25H15.35V44.75H15.15ZM15.15 43.25V44.75H15.35V43.25H15.15ZM15.15 41.25V43.25H15.35V41.25H15.15ZM15.15 39.75V41.25H15.35V39.75H15.15ZM15.15 39.25V39.75H15.35V39.25H15.15ZM17.1778 40.2589L16.9672 40.4788L17.1117 40.6171L17.3222 40.3972L17.1778 40.2589ZM17.5328 40.4788L17.3222 40.2589L17.1778 40.3972L17.3883 40.6171L17.5328 40.4788ZM17.5325 41.0206C17.6777 40.8693 17.6778 40.6304 17.5328 40.4788L17.3883 40.6171C17.4593 40.6913 17.4592 40.8081 17.3882 40.8821L17.5325 41.0206ZM16.9675 41.0206C17.1216 41.1812 17.3784 41.1812 17.5325 41.0206L17.3882 40.8821C17.3128 40.9607 17.1872 40.9607 17.1118 40.8821L16.9675 41.0206ZM16.9672 40.4788C16.8222 40.6304 16.8223 40.8693 16.9675 41.0206L17.1118 40.8821C17.0408 40.8081 17.0407 40.6913 17.1117 40.6171L16.9672 40.4788ZM19.7335 44.2713L19.8155 44.3534L19.9569 44.2119L19.8749 44.1299L19.7335 44.2713ZM19.7666 44.0522L19.7147 44.1559L19.8936 44.2454L19.9455 44.1416L19.7666 44.0522ZM20.2334 44.0522C20.1372 43.8599 19.8628 43.8599 19.7666 44.0522L19.9455 44.1416C19.968 44.0967 20.032 44.0967 20.0545 44.1416L20.2334 44.0522ZM20.1845 44.3534C20.2639 44.2739 20.2836 44.1526 20.2334 44.0522L20.0545 44.1416C20.0662 44.1651 20.0616 44.1934 20.0431 44.2119L20.1845 44.3534ZM19.8155 44.3534C19.9174 44.4553 20.0826 44.4553 20.1845 44.3534L20.0431 44.2119C20.0193 44.2357 19.9807 44.2357 19.9569 44.2119L19.8155 44.3534ZM20.0187 41.0576C19.8988 40.8701 19.8986 40.63 20.0184 40.4424L19.8498 40.3348C19.6881 40.5881 19.6883 40.9122 19.8502 41.1654L20.0187 41.0576ZM20.9813 41.0576C20.7566 41.4089 20.2434 41.4089 20.0187 41.0576L19.8502 41.1654C20.1536 41.6397 20.8464 41.6397 21.1498 41.1654L20.9813 41.0576ZM20.9816 40.4424C21.1014 40.63 21.1012 40.8701 20.9813 41.0576L21.1498 41.1654C21.3117 40.9122 21.3119 40.5881 21.1502 40.3348L20.9816 40.4424ZM20.0184 40.4424C20.243 40.0904 20.757 40.0904 20.9816 40.4424L21.1502 40.3348C20.847 39.8596 20.153 39.8596 19.8498 40.3348L20.0184 40.4424ZM45.7475 27.9975C45.8869 27.858 46.1131 27.858 46.2525 27.9975L46.3939 27.8561C46.1764 27.6385 45.8236 27.6385 45.6061 27.8561L45.7475 27.9975ZM45.7475 28.5025C45.608 28.3631 45.608 28.1369 45.7475 27.9975L45.6061 27.8561C45.3885 28.0736 45.3885 28.4264 45.6061 28.6439L45.7475 28.5025ZM46.0707 28.8257L45.7475 28.5025L45.6061 28.6439L45.9293 28.9672L46.0707 28.8257ZM46.2525 28.5025L45.9293 28.8257L46.0707 28.9672L46.3939 28.6439L46.2525 28.5025ZM46.2525 27.9975C46.392 28.1369 46.392 28.3631 46.2525 28.5025L46.3939 28.6439C46.6115 28.4264 46.6115 28.0736 46.3939 27.8561L46.2525 27.9975ZM45.5404 35.7954L44.9243 35.1793L44.7828 35.3207L45.399 35.9368L45.5404 35.7954ZM46.4596 35.7954C46.2058 36.0492 45.7942 36.0492 45.5404 35.7954L45.399 35.9368C45.7309 36.2688 46.2691 36.2688 46.601 35.9368L46.4596 35.7954ZM46.5454 35.7096L46.4596 35.7954L46.601 35.9368L46.6868 35.851L46.5454 35.7096ZM46.5454 34.7904C46.7992 35.0442 46.7992 35.4558 46.5454 35.7096L46.6868 35.851C47.0188 35.5191 47.0188 34.9809 46.6868 34.649L46.5454 34.7904ZM46.4596 34.7046L46.5454 34.7904L46.6868 34.649L46.601 34.5632L46.4596 34.7046ZM45.5404 34.7046C45.7942 34.4508 46.2058 34.4508 46.4596 34.7046L46.601 34.5632C46.2691 34.2312 45.7309 34.2312 45.399 34.5632L45.5404 34.7046ZM44.9243 35.3207L45.5404 34.7046L45.399 34.5632L44.7828 35.1793L44.9243 35.3207ZM45.1446 42.4141L45.5832 41.7562L45.4168 41.6452L44.9782 42.3031L45.1446 42.4141ZM45.198 42.953C45.054 42.809 45.0317 42.5835 45.1446 42.4141L44.9782 42.3031C44.8124 42.5518 44.8452 42.883 45.0566 43.0944L45.198 42.953ZM45.802 42.953C45.6352 43.1198 45.3648 43.1198 45.198 42.953L45.0566 43.0944C45.3015 43.3393 45.6985 43.3393 45.9434 43.0944L45.802 42.953ZM45.8554 42.4141C45.9683 42.5835 45.946 42.809 45.802 42.953L45.9434 43.0944C46.1548 42.883 46.1876 42.5518 46.0218 42.3031L45.8554 42.4141ZM45.4168 41.7562L45.8554 42.4141L46.0218 42.3031L45.5832 41.6452L45.4168 41.7562ZM43.85 22.25C43.85 21.7806 43.4694 21.4 43 21.4V21.6C43.359 21.6 43.65 21.891 43.65 22.25H43.85ZM43.85 22.75V22.25H43.65V22.75H43.85ZM44.25 22.65H43.75V22.85H44.25V22.65ZM44.15 22.25V22.75H44.35V22.25H44.15ZM43 21.1C43.6351 21.1 44.15 21.6149 44.15 22.25H44.35C44.35 21.5044 43.7456 20.9 43 20.9V21.1ZM43.1 21.5V21H42.9V21.5H43.1ZM16.15 21.25V22.75H16.35V21.25H16.15ZM15.75 21.35H16.25V21.15H15.75V21.35ZM15.85 22.75V21.25H15.65V22.75H15.85ZM16.25 22.65H15.75V22.85H16.25V22.65ZM16.15 24.25V25.75H16.35V24.25H16.15ZM15.75 24.35H16.25V24.15H15.75V24.35ZM15.85 25.75V24.25H15.65V25.75H15.85ZM16.25 25.65H15.75V25.85H16.25V25.65ZM43.75 24.35H44.25V24.15H43.75V24.35ZM43.85 25.75V24.25H43.65V25.75H43.85ZM44.25 25.65H43.75V25.85H44.25V25.65ZM44.15 24.25V25.75H44.35V24.25H44.15ZM16.15 27.25V28.75H16.35V27.25H16.15ZM15.75 27.35H16.25V27.15H15.75V27.35ZM15.85 28.75V27.25H15.65V28.75H15.85ZM16.25 28.65H15.75V28.85H16.25V28.65ZM16.15 30.25V31.75H16.35V30.25H16.15ZM15.75 30.35H16.25V30.15H15.75V30.35ZM15.85 31.75V30.25H15.65V31.75H15.85ZM16.25 31.65H15.75V31.85H16.25V31.65ZM16.15 32.75V34.25H16.35V32.75H16.15ZM15.75 32.85H16.25V32.65H15.75V32.85ZM15.85 34.25V32.75H15.65V34.25H15.85ZM16.25 34.15H15.75V34.35H16.25V34.15ZM27.5 42.9H26V43.1H27.5V42.9ZM27.4 42.5V43H27.6V42.5H27.4ZM26 42.6H27.5V42.4H26V42.6ZM26.1 43V42.5H25.9V43H26.1ZM30 42.9H28.5V43.1H30V42.9ZM29.9 42.5V43H30.1V42.5H29.9ZM28.5 42.6H30V42.4H28.5V42.6ZM28.6 43V42.5H28.4V43H28.6Z" fill="white"/>
</svg>
