<svg width="61" height="61" viewBox="0 0 61 61" fill="none" xmlns="http://www.w3.org/2000/svg">
<circle cx="30.5" cy="30.5" r="30.5" fill="#499647"/>
<path fill-rule="evenodd" clip-rule="evenodd" d="M13 19.7985H14.1368C14.4681 19.7985 14.7368 20.0672 14.7368 20.3985V21.0011V26.343V29.0139V31.6849V34.89V37.0267V40.2319V43.9712H15.5368V40.6319H18.3419H21.6812V42.437C21.6812 43.2102 22.308 43.837 23.0812 43.837H24.8205C25.5937 43.837 26.2205 43.2102 26.2205 42.437V40.6319H26.8889H27.5573V42.437C27.5573 43.2102 28.1841 43.837 28.9573 43.837H37.1068C37.88 43.837 38.5068 43.2102 38.5068 42.437V40.6319H47.2564C48.0296 40.6319 48.6564 40.0051 48.6564 39.2319V22.0011C48.6564 21.2279 48.0296 20.6011 47.2564 20.6011H26.8889H15.5368V20.3985C15.5368 19.6253 14.91 18.9985 14.1368 18.9985H13V19.7985ZM17.9419 39.8319H15.5368V37.4267H17.3419C17.6733 37.4267 17.9419 37.6954 17.9419 38.0267V39.8319ZM17.3419 36.6267H15.5368V35.29H17.3419C18.1151 35.29 18.7419 34.6632 18.7419 33.89V32.6849C18.7419 31.9117 18.1151 31.2849 17.3419 31.2849H15.5368V29.4139H17.3419C18.1151 29.4139 18.7419 28.7871 18.7419 28.0139V27.343C18.7419 26.5698 18.1151 25.943 17.3419 25.943H15.5368V21.4011H26.4889V39.8319H25.8205H22.0812H18.7419V38.0267C18.7419 37.2535 18.1151 36.6267 17.3419 36.6267ZM17.3419 34.49H15.5368V32.0849H17.3419C17.6733 32.0849 17.9419 32.3535 17.9419 32.6849V33.89C17.9419 34.2214 17.6733 34.49 17.3419 34.49ZM17.3419 28.6139H15.5368V26.743H17.3419C17.6733 26.743 17.9419 27.0116 17.9419 27.343V28.0139C17.9419 28.3453 17.6733 28.6139 17.3419 28.6139ZM27.2889 39.8319V21.4011H47.2564C47.5878 21.4011 47.8564 21.6697 47.8564 22.0011V39.2319C47.8564 39.5632 47.5878 39.8319 47.2564 39.8319H38.1068H27.9573H27.2889ZM22.4812 42.437V40.6319H25.4205V42.437C25.4205 42.7684 25.1519 43.037 24.8205 43.037H23.0812C22.7498 43.037 22.4812 42.7684 22.4812 42.437ZM28.3573 42.437V40.6319H37.7068V42.437C37.7068 42.7684 37.4382 43.037 37.1068 43.037H28.9573C28.6259 43.037 28.3573 42.7684 28.3573 42.437ZM21.297 24.7404V26.343H21.797V24.7404H21.297ZM39.7094 36.7609C41.2716 36.7609 42.6847 36.1224 43.7019 35.0922L41.8057 33.5752C41.2438 34.0616 40.5109 34.3558 39.7094 34.3558C39.0312 34.3558 38.4022 34.1451 37.8842 33.7857L35.9606 35.3246C36.9542 36.2176 38.2683 36.7609 39.7094 36.7609ZM37.4887 33.4618C36.8819 32.8786 36.5043 32.0587 36.5043 31.1507C36.5043 30.2426 36.8819 29.4227 37.4887 28.8396L35.6014 27.3297C34.6693 28.3314 34.0991 29.6745 34.0991 31.1507C34.0991 32.6269 34.6693 33.9699 35.6014 34.9716L37.4887 33.4618ZM37.8842 28.5157L35.9606 26.9767C36.9542 26.0838 38.2683 25.5404 39.7094 25.5404C41.2716 25.5404 42.6847 26.1789 43.7019 27.2092L41.8057 28.7261C41.2438 28.2398 40.5109 27.9455 39.7094 27.9455C39.0312 27.9455 38.4022 28.1562 37.8842 28.5157ZM44.0376 27.5809L42.1591 29.0837C42.6304 29.6418 42.9145 30.363 42.9145 31.1507C42.9145 31.9383 42.6304 32.6596 42.1591 33.2176L44.0376 34.7204C44.8385 33.7505 45.3197 32.5068 45.3197 31.1507C45.3197 29.7946 44.8385 28.5509 44.0376 27.5809ZM39.7094 37.5609C41.5244 37.5609 43.1633 36.8066 44.3296 35.5943L44.3609 35.6194L44.6733 35.229L44.6624 35.2203C45.573 34.1134 46.1197 32.6959 46.1197 31.1507C46.1197 29.6055 45.573 28.188 44.6624 27.0811L44.6733 27.0724L44.3609 26.682L44.3296 26.7071C43.1633 25.4948 41.5244 24.7404 39.7094 24.7404C36.1691 24.7404 33.2992 27.6104 33.2992 31.1507C33.2992 34.691 36.1691 37.5609 39.7094 37.5609ZM42.1145 31.1507C42.1145 32.479 41.0377 33.5558 39.7094 33.5558C38.3811 33.5558 37.3043 32.479 37.3043 31.1507C37.3043 29.8224 38.3811 28.7455 39.7094 28.7455C41.0377 28.7455 42.1145 29.8224 42.1145 31.1507ZM29.3098 35.9584V26.8772H29.8098V35.9584H29.3098ZM21.297 29.5481V27.9455H21.797V29.5481H21.297ZM21.297 31.1507V32.7532H21.797V31.1507H21.297ZM21.297 35.9584V34.3558H21.797V35.9584H21.297ZM23.4338 24.7404V26.343H23.9338V24.7404H23.4338ZM23.4338 29.5481V27.9455H23.9338V29.5481H23.4338ZM23.4338 31.1507V32.7532H23.9338V31.1507H23.4338ZM23.4338 35.9584V34.3558H23.9338V35.9584H23.4338Z" fill="white"/>
</svg>
