<svg width="61" height="61" viewBox="0 0 61 61" fill="none" xmlns="http://www.w3.org/2000/svg">
<circle cx="30.5" cy="30.5" r="30.5" fill="#499647"/>
<path fill-rule="evenodd" clip-rule="evenodd" d="M43.7818 42.2082C46.6112 38.9816 48.1156 34.8044 47.9931 30.5147C47.8706 26.225 46.1302 22.1404 43.1213 19.0806C40.1124 16.0207 36.0576 14.212 31.7706 14.0175C27.4836 13.823 23.2816 15.257 20.008 18.0318L19.3614 17.2689C22.8276 14.3309 27.2768 12.8125 31.8159 13.0185C36.3551 13.2245 40.6484 15.1396 43.8343 18.3794C47.0202 21.6193 48.8629 25.9442 48.9927 30.4861C49.1224 35.0281 47.5295 39.4512 44.5337 42.8675C41.5379 46.2839 37.3609 48.4409 32.8409 48.9056C28.3208 49.3703 23.7923 48.1084 20.164 45.373C16.5358 42.6376 14.0763 38.6312 13.2792 34.1578C12.5506 30.0695 13.2598 25.8677 15.2652 22.2583L11.9944 22.9667C11.7245 23.0252 11.4584 22.8538 11.3999 22.5839C11.3415 22.314 11.5129 22.0479 11.7827 21.9894L16.1808 21.0368C16.4506 20.9784 16.7168 21.1498 16.7753 21.4197L17.7278 25.8177C17.7863 26.0876 17.6149 26.3537 17.345 26.4122C17.0751 26.4707 16.809 26.2993 16.7505 26.0294L16.0673 22.875C14.2285 26.2543 13.5844 30.1706 14.2636 33.9824C15.0165 38.2073 17.3394 41.9911 20.766 44.5745C24.1927 47.1579 28.4697 48.3498 32.7386 47.9109C37.0075 47.472 40.9525 45.4348 43.7818 42.2082Z" fill="white"/>
<path d="M37 25V37M33.2519 31.8321L25.5547 36.9635C24.8901 37.4066 24 36.9302 24 36.1315V25.8685C24 25.0698 24.8901 24.5934 25.5547 25.0365L33.2519 30.1679C33.8457 30.5638 33.8457 31.4362 33.2519 31.8321Z" stroke="white" stroke-linecap="round"/>
</svg>
