<svg width="61" height="61" viewBox="0 0 61 61" fill="none" xmlns="http://www.w3.org/2000/svg">
<circle cx="30.5" cy="30.5" r="30.5" fill="#499647"/>
<path d="M28.4671 22.3901H34.2877C34.5529 22.3901 34.8072 22.4955 34.9948 22.683L39.4561 27.1444C39.6437 27.3319 39.749 27.5863 39.749 27.8515V34.1485C39.749 34.4137 39.6437 34.6681 39.4561 34.8556L34.9948 39.317C34.8072 39.5045 34.5529 39.6099 34.2877 39.6099H28.2709C28.0156 39.6099 27.7699 39.5122 27.5843 39.3369L22.8427 34.8587C22.6427 34.6698 22.5293 34.4068 22.5293 34.1317V27.8339C22.5293 27.5791 22.6265 27.334 22.8011 27.1485L27.2796 22.3901" stroke="white" stroke-width="0.8"/>
<path d="M37.374 25.0623L39.7492 22.6871M39.7492 22.6871L39.6268 21.9532C39.5311 21.3787 39.9269 20.838 40.5035 20.7556L40.5652 20.7468C41.0983 20.6706 41.5922 21.0411 41.6684 21.5742V21.5742C41.7523 22.1616 41.2965 22.6871 40.7031 22.6871H39.7492Z" stroke="white" stroke-width="0.8"/>
<path d="M37.374 36.9377L39.7492 39.3129M39.7492 39.3129L39.6268 40.0468C39.5311 40.6213 39.9269 41.162 40.5035 41.2444L40.5652 41.2532C41.0983 41.3294 41.5922 40.9589 41.6684 40.4258V40.4258C41.7523 39.8384 41.2965 39.3129 40.7031 39.3129H39.7492Z" stroke="white" stroke-width="0.8"/>
<path d="M24.6074 25.0623L22.2323 22.6871M22.2323 22.6871L22.3546 21.9532C22.4504 21.3787 22.0545 20.838 21.478 20.7556L21.4162 20.7468C20.8831 20.6706 20.3892 21.0411 20.313 21.5742V21.5742C20.2291 22.1616 20.6849 22.6871 21.2783 22.6871H22.2323Z" stroke="white" stroke-width="0.8"/>
<path d="M31.0183 22.3904L31.0178 18.7982M31.0178 18.7982L31.6214 18.3616C32.1454 17.9825 32.2071 17.2247 31.7517 16.7654V16.7654C31.3456 16.3557 30.6851 16.3488 30.2709 16.7503V16.7503C29.7951 17.2115 29.8586 17.9924 30.4028 18.3706L31.0178 18.7982Z" stroke="white" stroke-width="0.8"/>
<path d="M31.0183 39.6096L31.0178 43.2018M31.0178 43.2018L31.6214 43.6384C32.1454 44.0175 32.2071 44.7753 31.7517 45.2346V45.2346C31.3456 45.6443 30.6851 45.6512 30.2709 45.2497V45.2497C29.7951 44.7885 29.8586 44.0076 30.4028 43.6294L31.0178 43.2018Z" stroke="white" stroke-width="0.8"/>
<path d="M22.3904 30.9421L18.7982 30.9417M18.7982 30.9417L18.3616 31.5452C17.9825 32.0693 17.2247 32.1309 16.7654 31.6755V31.6755C16.3557 31.2694 16.3488 30.6089 16.7503 30.1948V30.1948C17.2115 29.7189 17.9924 29.7825 18.3706 30.3266L18.7982 30.9417Z" stroke="white" stroke-width="0.8"/>
<path d="M39.7488 30.9421L43.3409 30.9417M43.3409 30.9417L43.7775 31.5452C44.1567 32.0693 44.9144 32.1309 45.3738 31.6755V31.6755C45.7834 31.2694 45.7903 30.6089 45.3889 30.1948V30.1948C44.9276 29.7189 44.1468 29.7825 43.7685 30.3266L43.3409 30.9417Z" stroke="white" stroke-width="0.8"/>
<path d="M32.03 36.6408H32.2336C33.3154 36.6408 34.2386 35.8587 34.4165 34.7916L34.4795 34.4135C34.6102 33.6296 34.1882 32.8579 33.4577 32.5448L33.4258 32.5311C32.9238 32.316 32.5598 31.8674 32.4527 31.3318V31.3318C32.3718 30.9272 32.4446 30.5069 32.6569 30.1531L32.8458 29.8381C33.0891 29.4327 33.2176 28.9687 33.2176 28.4959V27.7992C33.2176 27.1925 32.9525 26.6161 32.4919 26.2213V26.2213C31.7136 25.5542 30.5651 25.5542 29.7869 26.2213V26.2213C29.3262 26.6161 29.0611 27.1925 29.0611 27.7992V28.4959C29.0611 28.9687 29.1896 29.4327 29.4329 29.8381L29.6219 30.1531C29.8342 30.5069 29.907 30.9272 29.826 31.3318V31.3318C29.7189 31.8674 29.355 32.316 28.8529 32.5311L28.7781 32.5632C28.0606 32.8707 27.6204 33.6028 27.6852 34.3807L27.7071 34.643C27.8012 35.7722 28.7451 36.6408 29.8783 36.6408H30.5456" stroke="white" stroke-width="0.8"/>
<path d="M24.6074 36.6409L22.2323 39.016M22.2323 39.016L22.3546 39.7499C22.4504 40.3244 22.0545 40.8652 21.478 40.9475L21.4162 40.9563C20.8831 41.0325 20.3892 40.6621 20.313 40.129V40.129C20.2291 39.5415 20.6849 39.016 21.2783 39.016H22.2323Z" stroke="white" stroke-width="0.8"/>
</svg>
