<svg width="61" height="61" viewBox="0 0 61 61" fill="none" xmlns="http://www.w3.org/2000/svg">
<circle cx="30.5" cy="30.5" r="30.5" fill="#499647"/>
<path d="M41.3841 20.2344C41.3841 21.7071 42.578 22.901 44.0508 22.901C45.5235 22.901 46.7174 21.7071 46.7174 20.2344C46.7174 18.7616 45.5235 17.5677 44.0508 17.5677C42.578 17.5677 41.3841 18.7616 41.3841 20.2344ZM47.4542 29.2505L46.9556 29.2873L47.4542 29.2505ZM43.6522 20.5363C45.5744 23.0736 46.7216 26.1127 46.9556 29.2873L47.9529 29.2138C47.7048 25.8468 46.488 22.6235 44.4493 19.9324L43.6522 20.5363ZM46.9556 29.2873C47.1895 32.4618 46.5002 35.6363 44.9708 38.4279L45.8478 38.9084C47.4699 35.9476 48.201 32.5807 47.9529 29.2138L46.9556 29.2873ZM44.9708 38.4279C43.4413 41.2196 41.137 43.5092 38.3357 45.0208L38.8105 45.9009C41.7817 44.2977 44.2256 41.8692 45.8478 38.9084L44.9708 38.4279ZM38.3357 45.0208C35.5343 46.5324 32.3555 47.2015 29.1825 46.9472L29.1026 47.9441C32.4679 48.2137 35.8394 47.5041 38.8105 45.9009L38.3357 45.0208Z" fill="white"/>
<path d="M17.8075 44.2289C17.8075 45.7016 19.0014 46.8955 20.4742 46.8955C21.9469 46.8955 23.1408 45.7016 23.1408 44.2289C23.1408 42.7561 21.9469 41.5622 20.4742 41.5622C19.0014 41.5622 17.8075 42.7561 17.8075 44.2289ZM13.9221 34.2647L14.4097 34.154L13.9221 34.2647ZM15.5279 22.448L15.9682 22.6849V22.6849L15.5279 22.448ZM24.5012 14.5936L24.3248 14.1257L24.5012 14.5936ZM20.769 43.8251C17.551 41.475 15.2922 38.0398 14.4097 34.154L13.4345 34.3755C14.3705 38.4968 16.7662 42.1402 20.1793 44.6327L20.769 43.8251ZM14.4097 34.154C13.5273 30.2682 14.0809 26.1943 15.9682 22.6849L15.0875 22.2112C13.0858 25.9333 12.4986 30.2541 13.4345 34.3755L14.4097 34.154ZM15.9682 22.6849C17.8556 19.1754 20.9492 16.4675 24.6776 15.0614L24.3248 14.1257C20.3704 15.6171 17.0893 18.4891 15.0875 22.2112L15.9682 22.6849ZM24.6776 15.0614C28.4061 13.6553 32.5174 13.646 36.2522 15.0351L36.6008 14.0978C32.6397 12.6245 28.2792 12.6344 24.3248 14.1257L24.6776 15.0614Z" fill="white"/>
<path d="M27.265 21.5919L26.0416 22.0812C25.7359 22.2035 25.3895 22.1675 25.1155 21.9848L24.8311 21.7952C24.4344 21.5308 23.9063 21.5831 23.5692 21.9201L21.9201 23.5692C21.5831 23.9063 21.5308 24.4344 21.7952 24.8311L21.9547 25.0703C22.1537 25.3689 22.1776 25.7513 22.0171 26.0722L21.1487 27.8089C20.9793 28.1477 20.6331 28.3617 20.2543 28.3617H20C19.4477 28.3617 19 28.8094 19 29.3617V31.1064C19 31.6587 19.4477 32.1064 20 32.1064H20.681C21.0811 32.1064 21.4426 32.3448 21.6002 32.7125L22.4351 34.6606C22.6168 35.0846 22.4849 35.5778 22.1159 35.8545L21.7947 36.0954C21.3079 36.4606 21.2573 37.1722 21.6876 37.6025L23.0676 38.9825C23.4195 39.3344 23.9766 39.374 24.3747 39.0754L25.134 38.5059C25.3965 38.309 25.739 38.2534 26.0503 38.3572L27.6779 38.8997C28.0863 39.0359 28.3617 39.418 28.3617 39.8484V40C28.3617 40.5523 28.8094 41 29.3617 41H31.1064C31.6587 41 32.1064 40.5523 32.1064 40V39.8484C32.1064 39.418 32.3818 39.0359 32.7902 38.8997L34.3286 38.3869C34.6879 38.2672 35.0841 38.3607 35.3519 38.6285L35.612 38.8886C36.0026 39.2792 36.6357 39.2792 37.0263 38.8886L38.4206 37.4943C38.8111 37.1038 38.8111 36.4707 38.4206 36.0801L38.2021 35.8617C37.913 35.5726 37.829 35.1365 37.9901 34.7607L38.8679 32.7125C39.0255 32.3448 39.387 32.1064 39.7871 32.1064H40C40.5523 32.1064 41 31.6587 41 31.1064V29.3617C41 28.8094 40.5523 28.3617 40 28.3617H39.8484C39.418 28.3617 39.0359 28.0863 38.8997 27.6779L38.3869 26.1395C38.2672 25.7802 38.3607 25.384 38.6285 25.1162L38.8886 24.856C39.2792 24.4655 39.2792 23.8324 38.8886 23.4418L37.0263 21.5794C36.6357 21.1889 36.0026 21.1889 35.612 21.5794L35.3812 21.8103C35.0983 22.0932 34.6741 22.1803 34.3027 22.0317L33.2031 21.5919C32.8234 21.44 32.5745 21.0723 32.5745 20.6634V20C32.5745 19.4477 32.1268 19 31.5745 19H28.8936C28.3413 19 27.8936 19.4477 27.8936 20V20.6634C27.8936 21.0723 27.6447 21.44 27.265 21.5919Z" stroke="white"/>
<circle cx="30" cy="30" r="4.5" stroke="white"/>
</svg>
