<svg width="61" height="61" viewBox="0 0 61 61" fill="none" xmlns="http://www.w3.org/2000/svg">
<circle cx="30.5" cy="30.5" r="30.5" fill="#499647"/>
<path d="M30.2067 48.482L30.2294 47.9825L30.2067 48.482ZM18.5222 43.27L18.1657 43.6206L18.5222 43.27ZM13.5071 31.4996L13.0073 31.5139L13.5071 31.4996ZM45.2247 40.5803C45.2832 40.8502 45.5494 41.0216 45.8192 40.9632L50.2173 40.0106C50.4871 39.9521 50.6585 39.686 50.6001 39.4161C50.5416 39.1462 50.2755 38.9748 50.0056 39.0333L46.0962 39.88L45.2495 35.9706C45.191 35.7007 44.9249 35.5293 44.655 35.5878C44.3851 35.6463 44.2137 35.9124 44.2722 36.1823L45.2247 40.5803ZM41.992 43.9683C38.7184 46.743 34.5164 48.177 30.2294 47.9825L30.1841 48.9815C34.7232 49.1875 39.1724 47.6691 42.6386 44.7311L41.992 43.9683ZM30.2294 47.9825C25.9424 47.788 21.8876 45.9793 18.8787 42.9194L18.1657 43.6206C21.3516 46.8604 25.6449 48.7755 30.1841 48.9815L30.2294 47.9825ZM18.8787 42.9194C15.8698 39.8596 14.1294 35.775 14.0069 31.4853L13.0073 31.5139C13.1371 36.0558 14.9798 40.3807 18.1657 43.6206L18.8787 42.9194ZM14.0069 31.4853C13.8844 27.1956 15.3888 23.0184 18.2182 19.7918L17.4663 19.1325C14.4705 22.5488 12.8776 26.9719 13.0073 31.5139L14.0069 31.4853ZM18.2182 19.7918C21.0475 16.5652 24.9925 14.528 29.2614 14.0891L29.1591 13.0944C24.6391 13.5591 20.4621 15.7161 17.4663 19.1325L18.2182 19.7918ZM29.2614 14.0891C33.5303 13.6502 37.8073 14.8421 41.234 17.4255L41.836 16.627C38.2077 13.8916 33.6792 12.6297 29.1591 13.0944L29.2614 14.0891ZM41.234 17.4255C44.6606 20.0089 46.9835 23.7927 47.7364 28.0176L48.7208 27.8422C47.9237 23.3688 45.4642 19.3624 41.836 16.627L41.234 17.4255ZM47.7364 28.0176C48.4892 32.2425 47.6164 36.5957 45.293 40.2038L46.1338 40.7452C48.5938 36.9249 49.518 32.3155 48.7208 27.8422L47.7364 28.0176Z" fill="white"/>
<path fill-rule="evenodd" clip-rule="evenodd" d="M28.537 20H28.1126L28.0437 20.4188L27.5912 23.1685L26.0302 23.9592L23.2672 23.0263L22.8703 22.8923L22.6688 23.2596L20.2008 27.7596L20 28.1256L20.3244 28.3885L22.6072 30.2384V31.8264L20.7404 34.1901L20.5324 34.4534L20.6973 34.7457L22.6718 38.2457L22.8751 38.6061L23.2672 38.4737L26.0302 37.5408L27.5 38.2853V41V41.5H28H34H34.5V41V38.2904L35.98 37.5408L38.743 38.4737L39.1351 38.6061L39.3384 38.2457L41.3129 34.7457L41.4778 34.4534L41.2698 34.1901L39.403 31.8264V30.2384L41.6858 28.3885L42.0102 28.1256L41.8094 27.7596L39.3414 23.2596L39.1399 22.8923L38.743 23.0263L35.98 23.9592L34.419 23.1685L33.9665 20.4188L33.8976 20H33.4732H32.9796H29.0306H28.537ZM27.5 36.4293V37.1643L26.2949 36.5539L26.1077 36.4592L25.909 36.5263L23.3394 37.3939L21.7331 34.5466L23.4996 32.3099L23.6072 32.1736V32V30V29.7616L23.422 29.6115L21.2783 27.8744L23.3442 24.1077L25.909 24.9737L26.1077 25.0408L26.2949 24.9461L28.2693 23.9461L28.4956 23.8315L28.5368 23.5812L28.9615 21H29.0306H32.9796H33.0487L33.4734 23.5812L33.5146 23.8315L33.7409 23.9461L35.7154 24.9461L35.9025 25.0408L36.1012 24.9737L38.666 24.1077L40.7319 27.8744L38.5882 29.6115L38.403 29.7616V30V32V32.1736L38.5106 32.3099L40.2771 34.5466L38.6708 37.3939L36.1012 36.5263L35.9025 36.4592L35.7154 36.5539L34.5 37.1695V36.4293C34.5954 36.3608 34.689 36.2893 34.7807 36.2149C35.8586 35.3402 36.5998 34.1189 36.8782 32.7589C37.1565 31.399 36.9547 29.9846 36.3071 28.7568C35.8375 27.8664 35.1545 27.1141 34.3267 26.5626C34.0129 26.3535 33.6783 26.1733 33.3267 26.0254L33.3267 27.1302V30.7656L31 31.5559L28.7345 30.7656L28.7346 27.0986L28.7346 26C28.3835 26.1432 28.0489 26.3184 27.7346 26.5223C26.898 27.065 26.2047 27.8112 25.7242 28.6983C25.0631 29.9189 24.8456 31.331 25.1089 32.6939C25.3722 34.0569 26.0999 35.2863 27.1681 36.1729C27.276 36.2624 27.3867 36.3479 27.5 36.4293ZM28.5 37.0103V40.5H33.5V37.0103C32.7108 37.372 31.847 37.5607 30.9669 37.5558C30.1092 37.5511 29.2689 37.3627 28.5 37.0103ZM34.3267 30.7656V27.8232C34.7695 28.2178 35.1418 28.6909 35.4226 29.2233C35.9622 30.2465 36.1304 31.4251 35.8985 32.5584C35.6665 33.6917 35.0488 34.7095 34.1506 35.4384C33.2523 36.1673 32.1292 36.5622 30.9724 36.5558C29.8156 36.5494 28.6969 36.1422 27.8067 35.4034C26.9166 34.6646 26.3102 33.64 26.0908 32.5043C25.8714 31.3685 26.0526 30.1918 26.6035 29.1746C26.8944 28.6376 27.2788 28.1626 27.7346 27.7695L27.7345 30.7656L27.7345 31.4758L28.4052 31.7098L30.6706 32.5001L30.9957 32.6135L31.3216 32.5028L33.6483 31.7124L34.3267 31.482V30.7656Z" fill="white"/>
</svg>
