<svg width="61" height="61" viewBox="0 0 61 61" fill="none" xmlns="http://www.w3.org/2000/svg">
<circle cx="30.5" cy="30.5" r="30.5" fill="#499647"/>
<path d="M31.7933 13.518L31.7706 14.0175L31.7933 13.518ZM43.4778 18.73L43.8343 18.3794L43.4778 18.73ZM48.4929 30.5004L48.9927 30.4861L48.4929 30.5004ZM16.7753 21.4197C16.7168 21.1498 16.4506 20.9784 16.1808 21.0368L11.7827 21.9894C11.5129 22.0479 11.3415 22.314 11.3999 22.5839C11.4584 22.8538 11.7245 23.0252 11.9944 22.9667L15.9038 22.12L16.7505 26.0294C16.809 26.2993 17.0751 26.4707 17.345 26.4122C17.6149 26.3537 17.7863 26.0876 17.7278 25.8177L16.7753 21.4197ZM20.008 18.0317C23.2816 15.257 27.4836 13.823 31.7706 14.0175L31.8159 13.0185C27.2768 12.8125 22.8276 14.3309 19.3614 17.2689L20.008 18.0317ZM31.7706 14.0175C36.0576 14.212 40.1124 16.0207 43.1213 19.0806L43.8343 18.3794C40.6484 15.1396 36.3551 13.2245 31.8159 13.0185L31.7706 14.0175ZM43.1213 19.0806C46.1302 22.1404 47.8706 26.225 47.9931 30.5147L48.9927 30.4861C48.8629 25.9442 47.0202 21.6193 43.8343 18.3794L43.1213 19.0806ZM47.9931 30.5147C48.1156 34.8044 46.6112 38.9816 43.7818 42.2082L44.5337 42.8675C47.5295 39.4512 49.1224 35.0281 48.9927 30.4861L47.9931 30.5147ZM43.7818 42.2082C40.9525 45.4348 37.0075 47.472 32.7386 47.9109L32.8409 48.9056C37.3609 48.4409 41.5379 46.2839 44.5337 42.8675L43.7818 42.2082ZM32.7386 47.9109C28.4697 48.3498 24.1927 47.1579 20.766 44.5745L20.164 45.373C23.7923 48.1084 28.3208 49.3703 32.8409 48.9056L32.7386 47.9109ZM20.766 44.5745C17.3394 41.9911 15.0165 38.2073 14.2636 33.9824L13.2792 34.1578C14.0763 38.6312 16.5358 42.6376 20.164 45.373L20.766 44.5745ZM14.2636 33.9824C13.5108 29.7575 14.3836 25.4043 16.707 21.7962L15.8662 21.2548C13.4062 25.0751 12.482 29.6845 13.2792 34.1578L14.2636 33.9824Z" fill="white"/>
<path fill-rule="evenodd" clip-rule="evenodd" d="M25.2817 21.7371C25.4645 21.6152 25.6793 21.5502 25.899 21.5502H31.2822C31.5019 21.5502 31.7167 21.6152 31.8995 21.7371C32.2091 21.9435 32.3951 22.291 32.3951 22.663V26.6717L32.1596 26.8287C32.0755 26.8848 31.9973 26.9478 31.9258 27.0167L31.6121 26.6402L29.9703 24.6701C29.8642 24.5428 29.6751 24.5256 29.5478 24.6317C29.4205 24.7377 29.4033 24.9269 29.5094 25.0542L30.7411 26.5323H26.7684L28.0002 25.0542C28.1062 24.9269 28.089 24.7377 27.9618 24.6317C27.8345 24.5256 27.6453 24.5428 27.5392 24.6701L25.9747 26.5475C25.5325 26.6369 25.2515 27.106 25.4137 27.552L26.2633 29.8885C26.4501 30.4022 26.9384 30.7442 27.485 30.7442H29.7785C30.2709 30.7442 30.7211 30.466 30.9413 30.0256L31.3216 29.265C31.3957 29.1168 31.3356 28.9366 31.1874 28.8625C31.0392 28.7884 30.859 28.8484 30.7849 28.9966L30.4046 29.7573C30.2861 29.9944 30.0437 30.1442 29.7785 30.1442H27.485C27.1907 30.1442 26.9278 29.9601 26.8272 29.6834L25.9776 27.3469C25.9396 27.2426 26.0169 27.1323 26.1279 27.1323H31.3816H31.8166C31.5574 27.4339 31.41 27.8219 31.41 28.2294C31.41 28.6759 31.5874 29.1041 31.9031 29.4198L32.0866 29.6033L32.3145 30.971C32.3517 31.194 32.2789 31.4212 32.119 31.5811L31.4624 32.2377C31.2186 32.4815 31.0816 32.8122 31.0816 33.1569V35.2014C31.0816 35.6084 31.2733 35.9917 31.5989 36.2359L31.9684 36.5131C32.1109 36.6199 32.1257 36.8281 31.9998 36.954C31.9449 37.0089 31.8705 37.0397 31.7929 37.0397H28.7548H25.899C25.6793 37.0397 25.4645 36.9747 25.2817 36.8528C24.9721 36.6464 24.7861 36.299 24.7861 35.9269V34.7129V33.0711V31.7577V29.7875V27.8174V22.663C24.7861 22.291 24.9721 21.9435 25.2817 21.7371ZM32.4924 27.3279L32.6253 27.2393L34.2715 29.4342C34.3421 29.5283 34.3878 29.6387 34.4045 29.7552L34.6845 31.7152C34.695 31.7886 34.7117 31.861 34.7345 31.9316L37.897 41.7064C38.0432 42.1585 37.7061 42.6218 37.231 42.6218H31.9004C31.5582 42.6218 31.2662 42.3744 31.2099 42.0369L30.7452 39.2483C30.7006 38.9811 30.5737 38.7344 30.3821 38.5428L29.479 37.6397H31.7929C32.0296 37.6397 32.2567 37.5457 32.4241 37.3783C32.8081 36.9942 32.763 36.359 32.3284 36.0331L31.9589 35.7559C31.7844 35.625 31.6816 35.4195 31.6816 35.2014V33.1569C31.6816 32.9713 31.7554 32.7932 31.8867 32.662L32.5433 32.0053C32.8402 31.7085 32.9754 31.2865 32.9064 30.8724L32.665 29.4238C32.6532 29.353 32.6196 29.2877 32.5688 29.237L32.3273 28.9955C32.1241 28.7923 32.01 28.5167 32.01 28.2294C32.01 27.8671 32.191 27.5289 32.4924 27.3279ZM25.899 37.6397H28.6305L29.9578 38.9671C30.061 39.0702 30.1293 39.2031 30.1533 39.347L30.6181 42.1356C30.7226 42.7624 31.2649 43.2218 31.9004 43.2218H37.231C38.1134 43.2218 38.7395 42.3613 38.4678 41.5217L35.3054 31.7469C35.2931 31.7089 35.2841 31.6699 35.2784 31.6304L34.9984 29.6703C34.9675 29.454 34.8826 29.249 34.7515 29.0742L32.9951 26.7323V22.663C32.9951 22.0903 32.7088 21.5555 32.2323 21.2379C31.951 21.0503 31.6204 20.9502 31.2822 20.9502H25.899C25.5608 20.9502 25.2302 21.0503 24.9488 21.2379C24.4723 21.5555 24.1861 22.0904 24.1861 22.663V27.6568L23.6078 28.0423C23.3537 28.2118 23.201 28.497 23.201 28.8024C23.201 29.1079 23.3537 29.3931 23.6078 29.5625L23.8093 29.6969L23.7218 29.7261C23.4442 29.8186 23.2148 30.0176 23.0839 30.2792C22.9287 30.5898 22.9287 30.9554 23.0839 31.2659C23.1535 31.405 23.2509 31.5264 23.3686 31.6235C23.236 31.7137 23.1257 31.8375 23.0512 31.9865C22.9165 32.2559 22.9165 32.5729 23.0512 32.8422L23.1656 33.0711L23.0839 33.2345C22.9287 33.545 22.9287 33.9106 23.0839 34.2211C23.2148 34.4828 23.4442 34.6818 23.7218 34.7743L24.1861 34.9291V35.9269C24.1861 36.4996 24.4723 37.0344 24.9488 37.3521C25.2302 37.5396 25.5608 37.6397 25.899 37.6397ZM23.9407 28.5416L24.1861 28.3779V29.227L23.9407 29.0633C23.8534 29.0052 23.801 28.9073 23.801 28.8024C23.801 28.6976 23.8534 28.5997 23.9407 28.5416ZM23.9115 30.2953L24.1861 30.2037V31.3414L23.9115 31.2499C23.7849 31.2077 23.6803 31.1169 23.6206 30.9976C23.5498 30.8559 23.5498 30.6892 23.6206 30.5476C23.6803 30.4282 23.7849 30.3375 23.9115 30.2953ZM23.9069 32.0577H24.1861V32.7711H23.6864L23.5879 32.5739C23.5376 32.4735 23.5376 32.3553 23.5879 32.2548C23.6483 32.134 23.7718 32.0577 23.9069 32.0577ZM23.6864 33.3711H24.1861V34.2967L23.9115 34.2051C23.7849 34.1629 23.6803 34.0722 23.6206 33.9528C23.5498 33.8112 23.5498 33.6444 23.6206 33.5028L23.6864 33.3711ZM27.0632 27.7059C27.0016 27.5521 26.827 27.4773 26.6732 27.5388C26.5194 27.6004 26.4445 27.7749 26.5061 27.9288L27.1628 29.5706C27.2243 29.7244 27.3989 29.7992 27.5528 29.7377C27.7066 29.6762 27.7814 29.5016 27.7199 29.3477L27.0632 27.7059ZM31.0035 27.9288C31.065 27.7749 30.9902 27.6004 30.8363 27.5388C30.6825 27.4773 30.5079 27.5521 30.4464 27.7059L29.7897 29.3477C29.7281 29.5016 29.803 29.6762 29.9568 29.7377C30.1106 29.7992 30.2852 29.7244 30.3467 29.5706L31.0035 27.9288ZM28.9234 27.8174C28.9234 27.6517 28.7891 27.5174 28.6234 27.5174C28.4577 27.5174 28.3234 27.6517 28.3234 27.8174V29.4592C28.3234 29.6248 28.4577 29.7592 28.6234 29.7592C28.7891 29.7592 28.9234 29.6248 28.9234 29.4592V27.8174Z" fill="white"/>
</svg>
