<svg width="61" height="61" viewBox="0 0 61 61" fill="none" xmlns="http://www.w3.org/2000/svg">
<circle cx="30.5" cy="30.5" r="30.5" fill="#499647"/>
<path d="M31.7933 13.518L31.7706 14.0175L31.7933 13.518ZM43.4778 18.73L43.8343 18.3794L43.4778 18.73ZM48.4929 30.5004L48.9927 30.4861L48.4929 30.5004ZM16.7753 21.4197C16.7168 21.1498 16.4506 20.9784 16.1808 21.0368L11.7827 21.9894C11.5129 22.0479 11.3415 22.314 11.3999 22.5839C11.4584 22.8538 11.7245 23.0252 11.9944 22.9667L15.9038 22.12L16.7505 26.0294C16.809 26.2993 17.0751 26.4707 17.345 26.4122C17.6149 26.3537 17.7863 26.0876 17.7278 25.8177L16.7753 21.4197ZM20.008 18.0317C23.2816 15.257 27.4836 13.823 31.7706 14.0175L31.8159 13.0185C27.2768 12.8125 22.8276 14.3309 19.3614 17.2689L20.008 18.0317ZM31.7706 14.0175C36.0576 14.212 40.1124 16.0207 43.1213 19.0806L43.8343 18.3794C40.6484 15.1396 36.3551 13.2245 31.8159 13.0185L31.7706 14.0175ZM43.1213 19.0806C46.1302 22.1404 47.8706 26.225 47.9931 30.5147L48.9927 30.4861C48.8629 25.9442 47.0202 21.6193 43.8343 18.3794L43.1213 19.0806ZM47.9931 30.5147C48.1156 34.8044 46.6112 38.9816 43.7818 42.2082L44.5337 42.8675C47.5295 39.4512 49.1224 35.0281 48.9927 30.4861L47.9931 30.5147ZM43.7818 42.2082C40.9525 45.4348 37.0075 47.472 32.7386 47.9109L32.8409 48.9056C37.3609 48.4409 41.5379 46.2839 44.5337 42.8675L43.7818 42.2082ZM32.7386 47.9109C28.4697 48.3498 24.1927 47.1579 20.766 44.5745L20.164 45.373C23.7923 48.1084 28.3208 49.3703 32.8409 48.9056L32.7386 47.9109ZM20.766 44.5745C17.3394 41.9911 15.0165 38.2073 14.2636 33.9824L13.2792 34.1578C14.0763 38.6312 16.5358 42.6376 20.164 45.373L20.766 44.5745ZM14.2636 33.9824C13.5108 29.7575 14.3836 25.4043 16.707 21.7962L15.8662 21.2548C13.4062 25.0751 12.482 29.6845 13.2792 34.1578L14.2636 33.9824Z" fill="white"/>
<path fill-rule="evenodd" clip-rule="evenodd" d="M25.2814 21.7371C25.4642 21.6152 25.679 21.5502 25.8987 21.5502H31.282C31.5017 21.5502 31.7165 21.6152 31.8993 21.7371C32.2089 21.9435 32.3948 22.291 32.3948 22.663V26.6717L32.1594 26.8287C32.0752 26.8848 31.9971 26.9478 31.9256 27.0167L31.6119 26.6402L29.9701 24.6701C29.864 24.5428 29.6748 24.5256 29.5475 24.6317C29.4203 24.7377 29.4031 24.9269 29.5091 25.0542L30.7409 26.5323H26.7682L27.9999 25.0542C28.106 24.9269 28.0888 24.7377 27.9615 24.6317C27.8342 24.5256 27.6451 24.5428 27.539 24.6701L25.9745 26.5475C25.5323 26.6369 25.2512 27.106 25.4134 27.552L26.2631 29.8885C26.4499 30.4022 26.9381 30.7442 27.4848 30.7442H29.7783C30.2707 30.7442 30.7208 30.466 30.941 30.0256L31.3214 29.265C31.3955 29.1168 31.3354 28.9366 31.1872 28.8625C31.039 28.7884 30.8588 28.8484 30.7847 28.9966L30.4044 29.7573C30.2858 29.9944 30.0434 30.1442 29.7783 30.1442H27.4848C27.1904 30.1442 26.9275 29.9601 26.8269 29.6834L25.9773 27.3469C25.9394 27.2426 26.0166 27.1323 26.1277 27.1323H31.3814H31.8163C31.5572 27.4339 31.4097 27.8219 31.4097 28.2294C31.4097 28.6759 31.5871 29.1041 31.9028 29.4198L32.0864 29.6033L32.3143 30.971C32.3515 31.194 32.2787 31.4212 32.1188 31.5811L31.4622 32.2377C31.2184 32.4815 31.0814 32.8122 31.0814 33.1569V35.2014C31.0814 35.6084 31.273 35.9917 31.5987 36.2359L31.9682 36.5131C32.1107 36.6199 32.1255 36.8281 31.9995 36.954C31.9447 37.0089 31.8702 37.0397 31.7926 37.0397H28.7545H25.8987C25.679 37.0397 25.4642 36.9747 25.2814 36.8528C24.9718 36.6464 24.7859 36.299 24.7859 35.9269V34.7129V33.0711V31.7577V29.7875V27.8174V22.663C24.7859 22.291 24.9718 21.9435 25.2814 21.7371ZM32.4922 27.3279L32.6251 27.2393L34.2713 29.4342C34.3419 29.5283 34.3876 29.6387 34.4042 29.7552L34.6842 31.7152C34.6947 31.7886 34.7115 31.861 34.7343 31.9316L37.8967 41.7064C38.043 42.1585 37.7059 42.6218 37.2307 42.6218H31.9002C31.558 42.6218 31.2659 42.3744 31.2097 42.0369L30.7449 39.2483C30.7004 38.9811 30.5734 38.7344 30.3818 38.5428L29.4788 37.6397H31.7926C32.0294 37.6397 32.2564 37.5457 32.4238 37.3783C32.8079 36.9942 32.7628 36.359 32.3282 36.0331L31.9587 35.7559C31.7841 35.625 31.6814 35.4195 31.6814 35.2014V33.1569C31.6814 32.9713 31.7551 32.7932 31.8864 32.662L32.5431 32.0053C32.8399 31.7085 32.9752 31.2865 32.9061 30.8724L32.6647 29.4238C32.6529 29.353 32.6193 29.2877 32.5686 29.237L32.3271 28.9955C32.1239 28.7923 32.0098 28.5167 32.0098 28.2294C32.0098 27.8671 32.1908 27.5289 32.4922 27.3279ZM25.8987 37.6397H28.6303L29.9576 38.9671C30.0607 39.0702 30.1291 39.2031 30.1531 39.347L30.6178 42.1356C30.7223 42.7624 31.2647 43.2218 31.9002 43.2218H37.2307C38.1132 43.2218 38.7392 42.3613 38.4676 41.5217L35.3051 31.7469C35.2929 31.7089 35.2838 31.6699 35.2782 31.6304L34.9982 29.6703C34.9673 29.454 34.8824 29.249 34.7513 29.0742L32.9948 26.7323V22.663C32.9948 22.0903 32.7086 21.5555 32.2321 21.2379C31.9507 21.0503 31.6201 20.9502 31.282 20.9502H25.8987C25.5606 20.9502 25.23 21.0503 24.9486 21.2379C24.4721 21.5555 24.1859 22.0904 24.1859 22.663V27.6568L23.6076 28.0423C23.3534 28.2118 23.2008 28.497 23.2008 28.8024C23.2008 29.1079 23.3534 29.3931 23.6076 29.5625L23.8091 29.6969L23.7215 29.7261C23.444 29.8186 23.2145 30.0176 23.0837 30.2792C22.9284 30.5898 22.9284 30.9554 23.0837 31.2659C23.1532 31.405 23.2506 31.5264 23.3683 31.6235C23.2357 31.7137 23.1255 31.8375 23.051 31.9865C22.9163 32.2559 22.9163 32.5729 23.051 32.8422L23.1654 33.0711L23.0837 33.2345C22.9284 33.545 22.9284 33.9106 23.0837 34.2211C23.2145 34.4828 23.444 34.6818 23.7215 34.7743L24.1859 34.9291V35.9269C24.1859 36.4996 24.4721 37.0344 24.9486 37.3521C25.23 37.5396 25.5606 37.6397 25.8987 37.6397ZM23.9404 28.5416L24.1859 28.3779V29.227L23.9404 29.0633C23.8532 29.0052 23.8008 28.9073 23.8008 28.8024C23.8008 28.6976 23.8532 28.5997 23.9404 28.5416ZM23.9113 30.2953L24.1859 30.2037V31.3414L23.9113 31.2499C23.7847 31.2077 23.68 31.1169 23.6203 30.9976C23.5495 30.8559 23.5495 30.6892 23.6203 30.5476C23.68 30.4282 23.7847 30.3375 23.9113 30.2953ZM23.9067 32.0577H24.1859V32.7711H23.6862L23.5876 32.5739C23.5374 32.4735 23.5374 32.3553 23.5876 32.2548C23.648 32.134 23.7716 32.0577 23.9067 32.0577ZM23.6862 33.3711H24.1859V34.2967L23.9113 34.2051C23.7847 34.1629 23.68 34.0722 23.6203 33.9528C23.5495 33.8112 23.5495 33.6444 23.6203 33.5028L23.6862 33.3711ZM27.0629 27.7059C27.0014 27.5521 26.8268 27.4773 26.673 27.5388C26.5191 27.6004 26.4443 27.7749 26.5058 27.9288L27.1625 29.5706C27.2241 29.7244 27.3987 29.7992 27.5525 29.7377C27.7063 29.6762 27.7812 29.5016 27.7196 29.3477L27.0629 27.7059ZM31.0032 27.9288C31.0648 27.7749 30.9899 27.6004 30.8361 27.5388C30.6823 27.4773 30.5077 27.5521 30.4461 27.7059L29.7894 29.3477C29.7279 29.5016 29.8027 29.6762 29.9565 29.7377C30.1104 29.7992 30.285 29.7244 30.3465 29.5706L31.0032 27.9288ZM28.9232 27.8174C28.9232 27.6517 28.7889 27.5174 28.6232 27.5174C28.4575 27.5174 28.3232 27.6517 28.3232 27.8174V29.4592C28.3232 29.6248 28.4575 29.7592 28.6232 29.7592C28.7889 29.7592 28.9232 29.6248 28.9232 29.4592V27.8174Z" fill="white"/>
</svg>
