<svg width="47" height="47" viewBox="0 0 47 47" fill="none" xmlns="http://www.w3.org/2000/svg">
<circle cx="23.5" cy="23.5" r="23" stroke="#282828"/>
<path d="M23.2812 15.7798C18.7941 15.7798 15.1562 19.4177 15.1562 23.9048C15.1562 28.3919 18.7941 32.0298 23.2812 32.0298C27.7684 32.0298 31.4062 28.3919 31.4062 23.9048C31.4062 19.4177 27.7684 15.7798 23.2812 15.7798Z" stroke="#282828" stroke-miterlimit="10"/>
<path d="M23.2811 15.7798C21.0127 15.7798 18.8799 19.4177 18.8799 23.9048C18.8799 28.3919 21.0127 32.0298 23.2811 32.0298C25.5494 32.0298 27.6822 28.3919 27.6822 23.9048C27.6822 19.4177 25.5494 15.7798 23.2811 15.7798Z" stroke="#282828" stroke-miterlimit="10"/>
<path d="M17.8643 18.4878C19.358 19.5483 21.2385 20.1808 23.2811 20.1808C25.3236 20.1808 27.2041 19.5483 28.6979 18.4878M28.6979 29.3214C27.2041 28.2608 25.3236 27.6284 23.2811 27.6284C21.2385 27.6284 19.358 28.2608 17.8643 29.3214" stroke="#282828" stroke-linecap="round" stroke-linejoin="round"/>
<path d="M23.2812 15.7798V32.0298M31.4062 23.9048H15.1562" stroke="#282828" stroke-miterlimit="10"/>
</svg>
